<svg width="24" height="25" viewBox="0 0 24 25" fill="none" xmlns="http://www.w3.org/2000/svg">
<path d="M7.25998 2.5H16.73C17.38 2.5 17.96 2.52003 18.48 2.59003C21.25 2.90003 22 4.20001 22 7.76001V14.08C22 17.64 21.25 18.94 18.48 19.25C17.96 19.32 17.39 19.34 16.73 19.34H7.25998C6.60998 19.34 6.02998 19.32 5.50998 19.25C2.73998 18.94 1.98999 17.64 1.98999 14.08V7.76001C1.98999 4.20001 2.73998 2.90003 5.50998 2.59003C6.02998 2.52003 6.60998 2.5 7.25998 2.5Z" stroke="#78828E" stroke-linecap="round" stroke-linejoin="round"/>
<path d="M13.58 8.82001H17.2599" stroke="#78828E" stroke-linecap="round" stroke-linejoin="round"/>
<path d="M6.73999 14.61H6.75998H17.27" stroke="#78828E" stroke-linecap="round" stroke-linejoin="round"/>
<path d="M7 22.5H17" stroke="#78828E" stroke-linecap="round" stroke-linejoin="round"/>
<path d="M7.1947 8.8H7.20368" stroke="#78828E" stroke-linecap="round" stroke-linejoin="round"/>
<path d="M10.4945 8.8H10.5035" stroke="#78828E" stroke-linecap="round" stroke-linejoin="round"/>
</svg>
