<svg width="116" height="112" viewBox="0 0 116 112" fill="none" xmlns="http://www.w3.org/2000/svg">
<path d="M17.0469 30.7528L20.0804 31.0145C20.54 31.0498 20.9502 31.4599 20.9855 31.9196L21.2472 34.9531C21.4381 35.5258 22.0957 35.8016 22.6472 35.5329L23.8988 34.9036C24.2029 34.7551 24.4574 34.3449 24.4574 34.0055L24.4645 30.7882C24.4574 30.5549 24.5918 30.2367 24.7544 30.074L26.7697 28.0588C27.0666 27.7618 27.4273 27.8396 27.5899 28.2285L29.5627 33.1994C29.8739 33.9772 30.6093 34.1328 31.2032 33.5388L32.1154 32.6267C32.5891 32.1529 32.7801 31.2549 32.5255 30.6326L30.2769 24.9758C30.2133 24.8131 30.2628 24.5657 30.39 24.4384L32.5114 22.3171C33.176 21.6524 33.473 20.3796 33.1831 19.4816C33.0771 19.1634 32.8296 18.9159 32.5114 18.8098C31.6133 18.5199 30.3335 18.824 29.6688 19.4886L27.5475 21.61C27.4202 21.7372 27.1727 21.7867 27.0101 21.7231L21.3603 19.4816C20.7451 19.2199 19.8471 19.4108 19.3733 19.8846L18.4612 20.7968C17.8672 21.3907 18.0227 22.1261 18.8006 22.4373L23.7715 24.4101C24.1604 24.5586 24.2382 24.9334 23.9412 25.2303L21.926 27.2456C21.7633 27.4082 21.4451 27.5426 21.2189 27.5426L18.0015 27.5496C17.6621 27.5496 17.2591 27.7971 17.1035 28.1083L16.4742 29.3598C16.1913 29.8972 16.46 30.5619 17.0469 30.7528Z" stroke="#3281FF" stroke-width="1.5" stroke-linecap="round" stroke-linejoin="round"/>
<rect x="1" y="1" width="50" height="50" rx="8" stroke="#3281FF" stroke-width="1.5"/>
<path d="M82.047 30.7528L85.0805 31.0145C85.5401 31.0498 85.9502 31.4599 85.9856 31.9196L86.2472 34.9531C86.4381 35.5258 87.0957 35.8016 87.6473 35.5329L88.8988 34.9036C89.2029 34.7551 89.4575 34.3449 89.4575 34.0055L89.4645 30.7882C89.4575 30.5549 89.5918 30.2367 89.7544 30.074L91.7697 28.0588C92.0667 27.7618 92.4273 27.8396 92.5899 28.2285L94.5628 33.1994C94.8739 33.9772 95.6093 34.1328 96.2033 33.5388L97.1154 32.6267C97.5892 32.1529 97.7801 31.2549 97.5255 30.6326L95.2769 24.9758C95.2133 24.8131 95.2628 24.5657 95.3901 24.4384L97.5114 22.3171C98.1761 21.6524 98.4731 20.3796 98.1831 19.4816C98.0771 19.1634 97.8296 18.9159 97.5114 18.8098C96.6134 18.5199 95.3335 18.824 94.6688 19.4886L92.5475 21.61C92.4202 21.7372 92.1727 21.7867 92.0101 21.7231L86.3603 19.4816C85.7451 19.2199 84.8471 19.4108 84.3734 19.8846L83.4612 20.7968C82.8672 21.3907 83.0228 22.1261 83.8006 22.4373L88.7716 24.4101C89.1605 24.5586 89.2382 24.9334 88.9413 25.2303L86.926 27.2456C86.7634 27.4082 86.4452 27.5426 86.2189 27.5426L83.0016 27.5496C82.6622 27.5496 82.2591 27.7971 82.1035 28.1083L81.4742 29.3598C81.1914 29.8972 81.4601 30.5619 82.047 30.7528Z" stroke="#3281FF" stroke-width="1.5" stroke-linecap="round" stroke-linejoin="round"/>
<rect x="66.75" y="1.75" width="48.5" height="48.5" rx="7.25" stroke="#3281FF" stroke-width="1.5"/>
<path d="M17.0469 90.7528L20.0804 91.0145C20.54 91.0498 20.9502 91.4599 20.9855 91.9196L21.2472 94.9531C21.4381 95.5258 22.0957 95.8016 22.6472 95.5329L23.8988 94.9036C24.2029 94.7551 24.4574 94.3449 24.4574 94.0055L24.4645 90.7882C24.4574 90.5549 24.5918 90.2367 24.7544 90.074L26.7697 88.0588C27.0666 87.7618 27.4273 87.8396 27.5899 88.2285L29.5627 93.1994C29.8739 93.9772 30.6093 94.1328 31.2032 93.5388L32.1154 92.6267C32.5891 92.1529 32.7801 91.2549 32.5255 90.6326L30.2769 84.9758C30.2133 84.8131 30.2628 84.5657 30.39 84.4384L32.5114 82.3171C33.176 81.6524 33.473 80.3796 33.1831 79.4816C33.0771 79.1634 32.8296 78.9159 32.5114 78.8098C31.6133 78.5199 30.3335 78.824 29.6688 79.4886L27.5475 81.61C27.4202 81.7372 27.1727 81.7867 27.0101 81.7231L21.3603 79.4816C20.7451 79.2199 19.8471 79.4108 19.3733 79.8846L18.4612 80.7968C17.8672 81.3907 18.0227 82.1261 18.8006 82.4373L23.7715 84.4101C24.1604 84.5586 24.2382 84.9334 23.9412 85.2303L21.926 87.2456C21.7633 87.4082 21.4451 87.5426 21.2189 87.5426L18.0015 87.5496C17.6621 87.5496 17.2591 87.7971 17.1035 88.1083L16.4742 89.3598C16.1913 89.8972 16.46 90.5619 17.0469 90.7528Z" stroke="#3281FF" stroke-width="1.5" stroke-linecap="round" stroke-linejoin="round"/>
<rect x="1" y="61" width="50" height="50" rx="8" stroke="#3281FF" stroke-width="1.5"/>
<path d="M98.4179 79.0919L95.42 79.6243C94.9669 79.7091 94.4646 79.4191 94.3115 78.9843L93.2737 76.1219C92.941 75.6181 92.2344 75.5219 91.7712 75.9242L90.7252 76.856C90.4699 77.0781 90.3302 77.5402 90.418 77.868L91.2439 80.9775C91.3111 81.2011 91.2637 81.5432 91.1487 81.7424L89.7237 84.2106C89.5137 84.5743 89.1452 84.5925 88.8875 84.259L85.6953 79.968C85.1935 79.2972 84.4429 79.3373 84.0229 80.0647L83.3779 81.1819C83.0429 81.7621 83.0909 82.679 83.4978 83.2142L87.1339 88.0963C87.2375 88.2369 87.2537 88.4888 87.1637 88.6446L85.6637 91.2427C85.1937 92.0568 85.2363 93.3631 85.7487 94.1555C85.9335 94.4354 86.2367 94.6104 86.5715 94.6305C87.5139 94.6781 88.6715 94.0531 89.1415 93.2391L90.6415 90.641C90.7315 90.4851 90.9577 90.3732 91.1313 90.3926L97.1687 91.0955C97.8306 91.189 98.6487 90.7721 98.9837 90.1919L99.6287 89.0747C100.049 88.3473 99.7081 87.6772 98.8762 87.578L93.564 86.959C93.1499 86.9162 92.9778 86.5743 93.1878 86.2106L94.6128 83.7424C94.7278 83.5432 95.0004 83.3311 95.219 83.2725L98.3248 82.433C98.6527 82.3452 98.978 82.0018 99.0477 81.661L99.3316 80.2892C99.4658 79.6969 99.0342 79.1244 98.4179 79.0919Z" stroke="#6B6B6B" stroke-width="1.5" stroke-linecap="round" stroke-linejoin="round"/>
<rect x="66.75" y="61.75" width="48.5" height="48.5" rx="7.25" stroke="#6B6B6B" stroke-width="1.5"/>
</svg>
