<svg width="180" height="93" viewBox="0 0 180 93" fill="none" xmlns="http://www.w3.org/2000/svg">
<rect width="45" height="45" transform="translate(45)" fill="#3281FF"/>
<path d="M68.12 31.9039C67.78 32.032 67.22 32.032 66.88 31.9039C63.98 30.8472 57.5 26.4388 57.5 18.9669C57.5 15.6685 59.99 13 63.06 13C64.88 13 66.49 13.9393 67.5 15.391C68.51 13.9393 70.13 13 71.94 13C75.01 13 77.5 15.6685 77.5 18.9669C77.5 26.4388 71.02 30.8472 68.12 31.9039Z" fill="white"/>
<rect width="45" height="45" transform="translate(135)" fill="#3281FF"/>
<path d="M167.033 26.4347C166.873 26.1647 166.423 25.7447 165.303 25.9447C164.683 26.0547 164.053 26.1047 163.423 26.0747C161.093 25.9747 158.983 24.9047 157.513 23.2547C156.213 21.8047 155.413 19.9147 155.403 17.8747C155.403 16.7347 155.623 15.6347 156.073 14.5947C156.513 13.5847 156.203 13.0547 155.983 12.8347C155.753 12.6047 155.213 12.2847 154.153 12.7247C150.063 14.4447 147.533 18.5447 147.833 22.9347C148.133 27.0647 151.033 30.5947 154.873 31.9247C155.793 32.2447 156.763 32.4347 157.763 32.4747C157.923 32.4847 158.083 32.4947 158.243 32.4947C161.593 32.4947 164.733 30.9147 166.713 28.2247C167.383 27.2947 167.203 26.7047 167.033 26.4347Z" fill="white"/>
<rect width="45" height="45" transform="translate(90)" fill="#FBFBFB"/>
<rect width="45" height="45" transform="translate(90 45)" fill="#3281FF"/>
<path d="M112.5 54L124.191 60.75V74.25L112.5 81L100.809 74.25V60.75L112.5 54Z" fill="white"/>
<rect width="45" height="48" transform="translate(0 45)" fill="#3281FF"/>
<path d="M25.2179 75.9977C25.6157 75.8426 26.0752 76.1816 25.99 76.6C25.5 78.5 24.4 79 23.05 79H21.96C20.61 79 19.5 78.5 19.02 76.59C18.9378 76.1709 19.395 75.8347 19.7927 75.9904C20.6473 76.3252 21.5608 76.5 22.5 76.5C23.4437 76.5 24.3618 76.3313 25.2179 75.9977Z" fill="white"/>
<path d="M25.99 61.4C26.0784 61.8227 25.6124 62.1669 25.2106 62.0087C24.3728 61.6789 23.4587 61.5 22.5 61.5C21.5424 61.5 20.6301 61.6811 19.7916 62.0113C19.3938 62.1679 18.9346 61.829 19.02 61.41C19.5 59.5 20.61 59 21.96 59H23.05C24.4 59 25.5 59.5 25.99 61.4Z" fill="white"/>
<path d="M22.5 62.5C18.91 62.5 16 65.41 16 69C16 71.1 16.99 72.96 18.53 74.15H18.54C19.64 75 21.01 75.5 22.5 75.5C24.01 75.5 25.39 74.99 26.49 74.13H26.5C28.02 72.94 29 71.08 29 69C29 65.41 26.09 62.5 22.5 62.5ZM24.43 71.38C24.28 71.53 24.09 71.6 23.9 71.6C23.71 71.6 23.52 71.53 23.37 71.38L21.97 69.98C21.83 69.84 21.75 69.65 21.75 69.45V66.66C21.75 66.25 22.09 65.91 22.5 65.91C22.91 65.91 23.25 66.25 23.25 66.66V69.14L24.43 70.32C24.72 70.61 24.72 71.09 24.43 71.38Z" fill="white"/>
<rect width="45" height="45" transform="translate(135 45)" fill="#FBFBFB"/>
<rect width="45" height="45" transform="translate(45 45)" fill="#FBFBFB"/>
<rect width="45" height="45" fill="#FBFBFB"/>
</svg>
