<svg width="180" height="52" viewBox="0 0 180 52" fill="none" xmlns="http://www.w3.org/2000/svg">
<path d="M24.5059 21.376C25.0801 21.376 25.6087 21.4648 26.0918 21.6426C26.5794 21.8203 26.9691 22.0892 27.2607 22.4492C27.5524 22.8047 27.6982 23.2513 27.6982 23.7891C27.6982 24.1901 27.6185 24.541 27.459 24.8418C27.304 25.1426 27.0921 25.4069 26.8232 25.6348C26.5544 25.8581 26.249 26.054 25.9072 26.2227C26.2627 26.4095 26.5999 26.6283 26.9189 26.8789C27.238 27.125 27.4977 27.4144 27.6982 27.7471C27.9033 28.0798 28.0059 28.4671 28.0059 28.9092C28.0059 29.4652 27.8577 29.9482 27.5615 30.3584C27.2653 30.764 26.8551 31.0785 26.3311 31.3018C25.807 31.5251 25.1986 31.6367 24.5059 31.6367C23.7585 31.6367 23.1227 31.5296 22.5986 31.3154C22.0745 31.1012 21.6758 30.7959 21.4023 30.3994C21.1289 29.9984 20.9922 29.5199 20.9922 28.9639C20.9922 28.5081 21.0765 28.1117 21.2451 27.7744C21.4183 27.4372 21.6507 27.1478 21.9424 26.9062C22.234 26.6602 22.5553 26.4505 22.9062 26.2773C22.61 26.0905 22.3389 25.8786 22.0928 25.6416C21.8512 25.4046 21.6576 25.1335 21.5117 24.8281C21.3704 24.5228 21.2998 24.1719 21.2998 23.7754C21.2998 23.2467 21.4479 22.8047 21.7441 22.4492C22.0449 22.0938 22.4391 21.8271 22.9268 21.6494C23.4144 21.4671 23.9408 21.376 24.5059 21.376ZM22.9473 28.8408C22.9473 29.2008 23.0749 29.4993 23.3301 29.7363C23.5898 29.9688 23.9727 30.085 24.4785 30.085C25.0026 30.085 25.3945 29.9733 25.6543 29.75C25.9141 29.5221 26.0439 29.2236 26.0439 28.8545C26.0439 28.5993 25.9688 28.376 25.8184 28.1846C25.6725 27.9932 25.488 27.8223 25.2646 27.6719C25.0413 27.5169 24.8158 27.3734 24.5879 27.2412L24.4033 27.1455C24.1117 27.2777 23.8564 27.4258 23.6377 27.5898C23.4235 27.7539 23.2549 27.9385 23.1318 28.1436C23.0088 28.3486 22.9473 28.5811 22.9473 28.8408ZM24.4922 22.9209C24.1458 22.9209 23.8587 23.0098 23.6309 23.1875C23.403 23.3652 23.2891 23.6159 23.2891 23.9395C23.2891 24.1673 23.3438 24.3678 23.4531 24.541C23.5671 24.7096 23.7152 24.8577 23.8975 24.9854C24.0843 25.113 24.2871 25.2314 24.5059 25.3408C24.7155 25.2406 24.9115 25.1289 25.0938 25.0059C25.276 24.8828 25.4242 24.7347 25.5381 24.5615C25.652 24.3883 25.709 24.181 25.709 23.9395C25.709 23.6159 25.5928 23.3652 25.3604 23.1875C25.1325 23.0098 24.8431 22.9209 24.4922 22.9209Z" fill="#6B6B6B"/>
<rect x="0.75" y="1.75" width="48.5" height="48.5" rx="7.25" stroke="#6B6B6B" stroke-width="1.5"/>
<path d="M158.047 31.5H151.061V30.0303L153.569 27.4941C154.075 26.9746 154.481 26.5417 154.786 26.1953C155.096 25.8444 155.319 25.5254 155.456 25.2383C155.597 24.9512 155.668 24.6436 155.668 24.3154C155.668 23.9189 155.556 23.6227 155.333 23.4268C155.114 23.2262 154.82 23.126 154.451 23.126C154.064 23.126 153.688 23.2148 153.323 23.3926C152.959 23.5703 152.578 23.8232 152.182 24.1514L151.033 22.791C151.32 22.5449 151.623 22.3125 151.942 22.0938C152.266 21.875 152.64 21.6995 153.063 21.5674C153.492 21.4307 154.005 21.3623 154.602 21.3623C155.258 21.3623 155.821 21.4808 156.29 21.7178C156.764 21.9548 157.129 22.2783 157.384 22.6885C157.639 23.0941 157.767 23.5544 157.767 24.0693C157.767 24.6208 157.657 25.1243 157.438 25.5801C157.22 26.0358 156.901 26.487 156.481 26.9336C156.067 27.3802 155.565 27.8747 154.978 28.417L153.692 29.627V29.7227H158.047V31.5Z" fill="#6B6B6B"/>
<rect x="130.75" y="1.75" width="48.5" height="48.5" rx="7.25" stroke="#6B6B6B" stroke-width="1.5"/>
<path d="M82.7461 28.334V25.2329H96.8071V28.334H82.7461ZM89.7695 33.8706C89.2314 33.8706 88.7642 33.7007 88.3677 33.3608C87.9806 33.021 87.7871 32.4735 87.7871 31.7183C87.7871 30.9253 87.9806 30.373 88.3677 30.0615C88.7642 29.7406 89.2314 29.5801 89.7695 29.5801C90.2887 29.5801 90.7466 29.7406 91.1431 30.0615C91.5396 30.373 91.7378 30.9253 91.7378 31.7183C91.7378 32.4735 91.5396 33.021 91.1431 33.3608C90.7466 33.7007 90.2887 33.8706 89.7695 33.8706ZM89.7695 23.9727C89.2314 23.9727 88.7642 23.8027 88.3677 23.4629C87.9806 23.123 87.7871 22.5802 87.7871 21.8345C87.7871 21.0321 87.9806 20.4751 88.3677 20.1636C88.7642 19.8426 89.2314 19.6821 89.7695 19.6821C90.2887 19.6821 90.7466 19.8426 91.1431 20.1636C91.5396 20.4751 91.7378 21.0321 91.7378 21.8345C91.7378 22.5802 91.5396 23.123 91.1431 23.4629C90.7466 23.8027 90.2887 23.9727 89.7695 23.9727Z" fill="#3281FF"/>
<rect x="65" y="1" width="50" height="50" rx="8" stroke="#3281FF" stroke-width="1.5"/>
</svg>
