<svg width="226" height="115" viewBox="0 0 226 115" fill="none" xmlns="http://www.w3.org/2000/svg">
<path d="M30.4062 29H28L24.377 23.9346V29H22.2578V19.0059H24.377V23.8457L27.959 19.0059H30.2148L26.5713 23.8047L30.4062 29ZM34.8564 19.0059C36.1462 19.0059 37.0872 19.2839 37.6797 19.8398C38.2721 20.3913 38.5684 21.1523 38.5684 22.123C38.5684 22.5605 38.5023 22.9798 38.3701 23.3809C38.238 23.7773 38.0215 24.1305 37.7207 24.4404C37.4245 24.7503 37.028 24.9964 36.5312 25.1787C36.0345 25.3564 35.4215 25.4453 34.6924 25.4453H33.7832V29H31.6641V19.0059H34.8564ZM34.7471 20.7422H33.7832V23.709H34.4805C34.877 23.709 35.221 23.6566 35.5127 23.5518C35.8044 23.4469 36.0299 23.2829 36.1895 23.0596C36.349 22.8363 36.4287 22.5492 36.4287 22.1982C36.4287 21.7061 36.292 21.3415 36.0186 21.1045C35.7451 20.863 35.3213 20.7422 34.7471 20.7422ZM49.5264 23.9893C49.5264 24.7594 49.4307 25.4613 49.2393 26.0947C49.0479 26.7236 48.7562 27.266 48.3643 27.7217C47.9769 28.1774 47.4847 28.5283 46.8877 28.7744C46.2907 29.016 45.5843 29.1367 44.7686 29.1367C43.9528 29.1367 43.2464 29.016 42.6494 28.7744C42.0524 28.5283 41.5579 28.1774 41.166 27.7217C40.7786 27.266 40.4893 26.7214 40.2979 26.0879C40.1064 25.4544 40.0107 24.7503 40.0107 23.9756C40.0107 22.9411 40.1794 22.041 40.5166 21.2754C40.8584 20.5052 41.3825 19.9082 42.0889 19.4844C42.7952 19.0605 43.693 18.8486 44.7822 18.8486C45.8669 18.8486 46.7578 19.0605 47.4551 19.4844C48.1569 19.9082 48.6764 20.5052 49.0137 21.2754C49.3555 22.0456 49.5264 22.9502 49.5264 23.9893ZM42.2324 23.9893C42.2324 24.6865 42.319 25.2881 42.4922 25.7939C42.6699 26.2952 42.9456 26.6826 43.3193 26.9561C43.693 27.2249 44.1761 27.3594 44.7686 27.3594C45.3701 27.3594 45.8577 27.2249 46.2314 26.9561C46.6051 26.6826 46.8763 26.2952 47.0449 25.7939C47.2181 25.2881 47.3047 24.6865 47.3047 23.9893C47.3047 22.9411 47.1087 22.1162 46.7168 21.5146C46.3249 20.9131 45.68 20.6123 44.7822 20.6123C44.1852 20.6123 43.6976 20.749 43.3193 21.0225C42.9456 21.2913 42.6699 21.6787 42.4922 22.1846C42.319 22.6859 42.2324 23.2874 42.2324 23.9893ZM59.5068 29H57.3945V20.7695H54.9473C54.8926 21.1979 54.8333 21.665 54.7695 22.1709C54.7057 22.6768 54.6396 23.1872 54.5713 23.7021C54.5029 24.2171 54.43 24.707 54.3525 25.1719C54.2796 25.6367 54.2067 26.0446 54.1338 26.3955C54.0153 26.9788 53.8535 27.4756 53.6484 27.8857C53.4479 28.2913 53.1722 28.6012 52.8213 28.8154C52.4749 29.0296 52.0215 29.1367 51.4609 29.1367C51.2741 29.1367 51.0941 29.123 50.9209 29.0957C50.7523 29.0684 50.5951 29.0319 50.4492 28.9863V27.25C50.5677 27.291 50.6862 27.3252 50.8047 27.3525C50.9232 27.3753 51.0531 27.3867 51.1943 27.3867C51.3766 27.3867 51.527 27.3275 51.6455 27.209C51.7686 27.0859 51.8779 26.8786 51.9736 26.5869C52.0693 26.2907 52.165 25.8828 52.2607 25.3633C52.3018 25.1354 52.3564 24.8141 52.4248 24.3994C52.4932 23.9801 52.5706 23.4902 52.6572 22.9297C52.7438 22.3646 52.8327 21.7493 52.9238 21.084C53.0195 20.4186 53.1107 19.7259 53.1973 19.0059H59.5068V29ZM62.0293 19.0059H63.9365V23.832C63.9365 24.069 63.932 24.3311 63.9229 24.6182C63.9183 24.9053 63.9092 25.1878 63.8955 25.4658C63.8864 25.7393 63.8773 25.9785 63.8682 26.1836C63.859 26.3887 63.8499 26.5254 63.8408 26.5938H63.8818L68.4961 19.0059H71.0322V29H69.1455V24.2012C69.1455 23.946 69.1501 23.668 69.1592 23.3672C69.1683 23.0664 69.1797 22.7747 69.1934 22.4922C69.2116 22.2096 69.2275 21.9658 69.2412 21.7607C69.2549 21.5511 69.264 21.4121 69.2686 21.3438H69.2139L64.5791 29H62.0293V19.0059ZM81.7031 29H79.2969L75.6738 23.9346V29H73.5547V19.0059H75.6738V23.8457L79.2559 19.0059H81.5117L77.8682 23.8047L81.7031 29Z" fill="#6B6B6B"/>
<rect x="1" y="1" width="101" height="45" rx="8" stroke="#6B6B6B" stroke-width="1.5"/>
<path d="M142.406 29H140L136.377 23.9346V29H134.258V19.0059H136.377V23.8457L139.959 19.0059H142.215L138.571 23.8047L142.406 29ZM146.856 19.0059C148.146 19.0059 149.087 19.2839 149.68 19.8398C150.272 20.3913 150.568 21.1523 150.568 22.123C150.568 22.5605 150.502 22.9798 150.37 23.3809C150.238 23.7773 150.021 24.1305 149.721 24.4404C149.424 24.7503 149.028 24.9964 148.531 25.1787C148.035 25.3564 147.422 25.4453 146.692 25.4453H145.783V29H143.664V19.0059H146.856ZM146.747 20.7422H145.783V23.709H146.48C146.877 23.709 147.221 23.6566 147.513 23.5518C147.804 23.4469 148.03 23.2829 148.189 23.0596C148.349 22.8363 148.429 22.5492 148.429 22.1982C148.429 21.7061 148.292 21.3415 148.019 21.1045C147.745 20.863 147.321 20.7422 146.747 20.7422ZM161.526 23.9893C161.526 24.7594 161.431 25.4613 161.239 26.0947C161.048 26.7236 160.756 27.266 160.364 27.7217C159.977 28.1774 159.485 28.5283 158.888 28.7744C158.291 29.016 157.584 29.1367 156.769 29.1367C155.953 29.1367 155.246 29.016 154.649 28.7744C154.052 28.5283 153.558 28.1774 153.166 27.7217C152.779 27.266 152.489 26.7214 152.298 26.0879C152.106 25.4544 152.011 24.7503 152.011 23.9756C152.011 22.9411 152.179 22.041 152.517 21.2754C152.858 20.5052 153.382 19.9082 154.089 19.4844C154.795 19.0605 155.693 18.8486 156.782 18.8486C157.867 18.8486 158.758 19.0605 159.455 19.4844C160.157 19.9082 160.676 20.5052 161.014 21.2754C161.355 22.0456 161.526 22.9502 161.526 23.9893ZM154.232 23.9893C154.232 24.6865 154.319 25.2881 154.492 25.7939C154.67 26.2952 154.946 26.6826 155.319 26.9561C155.693 27.2249 156.176 27.3594 156.769 27.3594C157.37 27.3594 157.858 27.2249 158.231 26.9561C158.605 26.6826 158.876 26.2952 159.045 25.7939C159.218 25.2881 159.305 24.6865 159.305 23.9893C159.305 22.9411 159.109 22.1162 158.717 21.5146C158.325 20.9131 157.68 20.6123 156.782 20.6123C156.185 20.6123 155.698 20.749 155.319 21.0225C154.946 21.2913 154.67 21.6787 154.492 22.1846C154.319 22.6859 154.232 23.2874 154.232 23.9893ZM171.746 29H169.34L165.717 23.9346V29H163.598V19.0059H165.717V23.8457L169.299 19.0059H171.555L167.911 23.8047L171.746 29ZM182.075 23.9893C182.075 24.7594 181.979 25.4613 181.788 26.0947C181.597 26.7236 181.305 27.266 180.913 27.7217C180.526 28.1774 180.034 28.5283 179.437 28.7744C178.84 29.016 178.133 29.1367 177.317 29.1367C176.502 29.1367 175.795 29.016 175.198 28.7744C174.601 28.5283 174.107 28.1774 173.715 27.7217C173.327 27.266 173.038 26.7214 172.847 26.0879C172.655 25.4544 172.56 24.7503 172.56 23.9756C172.56 22.9411 172.728 22.041 173.065 21.2754C173.407 20.5052 173.931 19.9082 174.638 19.4844C175.344 19.0605 176.242 18.8486 177.331 18.8486C178.416 18.8486 179.307 19.0605 180.004 19.4844C180.706 19.9082 181.225 20.5052 181.562 21.2754C181.904 22.0456 182.075 22.9502 182.075 23.9893ZM174.781 23.9893C174.781 24.6865 174.868 25.2881 175.041 25.7939C175.219 26.2952 175.494 26.6826 175.868 26.9561C176.242 27.2249 176.725 27.3594 177.317 27.3594C177.919 27.3594 178.407 27.2249 178.78 26.9561C179.154 26.6826 179.425 26.2952 179.594 25.7939C179.767 25.2881 179.854 24.6865 179.854 23.9893C179.854 22.9411 179.658 22.1162 179.266 21.5146C178.874 20.9131 178.229 20.6123 177.331 20.6123C176.734 20.6123 176.246 20.749 175.868 21.0225C175.494 21.2913 175.219 21.6787 175.041 22.1846C174.868 22.6859 174.781 23.2874 174.781 23.9893ZM191.974 19.0059V27.2363H193.307V31.9121H191.263V29H185.001V31.9121H182.957V27.2363H183.729C183.989 26.7168 184.24 26.1676 184.481 25.5889C184.723 25.0101 184.949 24.388 185.158 23.7227C185.368 23.0573 185.557 22.335 185.726 21.5557C185.894 20.7764 186.035 19.9264 186.149 19.0059H191.974ZM189.861 20.7695H187.831C187.763 21.2526 187.669 21.7676 187.551 22.3145C187.432 22.8613 187.291 23.4196 187.127 23.9893C186.967 24.5544 186.787 25.1126 186.587 25.6641C186.391 26.2155 186.181 26.7396 185.958 27.2363H189.861V20.7695ZM194.852 19.0059H196.759V23.832C196.759 24.069 196.754 24.3311 196.745 24.6182C196.741 24.9053 196.731 25.1878 196.718 25.4658C196.709 25.7393 196.7 25.9785 196.69 26.1836C196.681 26.3887 196.672 26.5254 196.663 26.5938H196.704L201.318 19.0059H203.854V29H201.968V24.2012C201.968 23.946 201.972 23.668 201.981 23.3672C201.991 23.0664 202.002 22.7747 202.016 22.4922C202.034 22.2096 202.05 21.9658 202.063 21.7607C202.077 21.5511 202.086 21.4121 202.091 21.3438H202.036L197.401 29H194.852V19.0059ZM214.286 29H212.174V20.7695H209.727C209.672 21.1979 209.613 21.665 209.549 22.1709C209.485 22.6768 209.419 23.1872 209.351 23.7021C209.282 24.2171 209.209 24.707 209.132 25.1719C209.059 25.6367 208.986 26.0446 208.913 26.3955C208.795 26.9788 208.633 27.4756 208.428 27.8857C208.227 28.2913 207.951 28.6012 207.601 28.8154C207.254 29.0296 206.801 29.1367 206.24 29.1367C206.053 29.1367 205.873 29.123 205.7 29.0957C205.532 29.0684 205.374 29.0319 205.229 28.9863V27.25C205.347 27.291 205.465 27.3252 205.584 27.3525C205.702 27.3753 205.832 27.3867 205.974 27.3867C206.156 27.3867 206.306 27.3275 206.425 27.209C206.548 27.0859 206.657 26.8786 206.753 26.5869C206.849 26.2907 206.944 25.8828 207.04 25.3633C207.081 25.1354 207.136 24.8141 207.204 24.3994C207.272 23.9801 207.35 23.4902 207.437 22.9297C207.523 22.3646 207.612 21.7493 207.703 21.084C207.799 20.4186 207.89 19.7259 207.977 19.0059H214.286V29Z" fill="#6B6B6B"/>
<rect x="124" y="1" width="101" height="45" rx="8" stroke="#6B6B6B" stroke-width="1.5"/>
<path d="M158.906 97H156.5L152.877 91.9346V97H150.758V87.0059H152.877V91.8457L156.459 87.0059H158.715L155.071 91.8047L158.906 97ZM168.354 97H166.241V92.6865H162.283V97H160.164V87.0059H162.283V90.9229H166.241V87.0059H168.354V97ZM170.883 87.0059H172.79V91.832C172.79 92.069 172.785 92.3311 172.776 92.6182C172.772 92.9053 172.763 93.1878 172.749 93.4658C172.74 93.7393 172.731 93.9785 172.722 94.1836C172.713 94.3887 172.703 94.5254 172.694 94.5938H172.735L177.35 87.0059H179.886V97H177.999V92.2012C177.999 91.946 178.004 91.668 178.013 91.3672C178.022 91.0664 178.033 90.7747 178.047 90.4922C178.065 90.2096 178.081 89.9658 178.095 89.7607C178.108 89.5511 178.118 89.4121 178.122 89.3438H178.067L173.433 97H170.883V87.0059ZM188.725 87.0059V88.7559H184.527V97H182.408V87.0059H188.725ZM196.388 97L195.663 94.6211H192.02L191.295 97H189.012L192.539 86.9648H195.13L198.671 97H196.388ZM195.157 92.8438L194.433 90.5195C194.387 90.3646 194.326 90.1663 194.248 89.9248C194.175 89.6787 194.1 89.4303 194.022 89.1797C193.95 88.9245 193.89 88.7035 193.845 88.5166C193.799 88.7035 193.735 88.9359 193.653 89.2139C193.576 89.4873 193.501 89.7471 193.428 89.9932C193.355 90.2393 193.302 90.4147 193.271 90.5195L192.553 92.8438H195.157Z" fill="#3281FF"/>
<rect x="124" y="69" width="101" height="45" rx="8" stroke="#3281FF" stroke-width="1.5"/>
<path d="M46.667 97H44.5547V88.7695H42.1074C42.0527 89.1979 41.9935 89.665 41.9297 90.1709C41.8659 90.6768 41.7998 91.1872 41.7314 91.7021C41.6631 92.2171 41.5902 92.707 41.5127 93.1719C41.4398 93.6367 41.3669 94.0446 41.2939 94.3955C41.1755 94.9788 41.0137 95.4756 40.8086 95.8857C40.6081 96.2913 40.3324 96.6012 39.9814 96.8154C39.6351 97.0296 39.1816 97.1367 38.6211 97.1367C38.4342 97.1367 38.2542 97.123 38.0811 97.0957C37.9124 97.0684 37.7552 97.0319 37.6094 96.9863V95.25C37.7279 95.291 37.8464 95.3252 37.9648 95.3525C38.0833 95.3753 38.2132 95.3867 38.3545 95.3867C38.5368 95.3867 38.6872 95.3275 38.8057 95.209C38.9287 95.0859 39.0381 94.8786 39.1338 94.5869C39.2295 94.2907 39.3252 93.8828 39.4209 93.3633C39.4619 93.1354 39.5166 92.8141 39.585 92.3994C39.6533 91.9801 39.7308 91.4902 39.8174 90.9297C39.904 90.3646 39.9928 89.7493 40.084 89.084C40.1797 88.4186 40.2708 87.7259 40.3574 87.0059H46.667V97ZM54.9453 97H49.1895V87.0059H54.9453V88.7422H51.3086V90.9365H54.6924V92.6729H51.3086V95.25H54.9453V97ZM57.0371 87.0059H60.1475C61.4782 87.0059 62.4854 87.1927 63.1689 87.5664C63.8525 87.9401 64.1943 88.5964 64.1943 89.5352C64.1943 89.9134 64.1328 90.2552 64.0098 90.5605C63.8913 90.8659 63.7181 91.1165 63.4902 91.3125C63.2624 91.5085 62.9844 91.6361 62.6562 91.6953V91.7637C62.9889 91.832 63.2897 91.9505 63.5586 92.1191C63.8275 92.2832 64.0417 92.5247 64.2012 92.8438C64.3652 93.1582 64.4473 93.5775 64.4473 94.1016C64.4473 94.7077 64.2992 95.2272 64.0029 95.6602C63.7067 96.0931 63.2829 96.4258 62.7314 96.6582C62.1846 96.8861 61.5329 97 60.7764 97H57.0371V87.0059ZM59.1562 90.9639H60.3867C61.002 90.9639 61.4281 90.8682 61.665 90.6768C61.902 90.4808 62.0205 90.1937 62.0205 89.8154C62.0205 89.4326 61.8792 89.1592 61.5967 88.9951C61.3187 88.8265 60.8766 88.7422 60.2705 88.7422H59.1562V90.9639ZM59.1562 92.6455V95.25H60.5371C61.1751 95.25 61.6195 95.127 61.8701 94.8809C62.1208 94.6348 62.2461 94.3044 62.2461 93.8896C62.2461 93.6436 62.1914 93.4271 62.082 93.2402C61.9727 93.0534 61.7881 92.9076 61.5283 92.8027C61.2731 92.6979 60.9199 92.6455 60.4688 92.6455H59.1562Z" fill="#6B6B6B"/>
<rect x="1" y="69" width="101" height="45" rx="8" stroke="#6B6B6B" stroke-width="1.5"/>
</svg>
