<svg width="226" height="115" viewBox="0 0 226 115" fill="none" xmlns="http://www.w3.org/2000/svg">
<path d="M36.7832 29H34.6709V23.2168C34.6709 23.0573 34.6732 22.8613 34.6777 22.6289C34.6823 22.3919 34.6891 22.1504 34.6982 21.9043C34.7074 21.6536 34.7165 21.4281 34.7256 21.2275C34.6755 21.2868 34.5729 21.3893 34.418 21.5352C34.2676 21.6764 34.1263 21.804 33.9941 21.918L32.8457 22.8408L31.8271 21.5693L35.0469 19.0059H36.7832V29ZM44.7949 29H42.6826V23.2168C42.6826 23.0573 42.6849 22.8613 42.6895 22.6289C42.694 22.3919 42.7008 22.1504 42.71 21.9043C42.7191 21.6536 42.7282 21.4281 42.7373 21.2275C42.6872 21.2868 42.5846 21.3893 42.4297 21.5352C42.2793 21.6764 42.138 21.804 42.0059 21.918L40.8574 22.8408L39.8389 21.5693L43.0586 19.0059H44.7949V29ZM52.8066 29H50.6943V23.2168C50.6943 23.0573 50.6966 22.8613 50.7012 22.6289C50.7057 22.3919 50.7126 22.1504 50.7217 21.9043C50.7308 21.6536 50.7399 21.4281 50.749 21.2275C50.6989 21.2868 50.5964 21.3893 50.4414 21.5352C50.291 21.6764 50.1497 21.804 50.0176 21.918L48.8691 22.8408L47.8506 21.5693L51.0703 19.0059H52.8066V29ZM60.8184 29H58.7061V23.2168C58.7061 23.0573 58.7083 22.8613 58.7129 22.6289C58.7174 22.3919 58.7243 22.1504 58.7334 21.9043C58.7425 21.6536 58.7516 21.4281 58.7607 21.2275C58.7106 21.2868 58.6081 21.3893 58.4531 21.5352C58.3027 21.6764 58.1615 21.804 58.0293 21.918L56.8809 22.8408L55.8623 21.5693L59.082 19.0059H60.8184V29ZM68.8301 29H66.7178V23.2168C66.7178 23.0573 66.7201 22.8613 66.7246 22.6289C66.7292 22.3919 66.736 22.1504 66.7451 21.9043C66.7542 21.6536 66.7633 21.4281 66.7725 21.2275C66.7223 21.2868 66.6198 21.3893 66.4648 21.5352C66.3145 21.6764 66.1732 21.804 66.041 21.918L64.8926 22.8408L63.874 21.5693L67.0938 19.0059H68.8301V29Z" fill="#6B6B6B"/>
<rect x="1" y="1" width="101" height="45" rx="8" stroke="#6B6B6B" stroke-width="1.5"/>
<path d="M159.783 29H157.671V23.2168C157.671 23.0573 157.673 22.8613 157.678 22.6289C157.682 22.3919 157.689 22.1504 157.698 21.9043C157.707 21.6536 157.716 21.4281 157.726 21.2275C157.675 21.2868 157.573 21.3893 157.418 21.5352C157.268 21.6764 157.126 21.804 156.994 21.918L155.846 22.8408L154.827 21.5693L158.047 19.0059H159.783V29ZM167.795 29H165.683V23.2168C165.683 23.0573 165.685 22.8613 165.689 22.6289C165.694 22.3919 165.701 22.1504 165.71 21.9043C165.719 21.6536 165.728 21.4281 165.737 21.2275C165.687 21.2868 165.585 21.3893 165.43 21.5352C165.279 21.6764 165.138 21.804 165.006 21.918L163.857 22.8408L162.839 21.5693L166.059 19.0059H167.795V29ZM175.807 29H173.694V23.2168C173.694 23.0573 173.697 22.8613 173.701 22.6289C173.706 22.3919 173.713 22.1504 173.722 21.9043C173.731 21.6536 173.74 21.4281 173.749 21.2275C173.699 21.2868 173.596 21.3893 173.441 21.5352C173.291 21.6764 173.15 21.804 173.018 21.918L171.869 22.8408L170.851 21.5693L174.07 19.0059H175.807V29ZM183.818 29H181.706V23.2168C181.706 23.0573 181.708 22.8613 181.713 22.6289C181.717 22.3919 181.724 22.1504 181.733 21.9043C181.743 21.6536 181.752 21.4281 181.761 21.2275C181.711 21.2868 181.608 21.3893 181.453 21.5352C181.303 21.6764 181.161 21.804 181.029 21.918L179.881 22.8408L178.862 21.5693L182.082 19.0059H183.818V29ZM191.83 29H189.718V23.2168C189.718 23.0573 189.72 22.8613 189.725 22.6289C189.729 22.3919 189.736 22.1504 189.745 21.9043C189.754 21.6536 189.763 21.4281 189.772 21.2275C189.722 21.2868 189.62 21.3893 189.465 21.5352C189.314 21.6764 189.173 21.804 189.041 21.918L187.893 22.8408L186.874 21.5693L190.094 19.0059H191.83V29Z" fill="#6B6B6B"/>
<rect x="124" y="1" width="101" height="45" rx="8" stroke="#6B6B6B" stroke-width="1.5"/>
<path d="M155.552 97L159.305 88.7832H154.376V87.0059H161.547V88.332L157.767 97H155.552ZM163.563 97L167.316 88.7832H162.388V87.0059H169.559V88.332L165.778 97H163.563ZM171.575 97L175.328 88.7832H170.399V87.0059H177.57V88.332L173.79 97H171.575ZM179.587 97L183.34 88.7832H178.411V87.0059H185.582V88.332L181.802 97H179.587ZM187.599 97L191.352 88.7832H186.423V87.0059H193.594V88.332L189.813 97H187.599Z" fill="#3281FF"/>
<rect x="124" y="69" width="101" height="45" rx="8" stroke="#3281FF" stroke-width="1.5"/>
<path d="M36.7832 97H34.6709V91.2168C34.6709 91.0573 34.6732 90.8613 34.6777 90.6289C34.6823 90.3919 34.6891 90.1504 34.6982 89.9043C34.7074 89.6536 34.7165 89.4281 34.7256 89.2275C34.6755 89.2868 34.5729 89.3893 34.418 89.5352C34.2676 89.6764 34.1263 89.804 33.9941 89.918L32.8457 90.8408L31.8271 89.5693L35.0469 87.0059H36.7832V97ZM44.7949 97H42.6826V91.2168C42.6826 91.0573 42.6849 90.8613 42.6895 90.6289C42.694 90.3919 42.7008 90.1504 42.71 89.9043C42.7191 89.6536 42.7282 89.4281 42.7373 89.2275C42.6872 89.2868 42.5846 89.3893 42.4297 89.5352C42.2793 89.6764 42.138 89.804 42.0059 89.918L40.8574 90.8408L39.8389 89.5693L43.0586 87.0059H44.7949V97ZM52.8066 97H50.6943V91.2168C50.6943 91.0573 50.6966 90.8613 50.7012 90.6289C50.7057 90.3919 50.7126 90.1504 50.7217 89.9043C50.7308 89.6536 50.7399 89.4281 50.749 89.2275C50.6989 89.2868 50.5964 89.3893 50.4414 89.5352C50.291 89.6764 50.1497 89.804 50.0176 89.918L48.8691 90.8408L47.8506 89.5693L51.0703 87.0059H52.8066V97ZM60.8184 97H58.7061V91.2168C58.7061 91.0573 58.7083 90.8613 58.7129 90.6289C58.7174 90.3919 58.7243 90.1504 58.7334 89.9043C58.7425 89.6536 58.7516 89.4281 58.7607 89.2275C58.7106 89.2868 58.6081 89.3893 58.4531 89.5352C58.3027 89.6764 58.1615 89.804 58.0293 89.918L56.8809 90.8408L55.8623 89.5693L59.082 87.0059H60.8184V97ZM68.8301 97H66.7178V91.2168C66.7178 91.0573 66.7201 90.8613 66.7246 90.6289C66.7292 90.3919 66.736 90.1504 66.7451 89.9043C66.7542 89.6536 66.7633 89.4281 66.7725 89.2275C66.7223 89.2868 66.6198 89.3893 66.4648 89.5352C66.3145 89.6764 66.1732 89.804 66.041 89.918L64.8926 90.8408L63.874 89.5693L67.0938 87.0059H68.8301V97Z" fill="#6B6B6B"/>
<rect x="1" y="69" width="101" height="45" rx="8" stroke="#6B6B6B" stroke-width="1.5"/>
</svg>
