<svg width="234" height="102" viewBox="0 0 234 102" fill="none" xmlns="http://www.w3.org/2000/svg">
<path d="M71.2159 10.9778C74.1869 10.9778 76.3547 11.5867 77.7195 12.8044C79.0842 14.0222 79.7666 15.7281 79.7666 17.9222C79.7666 18.9196 79.6091 19.8696 79.2942 20.7725C78.9897 21.6648 78.4858 22.4574 77.7825 23.1503C77.0791 23.8326 76.15 24.3733 74.9952 24.7722C73.851 25.1711 72.439 25.3706 70.7593 25.3706H68.3027V34H64.5234V10.9778H71.2159ZM70.964 14.1115H68.3027V22.2212H70.3656C71.5519 22.2212 72.5597 22.0847 73.389 21.8118C74.2184 21.5283 74.8483 21.0822 75.2787 20.4733C75.7091 19.8644 75.9243 19.0613 75.9243 18.064C75.9243 16.7307 75.5201 15.7386 74.7118 15.0878C73.9139 14.4369 72.6647 14.1115 70.964 14.1115ZM99.4189 25.2446C99.4189 26.6934 99.23 27.9794 98.8521 29.1027C98.4741 30.226 97.923 31.176 97.1986 31.9529C96.4742 32.7192 95.6029 33.3071 94.5846 33.7166C93.5663 34.1155 92.4167 34.3149 91.136 34.3149C89.9392 34.3149 88.8422 34.1155 87.8448 33.7166C86.8475 33.3071 85.9814 32.7192 85.2466 31.9529C84.5222 31.176 83.9606 30.226 83.5616 29.1027C83.1627 27.9794 82.9633 26.6934 82.9633 25.2446C82.9633 23.3235 83.2939 21.6963 83.9553 20.363C84.6272 19.0193 85.5825 17.9957 86.8213 17.2924C88.0601 16.589 89.535 16.2373 91.2462 16.2373C92.8524 16.2373 94.2697 16.589 95.4979 17.2924C96.7262 17.9957 97.6868 19.0193 98.3796 20.363C99.0725 21.7068 99.4189 23.334 99.4189 25.2446ZM86.774 25.2446C86.774 26.5149 86.9263 27.6014 87.2307 28.5043C87.5457 29.4071 88.0286 30.1 88.6794 30.5829C89.3303 31.0553 90.1702 31.2915 91.199 31.2915C92.2278 31.2915 93.0676 31.0553 93.7185 30.5829C94.3694 30.1 94.847 29.4071 95.1515 28.5043C95.4559 27.6014 95.6082 26.5149 95.6082 25.2446C95.6082 23.9744 95.4559 22.8983 95.1515 22.0165C94.847 21.1241 94.3694 20.447 93.7185 19.9851C93.0676 19.5127 92.2225 19.2765 91.1832 19.2765C89.6505 19.2765 88.5325 19.7909 87.8291 20.8197C87.1257 21.8485 86.774 23.3235 86.774 25.2446ZM110.694 34.3149C109.046 34.3149 107.618 33.9948 106.411 33.3544C105.203 32.714 104.274 31.7324 103.623 30.4097C102.973 29.0869 102.647 27.4072 102.647 25.3706C102.647 23.25 103.004 21.5178 103.718 20.1741C104.432 18.8303 105.419 17.8383 106.678 17.1979C107.949 16.5575 109.403 16.2373 111.04 16.2373C112.08 16.2373 113.019 16.3423 113.859 16.5522C114.709 16.7517 115.428 16.9984 116.016 17.2924L114.914 20.2528C114.274 19.9904 113.618 19.7699 112.946 19.5914C112.274 19.413 111.628 19.3237 111.009 19.3237C109.99 19.3237 109.14 19.5494 108.458 20.0009C107.786 20.4523 107.282 21.1241 106.946 22.0165C106.621 22.9088 106.458 24.0164 106.458 25.3391C106.458 26.6199 106.626 27.7012 106.962 28.583C107.298 29.4543 107.796 30.1157 108.458 30.5671C109.119 31.0081 109.933 31.2285 110.899 31.2285C111.854 31.2285 112.709 31.113 113.465 30.8821C114.221 30.6511 114.935 30.3519 115.607 29.9845V33.1969C114.946 33.5748 114.237 33.853 113.481 34.0315C112.725 34.2205 111.796 34.3149 110.694 34.3149ZM126.724 34.3149C125.076 34.3149 123.648 33.9948 122.441 33.3544C121.234 32.714 120.305 31.7324 119.654 30.4097C119.003 29.0869 118.678 27.4072 118.678 25.3706C118.678 23.25 119.035 21.5178 119.748 20.1741C120.462 18.8303 121.449 17.8383 122.709 17.1979C123.979 16.5575 125.433 16.2373 127.071 16.2373C128.11 16.2373 129.05 16.3423 129.89 16.5522C130.74 16.7517 131.459 16.9984 132.047 17.2924L130.945 20.2528C130.304 19.9904 129.648 19.7699 128.976 19.5914C128.304 19.413 127.659 19.3237 127.039 19.3237C126.021 19.3237 125.171 19.5494 124.488 20.0009C123.816 20.4523 123.312 21.1241 122.977 22.0165C122.651 22.9088 122.488 24.0164 122.488 25.3391C122.488 26.6199 122.656 27.7012 122.992 28.583C123.328 29.4543 123.827 30.1157 124.488 30.5671C125.15 31.0081 125.963 31.2285 126.929 31.2285C127.884 31.2285 128.74 31.113 129.496 30.8821C130.252 30.6511 130.966 30.3519 131.637 29.9845V33.1969C130.976 33.5748 130.267 33.853 129.512 34.0315C128.756 34.2205 127.827 34.3149 126.724 34.3149ZM139.291 16.568V25.4651C139.291 25.7485 139.28 26.1107 139.259 26.5516C139.249 26.9821 139.228 27.4335 139.196 27.9059C139.165 28.3678 139.133 28.793 139.102 29.1814C139.07 29.5698 139.044 29.8585 139.023 30.0475L147.794 16.568H152.298V34H148.755V25.1974C148.755 24.7355 148.765 24.2001 148.786 23.5912C148.818 22.9823 148.849 22.3944 148.88 21.8275C148.922 21.2606 148.949 20.8302 148.959 20.5363L140.22 34H135.732V16.568H139.291ZM159.368 34H155.242L160.108 26.8823C159.447 26.6724 158.827 26.3627 158.25 25.9532C157.683 25.5333 157.221 24.9874 156.864 24.3156C156.507 23.6332 156.329 22.8038 156.329 21.8275C156.329 20.1268 156.938 18.8251 158.156 17.9222C159.373 17.0194 160.964 16.568 162.927 16.568H170.832V34H167.131V27.2603H163.62L159.368 34ZM159.951 21.859C159.951 22.7408 160.281 23.4127 160.943 23.8746C161.604 24.326 162.507 24.5518 163.651 24.5518H167.131V19.3552H163.116C162.014 19.3552 161.21 19.5967 160.707 20.0796C160.203 20.552 159.951 21.1451 159.951 21.859Z" fill="black"/>
<path d="M25.9502 74.0059C27.2399 74.0059 28.181 74.2839 28.7734 74.8398C29.3659 75.3913 29.6621 76.1523 29.6621 77.123C29.6621 77.5605 29.596 77.9798 29.4639 78.3809C29.3317 78.7773 29.1152 79.1305 28.8145 79.4404C28.5182 79.7503 28.1217 79.9964 27.625 80.1787C27.1283 80.3564 26.5153 80.4453 25.7861 80.4453H24.877V84H22.7578V74.0059H25.9502ZM25.8408 75.7422H24.877V78.709H25.5742C25.9707 78.709 26.3148 78.6566 26.6064 78.5518C26.8981 78.4469 27.1237 78.2829 27.2832 78.0596C27.4427 77.8363 27.5225 77.5492 27.5225 77.1982C27.5225 76.7061 27.3857 76.3415 27.1123 76.1045C26.8389 75.863 26.415 75.7422 25.8408 75.7422ZM39.5742 74.0059L36.4775 81.0742C36.1995 81.7122 35.9033 82.2614 35.5889 82.7217C35.2744 83.1774 34.8757 83.5283 34.3926 83.7744C33.9095 84.016 33.276 84.1367 32.4922 84.1367C32.2461 84.1367 31.9795 84.1185 31.6924 84.082C31.4053 84.0501 31.1387 84 30.8926 83.9316V82.1133C31.1204 82.1999 31.3665 82.2637 31.6309 82.3047C31.8997 82.3411 32.1527 82.3594 32.3896 82.3594C32.6995 82.3594 32.9502 82.307 33.1416 82.2021C33.333 82.0973 33.4857 81.9561 33.5996 81.7783C33.7135 81.6006 33.8092 81.4023 33.8867 81.1836L30.4277 74.0059H32.6699L34.5361 78.333C34.5771 78.4242 34.6296 78.5472 34.6934 78.7021C34.7617 78.8525 34.8278 79.0075 34.8916 79.167C34.96 79.3219 35.0124 79.4587 35.0488 79.5771H35.124C35.1605 79.4632 35.2083 79.3265 35.2676 79.167C35.3314 79.0029 35.3975 78.8366 35.4658 78.668C35.5342 78.4948 35.5957 78.3398 35.6504 78.2031L37.3867 74.0059H39.5742ZM40.832 84V74.0059H47.1484V75.7559H42.9512V77.8408H43.7852C44.724 77.8408 45.4941 77.9707 46.0957 78.2305C46.7018 78.4902 47.1484 78.8503 47.4355 79.3105C47.7272 79.7663 47.873 80.2881 47.873 80.876C47.873 81.8649 47.5426 82.6328 46.8818 83.1797C46.2256 83.7266 45.1797 84 43.7441 84H40.832ZM42.9512 82.2637H43.6621C44.3047 82.2637 44.8105 82.1611 45.1797 81.9561C45.5488 81.7464 45.7334 81.3864 45.7334 80.876C45.7334 80.5205 45.6423 80.2493 45.46 80.0625C45.2822 79.8757 45.0247 79.748 44.6875 79.6797C44.3548 79.6113 43.9561 79.5771 43.4912 79.5771H42.9512V82.2637ZM57.6826 84H55.5703V75.7695H53.123C53.0684 76.1979 53.0091 76.665 52.9453 77.1709C52.8815 77.6768 52.8154 78.1872 52.7471 78.7021C52.6787 79.2171 52.6058 79.707 52.5283 80.1719C52.4554 80.6367 52.3825 81.0446 52.3096 81.3955C52.1911 81.9788 52.0293 82.4756 51.8242 82.8857C51.6237 83.2913 51.348 83.6012 50.9971 83.8154C50.6507 84.0296 50.1973 84.1367 49.6367 84.1367C49.4499 84.1367 49.2699 84.123 49.0967 84.0957C48.9281 84.0684 48.7708 84.0319 48.625 83.9863V82.25C48.7435 82.291 48.862 82.3252 48.9805 82.3525C49.099 82.3753 49.2288 82.3867 49.3701 82.3867C49.5524 82.3867 49.7028 82.3275 49.8213 82.209C49.9443 82.0859 50.0537 81.8786 50.1494 81.5869C50.2451 81.2907 50.3408 80.8828 50.4365 80.3633C50.4775 80.1354 50.5322 79.8141 50.6006 79.3994C50.6689 78.9801 50.7464 78.4902 50.833 77.9297C50.9196 77.3646 51.0085 76.7493 51.0996 76.084C51.1953 75.4186 51.2865 74.7259 51.373 74.0059H57.6826V84ZM65.9609 84H60.2051V74.0059H65.9609V75.7422H62.3242V77.9365H65.708V79.6729H62.3242V82.25H65.9609V84ZM68.0527 74.0059H69.96V78.832C69.96 79.069 69.9554 79.3311 69.9463 79.6182C69.9417 79.9053 69.9326 80.1878 69.9189 80.4658C69.9098 80.7393 69.9007 80.9785 69.8916 81.1836C69.8825 81.3887 69.8734 81.5254 69.8643 81.5938H69.9053L74.5195 74.0059H77.0557V84H75.1689V79.2012C75.1689 78.946 75.1735 78.668 75.1826 78.3672C75.1917 78.0664 75.2031 77.7747 75.2168 77.4922C75.235 77.2096 75.251 76.9658 75.2646 76.7607C75.2783 76.5511 75.2874 76.4121 75.292 76.3438H75.2373L70.6025 84H68.0527V74.0059ZM76.1055 70.7178C76.0553 71.2008 75.9186 71.627 75.6953 71.9961C75.472 72.3652 75.1234 72.6523 74.6494 72.8574C74.1755 73.0625 73.5374 73.165 72.7354 73.165C71.9105 73.165 71.2679 73.0671 70.8076 72.8711C70.3473 72.6706 70.0192 72.388 69.8232 72.0234C69.6273 71.6543 69.5088 71.2191 69.4678 70.7178H71.334C71.375 71.2327 71.5049 71.5745 71.7236 71.7432C71.9424 71.9072 72.2933 71.9893 72.7764 71.9893C73.1774 71.9893 73.5055 71.8981 73.7607 71.7158C74.016 71.5335 74.1686 71.2008 74.2188 70.7178H76.1055Z" fill="#3281FF"/>
<rect x="1.5" y="56" width="97" height="45" rx="8" stroke="#3281FF" stroke-width="1.5"/>
<path d="M160.585 74.0059V82.2363H161.918V86.9121H159.874V84H153.612V86.9121H151.568V82.2363H152.341C152.601 81.7168 152.851 81.1676 153.093 80.5889C153.334 80.0101 153.56 79.388 153.77 78.7227C153.979 78.0573 154.168 77.335 154.337 76.5557C154.506 75.7764 154.647 74.9264 154.761 74.0059H160.585ZM158.473 75.7695H156.442C156.374 76.2526 156.281 76.7676 156.162 77.3145C156.044 77.8613 155.902 78.4196 155.738 78.9893C155.579 79.5544 155.399 80.1126 155.198 80.6641C155.002 81.2155 154.793 81.7396 154.569 82.2363H158.473V75.7695ZM172.534 78.9893C172.534 79.7594 172.438 80.4613 172.247 81.0947C172.056 81.7236 171.764 82.266 171.372 82.7217C170.985 83.1774 170.493 83.5283 169.896 83.7744C169.299 84.016 168.592 84.1367 167.776 84.1367C166.961 84.1367 166.254 84.016 165.657 83.7744C165.06 83.5283 164.566 83.1774 164.174 82.7217C163.786 82.266 163.497 81.7214 163.306 81.0879C163.114 80.4544 163.019 79.7503 163.019 78.9756C163.019 77.9411 163.187 77.041 163.524 76.2754C163.866 75.5052 164.39 74.9082 165.097 74.4844C165.803 74.0605 166.701 73.8486 167.79 73.8486C168.875 73.8486 169.766 74.0605 170.463 74.4844C171.165 74.9082 171.684 75.5052 172.021 76.2754C172.363 77.0456 172.534 77.9502 172.534 78.9893ZM165.24 78.9893C165.24 79.6865 165.327 80.2881 165.5 80.7939C165.678 81.2952 165.953 81.6826 166.327 81.9561C166.701 82.2249 167.184 82.3594 167.776 82.3594C168.378 82.3594 168.866 82.2249 169.239 81.9561C169.613 81.6826 169.884 81.2952 170.053 80.7939C170.226 80.2881 170.312 79.6865 170.312 78.9893C170.312 77.9411 170.117 77.1162 169.725 76.5146C169.333 75.9131 168.688 75.6123 167.79 75.6123C167.193 75.6123 166.705 75.749 166.327 76.0225C165.953 76.2913 165.678 76.6787 165.5 77.1846C165.327 77.6859 165.24 78.2874 165.24 78.9893ZM182.515 84H180.402V75.7695H177.955C177.9 76.1979 177.841 76.665 177.777 77.1709C177.714 77.6768 177.647 78.1872 177.579 78.7021C177.511 79.2171 177.438 79.707 177.36 80.1719C177.287 80.6367 177.215 81.0446 177.142 81.3955C177.023 81.9788 176.861 82.4756 176.656 82.8857C176.456 83.2913 176.18 83.6012 175.829 83.8154C175.483 84.0296 175.029 84.1367 174.469 84.1367C174.282 84.1367 174.102 84.123 173.929 84.0957C173.76 84.0684 173.603 84.0319 173.457 83.9863V82.25C173.576 82.291 173.694 82.3252 173.812 82.3525C173.931 82.3753 174.061 82.3867 174.202 82.3867C174.384 82.3867 174.535 82.3275 174.653 82.209C174.776 82.0859 174.886 81.8786 174.981 81.5869C175.077 81.2907 175.173 80.8828 175.269 80.3633C175.31 80.1354 175.364 79.8141 175.433 79.3994C175.501 78.9801 175.578 78.4902 175.665 77.9297C175.752 77.3646 175.84 76.7493 175.932 76.084C176.027 75.4186 176.118 74.7259 176.205 74.0059H182.515V84ZM192.946 84H190.834V75.7695H188.387C188.332 76.1979 188.273 76.665 188.209 77.1709C188.145 77.6768 188.079 78.1872 188.011 78.7021C187.942 79.2171 187.869 79.707 187.792 80.1719C187.719 80.6367 187.646 81.0446 187.573 81.3955C187.455 81.9788 187.293 82.4756 187.088 82.8857C186.887 83.2913 186.612 83.6012 186.261 83.8154C185.914 84.0296 185.461 84.1367 184.9 84.1367C184.714 84.1367 184.534 84.123 184.36 84.0957C184.192 84.0684 184.035 84.0319 183.889 83.9863V82.25C184.007 82.291 184.126 82.3252 184.244 82.3525C184.363 82.3753 184.493 82.3867 184.634 82.3867C184.816 82.3867 184.966 82.3275 185.085 82.209C185.208 82.0859 185.317 81.8786 185.413 81.5869C185.509 81.2907 185.604 80.8828 185.7 80.3633C185.741 80.1354 185.796 79.8141 185.864 79.3994C185.933 78.9801 186.01 78.4902 186.097 77.9297C186.183 77.3646 186.272 76.7493 186.363 76.084C186.459 75.4186 186.55 74.7259 186.637 74.0059H192.946V84ZM201.587 84L200.862 81.6211H197.219L196.494 84H194.211L197.738 73.9648H200.329L203.87 84H201.587ZM200.356 79.8438L199.632 77.5195C199.586 77.3646 199.525 77.1663 199.447 76.9248C199.374 76.6787 199.299 76.4303 199.222 76.1797C199.149 75.9245 199.09 75.7035 199.044 75.5166C198.998 75.7035 198.935 75.9359 198.853 76.2139C198.775 76.4873 198.7 76.7471 198.627 76.9932C198.554 77.2393 198.502 77.4147 198.47 77.5195L197.752 79.8438H200.356ZM208.327 74.0059C209.617 74.0059 210.558 74.2839 211.15 74.8398C211.743 75.3913 212.039 76.1523 212.039 77.123C212.039 77.5605 211.973 77.9798 211.841 78.3809C211.709 78.7773 211.492 79.1305 211.191 79.4404C210.895 79.7503 210.499 79.9964 210.002 80.1787C209.505 80.3564 208.892 80.4453 208.163 80.4453H207.254V84H205.135V74.0059H208.327ZM208.218 75.7422H207.254V78.709H207.951C208.348 78.709 208.692 78.6566 208.983 78.5518C209.275 78.4469 209.501 78.2829 209.66 78.0596C209.82 77.8363 209.899 77.5492 209.899 77.1982C209.899 76.7061 209.763 76.3415 209.489 76.1045C209.216 75.863 208.792 75.7422 208.218 75.7422Z" fill="#6B6B6B"/>
<rect x="132.25" y="56.75" width="100.5" height="43.5" rx="7.25" stroke="#6B6B6B" stroke-width="1.5"/>
</svg>
