<svg width="40" height="40" viewBox="0 0 40 40" fill="none" xmlns="http://www.w3.org/2000/svg">
<rect width="40" height="40" rx="4" fill="#CEFFF2"/>
<path d="M17.3341 26.1606C17.3341 25.4941 17.3341 24.8276 17.3341 24.1611C15.0027 23.0858 13.7128 20.5345 14.2267 18.0453C14.7628 15.4513 17.101 13.6775 19.6134 13.6686C22.5325 13.6581 24.9865 16.0326 25.1685 18.8307C25.3079 20.9743 24.0948 23.0701 22.0685 24.1605C22.0701 24.8255 22.0716 25.4899 22.0738 26.1548C20.494 26.1569 18.9143 26.1585 17.3341 26.1606Z" stroke="#009B72" stroke-width="1.28837" stroke-miterlimit="10" stroke-linecap="round"/>
<path d="M19.6279 8.99989C19.6279 9.82526 19.6279 10.6506 19.6279 11.476" stroke="#009B72" stroke-width="1.28837" stroke-miterlimit="10" stroke-linecap="round"/>
<path d="M12.1133 12.112C12.6967 12.6954 13.2806 13.2793 13.8639 13.8627" stroke="#009B72" stroke-width="1.28837" stroke-miterlimit="10" stroke-linecap="round"/>
<path d="M9.00014 19.6265C9.8255 19.6265 10.6509 19.6265 11.4762 19.6265" stroke="#009B72" stroke-width="1.28837" stroke-miterlimit="10" stroke-linecap="round"/>
<path d="M12.112 27.1411C12.6954 26.5577 13.2793 25.9738 13.8627 25.3904" stroke="#009B72" stroke-width="1.28837" stroke-miterlimit="10" stroke-linecap="round"/>
<path d="M27.1414 27.1421C26.558 26.5587 25.9741 25.9748 25.3907 25.3914" stroke="#009B72" stroke-width="1.28837" stroke-miterlimit="10" stroke-linecap="round"/>
<path d="M30.2544 19.6275C29.4291 19.6275 28.6037 19.6275 27.7783 19.6275" stroke="#009B72" stroke-width="1.28837" stroke-miterlimit="10" stroke-linecap="round"/>
<path d="M27.1423 12.113C26.5589 12.6964 25.975 13.2803 25.3916 13.8637" stroke="#009B72" stroke-width="1.28837" stroke-miterlimit="10" stroke-linecap="round"/>
<path d="M17.2944 27.7718H21.8999" stroke="#009B72" stroke-width="1.28837" stroke-miterlimit="10" stroke-linecap="round"/>
<path d="M17.2944 29.341H21.8999" stroke="#009B72" stroke-width="1.28837" stroke-miterlimit="10" stroke-linecap="round"/>
<path d="M18.0661 30.9097H21.1282" stroke="#009B72" stroke-width="1.28837" stroke-miterlimit="10" stroke-linecap="round"/>
<path d="M19.6472 15.223C19.9013 15.2299 21.3653 15.2946 22.4605 16.5134C23.4116 17.5718 23.4547 18.8001 23.4563 19.1084" stroke="#009B72" stroke-width="1.28837" stroke-miterlimit="10" stroke-linecap="round"/>
</svg>
