<svg width="131" height="169" viewBox="0 0 131 169" fill="none" xmlns="http://www.w3.org/2000/svg">
<path d="M17.0383 34H1.44873V31.2128L7.41687 25.1659C8.57166 23.9901 9.52173 22.9771 10.2671 22.1267C11.0125 21.2659 11.5636 20.4523 11.9205 19.6859C12.288 18.9196 12.4717 18.085 12.4717 17.1821C12.4717 16.0693 12.1515 15.2295 11.5111 14.6626C10.8707 14.0852 10.0256 13.7965 8.97583 13.7965C7.97852 13.7965 7.05469 13.996 6.20435 14.3949C5.3645 14.7833 4.49316 15.3397 3.59033 16.0641L1.55896 13.6233C2.19934 13.0774 2.88171 12.5787 3.60608 12.1273C4.34094 11.6759 5.15979 11.319 6.06262 11.0565C6.96545 10.7836 7.99426 10.6471 9.14905 10.6471C10.6083 10.6471 11.868 10.9095 12.9283 11.4344C13.9886 11.9489 14.8022 12.668 15.3691 13.5918C15.9465 14.5156 16.2352 15.5917 16.2352 16.8199C16.2352 18.0587 15.9885 19.203 15.4951 20.2528C15.0017 21.3026 14.2983 22.3419 13.385 23.3707C12.4717 24.389 11.3851 25.4966 10.1254 26.6934L6.14136 30.5829V30.7561H17.0383V34ZM39.6511 26.9768V25.9847C39.6511 25.2079 39.7404 24.5308 39.9188 23.9534C40.0973 23.376 40.3965 22.8353 40.8164 22.3314C41.2363 21.817 41.8032 21.2816 42.5171 20.7252C43.252 20.1478 43.8346 19.6492 44.265 19.2292C44.7059 18.8093 45.0209 18.3894 45.2098 17.9695C45.4093 17.5391 45.509 17.0404 45.509 16.4735C45.509 15.5812 45.2046 14.9041 44.5957 14.4421C43.9973 13.9697 43.1522 13.7335 42.0604 13.7335C41.0946 13.7335 40.1865 13.87 39.3362 14.1429C38.4858 14.4159 37.646 14.7571 36.8167 15.1665L35.5096 12.395C36.465 11.8701 37.499 11.4502 38.6118 11.1353C39.7351 10.8098 40.9686 10.6471 42.3124 10.6471C44.454 10.6471 46.1074 11.1667 47.2727 12.2061C48.4485 13.2454 49.0364 14.6154 49.0364 16.316C49.0364 17.2504 48.8894 18.0535 48.5955 18.7253C48.3015 19.3867 47.8658 20.0009 47.2885 20.5677C46.7216 21.1241 46.0339 21.712 45.2256 22.3314C44.5642 22.8563 44.0551 23.313 43.6981 23.7014C43.3517 24.0793 43.1102 24.4625 42.9738 24.851C42.8478 25.2394 42.7848 25.7065 42.7848 26.2524V26.9768H39.6511ZM39.0527 32.0474C39.0527 31.1865 39.2732 30.5829 39.7141 30.2365C40.1655 29.8795 40.7167 29.701 41.3676 29.701C41.9974 29.701 42.5381 29.8795 42.9895 30.2365C43.4409 30.5829 43.6666 31.1865 43.6666 32.0474C43.6666 32.8872 43.4409 33.4961 42.9895 33.874C42.5381 34.2415 41.9974 34.4252 41.3676 34.4252C40.7167 34.4252 40.1655 34.2415 39.7141 33.874C39.2732 33.4961 39.0527 32.8872 39.0527 32.0474ZM82.7981 16.2373C82.7981 17.2766 82.5881 18.1794 82.1682 18.9458C81.7483 19.7122 81.1709 20.342 80.436 20.8354C79.7117 21.3184 78.8718 21.6648 77.9165 21.8748V21.985C79.7537 22.2159 81.1394 22.7933 82.0737 23.7172C83.0186 24.641 83.491 25.864 83.491 27.3862C83.491 28.7195 83.1708 29.911 82.5304 30.9608C81.89 32.0001 80.9084 32.819 79.5857 33.4174C78.2629 34.0157 76.5623 34.3149 74.4836 34.3149C73.2344 34.3149 72.0743 34.2152 71.0035 34.0157C69.9432 33.8163 68.9354 33.4961 67.9801 33.0552V29.764C68.9564 30.2469 69.9957 30.6196 71.098 30.8821C72.2003 31.1445 73.2449 31.2758 74.2317 31.2758C76.1528 31.2758 77.5228 30.9188 78.3417 30.205C79.1605 29.4806 79.5699 28.4833 79.5699 27.213C79.5699 26.3942 79.3547 25.7223 78.9243 25.1974C78.5044 24.6725 77.8483 24.2788 76.9559 24.0164C76.0741 23.7539 74.9351 23.6227 73.5388 23.6227H71.5074V20.6465H73.5546C74.8878 20.6465 75.9586 20.489 76.767 20.1741C77.5753 19.8486 78.158 19.4025 78.5149 18.8356C78.8823 18.2687 79.066 17.6073 79.066 16.8514C79.066 15.8646 78.7458 15.0983 78.1055 14.5524C77.4651 13.996 76.515 13.7178 75.2552 13.7178C74.4784 13.7178 73.7698 13.807 73.1294 13.9855C72.4995 14.1639 71.9169 14.3896 71.3815 14.6626C70.8461 14.9355 70.3369 15.2295 69.854 15.5444L68.0746 12.9777C68.9459 12.3268 69.9852 11.7756 71.1925 11.3242C72.3998 10.8728 73.8065 10.6471 75.4127 10.6471C77.7748 10.6471 79.5962 11.1562 80.877 12.1746C82.1577 13.1824 82.7981 14.5366 82.7981 16.2373ZM95.0808 20.8827V18.1112H110.277V20.8827H95.0808ZM95.0808 27.1658V24.3785H110.277V27.1658H95.0808ZM121.205 19.6072C122.685 19.6072 123.987 19.8749 125.11 20.4103C126.244 20.9352 127.126 21.712 127.756 22.7408C128.386 23.7592 128.701 25.0084 128.701 26.4886C128.701 28.1053 128.36 29.5016 127.677 30.6774C126.995 31.8427 125.992 32.7402 124.67 33.3701C123.347 34 121.735 34.3149 119.835 34.3149C118.628 34.3149 117.499 34.21 116.45 34C115.41 33.79 114.513 33.4751 113.757 33.0552V29.7168C114.544 30.1577 115.489 30.5199 116.591 30.8033C117.694 31.0763 118.749 31.2128 119.756 31.2128C120.827 31.2128 121.746 31.0553 122.512 30.7404C123.279 30.4254 123.866 29.9425 124.276 29.2916C124.696 28.6407 124.906 27.8167 124.906 26.8193C124.906 25.4966 124.481 24.4783 123.63 23.7644C122.79 23.04 121.473 22.6779 119.678 22.6779C119.048 22.6779 118.376 22.7356 117.662 22.8511C116.959 22.9561 116.371 23.0715 115.898 23.1975L114.276 22.2369L115.143 10.9778H127.11V14.2374H118.402L117.898 19.9694C118.276 19.8854 118.728 19.8066 119.253 19.7332C119.777 19.6492 120.428 19.6072 121.205 19.6072Z" fill="black"/>
<path d="M36.2441 79.8193H38.8896V81.3164H36.2441V83.9482H34.7471V81.3164H32.1016V79.8193H34.7471V77.1533H36.2441V79.8193Z" fill="#3281FF"/>
<rect x="11" y="55" width="50" height="50" rx="8" stroke="#3281FF" stroke-width="1.5"/>
<path d="M98.917 82.6016V80.8926H102.588V82.6016H98.917Z" fill="#6B6B6B"/>
<rect x="76.75" y="55.75" width="48.5" height="48.5" rx="7.25" stroke="#6B6B6B" stroke-width="1.5"/>
<path d="M36.2148 138.506L32.4893 148.5H30.5957L34.3213 138.506H36.2148Z" fill="#6B6B6B"/>
<rect x="10.5" y="118" width="50" height="50" rx="8" stroke="#6B6B6B" stroke-width="1.5"/>
<path d="M104.838 148.5H102.418L100.094 144.72L97.7695 148.5H95.5L98.8154 143.346L95.7119 138.506H98.0498L100.203 142.102L102.315 138.506H104.599L101.461 143.462L104.838 148.5Z" fill="#6B6B6B"/>
<rect x="76.25" y="118.75" width="48.5" height="48.5" rx="7.25" stroke="#6B6B6B" stroke-width="1.5"/>
</svg>
