<svg width="218" height="66" viewBox="0 0 218 66" fill="none" xmlns="http://www.w3.org/2000/svg">
<circle cx="33" cy="33" r="33" fill="#3281FF"/>
<path d="M34.1636 54.1697C33.5256 54.414 32.4748 54.414 31.8368 54.1697C26.395 52.1544 14.2355 43.747 14.2355 29.4972C14.2355 23.2069 18.9079 18.1177 24.6687 18.1177C28.0838 18.1177 31.105 19.9091 33.0002 22.6776C34.8954 19.9091 37.9353 18.1177 41.3317 18.1177C47.0925 18.1177 51.7649 23.2069 51.7649 29.4972C51.7649 43.747 39.6054 52.1544 34.1636 54.1697Z" fill="white"/>
<circle cx="185" cy="33" r="33" fill="#3281FF"/>
<path d="M186.163 54.1697C185.525 54.414 184.475 54.414 183.837 54.1697C178.395 52.1544 166.235 43.747 166.235 29.4972C166.235 23.2069 170.908 18.1177 176.669 18.1177C180.084 18.1177 183.105 19.9091 185 22.6776C186.895 19.9091 189.935 18.1177 193.332 18.1177C199.092 18.1177 203.765 23.2069 203.765 29.4972C203.765 43.747 191.605 52.1544 186.163 54.1697Z" fill="white"/>
<circle cx="109" cy="33" r="33" fill="#3281FF"/>
<path d="M108.676 12.9413L126.328 43.5148H91.0249L108.676 12.9413Z" fill="white"/>
</svg>
