<svg width="234" height="102" viewBox="0 0 234 102" fill="none" xmlns="http://www.w3.org/2000/svg">
<path d="M86.8536 19.3867H82.6177V34H78.9171V19.3867H76.0669V17.6073L78.9171 16.5208V15.3082C78.9171 13.828 79.1481 12.6522 79.61 11.7809C80.0824 10.9095 80.7543 10.2849 81.6256 9.90698C82.5074 9.51855 83.5573 9.32434 84.775 9.32434C85.5729 9.32434 86.3025 9.39258 86.9639 9.52905C87.6252 9.65503 88.1816 9.802 88.6331 9.96997L87.6725 12.7729C87.3156 12.6575 86.9166 12.5525 86.4757 12.458C86.0348 12.353 85.5624 12.3005 85.0585 12.3005C84.2186 12.3005 83.5992 12.563 83.2003 13.0879C82.8119 13.6128 82.6177 14.3792 82.6177 15.387V16.568H86.8536V19.3867ZM98.6639 16.2373C98.9579 16.2373 99.2781 16.2531 99.6245 16.2845C99.9709 16.316 100.27 16.358 100.522 16.4105L100.176 19.8749C99.9552 19.8119 99.6823 19.7646 99.3568 19.7332C99.0419 19.7017 98.7584 19.6859 98.5065 19.6859C97.8451 19.6859 97.2152 19.7961 96.6168 20.0166C96.0184 20.2266 95.4883 20.552 95.0264 20.9929C94.5645 21.4233 94.2023 21.964 93.9398 22.6149C93.6774 23.2657 93.5461 24.0216 93.5461 24.8824V34H89.8298V16.568H92.7273L93.2312 19.6387H93.4044C93.7509 19.0193 94.1813 18.4524 94.6957 17.938C95.2101 17.4236 95.798 17.0142 96.4594 16.7097C97.1312 16.3948 97.8661 16.2373 98.6639 16.2373ZM118.946 16.568V34H116.033L115.529 31.6537H115.324C114.957 32.2521 114.49 32.7507 113.923 33.1497C113.356 33.5381 112.726 33.8268 112.033 34.0157C111.34 34.2152 110.611 34.3149 109.844 34.3149C108.532 34.3149 107.409 34.0945 106.474 33.6536C105.551 33.2021 104.842 32.5093 104.349 31.575C103.855 30.6406 103.609 29.4333 103.609 27.9531V16.568H107.325V27.2603C107.325 28.6145 107.598 29.6276 108.144 30.2994C108.7 30.9713 109.561 31.3073 110.726 31.3073C111.849 31.3073 112.742 31.0763 113.403 30.6144C114.065 30.1525 114.532 29.4701 114.805 28.5673C115.088 27.6644 115.23 26.5569 115.23 25.2446V16.568H118.946ZM127.953 16.568V34H124.253V16.568H127.953ZM126.127 9.89124C126.694 9.89124 127.182 10.0435 127.591 10.3479C128.011 10.6523 128.221 11.1772 128.221 11.9226C128.221 12.6575 128.011 13.1824 127.591 13.4973C127.182 13.8018 126.694 13.954 126.127 13.954C125.539 13.954 125.04 13.8018 124.631 13.4973C124.232 13.1824 124.032 12.6575 124.032 11.9226C124.032 11.1772 124.232 10.6523 124.631 10.3479C125.04 10.0435 125.539 9.89124 126.127 9.89124ZM139.748 31.323C140.231 31.323 140.709 31.281 141.181 31.197C141.653 31.1025 142.084 30.9923 142.472 30.8663V33.6693C142.063 33.8478 141.533 34 140.882 34.126C140.231 34.252 139.554 34.3149 138.85 34.3149C137.864 34.3149 136.977 34.1522 136.189 33.8268C135.402 33.4908 134.777 32.9187 134.315 32.1104C133.853 31.302 133.622 30.184 133.622 28.7562V19.3867H131.245V17.7333L133.796 16.4263L135.008 12.6942H137.339V16.568H142.331V19.3867H137.339V28.709C137.339 29.5908 137.559 30.2469 138 30.6774C138.441 31.1078 139.024 31.323 139.748 31.323ZM157.731 29.0239C157.731 30.1682 157.453 31.134 156.897 31.9214C156.34 32.7087 155.527 33.3071 154.456 33.7166C153.396 34.1155 152.094 34.3149 150.551 34.3149C149.333 34.3149 148.283 34.2257 147.401 34.0472C146.53 33.8793 145.706 33.6168 144.929 33.2599V30.0632C145.758 30.4517 146.687 30.7876 147.716 31.071C148.755 31.3545 149.737 31.4962 150.661 31.4962C151.879 31.4962 152.755 31.3073 153.291 30.9293C153.826 30.5409 154.094 30.0265 154.094 29.3861C154.094 29.0082 153.983 28.6722 153.763 28.3783C153.553 28.0739 153.154 27.7642 152.566 27.4492C151.989 27.1238 151.138 26.7354 150.015 26.2839C148.913 25.843 147.984 25.4021 147.228 24.9612C146.472 24.5203 145.9 23.9901 145.511 23.3707C145.123 22.7408 144.929 21.9377 144.929 20.9614C144.929 19.4182 145.538 18.2477 146.755 17.4498C147.984 16.6415 149.606 16.2373 151.621 16.2373C152.692 16.2373 153.7 16.3475 154.645 16.568C155.6 16.778 156.534 17.0876 157.448 17.4971L156.282 20.2843C155.495 19.9379 154.703 19.6544 153.905 19.434C153.117 19.203 152.314 19.0875 151.495 19.0875C150.54 19.0875 149.81 19.2345 149.307 19.5284C148.813 19.8224 148.566 20.2423 148.566 20.7882C148.566 21.1976 148.687 21.5441 148.929 21.8275C149.17 22.111 149.585 22.3944 150.173 22.6779C150.771 22.9613 151.6 23.313 152.661 23.7329C153.7 24.1318 154.598 24.5518 155.353 24.9927C156.12 25.4231 156.708 25.9532 157.117 26.5831C157.526 27.213 157.731 28.0266 157.731 29.0239Z" fill="black"/>
<path d="M27.9727 80.9648H28.0684C28.8021 80.9648 29.3763 80.7734 29.791 80.3906C30.2103 80.0033 30.4199 79.4746 30.4199 78.8047C30.4199 78.1849 30.2262 77.6882 29.8389 77.3145C29.4515 76.9362 28.9229 76.7471 28.2529 76.7471H27.9727V80.9648ZM26.0654 84.1367V82.5986H25.915C25.0674 82.5986 24.3245 82.4505 23.6865 82.1543C23.0485 81.8535 22.5449 81.4046 22.1758 80.8076C21.8112 80.2106 21.6289 79.5475 21.6289 78.8184C21.6289 78.112 21.7907 77.4762 22.1143 76.9111C22.4424 76.3415 22.9141 75.8971 23.5293 75.5781C24.1445 75.2546 24.8691 75.0928 25.7031 75.0928H26.0654V73.8623H27.9727V75.0928H28.335C29.1644 75.0928 29.8867 75.2546 30.502 75.5781C31.1172 75.8971 31.5889 76.3415 31.917 76.9111C32.2451 77.4762 32.4092 78.112 32.4092 78.8184C32.4092 79.5475 32.2246 80.2106 31.8555 80.8076C31.4909 81.4046 30.9896 81.8535 30.3516 82.1543C29.7135 82.4505 28.9707 82.5986 28.123 82.5986H27.9727V84.1367H26.0654ZM26.0654 76.7471H25.7852C25.1152 76.7471 24.5866 76.9339 24.1992 77.3076C23.8118 77.6813 23.6182 78.1803 23.6182 78.8047C23.6182 79.4609 23.8232 79.985 24.2334 80.377C24.6436 80.7689 25.2223 80.9648 25.9697 80.9648H26.0654V76.7471ZM36.4219 78.709H37.1191C37.7708 78.709 38.2585 78.5814 38.582 78.3262C38.9056 78.0664 39.0674 77.6904 39.0674 77.1982C39.0674 76.7015 38.9307 76.3346 38.6572 76.0977C38.3883 75.8607 37.9645 75.7422 37.3857 75.7422H36.4219V78.709ZM41.207 77.123C41.207 78.1986 40.8698 79.0212 40.1953 79.5908C39.5254 80.1605 38.5706 80.4453 37.3311 80.4453H36.4219V84H34.3027V74.0059H37.4951C38.7074 74.0059 39.6279 74.2679 40.2568 74.792C40.8903 75.3115 41.207 76.0885 41.207 77.123ZM50.9756 74.0059L47.8857 81.0742C47.4984 81.9629 47.1338 82.6009 46.792 82.9883C46.4548 83.3757 46.0537 83.665 45.5889 83.8564C45.124 84.0433 44.5589 84.1367 43.8936 84.1367C43.3239 84.1367 42.793 84.0684 42.3008 83.9316V82.1133C42.7018 82.2773 43.2008 82.3594 43.7979 82.3594C44.1761 82.3594 44.4814 82.2728 44.7139 82.0996C44.9463 81.9219 45.14 81.6165 45.2949 81.1836L41.8359 74.0059H44.0781L46.5391 79.5771H46.6074L46.7305 79.2354L48.7949 74.0059H50.9756ZM60.3887 84H57.9824L54.3594 78.9346V84H52.2402V74.0059H54.3594V78.8457L57.9414 74.0059H60.1973L56.5537 78.8047L60.3887 84ZM65.502 84H63.3828V75.7695H60.6689V74.0059H68.2158V75.7695H65.502V84ZM76.5898 80.876C76.5898 81.915 76.2435 82.6966 75.5508 83.2207C74.8626 83.7402 73.8418 84 72.4883 84H69.7539V74.0059H71.873V77.8408H72.5566C73.8372 77.8408 74.8285 78.1074 75.5303 78.6406C76.2367 79.1693 76.5898 79.9144 76.5898 80.876ZM71.873 82.2637H72.4268C73.124 82.2637 73.6344 82.1497 73.958 81.9219C74.2816 81.6895 74.4434 81.3408 74.4434 80.876C74.4434 80.4111 74.2861 80.0785 73.9717 79.8779C73.6618 79.6774 73.1149 79.5771 72.3311 79.5771H71.873V82.2637ZM79.9189 84H77.8066V74.0059H79.9189V84Z" fill="#3281FF"/>
<rect x="1" y="56" width="101" height="45" rx="8" stroke="#3281FF" stroke-width="1.5"/>
<path d="M165.329 78.9893C165.329 79.7594 165.233 80.4613 165.042 81.0947C164.851 81.7236 164.559 82.266 164.167 82.7217C163.78 83.1774 163.287 83.5283 162.69 83.7744C162.093 84.016 161.387 84.1367 160.571 84.1367C159.756 84.1367 159.049 84.016 158.452 83.7744C157.855 83.5283 157.361 83.1774 156.969 82.7217C156.581 82.266 156.292 81.7214 156.101 81.0879C155.909 80.4544 155.813 79.7503 155.813 78.9756C155.813 77.9411 155.982 77.041 156.319 76.2754C156.661 75.5052 157.185 74.9082 157.892 74.4844C158.598 74.0605 159.496 73.8486 160.585 73.8486C161.67 73.8486 162.561 74.0605 163.258 74.4844C163.96 74.9082 164.479 75.5052 164.816 76.2754C165.158 77.0456 165.329 77.9502 165.329 78.9893ZM158.035 78.9893C158.035 79.6865 158.122 80.2881 158.295 80.7939C158.473 81.2952 158.748 81.6826 159.122 81.9561C159.496 82.2249 159.979 82.3594 160.571 82.3594C161.173 82.3594 161.66 82.2249 162.034 81.9561C162.408 81.6826 162.679 81.2952 162.848 80.7939C163.021 80.2881 163.107 79.6865 163.107 78.9893C163.107 77.9411 162.911 77.1162 162.52 76.5146C162.128 75.9131 161.483 75.6123 160.585 75.6123C159.988 75.6123 159.5 75.749 159.122 76.0225C158.748 76.2913 158.473 76.6787 158.295 77.1846C158.122 77.6859 158.035 78.2874 158.035 78.9893ZM167.4 74.0059H170.511C171.841 74.0059 172.849 74.1927 173.532 74.5664C174.216 74.9401 174.558 75.5964 174.558 76.5352C174.558 76.9134 174.496 77.2552 174.373 77.5605C174.255 77.8659 174.081 78.1165 173.854 78.3125C173.626 78.5085 173.348 78.6361 173.02 78.6953V78.7637C173.352 78.832 173.653 78.9505 173.922 79.1191C174.191 79.2832 174.405 79.5247 174.564 79.8438C174.729 80.1582 174.811 80.5775 174.811 81.1016C174.811 81.7077 174.662 82.2272 174.366 82.6602C174.07 83.0931 173.646 83.4258 173.095 83.6582C172.548 83.8861 171.896 84 171.14 84H167.4V74.0059ZM169.52 77.9639H170.75C171.365 77.9639 171.791 77.8682 172.028 77.6768C172.265 77.4808 172.384 77.1937 172.384 76.8154C172.384 76.4326 172.243 76.1592 171.96 75.9951C171.682 75.8265 171.24 75.7422 170.634 75.7422H169.52V77.9639ZM169.52 79.6455V82.25H170.9C171.538 82.25 171.983 82.127 172.233 81.8809C172.484 81.6348 172.609 81.3044 172.609 80.8896C172.609 80.6436 172.555 80.4271 172.445 80.2402C172.336 80.0534 172.151 79.9076 171.892 79.8027C171.636 79.6979 171.283 79.6455 170.832 79.6455H169.52ZM185.878 78.9893C185.878 79.7594 185.782 80.4613 185.591 81.0947C185.399 81.7236 185.108 82.266 184.716 82.7217C184.328 83.1774 183.836 83.5283 183.239 83.7744C182.642 84.016 181.936 84.1367 181.12 84.1367C180.304 84.1367 179.598 84.016 179.001 83.7744C178.404 83.5283 177.91 83.1774 177.518 82.7217C177.13 82.266 176.841 81.7214 176.649 81.0879C176.458 80.4544 176.362 79.7503 176.362 78.9756C176.362 77.9411 176.531 77.041 176.868 76.2754C177.21 75.5052 177.734 74.9082 178.44 74.4844C179.147 74.0605 180.045 73.8486 181.134 73.8486C182.218 73.8486 183.109 74.0605 183.807 74.4844C184.508 74.9082 185.028 75.5052 185.365 76.2754C185.707 77.0456 185.878 77.9502 185.878 78.9893ZM178.584 78.9893C178.584 79.6865 178.671 80.2881 178.844 80.7939C179.021 81.2952 179.297 81.6826 179.671 81.9561C180.045 82.2249 180.528 82.3594 181.12 82.3594C181.722 82.3594 182.209 82.2249 182.583 81.9561C182.957 81.6826 183.228 81.2952 183.396 80.7939C183.57 80.2881 183.656 79.6865 183.656 78.9893C183.656 77.9411 183.46 77.1162 183.068 76.5146C182.676 75.9131 182.032 75.6123 181.134 75.6123C180.537 75.6123 180.049 75.749 179.671 76.0225C179.297 76.2913 179.021 76.6787 178.844 77.1846C178.671 77.6859 178.584 78.2874 178.584 78.9893ZM202.011 82.3184V86.9121H199.967V84H187.949V74.0059H190.068V82.2363H193.172V74.0059H195.305V82.2363H198.408V74.0059H200.521V82.3184H202.011ZM203.549 74.0059H205.456V78.832C205.456 79.069 205.451 79.3311 205.442 79.6182C205.438 79.9053 205.429 80.1878 205.415 80.4658C205.406 80.7393 205.397 80.9785 205.388 81.1836C205.379 81.3887 205.369 81.5254 205.36 81.5938H205.401L210.016 74.0059H212.552V84H210.665V79.2012C210.665 78.946 210.67 78.668 210.679 78.3672C210.688 78.0664 210.699 77.7747 210.713 77.4922C210.731 77.2096 210.747 76.9658 210.761 76.7607C210.774 76.5511 210.784 76.4121 210.788 76.3438H210.733L206.099 84H203.549V74.0059Z" fill="#6B6B6B"/>
<rect x="135.75" y="56.75" width="97.5" height="43.5" rx="7.25" stroke="#6B6B6B" stroke-width="1.5"/>
</svg>
