<svg width="40" height="40" viewBox="0 0 40 40" fill="none" xmlns="http://www.w3.org/2000/svg">
<rect width="40" height="40" rx="4" fill="#FFEBD3"/>
<path d="M18.325 28.9583C18.1583 28.9583 18.025 28.925 17.925 28.8833C17.5917 28.7583 17.025 28.35 17.025 27.0583V21.6833H15.075C13.9583 21.6833 13.5583 21.1583 13.4167 20.85C13.275 20.5333 13.15 19.8917 13.8833 19.05L20.1917 11.8833C21.0417 10.9167 21.7333 10.9833 22.0667 11.1083C22.4 11.2333 22.9667 11.6417 22.9667 12.9333V18.3083H24.9167C26.0333 18.3083 26.4333 18.8333 26.575 19.1417C26.7167 19.4583 26.8417 20.1 26.1083 20.9417L19.8 28.1083C19.2083 28.7833 18.6917 28.9583 18.325 28.9583ZM21.6083 12.2833C21.5833 12.3167 21.4083 12.4 21.1333 12.7167L14.825 19.8833C14.5917 20.15 14.5583 20.3167 14.5583 20.35C14.575 20.3583 14.725 20.4417 15.075 20.4417H17.65C17.9917 20.4417 18.275 20.725 18.275 21.0667V27.0667C18.275 27.4833 18.35 27.6667 18.3833 27.7167C18.4083 27.6833 18.5833 27.6 18.8583 27.2833L25.1667 20.1167C25.4 19.85 25.4333 19.6833 25.4333 19.65C25.4167 19.6417 25.2667 19.5583 24.9167 19.5583H22.3417C22 19.5583 21.7167 19.275 21.7167 18.9333V12.9333C21.725 12.5167 21.6417 12.3417 21.6083 12.2833Z" fill="#FF8A00"/>
</svg>
