<svg width="180" height="52" viewBox="0 0 180 52" fill="none" xmlns="http://www.w3.org/2000/svg">
<path d="M20.9922 27.2549C20.9922 26.6807 21.0332 26.1133 21.1152 25.5527C21.2018 24.9876 21.3499 24.4567 21.5596 23.96C21.7692 23.4587 22.0632 23.0166 22.4414 22.6338C22.8197 22.2464 23.3005 21.9434 23.8838 21.7246C24.4671 21.5013 25.1735 21.3896 26.0029 21.3896C26.1989 21.3896 26.4268 21.3988 26.6865 21.417C26.9508 21.4307 27.1696 21.4557 27.3428 21.4922V23.1807C27.1605 23.1396 26.9645 23.1077 26.7549 23.085C26.5498 23.0576 26.3447 23.0439 26.1396 23.0439C25.3102 23.0439 24.6676 23.1761 24.2119 23.4404C23.7607 23.7048 23.4417 24.0716 23.2549 24.541C23.0726 25.0059 22.9655 25.5482 22.9336 26.168H23.0225C23.1501 25.9447 23.3096 25.7464 23.501 25.5732C23.6969 25.4001 23.9339 25.2633 24.2119 25.1631C24.4899 25.0583 24.8158 25.0059 25.1895 25.0059C25.7728 25.0059 26.2786 25.1312 26.707 25.3818C27.1354 25.6279 27.4658 25.9857 27.6982 26.4551C27.9307 26.9245 28.0469 27.4964 28.0469 28.1709C28.0469 28.891 27.9079 29.5107 27.6299 30.0303C27.3519 30.5498 26.9577 30.9486 26.4473 31.2266C25.9414 31.5 25.3398 31.6367 24.6426 31.6367C24.1322 31.6367 23.6559 31.5501 23.2139 31.377C22.7718 31.1992 22.3844 30.9303 22.0518 30.5703C21.7191 30.2103 21.4593 29.7568 21.2725 29.21C21.0856 28.6585 20.9922 28.0068 20.9922 27.2549ZM24.6016 29.9482C25.0163 29.9482 25.3535 29.807 25.6133 29.5244C25.873 29.2419 26.0029 28.7998 26.0029 28.1982C26.0029 27.7106 25.889 27.3278 25.6611 27.0498C25.4378 26.7673 25.0983 26.626 24.6426 26.626C24.3327 26.626 24.0592 26.6966 23.8223 26.8379C23.5898 26.9746 23.4098 27.1501 23.2822 27.3643C23.1546 27.5739 23.0908 27.7904 23.0908 28.0137C23.0908 28.2461 23.1227 28.4762 23.1865 28.7041C23.2503 28.932 23.346 29.1393 23.4736 29.3262C23.6012 29.513 23.7585 29.6634 23.9453 29.7773C24.1367 29.8913 24.3555 29.9482 24.6016 29.9482Z" fill="#6B6B6B"/>
<rect x="0.75" y="1.75" width="48.5" height="48.5" rx="7.25" stroke="#6B6B6B" stroke-width="1.5"/>
<path d="M157.657 23.7412C157.657 24.2015 157.562 24.6003 157.37 24.9375C157.179 25.2747 156.919 25.5505 156.591 25.7646C156.267 25.9788 155.903 26.1361 155.497 26.2363V26.2773C156.299 26.3776 156.908 26.6237 157.322 27.0156C157.742 27.4076 157.951 27.9316 157.951 28.5879C157.951 29.1712 157.808 29.693 157.521 30.1533C157.238 30.6136 156.8 30.9759 156.208 31.2402C155.616 31.5046 154.852 31.6367 153.918 31.6367C153.367 31.6367 152.852 31.5911 152.373 31.5C151.899 31.4134 151.452 31.279 151.033 31.0967V29.2988C151.462 29.5176 151.91 29.6839 152.38 29.7979C152.849 29.9072 153.287 29.9619 153.692 29.9619C154.449 29.9619 154.978 29.832 155.278 29.5723C155.584 29.3079 155.736 28.9388 155.736 28.4648C155.736 28.1868 155.666 27.9521 155.524 27.7607C155.383 27.5693 155.137 27.4235 154.786 27.3232C154.44 27.223 153.954 27.1729 153.33 27.1729H152.571V25.5527H153.344C153.959 25.5527 154.426 25.4958 154.745 25.3818C155.069 25.2633 155.287 25.1038 155.401 24.9033C155.52 24.6982 155.579 24.4658 155.579 24.2061C155.579 23.8506 155.47 23.5726 155.251 23.3721C155.032 23.1715 154.668 23.0713 154.157 23.0713C153.838 23.0713 153.547 23.1123 153.282 23.1943C153.022 23.2718 152.788 23.3675 152.578 23.4814C152.368 23.5908 152.184 23.6979 152.024 23.8027L151.047 22.3467C151.439 22.0641 151.897 21.8294 152.421 21.6426C152.95 21.4557 153.578 21.3623 154.308 21.3623C155.338 21.3623 156.153 21.5697 156.755 21.9844C157.356 22.3991 157.657 22.9847 157.657 23.7412Z" fill="#6B6B6B"/>
<rect x="130.75" y="1.75" width="48.5" height="48.5" rx="7.25" stroke="#6B6B6B" stroke-width="1.5"/>
<path d="M85.8638 30.9961V27.4561H93.4678V30.9961H85.8638Z" fill="#3281FF"/>
<rect x="65" y="1" width="50" height="50" rx="8" stroke="#3281FF" stroke-width="1.5"/>
</svg>
