<svg width="16" height="16" viewBox="0 0 16 16" fill="none" xmlns="http://www.w3.org/2000/svg">
<g id="vuesax/linear/chart">
<g id="chart">
<path id="Vector" d="M2 14.667H14" stroke="#435872" stroke-linecap="round" stroke-linejoin="round"/>
<g id="Group">
<path id="Vector_2" d="M3.73332 5.58691H2.66667C2.3 5.58691 2 5.88691 2 6.25358V12.0002C2 12.3669 2.3 12.6669 2.66667 12.6669H3.73332C4.09998 12.6669 4.39998 12.3669 4.39998 12.0002V6.25358C4.39998 5.88691 4.09998 5.58691 3.73332 5.58691Z" stroke="#435872" stroke-linecap="round" stroke-linejoin="round"/>
<path id="Vector_3" d="M8.5333 3.45996H7.46665C7.09999 3.45996 6.79999 3.75996 6.79999 4.12663V12C6.79999 12.3666 7.09999 12.6666 7.46665 12.6666H8.5333C8.89997 12.6666 9.19997 12.3666 9.19997 12V4.12663C9.19997 3.75996 8.89997 3.45996 8.5333 3.45996Z" stroke="#435872" stroke-linecap="round" stroke-linejoin="round"/>
<path id="Vector_4" d="M13.3334 1.33301H12.2667C11.9 1.33301 11.6 1.63301 11.6 1.99967V11.9997C11.6 12.3663 11.9 12.6663 12.2667 12.6663H13.3334C13.7 12.6663 14 12.3663 14 11.9997V1.99967C14 1.63301 13.7 1.33301 13.3334 1.33301Z" stroke="#435872" stroke-linecap="round" stroke-linejoin="round"/>
</g>
</g>
</g>
</svg>
