<svg width="500" height="382" viewBox="0 0 500 382" fill="none" xmlns="http://www.w3.org/2000/svg">
<g clip-path="url(#clip0_221_1172)">
<path d="M266.954 26.3979L99.3789 148.034L163.385 344.854H370.516L434.528 148.034L266.954 26.3979Z" stroke="#C1C1C1" stroke-miterlimit="10"/>
<path d="M266.954 53.8521L128.271 154.519L181.24 317.4H352.661L405.636 154.519L266.954 53.8521Z" stroke="#C1C1C1" stroke-miterlimit="10"/>
<path d="M266.953 81.3062L157.163 160.997L199.095 289.946H334.805L376.744 160.997L266.953 81.3062Z" stroke="#C1C1C1" stroke-miterlimit="10"/>
<path d="M266.954 108.754L186.056 167.475L216.957 262.492H316.95L347.852 167.475L266.954 108.754Z" stroke="#C1C1C1" stroke-miterlimit="10"/>
<path d="M266.954 136.208L214.948 173.96L234.813 235.038H299.095L318.96 173.96L266.954 136.208Z" stroke="#C1C1C1" stroke-miterlimit="10"/>
<path d="M266.954 26.3979V185.626" stroke="#C1C1C1" stroke-miterlimit="10"/>
<path d="M434.528 148.034L266.954 185.626" stroke="#C1C1C1" stroke-miterlimit="10"/>
<path d="M99.3789 148.034L266.954 185.626" stroke="#C1C1C1" stroke-miterlimit="10"/>
<path d="M163.385 344.854L266.954 185.626" stroke="#C1C1C1" stroke-miterlimit="10"/>
<path d="M370.516 344.854L266.954 185.626" stroke="#C1C1C1" stroke-miterlimit="10"/>
<path d="M215.276 173.889L215.254 173.933L215.251 173.982L207.751 277.982L207.73 278.271L208.019 278.25L322.019 269.75L322.179 269.738L322.234 269.587L361.234 164.587L361.29 164.436L361.176 164.323L267.13 70.779L266.885 70.535L266.73 70.8446L215.276 173.889Z" fill="#3281FF" fill-opacity="0.3" stroke="#3281FF" stroke-width="0.5"/>
<path d="M215.487 177.974C217.413 177.974 218.974 176.413 218.974 174.487C218.974 172.561 217.413 171 215.487 171C213.561 171 212 172.561 212 174.487C212 176.413 213.561 177.974 215.487 177.974Z" fill="#3281FF"/>
<g filter="url(#filter0_d_221_1172)">
<circle cx="267.234" cy="71.2335" r="4.23352" fill="#3281FF"/>
<circle cx="267.234" cy="71.2335" r="3.17514" stroke="white" stroke-width="2.11676"/>
</g>
<path d="M360.487 167.974C362.413 167.974 363.974 166.413 363.974 164.487C363.974 162.561 362.413 161 360.487 161C358.561 161 357 162.561 357 164.487C357 166.413 358.561 167.974 360.487 167.974Z" fill="#3281FF"/>
<path d="M322.487 272.974C324.413 272.974 325.974 271.413 325.974 269.487C325.974 267.561 324.413 266 322.487 266C320.561 266 319 267.561 319 269.487C319 271.413 320.561 272.974 322.487 272.974Z" fill="#3281FF"/>
<path d="M207.487 280.974C209.413 280.974 210.974 279.413 210.974 277.487C210.974 275.561 209.413 274 207.487 274C205.561 274 204 275.561 204 277.487C204 279.413 205.561 280.974 207.487 280.974Z" fill="#3281FF"/>
<path d="M265.848 79.2812V85H265.125V80.1836L263.668 80.7148V80.0625L265.734 79.2812H265.848ZM268.887 82.293L268.309 82.1445L268.594 79.3125H271.512V79.9805H269.207L269.035 81.5273C269.139 81.4674 269.271 81.4115 269.43 81.3594C269.591 81.3073 269.776 81.2812 269.984 81.2812C270.247 81.2812 270.483 81.3268 270.691 81.418C270.9 81.5065 271.077 81.6341 271.223 81.8008C271.371 81.9674 271.484 82.168 271.562 82.4023C271.641 82.6367 271.68 82.8984 271.68 83.1875C271.68 83.4609 271.642 83.7122 271.566 83.9414C271.493 84.1706 271.383 84.3711 271.234 84.543C271.086 84.7122 270.898 84.8438 270.672 84.9375C270.448 85.0312 270.184 85.0781 269.879 85.0781C269.65 85.0781 269.432 85.0469 269.227 84.9844C269.023 84.9193 268.841 84.8216 268.68 84.6914C268.521 84.5586 268.391 84.3945 268.289 84.1992C268.19 84.0013 268.128 83.7695 268.102 83.5039H268.789C268.82 83.7174 268.883 83.8971 268.977 84.043C269.07 84.1888 269.193 84.2995 269.344 84.375C269.497 84.4479 269.676 84.4844 269.879 84.4844C270.051 84.4844 270.203 84.4544 270.336 84.3945C270.469 84.3346 270.581 84.2487 270.672 84.1367C270.763 84.0247 270.832 83.8893 270.879 83.7305C270.928 83.5716 270.953 83.3932 270.953 83.1953C270.953 83.0156 270.928 82.849 270.879 82.6953C270.829 82.5417 270.755 82.4076 270.656 82.293C270.56 82.1784 270.441 82.0898 270.301 82.0273C270.16 81.9622 269.999 81.9297 269.816 81.9297C269.574 81.9297 269.391 81.9622 269.266 82.0273C269.143 82.0924 269.017 82.181 268.887 82.293Z" fill="#858585"/>
<path d="M266.637 136.293L266.059 136.145L266.344 133.312H269.262V133.98H266.957L266.785 135.527C266.889 135.467 267.021 135.411 267.18 135.359C267.341 135.307 267.526 135.281 267.734 135.281C267.997 135.281 268.233 135.327 268.441 135.418C268.65 135.507 268.827 135.634 268.973 135.801C269.121 135.967 269.234 136.168 269.312 136.402C269.391 136.637 269.43 136.898 269.43 137.188C269.43 137.461 269.392 137.712 269.316 137.941C269.243 138.171 269.133 138.371 268.984 138.543C268.836 138.712 268.648 138.844 268.422 138.938C268.198 139.031 267.934 139.078 267.629 139.078C267.4 139.078 267.182 139.047 266.977 138.984C266.773 138.919 266.591 138.822 266.43 138.691C266.271 138.559 266.141 138.395 266.039 138.199C265.94 138.001 265.878 137.77 265.852 137.504H266.539C266.57 137.717 266.633 137.897 266.727 138.043C266.82 138.189 266.943 138.299 267.094 138.375C267.247 138.448 267.426 138.484 267.629 138.484C267.801 138.484 267.953 138.454 268.086 138.395C268.219 138.335 268.331 138.249 268.422 138.137C268.513 138.025 268.582 137.889 268.629 137.73C268.678 137.572 268.703 137.393 268.703 137.195C268.703 137.016 268.678 136.849 268.629 136.695C268.579 136.542 268.505 136.408 268.406 136.293C268.31 136.178 268.191 136.09 268.051 136.027C267.91 135.962 267.749 135.93 267.566 135.93C267.324 135.93 267.141 135.962 267.016 136.027C266.893 136.092 266.767 136.181 266.637 136.293Z" fill="#858585"/>
<g filter="url(#filter1_d_221_1172)">
<rect x="237" y="30" width="60.6707" height="33.8636" rx="6.77273" fill="#D6E9F5"/>
<path d="M253.143 41.9316V36.2196H257.663V41.9316H256.455V37.2276H254.351V41.9316H253.143ZM260.507 37.4756C261.094 37.4756 261.542 37.6036 261.851 37.8596C262.166 38.1103 262.323 38.497 262.323 39.0196V41.9316H261.491L261.259 41.3396H261.227C261.105 41.4943 260.977 41.6223 260.843 41.7236C260.715 41.825 260.566 41.897 260.395 41.9396C260.23 41.9876 260.025 42.0116 259.779 42.0116C259.523 42.0116 259.291 41.9636 259.083 41.8676C258.881 41.7663 258.721 41.6143 258.603 41.4116C258.486 41.2036 258.427 40.9423 258.427 40.6276C258.427 40.1636 258.59 39.8223 258.915 39.6036C259.241 39.3796 259.729 39.257 260.379 39.2356L261.139 39.2116V39.0196C261.139 38.7903 261.078 38.6223 260.955 38.5156C260.838 38.409 260.673 38.3556 260.459 38.3556C260.246 38.3556 260.038 38.3876 259.835 38.4516C259.633 38.5103 259.43 38.585 259.227 38.6756L258.835 37.8676C259.07 37.745 259.329 37.649 259.611 37.5796C259.899 37.5103 260.198 37.4756 260.507 37.4756ZM260.675 39.9236C260.291 39.9343 260.025 40.0036 259.875 40.1316C259.726 40.2596 259.651 40.4276 259.651 40.6356C259.651 40.817 259.705 40.9476 259.811 41.0276C259.918 41.1023 260.057 41.1396 260.227 41.1396C260.483 41.1396 260.699 41.065 260.875 40.9156C261.051 40.761 261.139 40.545 261.139 40.2676V39.9076L260.675 39.9236ZM268.755 37.5636V41.9316H267.643V39.7876C267.643 39.5743 267.646 39.3663 267.651 39.1636C267.662 38.961 267.675 38.7743 267.691 38.6036H267.667L266.459 41.9316H265.563L264.339 38.5956H264.307C264.328 38.7716 264.342 38.961 264.347 39.1636C264.358 39.361 264.363 39.5796 264.363 39.8196V41.9316H263.251V37.5636H264.939L266.027 40.5236L267.131 37.5636H268.755ZM270.372 41.9316H269.084L270.26 40.2036C270.111 40.1396 269.969 40.0543 269.836 39.9476C269.708 39.8356 269.604 39.6943 269.524 39.5236C269.444 39.353 269.404 39.1503 269.404 38.9156C269.404 38.4783 269.569 38.145 269.9 37.9156C270.231 37.681 270.655 37.5636 271.172 37.5636H273.204V41.9316H272.012V40.3076H271.356L270.372 41.9316ZM270.572 38.9236C270.572 39.105 270.644 39.249 270.788 39.3556C270.932 39.457 271.119 39.5076 271.348 39.5076H272.012V38.4036H271.196C270.983 38.4036 270.825 38.457 270.724 38.5636C270.623 38.665 270.572 38.785 270.572 38.9236ZM277.774 38.4596H276.342V41.9316H275.15V38.4596H273.718V37.5636H277.774V38.4596ZM280.319 39.2516C280.767 39.2516 281.137 39.2996 281.431 39.3956C281.724 39.4863 281.94 39.6276 282.079 39.8196C282.223 40.0116 282.295 40.2516 282.295 40.5396C282.295 40.8223 282.228 41.0676 282.095 41.2756C281.967 41.4836 281.761 41.6463 281.479 41.7636C281.196 41.8756 280.825 41.9316 280.367 41.9316H278.287V37.5636H279.479V39.2516H280.319ZM281.103 40.5556C281.103 40.385 281.033 40.2623 280.895 40.1876C280.761 40.113 280.561 40.0756 280.295 40.0756H279.479V41.1076H280.311C280.545 41.1076 280.735 41.065 280.879 40.9796C281.028 40.8943 281.103 40.753 281.103 40.5556Z" fill="black"/>
<path d="M263.222 57.7466V51.0986L261.842 51.4226V50.2466L263.87 49.3466H264.818V57.7466H263.222ZM266.634 57.7466L269.802 50.6546H265.662V49.3466H271.386V50.4386L268.23 57.7466H266.634Z" fill="#171717"/>
</g>
</g>
<path d="M266.199 25.4062V26H262.477V25.4805L264.34 23.4062C264.569 23.151 264.746 22.9349 264.871 22.7578C264.999 22.5781 265.087 22.418 265.137 22.2773C265.189 22.1341 265.215 21.9883 265.215 21.8398C265.215 21.6523 265.176 21.4831 265.098 21.332C265.022 21.1784 264.91 21.056 264.762 20.9648C264.613 20.8737 264.434 20.8281 264.223 20.8281C263.97 20.8281 263.759 20.8776 263.59 20.9766C263.423 21.0729 263.298 21.2083 263.215 21.3828C263.132 21.5573 263.09 21.7578 263.09 21.9844H262.367C262.367 21.6641 262.438 21.3711 262.578 21.1055C262.719 20.8398 262.927 20.6289 263.203 20.4727C263.479 20.3138 263.819 20.2344 264.223 20.2344C264.582 20.2344 264.889 20.2982 265.145 20.4258C265.4 20.5508 265.595 20.7279 265.73 20.957C265.868 21.1836 265.938 21.4492 265.938 21.7539C265.938 21.9206 265.909 22.0898 265.852 22.2617C265.797 22.431 265.72 22.6003 265.621 22.7695C265.525 22.9388 265.411 23.1055 265.281 23.2695C265.154 23.4336 265.017 23.5951 264.871 23.7539L263.348 25.4062H266.199ZM267.887 23.293L267.309 23.1445L267.594 20.3125H270.512V20.9805H268.207L268.035 22.5273C268.139 22.4674 268.271 22.4115 268.43 22.3594C268.591 22.3073 268.776 22.2812 268.984 22.2812C269.247 22.2812 269.483 22.3268 269.691 22.418C269.9 22.5065 270.077 22.6341 270.223 22.8008C270.371 22.9674 270.484 23.168 270.562 23.4023C270.641 23.6367 270.68 23.8984 270.68 24.1875C270.68 24.4609 270.642 24.7122 270.566 24.9414C270.493 25.1706 270.383 25.3711 270.234 25.543C270.086 25.7122 269.898 25.8438 269.672 25.9375C269.448 26.0312 269.184 26.0781 268.879 26.0781C268.65 26.0781 268.432 26.0469 268.227 25.9844C268.023 25.9193 267.841 25.8216 267.68 25.6914C267.521 25.5586 267.391 25.3945 267.289 25.1992C267.19 25.0013 267.128 24.7695 267.102 24.5039H267.789C267.82 24.7174 267.883 24.8971 267.977 25.043C268.07 25.1888 268.193 25.2995 268.344 25.375C268.497 25.4479 268.676 25.4844 268.879 25.4844C269.051 25.4844 269.203 25.4544 269.336 25.3945C269.469 25.3346 269.581 25.2487 269.672 25.1367C269.763 25.0247 269.832 24.8893 269.879 24.7305C269.928 24.5716 269.953 24.3932 269.953 24.1953C269.953 24.0156 269.928 23.849 269.879 23.6953C269.829 23.5417 269.755 23.4076 269.656 23.293C269.56 23.1784 269.441 23.0898 269.301 23.0273C269.16 22.9622 268.999 22.9297 268.816 22.9297C268.574 22.9297 268.391 22.9622 268.266 23.0273C268.143 23.0924 268.017 23.181 267.887 23.293Z" fill="#858585"/>
<path d="M253.566 2.46875V11H252.441V3.39453H248.234V11H247.104V2.46875H253.566ZM259.191 9.91602V6.65234C259.191 6.40234 259.141 6.18555 259.039 6.00195C258.941 5.81445 258.793 5.66992 258.594 5.56836C258.395 5.4668 258.148 5.41602 257.855 5.41602C257.582 5.41602 257.342 5.46289 257.135 5.55664C256.932 5.65039 256.771 5.77344 256.654 5.92578C256.541 6.07812 256.484 6.24219 256.484 6.41797H255.4C255.4 6.19141 255.459 5.9668 255.576 5.74414C255.693 5.52148 255.861 5.32031 256.08 5.14062C256.303 4.95703 256.568 4.8125 256.877 4.70703C257.189 4.59766 257.537 4.54297 257.92 4.54297C258.381 4.54297 258.787 4.62109 259.139 4.77734C259.494 4.93359 259.771 5.16992 259.971 5.48633C260.174 5.79883 260.275 6.19141 260.275 6.66406V9.61719C260.275 9.82812 260.293 10.0527 260.328 10.291C260.367 10.5293 260.424 10.7344 260.498 10.9062V11H259.367C259.312 10.875 259.27 10.709 259.238 10.502C259.207 10.291 259.191 10.0957 259.191 9.91602ZM259.379 7.15625L259.391 7.91797H258.295C257.986 7.91797 257.711 7.94336 257.469 7.99414C257.227 8.04102 257.023 8.11328 256.859 8.21094C256.695 8.30859 256.57 8.43164 256.484 8.58008C256.398 8.72461 256.355 8.89453 256.355 9.08984C256.355 9.28906 256.4 9.4707 256.49 9.63477C256.58 9.79883 256.715 9.92969 256.895 10.0273C257.078 10.1211 257.303 10.168 257.568 10.168C257.9 10.168 258.193 10.0977 258.447 9.95703C258.701 9.81641 258.902 9.64453 259.051 9.44141C259.203 9.23828 259.285 9.04102 259.297 8.84961L259.76 9.37109C259.732 9.53516 259.658 9.7168 259.537 9.91602C259.416 10.1152 259.254 10.3066 259.051 10.4902C258.852 10.6699 258.613 10.8203 258.336 10.9414C258.062 11.0586 257.754 11.1172 257.41 11.1172C256.98 11.1172 256.604 11.0332 256.279 10.8652C255.959 10.6973 255.709 10.4727 255.529 10.1914C255.354 9.90625 255.266 9.58789 255.266 9.23633C255.266 8.89648 255.332 8.59766 255.465 8.33984C255.598 8.07812 255.789 7.86133 256.039 7.68945C256.289 7.51367 256.59 7.38086 256.941 7.29102C257.293 7.20117 257.686 7.15625 258.119 7.15625H259.379ZM265.625 9.55859L267.781 4.66016H268.824L266 11H265.25L262.438 4.66016H263.48L265.625 9.55859ZM263.164 4.66016V11H262.08V4.66016H263.164ZM268.051 11V4.66016H269.141V11H268.051ZM272.17 7.97656H273.342L271.508 11H270.336L272.17 7.97656ZM273.078 4.66016H275.727V11H274.643V5.53906H273.078C272.77 5.53906 272.518 5.5918 272.322 5.69727C272.127 5.79883 271.984 5.93164 271.895 6.0957C271.805 6.25977 271.76 6.42969 271.76 6.60547C271.76 6.77734 271.801 6.94336 271.883 7.10352C271.965 7.25977 272.094 7.38867 272.27 7.49023C272.445 7.5918 272.672 7.64258 272.949 7.64258H274.936V8.5332H272.949C272.586 8.5332 272.264 8.48438 271.982 8.38672C271.701 8.28906 271.463 8.1543 271.268 7.98242C271.072 7.80664 270.924 7.60156 270.822 7.36719C270.721 7.12891 270.67 6.87109 270.67 6.59375C270.67 6.31641 270.723 6.06055 270.828 5.82617C270.938 5.5918 271.094 5.38672 271.297 5.21094C271.504 5.03516 271.756 4.90039 272.053 4.80664C272.354 4.70898 272.695 4.66016 273.078 4.66016ZM280.057 4.66016V11H278.967V4.66016H280.057ZM282.184 4.66016V5.53906H276.881V4.66016H282.184ZM284.141 6.83984H286.045C286.557 6.83984 286.988 6.92969 287.34 7.10938C287.691 7.28516 287.957 7.5293 288.137 7.8418C288.32 8.15039 288.412 8.50195 288.412 8.89648C288.412 9.18945 288.361 9.46484 288.26 9.72266C288.158 9.97656 288.006 10.1992 287.803 10.3906C287.604 10.582 287.355 10.7324 287.059 10.8418C286.766 10.9473 286.428 11 286.045 11H283.35V4.66016H284.434V10.1094H286.045C286.357 10.1094 286.607 10.0527 286.795 9.93945C286.982 9.82617 287.117 9.67969 287.199 9.5C287.281 9.32031 287.322 9.13281 287.322 8.9375C287.322 8.74609 287.281 8.55859 287.199 8.375C287.117 8.19141 286.982 8.03906 286.795 7.91797C286.607 7.79297 286.357 7.73047 286.045 7.73047H284.141V6.83984Z" fill="#858585"/>
<path d="M447.043 146.01H444.881L444.869 145.102H446.832C447.156 145.102 447.439 145.047 447.682 144.938C447.924 144.828 448.111 144.672 448.244 144.469C448.381 144.262 448.449 144.016 448.449 143.73C448.449 143.418 448.389 143.164 448.268 142.969C448.15 142.77 447.969 142.625 447.723 142.535C447.48 142.441 447.172 142.395 446.797 142.395H445.133V150H444.002V141.469H446.797C447.234 141.469 447.625 141.514 447.969 141.604C448.312 141.689 448.604 141.826 448.842 142.014C449.084 142.197 449.268 142.432 449.393 142.717C449.518 143.002 449.58 143.344 449.58 143.742C449.58 144.094 449.49 144.412 449.311 144.697C449.131 144.979 448.881 145.209 448.561 145.389C448.244 145.568 447.873 145.684 447.447 145.734L447.043 146.01ZM446.99 150H444.436L445.074 149.08H446.99C447.35 149.08 447.654 149.018 447.904 148.893C448.158 148.768 448.352 148.592 448.484 148.365C448.617 148.135 448.684 147.863 448.684 147.551C448.684 147.234 448.627 146.961 448.514 146.73C448.4 146.5 448.223 146.322 447.98 146.197C447.738 146.072 447.426 146.01 447.043 146.01H445.432L445.443 145.102H447.646L447.887 145.43C448.297 145.465 448.645 145.582 448.93 145.781C449.215 145.977 449.432 146.227 449.58 146.531C449.732 146.836 449.809 147.172 449.809 147.539C449.809 148.07 449.691 148.52 449.457 148.887C449.227 149.25 448.9 149.527 448.479 149.719C448.057 149.906 447.561 150 446.99 150ZM455.615 146.408V147.287H452.264V146.408H455.615ZM452.492 143.66V150H451.408V143.66H452.492ZM456.494 143.66V150H455.404V143.66H456.494ZM459.412 148.283L462.336 143.66H463.426V150H462.336V145.377L459.412 150H458.334V143.66H459.412V148.283ZM468.811 148.559L470.967 143.66H472.01L469.186 150H468.436L465.623 143.66H466.666L468.811 148.559ZM466.35 143.66V150H465.266V143.66H466.35ZM471.236 150V143.66H472.326V150H471.236ZM477.811 148.916V145.652C477.811 145.402 477.76 145.186 477.658 145.002C477.561 144.814 477.412 144.67 477.213 144.568C477.014 144.467 476.768 144.416 476.475 144.416C476.201 144.416 475.961 144.463 475.754 144.557C475.551 144.65 475.391 144.773 475.273 144.926C475.16 145.078 475.104 145.242 475.104 145.418H474.02C474.02 145.191 474.078 144.967 474.195 144.744C474.312 144.521 474.48 144.32 474.699 144.141C474.922 143.957 475.188 143.812 475.496 143.707C475.809 143.598 476.156 143.543 476.539 143.543C477 143.543 477.406 143.621 477.758 143.777C478.113 143.934 478.391 144.17 478.59 144.486C478.793 144.799 478.895 145.191 478.895 145.664V148.617C478.895 148.828 478.912 149.053 478.947 149.291C478.986 149.529 479.043 149.734 479.117 149.906V150H477.986C477.932 149.875 477.889 149.709 477.857 149.502C477.826 149.291 477.811 149.096 477.811 148.916ZM477.998 146.156L478.01 146.918H476.914C476.605 146.918 476.33 146.943 476.088 146.994C475.846 147.041 475.643 147.113 475.479 147.211C475.314 147.309 475.189 147.432 475.104 147.58C475.018 147.725 474.975 147.895 474.975 148.09C474.975 148.289 475.02 148.471 475.109 148.635C475.199 148.799 475.334 148.93 475.514 149.027C475.697 149.121 475.922 149.168 476.188 149.168C476.52 149.168 476.812 149.098 477.066 148.957C477.32 148.816 477.521 148.645 477.67 148.441C477.822 148.238 477.904 148.041 477.916 147.85L478.379 148.371C478.352 148.535 478.277 148.717 478.156 148.916C478.035 149.115 477.873 149.307 477.67 149.49C477.471 149.67 477.232 149.82 476.955 149.941C476.682 150.059 476.373 150.117 476.029 150.117C475.6 150.117 475.223 150.033 474.898 149.865C474.578 149.697 474.328 149.473 474.148 149.191C473.973 148.906 473.885 148.588 473.885 148.236C473.885 147.896 473.951 147.598 474.084 147.34C474.217 147.078 474.408 146.861 474.658 146.689C474.908 146.514 475.209 146.381 475.561 146.291C475.912 146.201 476.305 146.156 476.738 146.156H477.998ZM484.9 146.408V147.287H481.549V146.408H484.9ZM481.777 143.66V150H480.693V143.66H481.777ZM485.779 143.66V150H484.689V143.66H485.779ZM488.697 148.283L491.621 143.66H492.711V150H491.621V145.377L488.697 150H487.619V143.66H488.697V148.283ZM497.082 150.117C496.641 150.117 496.24 150.043 495.881 149.895C495.525 149.742 495.219 149.529 494.961 149.256C494.707 148.982 494.512 148.658 494.375 148.283C494.238 147.908 494.17 147.498 494.17 147.053V146.807C494.17 146.291 494.246 145.832 494.398 145.43C494.551 145.023 494.758 144.68 495.02 144.398C495.281 144.117 495.578 143.904 495.91 143.76C496.242 143.615 496.586 143.543 496.941 143.543C497.395 143.543 497.785 143.621 498.113 143.777C498.445 143.934 498.717 144.152 498.928 144.434C499.139 144.711 499.295 145.039 499.396 145.418C499.498 145.793 499.549 146.203 499.549 146.648V147.135H494.814V146.25H498.465V146.168C498.449 145.887 498.391 145.613 498.289 145.348C498.191 145.082 498.035 144.863 497.82 144.691C497.605 144.52 497.312 144.434 496.941 144.434C496.695 144.434 496.469 144.486 496.262 144.592C496.055 144.693 495.877 144.846 495.729 145.049C495.58 145.252 495.465 145.5 495.383 145.793C495.301 146.086 495.26 146.424 495.26 146.807V147.053C495.26 147.354 495.301 147.637 495.383 147.902C495.469 148.164 495.592 148.395 495.752 148.594C495.916 148.793 496.113 148.949 496.344 149.062C496.578 149.176 496.844 149.232 497.141 149.232C497.523 149.232 497.848 149.154 498.113 148.998C498.379 148.842 498.611 148.633 498.811 148.371L499.467 148.893C499.33 149.1 499.156 149.297 498.945 149.484C498.734 149.672 498.475 149.824 498.166 149.941C497.861 150.059 497.5 150.117 497.082 150.117Z" fill="#858585"/>
<path d="M368.836 356.469H369.932L372.727 363.424L375.516 356.469H376.617L373.148 365H372.293L368.836 356.469ZM368.479 356.469H369.445L369.604 361.672V365H368.479V356.469ZM376.002 356.469H376.969V365H375.844V361.672L376.002 356.469ZM379.682 360.84H381.586C382.098 360.84 382.529 360.93 382.881 361.109C383.232 361.285 383.498 361.529 383.678 361.842C383.861 362.15 383.953 362.502 383.953 362.896C383.953 363.189 383.902 363.465 383.801 363.723C383.699 363.977 383.547 364.199 383.344 364.391C383.145 364.582 382.896 364.732 382.6 364.842C382.307 364.947 381.969 365 381.586 365H378.891V358.66H379.975V364.109H381.586C381.898 364.109 382.148 364.053 382.336 363.939C382.523 363.826 382.658 363.68 382.74 363.5C382.822 363.32 382.863 363.133 382.863 362.938C382.863 362.746 382.822 362.559 382.74 362.375C382.658 362.191 382.523 362.039 382.336 361.918C382.148 361.793 381.898 361.73 381.586 361.73H379.682V360.84ZM386.209 358.66V365H385.125V358.66H386.209ZM388.201 358.66H389.285V364.109H391.605V358.66H392.695V364.109H395.01V358.66H396.094V365H388.201V358.66ZM402.059 358.66V359.557H398.994V358.66H402.059ZM403.014 358.66V365H401.93V358.66H403.014ZM398.73 358.66H399.82L399.656 361.719C399.629 362.191 399.584 362.609 399.521 362.973C399.463 363.332 399.381 363.641 399.275 363.898C399.174 364.156 399.045 364.367 398.889 364.531C398.736 364.691 398.553 364.811 398.338 364.889C398.123 364.963 397.875 365 397.594 365H397.254V364.045L397.488 364.027C397.656 364.016 397.799 363.977 397.916 363.91C398.037 363.844 398.139 363.746 398.221 363.617C398.303 363.484 398.369 363.314 398.42 363.107C398.475 362.9 398.516 362.654 398.543 362.369C398.574 362.084 398.598 361.752 398.613 361.373L398.73 358.66ZM407.391 365.117C406.949 365.117 406.549 365.043 406.189 364.895C405.834 364.742 405.527 364.529 405.27 364.256C405.016 363.982 404.82 363.658 404.684 363.283C404.547 362.908 404.479 362.498 404.479 362.053V361.807C404.479 361.291 404.555 360.832 404.707 360.43C404.859 360.023 405.066 359.68 405.328 359.398C405.59 359.117 405.887 358.904 406.219 358.76C406.551 358.615 406.895 358.543 407.25 358.543C407.703 358.543 408.094 358.621 408.422 358.777C408.754 358.934 409.025 359.152 409.236 359.434C409.447 359.711 409.604 360.039 409.705 360.418C409.807 360.793 409.857 361.203 409.857 361.648V362.135H405.123V361.25H408.773V361.168C408.758 360.887 408.699 360.613 408.598 360.348C408.5 360.082 408.344 359.863 408.129 359.691C407.914 359.52 407.621 359.434 407.25 359.434C407.004 359.434 406.777 359.486 406.57 359.592C406.363 359.693 406.186 359.846 406.037 360.049C405.889 360.252 405.773 360.5 405.691 360.793C405.609 361.086 405.568 361.424 405.568 361.807V362.053C405.568 362.354 405.609 362.637 405.691 362.902C405.777 363.164 405.9 363.395 406.061 363.594C406.225 363.793 406.422 363.949 406.652 364.062C406.887 364.176 407.152 364.232 407.449 364.232C407.832 364.232 408.156 364.154 408.422 363.998C408.688 363.842 408.92 363.633 409.119 363.371L409.775 363.893C409.639 364.1 409.465 364.297 409.254 364.484C409.043 364.672 408.783 364.824 408.475 364.941C408.17 365.059 407.809 365.117 407.391 365.117ZM415.424 361.408V362.287H412.072V361.408H415.424ZM412.301 358.66V365H411.217V358.66H412.301ZM416.303 358.66V365H415.213V358.66H416.303ZM419.221 363.283L422.145 358.66H423.234V365H422.145V360.377L419.221 365H418.143V358.66H419.221V363.283ZM427.605 365.117C427.164 365.117 426.764 365.043 426.404 364.895C426.049 364.742 425.742 364.529 425.484 364.256C425.23 363.982 425.035 363.658 424.898 363.283C424.762 362.908 424.693 362.498 424.693 362.053V361.807C424.693 361.291 424.77 360.832 424.922 360.43C425.074 360.023 425.281 359.68 425.543 359.398C425.805 359.117 426.102 358.904 426.434 358.76C426.766 358.615 427.109 358.543 427.465 358.543C427.918 358.543 428.309 358.621 428.637 358.777C428.969 358.934 429.24 359.152 429.451 359.434C429.662 359.711 429.818 360.039 429.92 360.418C430.021 360.793 430.072 361.203 430.072 361.648V362.135H425.338V361.25H428.988V361.168C428.973 360.887 428.914 360.613 428.812 360.348C428.715 360.082 428.559 359.863 428.344 359.691C428.129 359.52 427.836 359.434 427.465 359.434C427.219 359.434 426.992 359.486 426.785 359.592C426.578 359.693 426.4 359.846 426.252 360.049C426.104 360.252 425.988 360.5 425.906 360.793C425.824 361.086 425.783 361.424 425.783 361.807V362.053C425.783 362.354 425.824 362.637 425.906 362.902C425.992 363.164 426.115 363.395 426.275 363.594C426.439 363.793 426.637 363.949 426.867 364.062C427.102 364.176 427.367 364.232 427.664 364.232C428.047 364.232 428.371 364.154 428.637 363.998C428.902 363.842 429.135 363.633 429.334 363.371L429.99 363.893C429.854 364.1 429.68 364.297 429.469 364.484C429.258 364.672 428.998 364.824 428.689 364.941C428.385 365.059 428.023 365.117 427.605 365.117Z" fill="#858585"/>
<path d="M122.486 356.469V365H121.373V356.469H122.486ZM125.229 356.469V357.395H118.637V356.469H125.229ZM126.77 359.879V367.438H125.68V358.66H126.676L126.77 359.879ZM131.041 361.777V361.9C131.041 362.361 130.986 362.789 130.877 363.184C130.768 363.574 130.607 363.914 130.396 364.203C130.189 364.492 129.934 364.717 129.629 364.877C129.324 365.037 128.975 365.117 128.58 365.117C128.178 365.117 127.822 365.051 127.514 364.918C127.205 364.785 126.943 364.592 126.729 364.338C126.514 364.084 126.342 363.779 126.213 363.424C126.088 363.068 126.002 362.668 125.955 362.223V361.566C126.002 361.098 126.09 360.678 126.219 360.307C126.348 359.936 126.518 359.619 126.729 359.357C126.943 359.092 127.203 358.891 127.508 358.754C127.812 358.613 128.164 358.543 128.562 358.543C128.961 358.543 129.314 358.621 129.623 358.777C129.932 358.93 130.191 359.148 130.402 359.434C130.613 359.719 130.771 360.061 130.877 360.459C130.986 360.854 131.041 361.293 131.041 361.777ZM129.951 361.9V361.777C129.951 361.461 129.918 361.164 129.852 360.887C129.785 360.605 129.682 360.359 129.541 360.148C129.404 359.934 129.229 359.766 129.014 359.645C128.799 359.52 128.543 359.457 128.246 359.457C127.973 359.457 127.734 359.504 127.531 359.598C127.332 359.691 127.162 359.818 127.021 359.979C126.881 360.135 126.766 360.314 126.676 360.518C126.59 360.717 126.525 360.924 126.482 361.139V362.656C126.561 362.93 126.67 363.188 126.811 363.43C126.951 363.668 127.139 363.861 127.373 364.01C127.607 364.154 127.902 364.227 128.258 364.227C128.551 364.227 128.803 364.166 129.014 364.045C129.229 363.92 129.404 363.75 129.541 363.535C129.682 363.32 129.785 363.074 129.852 362.797C129.918 362.516 129.951 362.217 129.951 361.9ZM135.055 365.117C134.613 365.117 134.213 365.043 133.854 364.895C133.498 364.742 133.191 364.529 132.934 364.256C132.68 363.982 132.484 363.658 132.348 363.283C132.211 362.908 132.143 362.498 132.143 362.053V361.807C132.143 361.291 132.219 360.832 132.371 360.43C132.523 360.023 132.73 359.68 132.992 359.398C133.254 359.117 133.551 358.904 133.883 358.76C134.215 358.615 134.559 358.543 134.914 358.543C135.367 358.543 135.758 358.621 136.086 358.777C136.418 358.934 136.689 359.152 136.9 359.434C137.111 359.711 137.268 360.039 137.369 360.418C137.471 360.793 137.521 361.203 137.521 361.648V362.135H132.787V361.25H136.438V361.168C136.422 360.887 136.363 360.613 136.262 360.348C136.164 360.082 136.008 359.863 135.793 359.691C135.578 359.52 135.285 359.434 134.914 359.434C134.668 359.434 134.441 359.486 134.234 359.592C134.027 359.693 133.85 359.846 133.701 360.049C133.553 360.252 133.438 360.5 133.355 360.793C133.273 361.086 133.232 361.424 133.232 361.807V362.053C133.232 362.354 133.273 362.637 133.355 362.902C133.441 363.164 133.564 363.395 133.725 363.594C133.889 363.793 134.086 363.949 134.316 364.062C134.551 364.176 134.816 364.232 135.113 364.232C135.496 364.232 135.82 364.154 136.086 363.998C136.352 363.842 136.584 363.633 136.783 363.371L137.439 363.893C137.303 364.1 137.129 364.297 136.918 364.484C136.707 364.672 136.447 364.824 136.139 364.941C135.834 365.059 135.473 365.117 135.055 365.117ZM143.088 361.408V362.287H139.736V361.408H143.088ZM139.965 358.66V365H138.881V358.66H139.965ZM143.967 358.66V365H142.877V358.66H143.967ZM149.451 363.916V360.652C149.451 360.402 149.4 360.186 149.299 360.002C149.201 359.814 149.053 359.67 148.854 359.568C148.654 359.467 148.408 359.416 148.115 359.416C147.842 359.416 147.602 359.463 147.395 359.557C147.191 359.65 147.031 359.773 146.914 359.926C146.801 360.078 146.744 360.242 146.744 360.418H145.66C145.66 360.191 145.719 359.967 145.836 359.744C145.953 359.521 146.121 359.32 146.34 359.141C146.562 358.957 146.828 358.812 147.137 358.707C147.449 358.598 147.797 358.543 148.18 358.543C148.641 358.543 149.047 358.621 149.398 358.777C149.754 358.934 150.031 359.17 150.23 359.486C150.434 359.799 150.535 360.191 150.535 360.664V363.617C150.535 363.828 150.553 364.053 150.588 364.291C150.627 364.529 150.684 364.734 150.758 364.906V365H149.627C149.572 364.875 149.529 364.709 149.498 364.502C149.467 364.291 149.451 364.096 149.451 363.916ZM149.639 361.156L149.65 361.918H148.555C148.246 361.918 147.971 361.943 147.729 361.994C147.486 362.041 147.283 362.113 147.119 362.211C146.955 362.309 146.83 362.432 146.744 362.58C146.658 362.725 146.615 362.895 146.615 363.09C146.615 363.289 146.66 363.471 146.75 363.635C146.84 363.799 146.975 363.93 147.154 364.027C147.338 364.121 147.562 364.168 147.828 364.168C148.16 364.168 148.453 364.098 148.707 363.957C148.961 363.816 149.162 363.645 149.311 363.441C149.463 363.238 149.545 363.041 149.557 362.85L150.02 363.371C149.992 363.535 149.918 363.717 149.797 363.916C149.676 364.115 149.514 364.307 149.311 364.49C149.111 364.67 148.873 364.82 148.596 364.941C148.322 365.059 148.014 365.117 147.67 365.117C147.24 365.117 146.863 365.033 146.539 364.865C146.219 364.697 145.969 364.473 145.789 364.191C145.613 363.906 145.525 363.588 145.525 363.236C145.525 362.896 145.592 362.598 145.725 362.34C145.857 362.078 146.049 361.861 146.299 361.689C146.549 361.514 146.85 361.381 147.201 361.291C147.553 361.201 147.945 361.156 148.379 361.156H149.639ZM154.162 362.24L151.76 358.66H153.066L154.707 361.285H155.973L155.814 362.24H154.162ZM154.754 362.129L152.914 365H151.543L154.068 361.344L154.754 362.129ZM156.529 358.66V365H155.445V358.66H156.529ZM160.227 358.66L157.824 362.24H156.172L156.002 361.285H157.273L158.914 358.66H160.227ZM159.066 365L157.221 362.129L157.918 361.344L160.438 365H159.066ZM163.953 365.117C163.512 365.117 163.111 365.043 162.752 364.895C162.396 364.742 162.09 364.529 161.832 364.256C161.578 363.982 161.383 363.658 161.246 363.283C161.109 362.908 161.041 362.498 161.041 362.053V361.807C161.041 361.291 161.117 360.832 161.27 360.43C161.422 360.023 161.629 359.68 161.891 359.398C162.152 359.117 162.449 358.904 162.781 358.76C163.113 358.615 163.457 358.543 163.812 358.543C164.266 358.543 164.656 358.621 164.984 358.777C165.316 358.934 165.588 359.152 165.799 359.434C166.01 359.711 166.166 360.039 166.268 360.418C166.369 360.793 166.42 361.203 166.42 361.648V362.135H161.686V361.25H165.336V361.168C165.32 360.887 165.262 360.613 165.16 360.348C165.062 360.082 164.906 359.863 164.691 359.691C164.477 359.52 164.184 359.434 163.812 359.434C163.566 359.434 163.34 359.486 163.133 359.592C162.926 359.693 162.748 359.846 162.6 360.049C162.451 360.252 162.336 360.5 162.254 360.793C162.172 361.086 162.131 361.424 162.131 361.807V362.053C162.131 362.354 162.172 362.637 162.254 362.902C162.34 363.164 162.463 363.395 162.623 363.594C162.787 363.793 162.984 363.949 163.215 364.062C163.449 364.176 163.715 364.232 164.012 364.232C164.395 364.232 164.719 364.154 164.984 363.998C165.25 363.842 165.482 363.633 165.682 363.371L166.338 363.893C166.201 364.1 166.027 364.297 165.816 364.484C165.605 364.672 165.346 364.824 165.037 364.941C164.732 365.059 164.371 365.117 163.953 365.117ZM168.77 359.879V367.438H167.68V358.66H168.676L168.77 359.879ZM173.041 361.777V361.9C173.041 362.361 172.986 362.789 172.877 363.184C172.768 363.574 172.607 363.914 172.396 364.203C172.189 364.492 171.934 364.717 171.629 364.877C171.324 365.037 170.975 365.117 170.58 365.117C170.178 365.117 169.822 365.051 169.514 364.918C169.205 364.785 168.943 364.592 168.729 364.338C168.514 364.084 168.342 363.779 168.213 363.424C168.088 363.068 168.002 362.668 167.955 362.223V361.566C168.002 361.098 168.09 360.678 168.219 360.307C168.348 359.936 168.518 359.619 168.729 359.357C168.943 359.092 169.203 358.891 169.508 358.754C169.812 358.613 170.164 358.543 170.562 358.543C170.961 358.543 171.314 358.621 171.623 358.777C171.932 358.93 172.191 359.148 172.402 359.434C172.613 359.719 172.771 360.061 172.877 360.459C172.986 360.854 173.041 361.293 173.041 361.777ZM171.951 361.9V361.777C171.951 361.461 171.918 361.164 171.852 360.887C171.785 360.605 171.682 360.359 171.541 360.148C171.404 359.934 171.229 359.766 171.014 359.645C170.799 359.52 170.543 359.457 170.246 359.457C169.973 359.457 169.734 359.504 169.531 359.598C169.332 359.691 169.162 359.818 169.021 359.979C168.881 360.135 168.766 360.314 168.676 360.518C168.59 360.717 168.525 360.924 168.482 361.139V362.656C168.561 362.93 168.67 363.188 168.811 363.43C168.951 363.668 169.139 363.861 169.373 364.01C169.607 364.154 169.902 364.227 170.258 364.227C170.551 364.227 170.803 364.166 171.014 364.045C171.229 363.92 171.404 363.75 171.541 363.535C171.682 363.32 171.785 363.074 171.852 362.797C171.918 362.516 171.951 362.217 171.951 361.9ZM175.314 360.84H177.219C177.73 360.84 178.162 360.93 178.514 361.109C178.865 361.285 179.131 361.529 179.311 361.842C179.494 362.15 179.586 362.502 179.586 362.896C179.586 363.189 179.535 363.465 179.434 363.723C179.332 363.977 179.18 364.199 178.977 364.391C178.777 364.582 178.529 364.732 178.232 364.842C177.939 364.947 177.602 365 177.219 365H174.523V358.66H175.607V364.109H177.219C177.531 364.109 177.781 364.053 177.969 363.939C178.156 363.826 178.291 363.68 178.373 363.5C178.455 363.32 178.496 363.133 178.496 362.938C178.496 362.746 178.455 362.559 178.373 362.375C178.291 362.191 178.156 362.039 177.969 361.918C177.781 361.793 177.531 361.73 177.219 361.73H175.314V360.84ZM181.842 358.66V365H180.758V358.66H181.842ZM187.859 358.66H188.943L188.85 361.033C188.826 361.635 188.758 362.154 188.645 362.592C188.531 363.029 188.387 363.402 188.211 363.711C188.035 364.016 187.838 364.271 187.619 364.479C187.404 364.686 187.182 364.859 186.951 365H186.412L186.441 364.115L186.664 364.109C186.793 363.957 186.918 363.801 187.039 363.641C187.16 363.477 187.271 363.283 187.373 363.061C187.475 362.834 187.559 362.559 187.625 362.234C187.695 361.906 187.74 361.506 187.76 361.033L187.859 358.66ZM188.129 358.66H191.943V365H190.859V359.662H188.129V358.66ZM186.166 364.109H192.758V366.869H191.674V365H187.25V366.869H186.16L186.166 364.109ZM198.195 358.66V359.557H195.131V358.66H198.195ZM199.15 358.66V365H198.066V358.66H199.15ZM194.867 358.66H195.957L195.793 361.719C195.766 362.191 195.721 362.609 195.658 362.973C195.6 363.332 195.518 363.641 195.412 363.898C195.311 364.156 195.182 364.367 195.025 364.531C194.873 364.691 194.689 364.811 194.475 364.889C194.26 364.963 194.012 365 193.73 365H193.391V364.045L193.625 364.027C193.793 364.016 193.936 363.977 194.053 363.91C194.174 363.844 194.275 363.746 194.357 363.617C194.439 363.484 194.506 363.314 194.557 363.107C194.611 362.9 194.652 362.654 194.68 362.369C194.711 362.084 194.734 361.752 194.75 361.373L194.867 358.66ZM202.18 361.977H203.352L201.518 365H200.346L202.18 361.977ZM203.088 358.66H205.736V365H204.652V359.539H203.088C202.779 359.539 202.527 359.592 202.332 359.697C202.137 359.799 201.994 359.932 201.904 360.096C201.814 360.26 201.77 360.43 201.77 360.605C201.77 360.777 201.811 360.943 201.893 361.104C201.975 361.26 202.104 361.389 202.279 361.49C202.455 361.592 202.682 361.643 202.959 361.643H204.945V362.533H202.959C202.596 362.533 202.273 362.484 201.992 362.387C201.711 362.289 201.473 362.154 201.277 361.982C201.082 361.807 200.934 361.602 200.832 361.367C200.73 361.129 200.68 360.871 200.68 360.594C200.68 360.316 200.732 360.061 200.838 359.826C200.947 359.592 201.104 359.387 201.307 359.211C201.514 359.035 201.766 358.9 202.062 358.807C202.363 358.709 202.705 358.66 203.088 358.66ZM114.805 378.227C115.062 378.227 115.301 378.174 115.52 378.068C115.738 377.963 115.918 377.818 116.059 377.635C116.199 377.447 116.279 377.234 116.299 376.996H117.33C117.311 377.371 117.184 377.721 116.949 378.045C116.719 378.365 116.416 378.625 116.041 378.824C115.666 379.02 115.254 379.117 114.805 379.117C114.328 379.117 113.912 379.033 113.557 378.865C113.205 378.697 112.912 378.467 112.678 378.174C112.447 377.881 112.273 377.545 112.156 377.166C112.043 376.783 111.986 376.379 111.986 375.953V375.707C111.986 375.281 112.043 374.879 112.156 374.5C112.273 374.117 112.447 373.779 112.678 373.486C112.912 373.193 113.205 372.963 113.557 372.795C113.912 372.627 114.328 372.543 114.805 372.543C115.301 372.543 115.734 372.645 116.105 372.848C116.477 373.047 116.768 373.32 116.979 373.668C117.193 374.012 117.311 374.402 117.33 374.84H116.299C116.279 374.578 116.205 374.342 116.076 374.131C115.951 373.92 115.779 373.752 115.561 373.627C115.346 373.498 115.094 373.434 114.805 373.434C114.473 373.434 114.193 373.5 113.967 373.633C113.744 373.762 113.566 373.938 113.434 374.16C113.305 374.379 113.211 374.623 113.152 374.893C113.098 375.158 113.07 375.43 113.07 375.707V375.953C113.07 376.23 113.098 376.504 113.152 376.773C113.207 377.043 113.299 377.287 113.428 377.506C113.561 377.725 113.738 377.9 113.961 378.033C114.188 378.162 114.469 378.227 114.805 378.227ZM119.727 372.66V379H118.643V372.66H119.727ZM123.887 372.66L120.881 376.293H119.363L119.199 375.344H120.441L122.568 372.66H123.887ZM122.721 379L120.389 376.129L121.086 375.344L124.098 379H122.721ZM124.625 375.9V375.766C124.625 375.309 124.691 374.885 124.824 374.494C124.957 374.1 125.148 373.758 125.398 373.469C125.648 373.176 125.951 372.949 126.307 372.789C126.662 372.625 127.061 372.543 127.502 372.543C127.947 372.543 128.348 372.625 128.703 372.789C129.062 372.949 129.367 373.176 129.617 373.469C129.871 373.758 130.064 374.1 130.197 374.494C130.33 374.885 130.396 375.309 130.396 375.766V375.9C130.396 376.357 130.33 376.781 130.197 377.172C130.064 377.562 129.871 377.904 129.617 378.197C129.367 378.486 129.064 378.713 128.709 378.877C128.357 379.037 127.959 379.117 127.514 379.117C127.068 379.117 126.668 379.037 126.312 378.877C125.957 378.713 125.652 378.486 125.398 378.197C125.148 377.904 124.957 377.562 124.824 377.172C124.691 376.781 124.625 376.357 124.625 375.9ZM125.709 375.766V375.9C125.709 376.217 125.746 376.516 125.82 376.797C125.895 377.074 126.006 377.32 126.154 377.535C126.307 377.75 126.496 377.92 126.723 378.045C126.949 378.166 127.213 378.227 127.514 378.227C127.811 378.227 128.07 378.166 128.293 378.045C128.52 377.92 128.707 377.75 128.855 377.535C129.004 377.32 129.115 377.074 129.189 376.797C129.268 376.516 129.307 376.217 129.307 375.9V375.766C129.307 375.453 129.268 375.158 129.189 374.881C129.115 374.6 129.002 374.352 128.85 374.137C128.701 373.918 128.514 373.746 128.287 373.621C128.064 373.496 127.803 373.434 127.502 373.434C127.205 373.434 126.943 373.496 126.717 373.621C126.494 373.746 126.307 373.918 126.154 374.137C126.006 374.352 125.895 374.6 125.82 374.881C125.746 375.158 125.709 375.453 125.709 375.766ZM132.84 373.879V381.438H131.75V372.66H132.746L132.84 373.879ZM137.111 375.777V375.9C137.111 376.361 137.057 376.789 136.947 377.184C136.838 377.574 136.678 377.914 136.467 378.203C136.26 378.492 136.004 378.717 135.699 378.877C135.395 379.037 135.045 379.117 134.65 379.117C134.248 379.117 133.893 379.051 133.584 378.918C133.275 378.785 133.014 378.592 132.799 378.338C132.584 378.084 132.412 377.779 132.283 377.424C132.158 377.068 132.072 376.668 132.025 376.223V375.566C132.072 375.098 132.16 374.678 132.289 374.307C132.418 373.936 132.588 373.619 132.799 373.357C133.014 373.092 133.273 372.891 133.578 372.754C133.883 372.613 134.234 372.543 134.633 372.543C135.031 372.543 135.385 372.621 135.693 372.777C136.002 372.93 136.262 373.148 136.473 373.434C136.684 373.719 136.842 374.061 136.947 374.459C137.057 374.854 137.111 375.293 137.111 375.777ZM136.021 375.9V375.777C136.021 375.461 135.988 375.164 135.922 374.887C135.855 374.605 135.752 374.359 135.611 374.148C135.475 373.934 135.299 373.766 135.084 373.645C134.869 373.52 134.613 373.457 134.316 373.457C134.043 373.457 133.805 373.504 133.602 373.598C133.402 373.691 133.232 373.818 133.092 373.979C132.951 374.135 132.836 374.314 132.746 374.518C132.66 374.717 132.596 374.924 132.553 375.139V376.656C132.631 376.93 132.74 377.188 132.881 377.43C133.021 377.668 133.209 377.861 133.443 378.01C133.678 378.154 133.973 378.227 134.328 378.227C134.621 378.227 134.873 378.166 135.084 378.045C135.299 377.92 135.475 377.75 135.611 377.535C135.752 377.32 135.855 377.074 135.922 376.797C135.988 376.516 136.021 376.217 136.021 375.9ZM138.207 375.9V375.766C138.207 375.309 138.273 374.885 138.406 374.494C138.539 374.1 138.73 373.758 138.98 373.469C139.23 373.176 139.533 372.949 139.889 372.789C140.244 372.625 140.643 372.543 141.084 372.543C141.529 372.543 141.93 372.625 142.285 372.789C142.645 372.949 142.949 373.176 143.199 373.469C143.453 373.758 143.646 374.1 143.779 374.494C143.912 374.885 143.979 375.309 143.979 375.766V375.9C143.979 376.357 143.912 376.781 143.779 377.172C143.646 377.562 143.453 377.904 143.199 378.197C142.949 378.486 142.646 378.713 142.291 378.877C141.939 379.037 141.541 379.117 141.096 379.117C140.65 379.117 140.25 379.037 139.895 378.877C139.539 378.713 139.234 378.486 138.98 378.197C138.73 377.904 138.539 377.562 138.406 377.172C138.273 376.781 138.207 376.357 138.207 375.9ZM139.291 375.766V375.9C139.291 376.217 139.328 376.516 139.402 376.797C139.477 377.074 139.588 377.32 139.736 377.535C139.889 377.75 140.078 377.92 140.305 378.045C140.531 378.166 140.795 378.227 141.096 378.227C141.393 378.227 141.652 378.166 141.875 378.045C142.102 377.92 142.289 377.75 142.438 377.535C142.586 377.32 142.697 377.074 142.771 376.797C142.85 376.516 142.889 376.217 142.889 375.9V375.766C142.889 375.453 142.85 375.158 142.771 374.881C142.697 374.6 142.584 374.352 142.432 374.137C142.283 373.918 142.096 373.746 141.869 373.621C141.646 373.496 141.385 373.434 141.084 373.434C140.787 373.434 140.525 373.496 140.299 373.621C140.076 373.746 139.889 373.918 139.736 374.137C139.588 374.352 139.477 374.6 139.402 374.881C139.328 375.158 139.291 375.453 139.291 375.766ZM147.875 378.227C148.133 378.227 148.371 378.174 148.59 378.068C148.809 377.963 148.988 377.818 149.129 377.635C149.27 377.447 149.35 377.234 149.369 376.996H150.4C150.381 377.371 150.254 377.721 150.02 378.045C149.789 378.365 149.486 378.625 149.111 378.824C148.736 379.02 148.324 379.117 147.875 379.117C147.398 379.117 146.982 379.033 146.627 378.865C146.275 378.697 145.982 378.467 145.748 378.174C145.518 377.881 145.344 377.545 145.227 377.166C145.113 376.783 145.057 376.379 145.057 375.953V375.707C145.057 375.281 145.113 374.879 145.227 374.5C145.344 374.117 145.518 373.779 145.748 373.486C145.982 373.193 146.275 372.963 146.627 372.795C146.982 372.627 147.398 372.543 147.875 372.543C148.371 372.543 148.805 372.645 149.176 372.848C149.547 373.047 149.838 373.32 150.049 373.668C150.264 374.012 150.381 374.402 150.4 374.84H149.369C149.35 374.578 149.275 374.342 149.146 374.131C149.021 373.92 148.85 373.752 148.631 373.627C148.416 373.498 148.164 373.434 147.875 373.434C147.543 373.434 147.264 373.5 147.037 373.633C146.814 373.762 146.637 373.938 146.504 374.16C146.375 374.379 146.281 374.623 146.223 374.893C146.168 375.158 146.141 375.43 146.141 375.707V375.953C146.141 376.23 146.168 376.504 146.223 376.773C146.277 377.043 146.369 377.287 146.498 377.506C146.631 377.725 146.809 377.9 147.031 378.033C147.258 378.162 147.539 378.227 147.875 378.227ZM154.203 372.66V379H153.113V372.66H154.203ZM156.33 372.66V373.539H151.027V372.66H156.33ZM158.568 377.283L161.492 372.66H162.582V379H161.492V374.377L158.568 379H157.49V372.66H158.568V377.283ZM168.383 373.879V381.438H167.293V372.66H168.289L168.383 373.879ZM172.654 375.777V375.9C172.654 376.361 172.6 376.789 172.49 377.184C172.381 377.574 172.221 377.914 172.01 378.203C171.803 378.492 171.547 378.717 171.242 378.877C170.938 379.037 170.588 379.117 170.193 379.117C169.791 379.117 169.436 379.051 169.127 378.918C168.818 378.785 168.557 378.592 168.342 378.338C168.127 378.084 167.955 377.779 167.826 377.424C167.701 377.068 167.615 376.668 167.568 376.223V375.566C167.615 375.098 167.703 374.678 167.832 374.307C167.961 373.936 168.131 373.619 168.342 373.357C168.557 373.092 168.816 372.891 169.121 372.754C169.426 372.613 169.777 372.543 170.176 372.543C170.574 372.543 170.928 372.621 171.236 372.777C171.545 372.93 171.805 373.148 172.016 373.434C172.227 373.719 172.385 374.061 172.49 374.459C172.6 374.854 172.654 375.293 172.654 375.777ZM171.564 375.9V375.777C171.564 375.461 171.531 375.164 171.465 374.887C171.398 374.605 171.295 374.359 171.154 374.148C171.018 373.934 170.842 373.766 170.627 373.645C170.412 373.52 170.156 373.457 169.859 373.457C169.586 373.457 169.348 373.504 169.145 373.598C168.945 373.691 168.775 373.818 168.635 373.979C168.494 374.135 168.379 374.314 168.289 374.518C168.203 374.717 168.139 374.924 168.096 375.139V376.656C168.174 376.93 168.283 377.188 168.424 377.43C168.564 377.668 168.752 377.861 168.986 378.01C169.221 378.154 169.516 378.227 169.871 378.227C170.164 378.227 170.416 378.166 170.627 378.045C170.842 377.92 171.018 377.75 171.154 377.535C171.295 377.32 171.398 377.074 171.465 376.797C171.531 376.516 171.564 376.217 171.564 375.9ZM176.668 379.117C176.227 379.117 175.826 379.043 175.467 378.895C175.111 378.742 174.805 378.529 174.547 378.256C174.293 377.982 174.098 377.658 173.961 377.283C173.824 376.908 173.756 376.498 173.756 376.053V375.807C173.756 375.291 173.832 374.832 173.984 374.43C174.137 374.023 174.344 373.68 174.605 373.398C174.867 373.117 175.164 372.904 175.496 372.76C175.828 372.615 176.172 372.543 176.527 372.543C176.98 372.543 177.371 372.621 177.699 372.777C178.031 372.934 178.303 373.152 178.514 373.434C178.725 373.711 178.881 374.039 178.982 374.418C179.084 374.793 179.135 375.203 179.135 375.648V376.135H174.4V375.25H178.051V375.168C178.035 374.887 177.977 374.613 177.875 374.348C177.777 374.082 177.621 373.863 177.406 373.691C177.191 373.52 176.898 373.434 176.527 373.434C176.281 373.434 176.055 373.486 175.848 373.592C175.641 373.693 175.463 373.846 175.314 374.049C175.166 374.252 175.051 374.5 174.969 374.793C174.887 375.086 174.846 375.424 174.846 375.807V376.053C174.846 376.354 174.887 376.637 174.969 376.902C175.055 377.164 175.178 377.395 175.338 377.594C175.502 377.793 175.699 377.949 175.93 378.062C176.164 378.176 176.43 378.232 176.727 378.232C177.109 378.232 177.434 378.154 177.699 377.998C177.965 377.842 178.197 377.633 178.396 377.371L179.053 377.893C178.916 378.1 178.742 378.297 178.531 378.484C178.32 378.672 178.061 378.824 177.752 378.941C177.447 379.059 177.086 379.117 176.668 379.117ZM184.139 377.916V374.652C184.139 374.402 184.088 374.186 183.986 374.002C183.889 373.814 183.74 373.67 183.541 373.568C183.342 373.467 183.096 373.416 182.803 373.416C182.529 373.416 182.289 373.463 182.082 373.557C181.879 373.65 181.719 373.773 181.602 373.926C181.488 374.078 181.432 374.242 181.432 374.418H180.348C180.348 374.191 180.406 373.967 180.523 373.744C180.641 373.521 180.809 373.32 181.027 373.141C181.25 372.957 181.516 372.812 181.824 372.707C182.137 372.598 182.484 372.543 182.867 372.543C183.328 372.543 183.734 372.621 184.086 372.777C184.441 372.934 184.719 373.17 184.918 373.486C185.121 373.799 185.223 374.191 185.223 374.664V377.617C185.223 377.828 185.24 378.053 185.275 378.291C185.314 378.529 185.371 378.734 185.445 378.906V379H184.314C184.26 378.875 184.217 378.709 184.186 378.502C184.154 378.291 184.139 378.096 184.139 377.916ZM184.326 375.156L184.338 375.918H183.242C182.934 375.918 182.658 375.943 182.416 375.994C182.174 376.041 181.971 376.113 181.807 376.211C181.643 376.309 181.518 376.432 181.432 376.58C181.346 376.725 181.303 376.895 181.303 377.09C181.303 377.289 181.348 377.471 181.438 377.635C181.527 377.799 181.662 377.93 181.842 378.027C182.025 378.121 182.25 378.168 182.516 378.168C182.848 378.168 183.141 378.098 183.395 377.957C183.648 377.816 183.85 377.645 183.998 377.441C184.15 377.238 184.232 377.041 184.244 376.85L184.707 377.371C184.68 377.535 184.605 377.717 184.484 377.916C184.363 378.115 184.201 378.307 183.998 378.49C183.799 378.67 183.561 378.82 183.283 378.941C183.01 379.059 182.701 379.117 182.357 379.117C181.928 379.117 181.551 379.033 181.227 378.865C180.906 378.697 180.656 378.473 180.477 378.191C180.301 377.906 180.213 377.588 180.213 377.236C180.213 376.896 180.279 376.598 180.412 376.34C180.545 376.078 180.736 375.861 180.986 375.689C181.236 375.514 181.537 375.381 181.889 375.291C182.24 375.201 182.633 375.156 183.066 375.156H184.326ZM188.105 372.66V379H187.021V372.66H188.105ZM192.266 372.66L189.26 376.293H187.742L187.578 375.344H188.82L190.947 372.66H192.266ZM191.1 379L188.768 376.129L189.465 375.344L192.477 379H191.1ZM193.514 379V372.66H194.598V378.109H197.516V372.66H198.605V379H193.514ZM199.355 378.109L199.25 380.881H198.283V379H197.457V378.109H199.355ZM201.705 377.283L204.629 372.66H205.719V379H204.629V374.377L201.705 379H200.627V372.66H201.705V377.283ZM208.631 377.283L211.555 372.66H212.645V379H211.555V374.377L208.631 379H207.553V372.66H208.631V377.283Z" fill="#858585"/>
<path d="M6.80469 145.283V146.209H3.30664V145.283H6.80469ZM1.22656 147.287H2.35156C2.41406 147.689 2.51758 148.033 2.66211 148.318C2.81055 148.604 3.02734 148.822 3.3125 148.975C3.59766 149.123 3.98047 149.197 4.46094 149.197C4.83984 149.197 5.16797 149.119 5.44531 148.963C5.72266 148.803 5.95117 148.584 6.13086 148.307C6.31055 148.029 6.44336 147.707 6.5293 147.34C6.61914 146.973 6.66406 146.58 6.66406 146.162V145.307C6.66406 144.943 6.63281 144.607 6.57031 144.299C6.50781 143.986 6.41406 143.707 6.28906 143.461C6.16406 143.211 6.00781 142.998 5.82031 142.822C5.63672 142.646 5.42188 142.512 5.17578 142.418C4.93359 142.324 4.66211 142.277 4.36133 142.277C3.92383 142.277 3.56641 142.355 3.28906 142.512C3.01562 142.668 2.80469 142.891 2.65625 143.18C2.51172 143.465 2.41016 143.807 2.35156 144.205H1.22656C1.28516 143.643 1.43945 143.148 1.68945 142.723C1.93945 142.293 2.28516 141.957 2.72656 141.715C3.17188 141.473 3.7168 141.352 4.36133 141.352C4.88867 141.352 5.36328 141.445 5.78516 141.633C6.20703 141.82 6.56641 142.088 6.86328 142.436C7.16406 142.783 7.39258 143.201 7.54883 143.689C7.70898 144.178 7.78906 144.721 7.78906 145.318V146.162C7.78906 146.76 7.70898 147.303 7.54883 147.791C7.39258 148.275 7.16797 148.691 6.875 149.039C6.58203 149.383 6.23047 149.648 5.82031 149.836C5.41406 150.023 4.96094 150.117 4.46094 150.117C3.77734 150.117 3.20703 149.994 2.75 149.748C2.29297 149.498 1.93945 149.16 1.68945 148.734C1.44336 148.309 1.28906 147.826 1.22656 147.287ZM16.5723 146.941V147.064C16.5723 147.51 16.5234 147.92 16.4258 148.295C16.3281 148.666 16.1816 148.988 15.9863 149.262C15.7949 149.535 15.5566 149.748 15.2715 149.9C14.9863 150.049 14.6562 150.123 14.2812 150.123C13.9727 150.123 13.7012 150.082 13.4668 150C13.2324 149.914 13.0332 149.791 12.8691 149.631C12.709 149.471 12.5801 149.279 12.4824 149.057C12.3887 148.83 12.3242 148.576 12.2891 148.295V145.482C12.3242 145.182 12.3887 144.912 12.4824 144.674C12.5801 144.436 12.709 144.232 12.8691 144.064C13.0332 143.896 13.2305 143.768 13.4609 143.678C13.6914 143.588 13.9609 143.543 14.2695 143.543C14.5742 143.543 14.8477 143.598 15.0898 143.707C15.3359 143.812 15.5508 143.965 15.7344 144.164C15.9219 144.363 16.0762 144.604 16.1973 144.885C16.3223 145.162 16.416 145.475 16.4785 145.822C16.541 146.17 16.5723 146.543 16.5723 146.941ZM15.4883 147.064V146.941C15.4883 146.668 15.4688 146.408 15.4297 146.162C15.3945 145.912 15.3379 145.684 15.2598 145.477C15.1855 145.266 15.0879 145.082 14.9668 144.926C14.8457 144.77 14.6992 144.648 14.5273 144.562C14.3594 144.477 14.166 144.434 13.9473 144.434C13.7129 144.434 13.5176 144.463 13.3613 144.521C13.209 144.58 13.0898 144.658 13.0039 144.756C12.918 144.85 12.8555 144.949 12.8164 145.055V148.729C12.8633 148.814 12.9316 148.896 13.0215 148.975C13.1113 149.049 13.2324 149.111 13.3848 149.162C13.5371 149.209 13.7285 149.232 13.959 149.232C14.2324 149.232 14.4648 149.178 14.6562 149.068C14.8516 148.955 15.0098 148.799 15.1309 148.6C15.2559 148.4 15.3457 148.17 15.4004 147.908C15.459 147.646 15.4883 147.365 15.4883 147.064ZM9.04297 147.064V146.941C9.04297 146.543 9.07422 146.17 9.13672 145.822C9.19922 145.475 9.29297 145.162 9.41797 144.885C9.54297 144.604 9.69727 144.363 9.88086 144.164C10.0684 143.965 10.2832 143.812 10.5254 143.707C10.7715 143.598 11.0469 143.543 11.3516 143.543C11.6523 143.543 11.9141 143.588 12.1367 143.678C12.3633 143.768 12.5547 143.896 12.7109 144.064C12.8672 144.232 12.9922 144.436 13.0859 144.674C13.1797 144.912 13.2461 145.182 13.2852 145.482V148.184C13.25 148.48 13.1855 148.748 13.0918 148.986C12.998 149.225 12.873 149.43 12.7168 149.602C12.5605 149.77 12.3672 149.898 12.1367 149.988C11.9102 150.078 11.6445 150.123 11.3398 150.123C10.9648 150.123 10.6348 150.049 10.3496 149.9C10.0645 149.748 9.82422 149.535 9.62891 149.262C9.4375 148.988 9.29102 148.666 9.18945 148.295C9.0918 147.92 9.04297 147.51 9.04297 147.064ZM10.1328 146.941V147.064C10.1328 147.365 10.1582 147.646 10.209 147.908C10.2637 148.17 10.3477 148.4 10.4609 148.6C10.5781 148.799 10.7305 148.955 10.918 149.068C11.1055 149.178 11.3359 149.232 11.6094 149.232C11.8438 149.232 12.0371 149.203 12.1895 149.145C12.3418 149.086 12.4629 149.01 12.5527 148.916C12.6426 148.822 12.7109 148.725 12.7578 148.623V145.055C12.7188 144.949 12.6543 144.85 12.5645 144.756C12.4785 144.658 12.3594 144.58 12.207 144.521C12.0547 144.463 11.8594 144.434 11.6211 144.434C11.3477 144.434 11.1152 144.5 10.9238 144.633C10.7324 144.766 10.5781 144.947 10.4609 145.178C10.3477 145.408 10.2637 145.676 10.209 145.98C10.1582 146.281 10.1328 146.602 10.1328 146.941ZM12.2188 152.438V141H13.3086V152.438H12.2188ZM25.2793 146.941V147.064C25.2793 147.51 25.2305 147.92 25.1328 148.295C25.0352 148.666 24.8887 148.988 24.6934 149.262C24.502 149.535 24.2637 149.748 23.9785 149.9C23.6934 150.049 23.3633 150.123 22.9883 150.123C22.6797 150.123 22.4082 150.082 22.1738 150C21.9395 149.914 21.7402 149.791 21.5762 149.631C21.416 149.471 21.2871 149.279 21.1895 149.057C21.0957 148.83 21.0312 148.576 20.9961 148.295V145.482C21.0312 145.182 21.0957 144.912 21.1895 144.674C21.2871 144.436 21.416 144.232 21.5762 144.064C21.7402 143.896 21.9375 143.768 22.168 143.678C22.3984 143.588 22.668 143.543 22.9766 143.543C23.2812 143.543 23.5547 143.598 23.7969 143.707C24.043 143.812 24.2578 143.965 24.4414 144.164C24.6289 144.363 24.7832 144.604 24.9043 144.885C25.0293 145.162 25.123 145.475 25.1855 145.822C25.248 146.17 25.2793 146.543 25.2793 146.941ZM24.1953 147.064V146.941C24.1953 146.668 24.1758 146.408 24.1367 146.162C24.1016 145.912 24.0449 145.684 23.9668 145.477C23.8926 145.266 23.7949 145.082 23.6738 144.926C23.5527 144.77 23.4062 144.648 23.2344 144.562C23.0664 144.477 22.873 144.434 22.6543 144.434C22.4199 144.434 22.2246 144.463 22.0684 144.521C21.916 144.58 21.7969 144.658 21.7109 144.756C21.625 144.85 21.5625 144.949 21.5234 145.055V148.729C21.5703 148.814 21.6387 148.896 21.7285 148.975C21.8184 149.049 21.9395 149.111 22.0918 149.162C22.2441 149.209 22.4355 149.232 22.666 149.232C22.9395 149.232 23.1719 149.178 23.3633 149.068C23.5586 148.955 23.7168 148.799 23.8379 148.6C23.9629 148.4 24.0527 148.17 24.1074 147.908C24.166 147.646 24.1953 147.365 24.1953 147.064ZM17.75 147.064V146.941C17.75 146.543 17.7812 146.17 17.8438 145.822C17.9062 145.475 18 145.162 18.125 144.885C18.25 144.604 18.4043 144.363 18.5879 144.164C18.7754 143.965 18.9902 143.812 19.2324 143.707C19.4785 143.598 19.7539 143.543 20.0586 143.543C20.3594 143.543 20.6211 143.588 20.8438 143.678C21.0703 143.768 21.2617 143.896 21.418 144.064C21.5742 144.232 21.6992 144.436 21.793 144.674C21.8867 144.912 21.9531 145.182 21.9922 145.482V148.184C21.957 148.48 21.8926 148.748 21.7988 148.986C21.7051 149.225 21.5801 149.43 21.4238 149.602C21.2676 149.77 21.0742 149.898 20.8438 149.988C20.6172 150.078 20.3516 150.123 20.0469 150.123C19.6719 150.123 19.3418 150.049 19.0566 149.9C18.7715 149.748 18.5312 149.535 18.3359 149.262C18.1445 148.988 17.998 148.666 17.8965 148.295C17.7988 147.92 17.75 147.51 17.75 147.064ZM18.8398 146.941V147.064C18.8398 147.365 18.8652 147.646 18.916 147.908C18.9707 148.17 19.0547 148.4 19.168 148.6C19.2852 148.799 19.4375 148.955 19.625 149.068C19.8125 149.178 20.043 149.232 20.3164 149.232C20.5508 149.232 20.7441 149.203 20.8965 149.145C21.0488 149.086 21.1699 149.01 21.2598 148.916C21.3496 148.822 21.418 148.725 21.4648 148.623V145.055C21.4258 144.949 21.3613 144.85 21.2715 144.756C21.1855 144.658 21.0664 144.58 20.9141 144.521C20.7617 144.463 20.5664 144.434 20.3281 144.434C20.0547 144.434 19.8223 144.5 19.6309 144.633C19.4395 144.766 19.2852 144.947 19.168 145.178C19.0547 145.408 18.9707 145.676 18.916 145.98C18.8652 146.281 18.8398 146.602 18.8398 146.941ZM20.9258 152.438V141H22.0156V152.438H20.9258ZM29.3281 150.117C28.8867 150.117 28.4863 150.043 28.127 149.895C27.7715 149.742 27.4648 149.529 27.207 149.256C26.9531 148.982 26.7578 148.658 26.6211 148.283C26.4844 147.908 26.416 147.498 26.416 147.053V146.807C26.416 146.291 26.4922 145.832 26.6445 145.43C26.7969 145.023 27.0039 144.68 27.2656 144.398C27.5273 144.117 27.8242 143.904 28.1562 143.76C28.4883 143.615 28.832 143.543 29.1875 143.543C29.6406 143.543 30.0312 143.621 30.3594 143.777C30.6914 143.934 30.9629 144.152 31.1738 144.434C31.3848 144.711 31.541 145.039 31.6426 145.418C31.7441 145.793 31.7949 146.203 31.7949 146.648V147.135H27.0605V146.25H30.7109V146.168C30.6953 145.887 30.6367 145.613 30.5352 145.348C30.4375 145.082 30.2812 144.863 30.0664 144.691C29.8516 144.52 29.5586 144.434 29.1875 144.434C28.9414 144.434 28.7148 144.486 28.5078 144.592C28.3008 144.693 28.123 144.846 27.9746 145.049C27.8262 145.252 27.7109 145.5 27.6289 145.793C27.5469 146.086 27.5059 146.424 27.5059 146.807V147.053C27.5059 147.354 27.5469 147.637 27.6289 147.902C27.7148 148.164 27.8379 148.395 27.998 148.594C28.1621 148.793 28.3594 148.949 28.5898 149.062C28.8242 149.176 29.0898 149.232 29.3867 149.232C29.7695 149.232 30.0938 149.154 30.3594 148.998C30.625 148.842 30.8574 148.633 31.0566 148.371L31.7129 148.893C31.5762 149.1 31.4023 149.297 31.1914 149.484C30.9805 149.672 30.7207 149.824 30.4121 149.941C30.1074 150.059 29.7461 150.117 29.3281 150.117ZM34.2383 143.66V150H33.1543V143.66H34.2383ZM38.3984 143.66L35.3926 147.293H33.875L33.7109 146.344H34.9531L37.0801 143.66H38.3984ZM37.2324 150L34.9004 147.129L35.5977 146.344L38.6094 150H37.2324ZM42.1367 143.66V150H41.0469V143.66H42.1367ZM44.2637 143.66V144.539H38.9609V143.66H44.2637ZM46.502 148.283L49.4258 143.66H50.5156V150H49.4258V145.377L46.502 150H45.4238V143.66H46.502V148.283ZM55.2324 147.211H53.1523L53.1406 146.344H54.8398C55.1758 146.344 55.4551 146.311 55.6777 146.244C55.9043 146.178 56.0742 146.078 56.1875 145.945C56.3008 145.812 56.3574 145.648 56.3574 145.453C56.3574 145.301 56.3242 145.168 56.2578 145.055C56.1953 144.938 56.0996 144.842 55.9707 144.768C55.8418 144.689 55.6816 144.633 55.4902 144.598C55.3027 144.559 55.082 144.539 54.8281 144.539H53.4395V150H52.3555V143.66H54.8281C55.2305 143.66 55.5918 143.695 55.9121 143.766C56.2363 143.836 56.5117 143.943 56.7383 144.088C56.9688 144.229 57.1445 144.408 57.2656 144.627C57.3867 144.846 57.4473 145.104 57.4473 145.4C57.4473 145.592 57.4082 145.773 57.3301 145.945C57.252 146.117 57.1367 146.27 56.9844 146.402C56.832 146.535 56.6445 146.645 56.4219 146.73C56.1992 146.812 55.9434 146.865 55.6543 146.889L55.2324 147.211ZM55.2324 150H52.7598L53.2988 149.121H55.2324C55.5332 149.121 55.7832 149.084 55.9824 149.01C56.1816 148.932 56.3301 148.822 56.4277 148.682C56.5293 148.537 56.5801 148.365 56.5801 148.166C56.5801 147.967 56.5293 147.797 56.4277 147.656C56.3301 147.512 56.1816 147.402 55.9824 147.328C55.7832 147.25 55.5332 147.211 55.2324 147.211H53.5859L53.5977 146.344H55.6543L56.0469 146.672C56.3945 146.699 56.6895 146.785 56.9316 146.93C57.1738 147.074 57.3574 147.258 57.4824 147.48C57.6074 147.699 57.6699 147.938 57.6699 148.195C57.6699 148.492 57.6133 148.754 57.5 148.98C57.3906 149.207 57.2305 149.396 57.0195 149.549C56.8086 149.697 56.5527 149.811 56.252 149.889C55.9512 149.963 55.6113 150 55.2324 150ZM63.4238 146.408V147.287H60.0723V146.408H63.4238ZM60.3008 143.66V150H59.2168V143.66H60.3008ZM64.3027 143.66V150H63.2129V143.66H64.3027ZM65.7617 146.9V146.766C65.7617 146.309 65.8281 145.885 65.9609 145.494C66.0938 145.1 66.2852 144.758 66.5352 144.469C66.7852 144.176 67.0879 143.949 67.4434 143.789C67.7988 143.625 68.1973 143.543 68.6387 143.543C69.084 143.543 69.4844 143.625 69.8398 143.789C70.1992 143.949 70.5039 144.176 70.7539 144.469C71.0078 144.758 71.2012 145.1 71.334 145.494C71.4668 145.885 71.5332 146.309 71.5332 146.766V146.9C71.5332 147.357 71.4668 147.781 71.334 148.172C71.2012 148.562 71.0078 148.904 70.7539 149.197C70.5039 149.486 70.2012 149.713 69.8457 149.877C69.4941 150.037 69.0957 150.117 68.6504 150.117C68.2051 150.117 67.8047 150.037 67.4492 149.877C67.0938 149.713 66.7891 149.486 66.5352 149.197C66.2852 148.904 66.0938 148.562 65.9609 148.172C65.8281 147.781 65.7617 147.357 65.7617 146.9ZM66.8457 146.766V146.9C66.8457 147.217 66.8828 147.516 66.957 147.797C67.0312 148.074 67.1426 148.32 67.291 148.535C67.4434 148.75 67.6328 148.92 67.8594 149.045C68.0859 149.166 68.3496 149.227 68.6504 149.227C68.9473 149.227 69.207 149.166 69.4297 149.045C69.6562 148.92 69.8438 148.75 69.9922 148.535C70.1406 148.32 70.252 148.074 70.3262 147.797C70.4043 147.516 70.4434 147.217 70.4434 146.9V146.766C70.4434 146.453 70.4043 146.158 70.3262 145.881C70.252 145.6 70.1387 145.352 69.9863 145.137C69.8379 144.918 69.6504 144.746 69.4238 144.621C69.2012 144.496 68.9395 144.434 68.6387 144.434C68.3418 144.434 68.0801 144.496 67.8535 144.621C67.6309 144.746 67.4434 144.918 67.291 145.137C67.1426 145.352 67.0312 145.6 66.957 145.881C66.8828 146.158 66.8457 146.453 66.8457 146.766ZM75.4297 149.227C75.6875 149.227 75.9258 149.174 76.1445 149.068C76.3633 148.963 76.543 148.818 76.6836 148.635C76.8242 148.447 76.9043 148.234 76.9238 147.996H77.9551C77.9355 148.371 77.8086 148.721 77.5742 149.045C77.3438 149.365 77.041 149.625 76.666 149.824C76.291 150.02 75.8789 150.117 75.4297 150.117C74.9531 150.117 74.5371 150.033 74.1816 149.865C73.8301 149.697 73.5371 149.467 73.3027 149.174C73.0723 148.881 72.8984 148.545 72.7812 148.166C72.668 147.783 72.6113 147.379 72.6113 146.953V146.707C72.6113 146.281 72.668 145.879 72.7812 145.5C72.8984 145.117 73.0723 144.779 73.3027 144.486C73.5371 144.193 73.8301 143.963 74.1816 143.795C74.5371 143.627 74.9531 143.543 75.4297 143.543C75.9258 143.543 76.3594 143.645 76.7305 143.848C77.1016 144.047 77.3926 144.32 77.6035 144.668C77.8184 145.012 77.9355 145.402 77.9551 145.84H76.9238C76.9043 145.578 76.8301 145.342 76.7012 145.131C76.5762 144.92 76.4043 144.752 76.1855 144.627C75.9707 144.498 75.7188 144.434 75.4297 144.434C75.0977 144.434 74.8184 144.5 74.5918 144.633C74.3691 144.762 74.1914 144.938 74.0586 145.16C73.9297 145.379 73.8359 145.623 73.7773 145.893C73.7227 146.158 73.6953 146.43 73.6953 146.707V146.953C73.6953 147.23 73.7227 147.504 73.7773 147.773C73.832 148.043 73.9238 148.287 74.0527 148.506C74.1855 148.725 74.3633 148.9 74.5859 149.033C74.8125 149.162 75.0938 149.227 75.4297 149.227ZM81.7578 143.66V150H80.668V143.66H81.7578ZM83.8848 143.66V144.539H78.582V143.66H83.8848ZM85.8418 145.84H87.7461C88.2578 145.84 88.6895 145.93 89.041 146.109C89.3926 146.285 89.6582 146.529 89.8379 146.842C90.0215 147.15 90.1133 147.502 90.1133 147.896C90.1133 148.189 90.0625 148.465 89.9609 148.723C89.8594 148.977 89.707 149.199 89.5039 149.391C89.3047 149.582 89.0566 149.732 88.7598 149.842C88.4668 149.947 88.1289 150 87.7461 150H85.0508V143.66H86.1348V149.109H87.7461C88.0586 149.109 88.3086 149.053 88.4961 148.939C88.6836 148.826 88.8184 148.68 88.9004 148.5C88.9824 148.32 89.0234 148.133 89.0234 147.938C89.0234 147.746 88.9824 147.559 88.9004 147.375C88.8184 147.191 88.6836 147.039 88.4961 146.918C88.3086 146.793 88.0586 146.73 87.7461 146.73H85.8418V145.84Z" fill="#858585"/>
<defs>
<filter id="filter0_d_221_1172" x="258.766" y="64.8832" width="16.9338" height="16.9341" filterUnits="userSpaceOnUse" color-interpolation-filters="sRGB">
<feFlood flood-opacity="0" result="BackgroundImageFix"/>
<feColorMatrix in="SourceAlpha" type="matrix" values="0 0 0 0 0 0 0 0 0 0 0 0 0 0 0 0 0 0 127 0" result="hardAlpha"/>
<feOffset dy="2.11676"/>
<feGaussianBlur stdDeviation="2.11676"/>
<feColorMatrix type="matrix" values="0 0 0 0 0.196078 0 0 0 0 0.505882 0 0 0 0 1 0 0 0 0.32 0"/>
<feBlend mode="normal" in2="BackgroundImageFix" result="effect1_dropShadow_221_1172"/>
<feBlend mode="normal" in="SourceGraphic" in2="effect1_dropShadow_221_1172" result="shape"/>
</filter>
<filter id="filter1_d_221_1172" x="236" y="29" width="62.6709" height="35.8635" filterUnits="userSpaceOnUse" color-interpolation-filters="sRGB">
<feFlood flood-opacity="0" result="BackgroundImageFix"/>
<feColorMatrix in="SourceAlpha" type="matrix" values="0 0 0 0 0 0 0 0 0 0 0 0 0 0 0 0 0 0 127 0" result="hardAlpha"/>
<feOffset/>
<feGaussianBlur stdDeviation="0.5"/>
<feComposite in2="hardAlpha" operator="out"/>
<feColorMatrix type="matrix" values="0 0 0 0 0 0 0 0 0 0 0 0 0 0 0 0 0 0 0.3 0"/>
<feBlend mode="normal" in2="BackgroundImageFix" result="effect1_dropShadow_221_1172"/>
<feBlend mode="normal" in="SourceGraphic" in2="effect1_dropShadow_221_1172" result="shape"/>
</filter>
<clipPath id="clip0_221_1172">
<rect width="335.907" height="319.175" fill="white" transform="translate(99 26)"/>
</clipPath>
</defs>
</svg>
