<svg width="88" height="92" viewBox="0 0 88 92" fill="none" xmlns="http://www.w3.org/2000/svg">
<g id="Group">
<path id="Vector" d="M83.9518 3.10238C79.5399 -1.14802 72.5008 -1.01352 68.2504 3.39829C64.4663 7.32587 64.1614 13.3338 67.2461 17.6022L51.2847 33.994C49.1326 32.4606 46.5052 31.5549 43.6716 31.5549C40.4435 31.5549 37.4843 32.7296 35.1977 34.6665L24.1592 24.9821C25.9706 21.5746 25.2801 17.2345 22.2582 14.5802C20.5455 13.0827 18.3575 12.3385 16.0888 12.482C13.8202 12.6344 11.7398 13.6566 10.2423 15.3694C8.74479 17.0821 8.00052 19.27 8.144 21.5387C8.29644 23.8074 9.31868 25.8877 11.0314 27.3853C12.6455 28.8021 14.6451 29.4925 16.6448 29.4925C18.3934 29.4925 20.133 28.9635 21.5946 27.9143L32.6331 37.5898C31.315 39.6343 30.5438 42.0733 30.5438 44.6828C30.5438 47.6867 31.5571 50.4576 33.2608 52.6724L17.2994 69.0732C15.4253 67.7999 13.2014 67.1453 10.8969 67.1902C7.92878 67.244 5.16692 68.4545 3.10449 70.5887C1.05103 72.7229 -0.0519231 75.5295 0.00187943 78.4977C0.055682 81.4658 1.26624 84.2276 3.40041 86.2901C5.48974 88.2987 8.21573 89.4016 11.1031 89.4016C11.1749 89.4016 11.2466 89.4016 11.3183 89.4016C14.2865 89.3478 17.0483 88.1373 19.1107 86.0031C22.8949 82.0755 23.1997 76.0676 20.1151 71.7992L36.0765 55.4074C37.7264 56.5821 39.6543 57.3891 41.7347 57.694V68.3469C36.3096 69.2795 32.1579 74.0141 32.1579 79.7082C32.1579 86.0659 37.3229 91.2309 43.6806 91.2309C50.0382 91.2309 55.2033 86.0659 55.2033 79.7082C55.2033 74.0231 51.0605 69.2795 45.6264 68.3469V57.685C49.0788 57.165 52.0917 55.3088 54.1183 52.6545L66.986 59.7206C65.9548 63.4419 67.5689 67.5309 71.093 69.4678C72.3932 70.1762 73.7921 70.5169 75.173 70.5169C78.1859 70.5169 81.1092 68.9208 82.6515 66.0962C83.7455 64.1055 83.9966 61.8009 83.3599 59.613C82.7233 57.425 81.2796 55.6226 79.2799 54.5286C75.7558 52.5917 71.4337 53.4257 68.8512 56.2951L55.9834 49.2291C56.5035 47.8123 56.7905 46.2879 56.7905 44.6917C56.7905 41.6878 55.7772 38.9169 54.0734 36.7021L70.0348 20.3102C71.9 21.5656 74.07 22.1933 76.2311 22.1933C79.1454 22.1933 82.0507 21.0545 84.2297 18.7948C86.2832 16.6606 87.3862 13.8449 87.3324 10.8858C87.2965 7.92667 86.0859 5.16481 83.9518 3.10238ZM71.1468 59.7744C71.9897 58.25 73.5679 57.3802 75.1999 57.3802C75.9531 57.3802 76.7064 57.5595 77.4148 57.9451C78.4998 58.5369 79.2799 59.5143 79.6296 60.698C79.9704 61.8816 79.8359 63.1281 79.244 64.2131C78.0155 66.4459 75.2088 67.2619 72.976 66.0424C70.7343 64.8139 69.9183 62.0072 71.1468 59.7744ZM13.596 24.462C12.6724 23.646 12.1164 22.5251 12.0357 21.2966C11.955 20.0681 12.3585 18.8755 13.1745 17.9519C13.9905 17.0283 15.1114 16.4723 16.3399 16.3916C16.4475 16.3826 16.5462 16.3826 16.6448 16.3826C17.7657 16.3826 18.8328 16.7862 19.6846 17.5304C21.5946 19.2073 21.7919 22.1305 20.1151 24.0405C18.4292 25.9416 15.5149 26.1388 13.596 24.462ZM16.2861 83.2861C14.95 84.676 13.1566 85.4561 11.2376 85.492C9.30972 85.5279 7.4894 84.8105 6.10847 83.4744C4.71857 82.1383 3.93843 80.3449 3.90256 78.4259C3.86669 76.498 4.58406 74.6777 5.92016 73.2967C7.25625 71.9068 9.04967 71.1267 10.9686 71.0908C11.0135 71.0908 11.0583 71.0908 11.1031 71.0908C12.9773 71.0908 14.7438 71.7992 16.0978 73.1084C18.9583 75.8524 19.039 80.4256 16.2861 83.2861ZM51.2936 79.6903C51.2936 83.8958 47.8772 87.3123 43.6716 87.3123C39.466 87.3123 36.0496 83.8958 36.0496 79.6903C36.0496 75.4847 39.466 72.0683 43.6716 72.0683C47.8772 72.0683 51.2936 75.4847 51.2936 79.6903ZM43.6716 53.9278C38.5783 53.9278 34.4355 49.785 34.4355 44.6917C34.4355 39.5984 38.5783 35.4556 43.6716 35.4556C48.7649 35.4556 52.9077 39.5984 52.9077 44.6917C52.9077 49.785 48.7649 53.9278 43.6716 53.9278ZM81.432 16.0957C80.0242 17.5573 78.1321 18.3016 76.2401 18.3016C74.4377 18.3016 72.6353 17.6291 71.2454 16.293C68.3849 13.5401 68.3042 8.96685 71.0571 6.10635C72.4649 4.64472 74.357 3.90045 76.249 3.90045C78.0514 3.90045 79.8538 4.57298 81.2437 5.90907C82.6336 7.24517 83.4137 9.03859 83.4496 10.9575C83.4855 12.8855 82.7681 14.7148 81.432 16.0957Z" fill="#222222"/>
</g>
</svg>
