<svg width="38" height="39" viewBox="0 0 38 39" fill="none" xmlns="http://www.w3.org/2000/svg">
<g id="Group">
<path id="Vector" d="M2.33912 1.31782C4.21316 -0.487656 7.20324 -0.43052 9.00872 1.44352C10.6161 3.11187 10.7456 5.66392 9.43533 7.47701L16.2154 14.4399C17.1296 13.7886 18.2456 13.4039 19.4493 13.4039C20.8205 13.4039 22.0775 13.9028 23.0488 14.7256L27.7377 10.6118C26.9683 9.16441 27.2616 7.32084 28.5452 6.19337C29.2727 5.55727 30.2021 5.24112 31.1658 5.30206C32.1295 5.36681 33.0132 5.80104 33.6493 6.52857C34.2854 7.25609 34.6016 8.18549 34.5406 9.14918C34.4759 10.1129 34.0416 10.9966 33.3141 11.6327C32.6285 12.2345 31.7791 12.5278 30.9297 12.5278C30.1869 12.5278 29.4479 12.303 28.8271 11.8574L24.1382 15.9673C24.6981 16.8358 25.0257 17.8718 25.0257 18.9803C25.0257 20.2563 24.5952 21.4333 23.8715 22.3741L30.6516 29.3408C31.4477 28.7999 32.3923 28.5219 33.3712 28.5409C34.632 28.5638 35.8052 29.078 36.6813 29.9845C37.5535 30.8911 38.0221 32.0833 37.9992 33.3441C37.9763 34.6049 37.4621 35.7781 36.5556 36.6541C35.6681 37.5074 34.5101 37.9759 33.2836 37.9759C33.2532 37.9759 33.2227 37.9759 33.1922 37.9759C31.9314 37.953 30.7582 37.4388 29.8822 36.5323C28.2748 34.8639 28.1453 32.3119 29.4556 30.4988L22.6755 23.5359C21.9746 24.0348 21.1557 24.3777 20.272 24.5072V29.0323C22.5765 29.4284 24.34 31.4396 24.34 33.8583C24.34 36.5589 22.146 38.7529 19.4454 38.7529C16.7448 38.7529 14.5508 36.5589 14.5508 33.8583C14.5508 31.4434 16.3106 29.4284 18.6189 29.0323V24.5034C17.1524 24.2824 15.8726 23.494 15.0117 22.3665L9.54579 25.368C9.98383 26.9487 9.2982 28.6857 7.80126 29.5084C7.24895 29.8093 6.65474 29.9541 6.06815 29.9541C4.78832 29.9541 3.54658 29.2761 2.89143 28.0762C2.42673 27.2306 2.32007 26.2517 2.59052 25.3223C2.86095 24.3929 3.47421 23.6273 4.32362 23.1626C5.82057 22.3398 7.65652 22.6941 8.75351 23.913L14.2195 20.9114C13.9985 20.3096 13.8767 19.6621 13.8767 18.9841C13.8767 17.7081 14.3071 16.5311 15.0308 15.5902L8.25072 8.62734C7.45845 9.1606 6.53666 9.42723 5.61869 9.42723C4.38076 9.42723 3.14663 8.94349 2.22104 7.98361C1.34877 7.07707 0.880264 5.88103 0.903118 4.62405C0.918354 3.36708 1.43257 2.1939 2.33912 1.31782ZM7.7784 25.3909C7.42036 24.7433 6.74997 24.3738 6.05673 24.3738C5.73677 24.3738 5.41681 24.45 5.1159 24.6138C4.655 24.8652 4.32362 25.2804 4.17507 25.7832C4.03032 26.286 4.08746 26.8154 4.33886 27.2763C4.86069 28.2248 6.05292 28.5714 7.00136 28.0534C7.95362 27.5315 8.30024 26.3393 7.7784 25.3909ZM32.2247 10.3909C32.6171 10.0443 32.8532 9.56817 32.8875 9.04633C32.9218 8.5245 32.7504 8.0179 32.4037 7.62557C32.0571 7.23324 31.581 6.99708 31.0592 6.9628C31.0135 6.95899 30.9716 6.95899 30.9297 6.95899C30.4535 6.95899 30.0003 7.13039 29.6384 7.44654C28.8271 8.15883 28.7433 9.40057 29.4556 10.2119C30.1717 11.0194 31.4096 11.1032 32.2247 10.3909ZM31.082 35.3781C31.6496 35.9685 32.4114 36.2999 33.2265 36.3151C34.0454 36.3304 34.8187 36.0257 35.4053 35.4581C35.9957 34.8906 36.327 34.1288 36.3423 33.3136C36.3575 32.4947 36.0528 31.7215 35.4852 31.1349C34.9177 30.5445 34.1559 30.2131 33.3408 30.1978C33.3217 30.1978 33.3027 30.1978 33.2836 30.1978C32.4875 30.1978 31.7372 30.4988 31.162 31.0549C29.9469 32.2204 29.9126 34.163 31.082 35.3781ZM16.2116 33.8507C16.2116 35.6371 17.6628 37.0884 19.4493 37.0884C21.2357 37.0884 22.6869 35.6371 22.6869 33.8507C22.6869 32.0643 21.2357 30.613 19.4493 30.613C17.6628 30.613 16.2116 32.0643 16.2116 33.8507ZM19.4493 22.9074C21.6128 22.9074 23.3725 21.1476 23.3725 18.9841C23.3725 16.8206 21.6128 15.0608 19.4493 15.0608C17.2857 15.0608 15.526 16.8206 15.526 18.9841C15.526 21.1476 17.2857 22.9074 19.4493 22.9074ZM3.40945 6.8371C4.00747 7.45797 4.81118 7.77412 5.61488 7.77412C6.38049 7.77412 7.1461 7.48844 7.7365 6.9209C8.95158 5.75153 8.98587 3.80892 7.8165 2.59384C7.21848 1.97297 6.41477 1.65683 5.61107 1.65683C4.84546 1.65683 4.07984 1.9425 3.48944 2.51005C2.89904 3.07759 2.56766 3.8394 2.55243 4.65453C2.53719 5.47347 2.84191 6.25051 3.40945 6.8371Z" fill="#222222"/>
</g>
</svg>
