<svg width="88" height="92" viewBox="0 0 88 92" fill="none" xmlns="http://www.w3.org/2000/svg">
<g id="Group">
<path id="Vector" d="M3.38247 3.10238C7.79428 -1.14802 14.8334 -1.01352 19.0838 3.39829C22.868 7.32587 23.1728 13.3338 20.0882 17.6022L36.0496 33.994C38.2017 32.4606 40.829 31.5549 43.6626 31.5549C46.8908 31.5549 49.8499 32.7296 52.1365 34.6665L63.175 24.9821C61.3637 21.5746 62.0541 17.2345 65.076 14.5802C66.7887 13.0827 68.9767 12.3385 71.2454 12.482C73.5141 12.6344 75.5944 13.6566 77.0919 15.3694C78.5894 17.0821 79.3337 19.27 79.1902 21.5387C79.0378 23.8074 78.0155 25.8877 76.3028 27.3853C74.6888 28.8021 72.6891 29.4925 70.6894 29.4925C68.9409 29.4925 67.2012 28.9635 65.7396 27.9143L54.7011 37.5898C56.0193 39.6343 56.7904 42.0733 56.7904 44.6828C56.7904 47.6867 55.7772 50.4576 54.0734 52.6724L70.0348 69.0732C71.909 67.7999 74.1328 67.1453 76.4373 67.1902C79.4054 67.244 82.1673 68.4545 84.2297 70.5887C86.2832 72.7229 87.3862 75.5295 87.3323 78.4977C87.2785 81.4658 86.068 84.2276 83.9338 86.2901C81.8445 88.2987 79.1185 89.4016 76.2311 89.4016C76.1594 89.4016 76.0876 89.4016 76.0159 89.4016C73.0478 89.3478 70.2859 88.1373 68.2235 86.0031C64.4394 82.0755 64.1345 76.0676 67.2192 71.7992L51.2578 55.4074C49.6078 56.5821 47.6799 57.3891 45.5995 57.694V68.3469C51.0246 69.2795 55.1764 74.0141 55.1764 79.7082C55.1764 86.0659 50.0113 91.2309 43.6537 91.2309C37.296 91.2309 32.131 86.0659 32.131 79.7082C32.131 74.0231 36.2737 69.2795 41.7078 68.3469V57.685C38.2555 57.165 35.2425 55.3088 33.216 52.6545L20.3482 59.7206C21.3794 63.4419 19.7653 67.5309 16.2413 69.4678C14.941 70.1762 13.5422 70.5169 12.1612 70.5169C9.14831 70.5169 6.22504 68.9208 4.6827 66.0962C3.58871 64.1055 3.33763 61.8009 3.9743 59.613C4.61096 57.425 6.05466 55.6226 8.05432 54.5286C11.5784 52.5917 15.9005 53.4257 18.483 56.2951L31.3508 49.2291C30.8307 47.8123 30.5438 46.2879 30.5438 44.6917C30.5438 41.6878 31.5571 38.9169 33.2608 36.7021L17.2994 20.3102C15.4342 21.5656 13.2642 22.1933 11.1031 22.1933C8.18883 22.1933 5.28349 21.0545 3.10448 18.7948C1.05103 16.6606 -0.0519257 13.8449 0.00187683 10.8858C0.0377426 7.92667 1.24831 5.16481 3.38247 3.10238ZM16.1875 59.7744C15.3446 58.25 13.7664 57.3802 12.1343 57.3802C11.3811 57.3802 10.6279 57.5595 9.91947 57.9451C8.83446 58.5369 8.05432 59.5143 7.70461 60.698C7.36385 61.8816 7.49837 63.1281 8.09019 64.2131C9.31868 66.4459 12.1254 67.2619 14.3582 66.0424C16.6 64.8139 17.416 62.0072 16.1875 59.7744ZM73.7382 24.462C74.6619 23.646 75.2178 22.5251 75.2985 21.2966C75.3792 20.0681 74.9757 18.8755 74.1597 17.9519C73.3437 17.0283 72.2228 16.4723 70.9943 16.3916C70.8867 16.3826 70.7881 16.3826 70.6894 16.3826C69.5685 16.3826 68.5015 16.7862 67.6496 17.5304C65.7396 19.2073 65.5423 22.1305 67.2192 24.0405C68.905 25.9416 71.8193 26.1388 73.7382 24.462ZM71.0481 83.2861C72.3842 84.676 74.1776 85.4561 76.0966 85.492C78.0245 85.5279 79.8448 84.8105 81.2258 83.4744C82.6157 82.1383 83.3958 80.3449 83.4317 78.4259C83.4675 76.498 82.7502 74.6777 81.4141 73.2967C80.078 71.9068 78.2846 71.1267 76.3656 71.0908C76.3208 71.0908 76.2759 71.0908 76.2311 71.0908C74.357 71.0908 72.5905 71.7992 71.2364 73.1084C68.3759 75.8524 68.2952 80.4256 71.0481 83.2861ZM36.0406 79.6903C36.0406 83.8958 39.4571 87.3123 43.6626 87.3123C47.8682 87.3123 51.2847 83.8958 51.2847 79.6903C51.2847 75.4847 47.8682 72.0683 43.6626 72.0683C39.4571 72.0683 36.0406 75.4847 36.0406 79.6903ZM43.6626 53.9278C48.7559 53.9278 52.8987 49.785 52.8987 44.6917C52.8987 39.5984 48.7559 35.4556 43.6626 35.4556C38.5693 35.4556 34.4265 39.5984 34.4265 44.6917C34.4265 49.785 38.5693 53.9278 43.6626 53.9278ZM5.90222 16.0957C7.31005 17.5573 9.20211 18.3016 11.0942 18.3016C12.8966 18.3016 14.6989 17.6291 16.0888 16.293C18.9493 13.5401 19.03 8.96685 16.2771 6.10635C14.8693 4.64472 12.9772 3.90045 11.0852 3.90045C9.28281 3.90045 7.48042 4.57298 6.09053 5.90907C4.70063 7.24517 3.92049 9.03859 3.88463 10.9575C3.84875 12.8855 4.56612 14.7148 5.90222 16.0957Z" fill="#222222"/>
</g>
</svg>
