<svg width="38" height="39" viewBox="0 0 38 39" fill="none" xmlns="http://www.w3.org/2000/svg">
<g id="Group">
<path id="Vector" d="M35.6609 1.31782C33.7868 -0.487656 30.7968 -0.43052 28.9913 1.44352C27.3839 3.11187 27.2544 5.66392 28.5647 7.47701L21.7846 14.4399C20.8704 13.7886 19.7544 13.4039 18.5507 13.4039C17.1795 13.4039 15.9225 13.9028 14.9512 14.7256L10.2623 10.6118C11.0317 9.16441 10.7384 7.32084 9.4548 6.19337C8.72727 5.55727 7.79787 5.24112 6.83419 5.30206C5.8705 5.36681 4.98681 5.80104 4.3507 6.52857C3.7146 7.25609 3.39845 8.18549 3.45939 9.14918C3.52415 10.1129 3.95837 10.9966 4.6859 11.6327C5.37152 12.2345 6.22093 12.5278 7.07035 12.5278C7.81311 12.5278 8.55206 12.303 9.17293 11.8574L13.8618 15.9673C13.3019 16.8358 12.9743 17.8718 12.9743 18.9803C12.9743 20.2563 13.4048 21.4333 14.1285 22.3741L7.34841 29.3408C6.55232 28.7999 5.60768 28.5219 4.62876 28.5409C3.36798 28.5638 2.1948 29.078 1.31872 29.9845C0.446454 30.8911 -0.0220558 32.0833 0.000798343 33.3441C0.0236525 34.6049 0.537871 35.7781 1.44442 36.6541C2.33192 37.5074 3.48986 37.9759 4.71637 37.9759C4.74684 37.9759 4.77731 37.9759 4.80779 37.9759C6.06857 37.953 7.24175 37.4388 8.11783 36.5323C9.72524 34.8639 9.85474 32.3119 8.54444 30.4988L15.3245 23.5359C16.0254 24.0348 16.8443 24.3777 17.728 24.5072V29.0323C15.4235 29.4284 13.66 31.4396 13.66 33.8583C13.66 36.5589 15.854 38.7529 18.5546 38.7529C21.2552 38.7529 23.4492 36.5589 23.4492 33.8583C23.4492 31.4434 21.6894 29.4284 19.3811 29.0323V24.5034C20.8476 24.2824 22.1274 23.494 22.9883 22.3665L28.4542 25.368C28.0162 26.9487 28.7018 28.6857 30.1987 29.5084C30.7511 29.8093 31.3453 29.9541 31.9318 29.9541C33.2117 29.9541 34.4534 29.2761 35.1086 28.0762C35.5733 27.2306 35.6799 26.2517 35.4095 25.3223C35.139 24.3929 34.5258 23.6273 33.6764 23.1626C32.1794 22.3398 30.3435 22.6941 29.2465 23.913L23.7805 20.9114C24.0015 20.3096 24.1233 19.6621 24.1233 18.9841C24.1233 17.7081 23.6929 16.5311 22.9692 15.5902L29.7493 8.62734C30.5416 9.1606 31.4633 9.42723 32.3813 9.42723C33.6192 9.42723 34.8534 8.94349 35.779 7.98361C36.6512 7.07707 37.1197 5.88103 37.0969 4.62405C37.0816 3.36708 36.5674 2.1939 35.6609 1.31782ZM30.2216 25.3909C30.5796 24.7433 31.25 24.3738 31.9433 24.3738C32.2632 24.3738 32.5832 24.45 32.8841 24.6138C33.345 24.8652 33.6764 25.2804 33.8249 25.7832C33.9697 26.286 33.9125 26.8154 33.6611 27.2763C33.1393 28.2248 31.9471 28.5714 30.9986 28.0534C30.0464 27.5315 29.6998 26.3393 30.2216 25.3909ZM5.77528 10.3909C5.38295 10.0443 5.14679 9.56817 5.11251 9.04633C5.07823 8.5245 5.24963 8.0179 5.59625 7.62557C5.94288 7.23324 6.419 6.99708 6.94084 6.9628C6.98655 6.95899 7.02845 6.95899 7.07035 6.95899C7.54647 6.95899 7.99975 7.13039 8.36161 7.44654C9.17293 8.15883 9.25673 9.40057 8.54444 10.2119C7.82834 11.0194 6.59041 11.1032 5.77528 10.3909ZM6.91799 35.3781C6.35044 35.9685 5.58864 36.2999 4.77351 36.3151C3.95457 36.3304 3.18133 36.0257 2.59474 35.4581C2.00434 34.8906 1.67296 34.1288 1.65772 33.3136C1.64249 32.4947 1.94721 31.7215 2.51475 31.1349C3.0823 30.5445 3.8441 30.2131 4.65923 30.1978C4.67828 30.1978 4.69732 30.1978 4.71637 30.1978C5.51246 30.1978 6.26283 30.4988 6.838 31.0549C8.05307 32.2204 8.08736 34.163 6.91799 35.3781ZM21.7884 33.8507C21.7884 35.6371 20.3372 37.0884 18.5507 37.0884C16.7643 37.0884 15.3131 35.6371 15.3131 33.8507C15.3131 32.0643 16.7643 30.613 18.5507 30.613C20.3372 30.613 21.7884 32.0643 21.7884 33.8507ZM18.5507 22.9074C16.3872 22.9074 14.6275 21.1476 14.6275 18.9841C14.6275 16.8206 16.3872 15.0608 18.5507 15.0608C20.7143 15.0608 22.474 16.8206 22.474 18.9841C22.474 21.1476 20.7143 22.9074 18.5507 22.9074ZM34.5905 6.8371C33.9925 7.45797 33.1888 7.77412 32.3851 7.77412C31.6195 7.77412 30.8539 7.48844 30.2635 6.9209C29.0484 5.75153 29.0141 3.80892 30.1835 2.59384C30.7815 1.97297 31.5852 1.65683 32.3889 1.65683C33.1545 1.65683 33.9202 1.9425 34.5106 2.51005C35.101 3.07759 35.4323 3.8394 35.4476 4.65453C35.4628 5.47347 35.1581 6.25051 34.5905 6.8371Z" fill="#222222"/>
</g>
</svg>
