<svg width="1142" height="289" viewBox="0 0 1142 289" fill="none" xmlns="http://www.w3.org/2000/svg">
<g filter="url(#filter0_d_181_6727)">
<rect x="10" y="10" width="1122" height="269" rx="16" fill="white"/>
<path d="M928.663 31.576V32.856H923.655V43H922.215V31.576H928.663ZM933.296 34.264C934.352 34.264 935.2 34.632 935.84 35.368C936.491 36.104 936.816 37.2133 936.816 38.696C936.816 39.6667 936.667 40.488 936.368 41.16C936.08 41.8213 935.67 42.3227 935.136 42.664C934.614 42.9947 933.995 43.16 933.28 43.16C932.843 43.16 932.454 43.1013 932.112 42.984C931.771 42.8667 931.478 42.7173 931.232 42.536C930.998 42.344 930.795 42.136 930.624 41.912H930.528C930.55 42.0933 930.571 42.3227 930.592 42.6C930.614 42.8773 930.624 43.1173 930.624 43.32V46.84H929.216V34.424H930.368L930.56 35.592H930.624C930.795 35.3467 930.998 35.1227 931.232 34.92C931.478 34.7173 931.766 34.5573 932.096 34.44C932.438 34.3227 932.838 34.264 933.296 34.264ZM933.04 35.448C932.464 35.448 932 35.56 931.648 35.784C931.296 35.9973 931.04 36.3227 930.88 36.76C930.72 37.1973 930.635 37.752 930.624 38.424V38.696C930.624 39.4 930.699 39.9973 930.848 40.488C930.998 40.9787 931.248 41.352 931.6 41.608C931.963 41.864 932.454 41.992 933.072 41.992C933.595 41.992 934.022 41.848 934.352 41.56C934.694 41.272 934.944 40.8827 935.104 40.392C935.275 39.8907 935.36 39.32 935.36 38.68C935.36 37.6987 935.168 36.9147 934.784 36.328C934.411 35.7413 933.83 35.448 933.04 35.448ZM941.908 34.28C942.953 34.28 943.727 34.5093 944.228 34.968C944.729 35.4267 944.98 36.1573 944.98 37.16V43H943.956L943.684 41.784H943.62C943.375 42.0933 943.119 42.3547 942.852 42.568C942.596 42.7707 942.297 42.92 941.956 43.016C941.625 43.112 941.22 43.16 940.74 43.16C940.228 43.16 939.764 43.0693 939.348 42.888C938.943 42.7067 938.623 42.4293 938.388 42.056C938.153 41.672 938.036 41.192 938.036 40.616C938.036 39.7627 938.372 39.1067 939.044 38.648C939.716 38.1787 940.751 37.9227 942.148 37.88L943.604 37.832V37.32C943.604 36.6053 943.449 36.1093 943.14 35.832C942.831 35.5547 942.393 35.416 941.828 35.416C941.38 35.416 940.953 35.4853 940.548 35.624C940.143 35.752 939.764 35.9013 939.412 36.072L938.98 35.016C939.353 34.8133 939.796 34.6427 940.308 34.504C940.82 34.3547 941.353 34.28 941.908 34.28ZM942.324 38.856C941.257 38.8987 940.516 39.0693 940.1 39.368C939.695 39.6667 939.492 40.088 939.492 40.632C939.492 41.112 939.636 41.464 939.924 41.688C940.223 41.912 940.601 42.024 941.06 42.024C941.785 42.024 942.388 41.8267 942.868 41.432C943.348 41.0267 943.588 40.408 943.588 39.576V38.808L942.324 38.856ZM952.349 34.296C953.202 34.3707 953.943 34.5947 954.573 34.968C955.213 35.3413 955.709 35.8427 956.061 36.472C956.413 37.1013 956.589 37.848 956.589 38.712C956.589 39.576 956.418 40.328 956.077 40.968C955.735 41.5973 955.25 42.0987 954.621 42.472C953.991 42.8347 953.234 43.0533 952.349 43.128V46.84H950.973V43.128C950.13 43.0533 949.389 42.8347 948.749 42.472C948.109 42.0987 947.613 41.5973 947.261 40.968C946.909 40.328 946.733 39.576 946.733 38.712C946.733 37.8373 946.903 37.0853 947.245 36.456C947.586 35.816 948.077 35.3147 948.717 34.952C949.357 34.5787 950.125 34.36 951.021 34.296V30.84H952.349V34.296ZM951.021 35.464C950.37 35.528 949.837 35.6933 949.421 35.96C949.005 36.2267 948.695 36.5893 948.493 37.048C948.301 37.5067 948.205 38.0613 948.205 38.712C948.205 39.352 948.301 39.9067 948.493 40.376C948.695 40.8347 949.005 41.2027 949.421 41.48C949.837 41.7467 950.37 41.912 951.021 41.976V35.464ZM952.349 41.976C952.989 41.9013 953.511 41.7307 953.917 41.464C954.333 41.1973 954.637 40.8347 954.829 40.376C955.031 39.9067 955.133 39.352 955.133 38.712C955.133 38.072 955.031 37.5227 954.829 37.064C954.626 36.6053 954.317 36.2427 953.901 35.976C953.495 35.7093 952.978 35.544 952.349 35.48V41.976ZM959.751 39.656C959.751 39.752 959.745 39.8907 959.735 40.072C959.735 40.2427 959.729 40.4293 959.719 40.632C959.708 40.824 959.697 41.0107 959.687 41.192C959.676 41.3627 959.665 41.5013 959.655 41.608L964.247 34.424H965.975V43H964.663V37.944C964.663 37.7733 964.663 37.5493 964.663 37.272C964.673 36.9947 964.684 36.7227 964.695 36.456C964.705 36.1787 964.716 35.9707 964.727 35.832L960.167 43H958.423V34.424H959.751V39.656ZM973.376 34.424H974.912L971.248 38.552L975.216 43H973.584L969.712 38.648V43H968.304V34.424H969.712V38.584L973.376 34.424ZM981.38 43.16C980.889 43.16 980.462 43.1173 980.1 43.032C979.748 42.9573 979.417 42.8453 979.108 42.696V41.48C979.428 41.608 979.774 41.72 980.148 41.816C980.521 41.912 980.942 41.96 981.412 41.96C981.966 41.96 982.446 41.864 982.852 41.672C983.257 41.4693 983.577 41.16 983.812 40.744C984.046 40.328 984.18 39.8 984.212 39.16H979.988V38.008H984.196C984.121 37.1333 983.87 36.4933 983.444 36.088C983.028 35.6827 982.414 35.48 981.604 35.48C981.294 35.48 980.953 35.5227 980.58 35.608C980.217 35.6933 979.892 35.7893 979.604 35.896L979.204 34.76C979.513 34.6213 979.881 34.504 980.308 34.408C980.734 34.312 981.161 34.264 981.588 34.264C982.388 34.264 983.092 34.4133 983.7 34.712C984.318 35.0107 984.798 35.4853 985.14 36.136C985.492 36.7867 985.668 37.6453 985.668 38.712C985.668 39.7253 985.481 40.5627 985.108 41.224C984.745 41.8853 984.238 42.376 983.588 42.696C982.948 43.0053 982.212 43.16 981.38 43.16ZM992.63 34.296C993.483 34.3707 994.225 34.5947 994.854 34.968C995.494 35.3413 995.99 35.8427 996.342 36.472C996.694 37.1013 996.87 37.848 996.87 38.712C996.87 39.576 996.699 40.328 996.358 40.968C996.017 41.5973 995.531 42.0987 994.902 42.472C994.273 42.8347 993.515 43.0533 992.63 43.128V46.84H991.254V43.128C990.411 43.0533 989.67 42.8347 989.03 42.472C988.39 42.0987 987.894 41.5973 987.542 40.968C987.19 40.328 987.014 39.576 987.014 38.712C987.014 37.8373 987.185 37.0853 987.526 36.456C987.867 35.816 988.358 35.3147 988.998 34.952C989.638 34.5787 990.406 34.36 991.302 34.296V30.84H992.63V34.296ZM991.302 35.464C990.651 35.528 990.118 35.6933 989.702 35.96C989.286 36.2267 988.977 36.5893 988.774 37.048C988.582 37.5067 988.486 38.0613 988.486 38.712C988.486 39.352 988.582 39.9067 988.774 40.376C988.977 40.8347 989.286 41.2027 989.702 41.48C990.118 41.7467 990.651 41.912 991.302 41.976V35.464ZM992.63 41.976C993.27 41.9013 993.793 41.7307 994.198 41.464C994.614 41.1973 994.918 40.8347 995.11 40.376C995.313 39.9067 995.414 39.352 995.414 38.712C995.414 38.072 995.313 37.5227 995.11 37.064C994.907 36.6053 994.598 36.2427 994.182 35.976C993.777 35.7093 993.259 35.544 992.63 35.48V41.976ZM1003.82 34.296C1004.68 34.3707 1005.42 34.5947 1006.05 34.968C1006.69 35.3413 1007.18 35.8427 1007.54 36.472C1007.89 37.1013 1008.06 37.848 1008.06 38.712C1008.06 39.576 1007.89 40.328 1007.55 40.968C1007.21 41.5973 1006.73 42.0987 1006.1 42.472C1005.47 42.8347 1004.71 43.0533 1003.82 43.128V46.84H1002.45V43.128C1001.61 43.0533 1000.86 42.8347 1000.22 42.472C999.584 42.0987 999.088 41.5973 998.736 40.968C998.384 40.328 998.208 39.576 998.208 38.712C998.208 37.8373 998.378 37.0853 998.72 36.456C999.061 35.816 999.552 35.3147 1000.19 34.952C1000.83 34.5787 1001.6 34.36 1002.5 34.296V30.84H1003.82V34.296ZM1002.5 35.464C1001.85 35.528 1001.31 35.6933 1000.9 35.96C1000.48 36.2267 1000.17 36.5893 999.968 37.048C999.776 37.5067 999.68 38.0613 999.68 38.712C999.68 39.352 999.776 39.9067 999.968 40.376C1000.17 40.8347 1000.48 41.2027 1000.9 41.48C1001.31 41.7467 1001.85 41.912 1002.5 41.976V35.464ZM1003.82 41.976C1004.46 41.9013 1004.99 41.7307 1005.39 41.464C1005.81 41.1973 1006.11 40.8347 1006.3 40.376C1006.51 39.9067 1006.61 39.352 1006.61 38.712C1006.61 38.072 1006.51 37.5227 1006.3 37.064C1006.1 36.6053 1005.79 36.2427 1005.38 35.976C1004.97 35.7093 1004.45 35.544 1003.82 35.48V41.976ZM1013.21 34.264C1013.95 34.264 1014.57 34.424 1015.1 34.744C1015.63 35.064 1016.04 35.5173 1016.31 36.104C1016.6 36.68 1016.75 37.3573 1016.75 38.136V38.984H1010.87C1010.89 39.9547 1011.14 40.696 1011.61 41.208C1012.09 41.7093 1012.76 41.96 1013.61 41.96C1014.15 41.96 1014.63 41.912 1015.05 41.816C1015.48 41.7093 1015.91 41.56 1016.36 41.368V42.6C1015.92 42.792 1015.49 42.9307 1015.07 43.016C1014.64 43.112 1014.13 43.16 1013.55 43.16C1012.73 43.16 1012.01 42.9947 1011.39 42.664C1010.77 42.3333 1010.28 41.8427 1009.93 41.192C1009.59 40.5307 1009.42 39.7253 1009.42 38.776C1009.42 37.8373 1009.57 37.032 1009.88 36.36C1010.2 35.688 1010.64 35.1707 1011.21 34.808C1011.79 34.4453 1012.45 34.264 1013.21 34.264ZM1013.19 35.416C1012.52 35.416 1011.99 35.6347 1011.59 36.072C1011.21 36.4987 1010.98 37.096 1010.91 37.864H1015.27C1015.27 37.3733 1015.2 36.9467 1015.05 36.584C1014.9 36.2213 1014.67 35.9387 1014.36 35.736C1014.06 35.5227 1013.67 35.416 1013.19 35.416ZM1023.6 34.424H1025.14L1021.47 38.552L1025.44 43H1023.81L1019.94 38.648V43H1018.53V34.424H1019.94V38.584L1023.6 34.424ZM1032.52 35.608H1029.72V43H1028.33V35.608H1025.56V34.424H1032.52V35.608ZM1035.13 39.656C1035.13 39.752 1035.13 39.8907 1035.12 40.072C1035.12 40.2427 1035.11 40.4293 1035.1 40.632C1035.09 40.824 1035.08 41.0107 1035.07 41.192C1035.06 41.3627 1035.05 41.5013 1035.04 41.608L1039.63 34.424H1041.36V43H1040.05V37.944C1040.05 37.7733 1040.05 37.5493 1040.05 37.272C1040.06 36.9947 1040.07 36.7227 1040.08 36.456C1040.09 36.1787 1040.1 35.9707 1040.11 35.832L1035.55 43H1033.81V34.424H1035.13V39.656ZM1050.58 36.584C1050.58 37.1173 1050.42 37.5333 1050.1 37.832C1049.78 38.1307 1049.37 38.3333 1048.87 38.44V38.504C1049.41 38.5787 1049.87 38.7707 1050.26 39.08C1050.66 39.3787 1050.86 39.848 1050.86 40.488C1050.86 40.8507 1050.79 41.1867 1050.65 41.496C1050.52 41.8053 1050.32 42.072 1050.04 42.296C1049.76 42.52 1049.41 42.696 1048.97 42.824C1048.53 42.9413 1048 43 1047.38 43H1043.69V34.424H1047.37C1047.98 34.424 1048.52 34.4933 1049 34.632C1049.49 34.76 1049.87 34.984 1050.15 35.304C1050.44 35.6133 1050.58 36.04 1050.58 36.584ZM1049.4 40.488C1049.4 39.9973 1049.21 39.6453 1048.84 39.432C1048.47 39.2187 1047.92 39.112 1047.19 39.112H1045.1V41.864H1047.22C1047.93 41.864 1048.47 41.7627 1048.84 41.56C1049.21 41.3467 1049.4 40.9893 1049.4 40.488ZM1049.16 36.76C1049.16 36.3547 1049.01 36.0613 1048.71 35.88C1048.42 35.688 1047.95 35.592 1047.29 35.592H1045.1V37.944H1047.03C1047.73 37.944 1048.25 37.848 1048.62 37.656C1048.98 37.464 1049.16 37.1653 1049.16 36.76ZM1053.91 34.424V37.992H1058.57V34.424H1059.98V43H1058.57V39.176H1053.91V43H1052.51V34.424H1053.91ZM1069.75 38.696C1069.75 39.4107 1069.65 40.0453 1069.46 40.6C1069.28 41.144 1069.01 41.608 1068.66 41.992C1068.32 42.376 1067.9 42.6693 1067.4 42.872C1066.91 43.064 1066.36 43.16 1065.75 43.16C1065.19 43.16 1064.66 43.064 1064.18 42.872C1063.7 42.6693 1063.29 42.376 1062.93 41.992C1062.58 41.608 1062.31 41.144 1062.1 40.6C1061.91 40.0453 1061.81 39.4107 1061.81 38.696C1061.81 37.7467 1061.97 36.9467 1062.29 36.296C1062.61 35.6347 1063.07 35.1333 1063.67 34.792C1064.27 34.44 1064.98 34.264 1065.8 34.264C1066.58 34.264 1067.26 34.44 1067.85 34.792C1068.44 35.1333 1068.91 35.6347 1069.24 36.296C1069.58 36.9467 1069.75 37.7467 1069.75 38.696ZM1063.27 38.696C1063.27 39.368 1063.36 39.9547 1063.53 40.456C1063.71 40.9467 1063.99 41.3253 1064.36 41.592C1064.73 41.8587 1065.21 41.992 1065.78 41.992C1066.36 41.992 1066.83 41.8587 1067.21 41.592C1067.58 41.3253 1067.85 40.9467 1068.02 40.456C1068.2 39.9547 1068.29 39.368 1068.29 38.696C1068.29 38.0133 1068.2 37.432 1068.02 36.952C1067.84 36.472 1067.56 36.104 1067.19 35.848C1066.83 35.5813 1066.35 35.448 1065.77 35.448C1064.89 35.448 1064.26 35.736 1063.86 36.312C1063.47 36.888 1063.27 37.6827 1063.27 38.696ZM1075.02 43.16C1074.26 43.16 1073.59 43.0053 1072.99 42.696C1072.4 42.3867 1071.94 41.9067 1071.6 41.256C1071.27 40.6053 1071.1 39.7733 1071.1 38.76C1071.1 37.704 1071.28 36.8453 1071.63 36.184C1071.98 35.5227 1072.46 35.0373 1073.05 34.728C1073.66 34.4187 1074.35 34.264 1075.12 34.264C1075.56 34.264 1075.98 34.312 1076.38 34.408C1076.79 34.4933 1077.12 34.6 1077.37 34.728L1076.94 35.896C1076.69 35.8 1076.39 35.7093 1076.05 35.624C1075.7 35.5387 1075.38 35.496 1075.09 35.496C1074.51 35.496 1074.04 35.6187 1073.66 35.864C1073.29 36.1093 1073.01 36.472 1072.83 36.952C1072.65 37.432 1072.56 38.0293 1072.56 38.744C1072.56 39.4267 1072.65 40.008 1072.83 40.488C1073.01 40.968 1073.28 41.3307 1073.65 41.576C1074.01 41.8213 1074.46 41.944 1075.01 41.944C1075.48 41.944 1075.89 41.896 1076.24 41.8C1076.6 41.704 1076.93 41.5867 1077.23 41.448V42.696C1076.94 42.8453 1076.62 42.9573 1076.27 43.032C1075.93 43.1173 1075.51 43.16 1075.02 43.16ZM1084.79 35.608H1081.99V43H1080.6V35.608H1077.83V34.424H1084.79V35.608ZM1087.41 39.656C1087.41 39.752 1087.4 39.8907 1087.39 40.072C1087.39 40.2427 1087.39 40.4293 1087.37 40.632C1087.36 40.824 1087.35 41.0107 1087.34 41.192C1087.33 41.3627 1087.32 41.5013 1087.31 41.608L1091.9 34.424H1093.63V43H1092.32V37.944C1092.32 37.7733 1092.32 37.5493 1092.32 37.272C1092.33 36.9947 1092.34 36.7227 1092.35 36.456C1092.36 36.1787 1092.37 35.9707 1092.38 35.832L1087.82 43H1086.08V34.424H1087.41V39.656Z" fill="#B0B0B0"/>
<rect x="1095.05" y="76" width="12" height="1046.98" transform="rotate(90 1095.05 76)" fill="white"/>
<rect opacity="0.2" x="1095.05" y="82" width="1" height="1046.98" transform="rotate(90 1095.05 82)" fill="black" fill-opacity="0.41"/>
<rect x="1095.05" y="118" width="12" height="1046.98" transform="rotate(90 1095.05 118)" fill="white"/>
<rect opacity="0.2" x="1095.05" y="124" width="1" height="1046.98" transform="rotate(90 1095.05 124)" fill="black" fill-opacity="0.41"/>
<rect x="1095.05" y="160" width="12" height="1046.98" transform="rotate(90 1095.05 160)" fill="white"/>
<rect opacity="0.2" x="1095.05" y="166" width="1" height="1046.98" transform="rotate(90 1095.05 166)" fill="black" fill-opacity="0.41"/>
<rect x="1095.05" y="202" width="12" height="1046.98" transform="rotate(90 1095.05 202)" fill="white"/>
<rect opacity="0.2" x="1095.05" y="208" width="1" height="1046.98" transform="rotate(90 1095.05 208)" fill="black" fill-opacity="0.41"/>
<rect x="1095.05" y="244" width="12" height="1046.98" transform="rotate(90 1095.05 244)" fill="white"/>
<rect opacity="0.2" x="1095.05" y="250" width="1" height="1046.98" transform="rotate(90 1095.05 250)" fill="black" fill-opacity="0.41"/>
<path d="M48.0718 157.536L95.1017 145.236L137.492 132.239C141.273 131.079 145.282 130.872 149.163 131.636L187.154 139.115C189.23 139.523 191.242 140.205 193.139 141.141L237.311 162.939L267.788 175.801C278.122 180.162 290.099 176.784 296.631 167.665L329.759 121.414C332.28 117.895 335.706 115.123 339.673 113.392L371.155 99.6572C377.209 97.016 384.084 96.9865 390.161 99.5759L415.131 110.216C423.501 113.783 433.168 112.31 440.097 106.412L464.407 85.7161C471.391 79.7708 481.152 78.3255 489.559 81.9921L520.349 95.4208C522.747 96.4666 524.958 97.8973 526.894 99.6564L565.226 134.485C568.979 137.894 573.715 140.027 578.754 140.579L611.482 144.161C616.468 144.707 621.158 146.801 624.893 150.149L658.052 179.881C663.216 184.511 670.13 186.681 677.013 185.831L708.607 181.932C712.368 181.468 716.186 181.901 719.748 183.197L751.419 194.713C757.752 197.016 764.761 196.551 770.734 193.43L799.65 178.323C805.903 175.056 813.277 174.705 819.811 177.365L849.997 189.65C854.268 191.388 858.949 191.86 863.48 191.008L888.85 186.237C898.429 184.436 908.147 188.608 913.439 196.793L941.651 240.429C947.581 249.601 958.955 253.612 969.326 250.19L995.413 241.582C998.355 240.611 1001.46 240.219 1004.55 240.428L1033.79 242.402C1041.96 242.953 1049.84 239.304 1054.71 232.721L1095.05 178.139" stroke="#3281FF" stroke-width="4" stroke-linecap="round" stroke-linejoin="round"/>
<g filter="url(#filter1_d_181_6727)">
<circle cx="617.233" cy="145" r="16" fill="#3281FF"/>
<circle cx="617.233" cy="145" r="12" stroke="white" stroke-width="8"/>
</g>
<rect x="547.485" y="43" width="143.329" height="80" rx="16" fill="#F3F6F8"/>
<path d="M589.388 72V70.884C589.9 70.46 590.396 70.04 590.876 69.624C591.364 69.208 591.796 68.796 592.172 68.388C592.556 67.98 592.86 67.584 593.084 67.2C593.316 66.808 593.432 66.428 593.432 66.06C593.432 65.716 593.336 65.412 593.144 65.148C592.96 64.884 592.652 64.752 592.22 64.752C591.78 64.752 591.448 64.896 591.224 65.184C591 65.472 590.888 65.82 590.888 66.228H589.4C589.416 65.612 589.552 65.1 589.808 64.692C590.064 64.276 590.404 63.968 590.828 63.768C591.252 63.56 591.728 63.456 592.256 63.456C593.112 63.456 593.776 63.692 594.248 64.164C594.728 64.628 594.968 65.232 594.968 65.976C594.968 66.44 594.86 66.892 594.644 67.332C594.436 67.772 594.16 68.196 593.816 68.604C593.472 69.012 593.1 69.396 592.7 69.756C592.3 70.108 591.912 70.436 591.536 70.74H595.172V72H589.388ZM598.856 72.144C598.272 72.144 597.78 72.032 597.38 71.808C596.98 71.576 596.668 71.276 596.444 70.908C596.22 70.54 596.088 70.144 596.048 69.72H597.476C597.54 70.088 597.692 70.372 597.932 70.572C598.18 70.772 598.492 70.872 598.868 70.872C599.404 70.872 599.836 70.628 600.164 70.14C600.492 69.644 600.668 68.892 600.692 67.884C600.5 68.212 600.208 68.484 599.816 68.7C599.432 68.916 599.008 69.024 598.544 69.024C598.08 69.024 597.644 68.912 597.236 68.688C596.828 68.464 596.496 68.148 596.24 67.74C595.984 67.332 595.856 66.852 595.856 66.3C595.856 65.796 595.98 65.328 596.228 64.896C596.476 64.464 596.82 64.116 597.26 63.852C597.7 63.588 598.216 63.456 598.808 63.456C599.44 63.456 599.972 63.572 600.404 63.804C600.836 64.036 601.18 64.348 601.436 64.74C601.7 65.132 601.888 65.568 602 66.048C602.12 66.528 602.18 67.02 602.18 67.524C602.18 68.46 602.048 69.276 601.784 69.972C601.528 70.66 601.148 71.196 600.644 71.58C600.148 71.956 599.552 72.144 598.856 72.144ZM598.904 67.728C599.2 67.728 599.468 67.664 599.708 67.536C599.948 67.4 600.136 67.224 600.272 67.008C600.408 66.784 600.476 66.536 600.476 66.264C600.476 65.832 600.324 65.476 600.02 65.196C599.724 64.916 599.348 64.776 598.892 64.776C598.444 64.776 598.072 64.916 597.776 65.196C597.48 65.468 597.332 65.816 597.332 66.24C597.332 66.688 597.48 67.048 597.776 67.32C598.072 67.592 598.448 67.728 598.904 67.728ZM603.455 72.084C603.175 72.084 602.943 71.996 602.759 71.82C602.583 71.644 602.495 71.432 602.495 71.184C602.495 70.928 602.583 70.712 602.759 70.536C602.943 70.36 603.175 70.272 603.455 70.272C603.735 70.272 603.963 70.36 604.139 70.536C604.323 70.712 604.415 70.928 604.415 71.184C604.415 71.432 604.323 71.644 604.139 71.82C603.963 71.996 603.735 72.084 603.455 72.084ZM608.277 72.144C607.501 72.144 606.837 71.964 606.285 71.604C605.733 71.236 605.305 70.728 605.001 70.08C604.705 69.424 604.557 68.664 604.557 67.8C604.557 66.944 604.705 66.188 605.001 65.532C605.305 64.876 605.733 64.368 606.285 64.008C606.837 63.64 607.501 63.456 608.277 63.456C609.053 63.456 609.717 63.64 610.269 64.008C610.821 64.368 611.245 64.876 611.541 65.532C611.845 66.188 611.997 66.944 611.997 67.8C611.997 68.664 611.845 69.424 611.541 70.08C611.245 70.728 610.821 71.236 610.269 71.604C609.717 71.964 609.053 72.144 608.277 72.144ZM608.277 70.764C608.909 70.764 609.425 70.5 609.825 69.972C610.225 69.444 610.425 68.72 610.425 67.8C610.425 66.88 610.225 66.156 609.825 65.628C609.425 65.1 608.909 64.836 608.277 64.836C607.637 64.836 607.117 65.1 606.717 65.628C606.325 66.156 606.129 66.88 606.129 67.8C606.129 68.72 606.325 69.444 606.717 69.972C607.117 70.5 607.637 70.764 608.277 70.764ZM615.82 72.144C615.236 72.144 614.744 72.032 614.344 71.808C613.944 71.576 613.632 71.276 613.408 70.908C613.184 70.54 613.052 70.144 613.012 69.72H614.44C614.504 70.088 614.656 70.372 614.896 70.572C615.144 70.772 615.456 70.872 615.832 70.872C616.368 70.872 616.8 70.628 617.128 70.14C617.456 69.644 617.632 68.892 617.656 67.884C617.464 68.212 617.172 68.484 616.78 68.7C616.396 68.916 615.972 69.024 615.508 69.024C615.044 69.024 614.608 68.912 614.2 68.688C613.792 68.464 613.46 68.148 613.204 67.74C612.948 67.332 612.82 66.852 612.82 66.3C612.82 65.796 612.944 65.328 613.192 64.896C613.44 64.464 613.784 64.116 614.224 63.852C614.664 63.588 615.18 63.456 615.772 63.456C616.404 63.456 616.936 63.572 617.368 63.804C617.8 64.036 618.144 64.348 618.4 64.74C618.664 65.132 618.852 65.568 618.964 66.048C619.084 66.528 619.144 67.02 619.144 67.524C619.144 68.46 619.012 69.276 618.748 69.972C618.492 70.66 618.112 71.196 617.608 71.58C617.112 71.956 616.516 72.144 615.82 72.144ZM615.868 67.728C616.164 67.728 616.432 67.664 616.672 67.536C616.912 67.4 617.1 67.224 617.236 67.008C617.372 66.784 617.44 66.536 617.44 66.264C617.44 65.832 617.288 65.476 616.984 65.196C616.688 64.916 616.312 64.776 615.856 64.776C615.408 64.776 615.036 64.916 614.74 65.196C614.444 65.468 614.296 65.816 614.296 66.24C614.296 66.688 614.444 67.048 614.74 67.32C615.036 67.592 615.412 67.728 615.868 67.728ZM620.419 72.084C620.139 72.084 619.907 71.996 619.723 71.82C619.547 71.644 619.459 71.432 619.459 71.184C619.459 70.928 619.547 70.712 619.723 70.536C619.907 70.36 620.139 70.272 620.419 70.272C620.699 70.272 620.927 70.36 621.103 70.536C621.287 70.712 621.379 70.928 621.379 71.184C621.379 71.432 621.287 71.644 621.103 71.82C620.927 71.996 620.699 72.084 620.419 72.084ZM622.073 72V70.884C622.585 70.46 623.081 70.04 623.561 69.624C624.049 69.208 624.481 68.796 624.857 68.388C625.241 67.98 625.545 67.584 625.769 67.2C626.001 66.808 626.117 66.428 626.117 66.06C626.117 65.716 626.021 65.412 625.829 65.148C625.645 64.884 625.337 64.752 624.905 64.752C624.465 64.752 624.133 64.896 623.909 65.184C623.685 65.472 623.573 65.82 623.573 66.228H622.085C622.101 65.612 622.237 65.1 622.493 64.692C622.749 64.276 623.089 63.968 623.513 63.768C623.937 63.56 624.413 63.456 624.941 63.456C625.797 63.456 626.461 63.692 626.933 64.164C627.413 64.628 627.653 65.232 627.653 65.976C627.653 66.44 627.545 66.892 627.329 67.332C627.121 67.772 626.845 68.196 626.501 68.604C626.157 69.012 625.785 69.396 625.385 69.756C624.985 70.108 624.597 70.436 624.221 70.74H627.857V72H622.073ZM632.118 72.144C631.342 72.144 630.678 71.964 630.126 71.604C629.574 71.236 629.146 70.728 628.842 70.08C628.546 69.424 628.398 68.664 628.398 67.8C628.398 66.944 628.546 66.188 628.842 65.532C629.146 64.876 629.574 64.368 630.126 64.008C630.678 63.64 631.342 63.456 632.118 63.456C632.894 63.456 633.558 63.64 634.11 64.008C634.662 64.368 635.086 64.876 635.382 65.532C635.686 66.188 635.838 66.944 635.838 67.8C635.838 68.664 635.686 69.424 635.382 70.08C635.086 70.728 634.662 71.236 634.11 71.604C633.558 71.964 632.894 72.144 632.118 72.144ZM632.118 70.764C632.75 70.764 633.266 70.5 633.666 69.972C634.066 69.444 634.266 68.72 634.266 67.8C634.266 66.88 634.066 66.156 633.666 65.628C633.266 65.1 632.75 64.836 632.118 64.836C631.478 64.836 630.958 65.1 630.558 65.628C630.166 66.156 629.97 66.88 629.97 67.8C629.97 68.72 630.166 69.444 630.558 69.972C630.958 70.5 631.478 70.764 632.118 70.764ZM636.531 72V70.884C637.043 70.46 637.539 70.04 638.019 69.624C638.507 69.208 638.939 68.796 639.315 68.388C639.699 67.98 640.003 67.584 640.227 67.2C640.459 66.808 640.575 66.428 640.575 66.06C640.575 65.716 640.479 65.412 640.287 65.148C640.103 64.884 639.795 64.752 639.363 64.752C638.923 64.752 638.591 64.896 638.367 65.184C638.143 65.472 638.031 65.82 638.031 66.228H636.543C636.559 65.612 636.695 65.1 636.951 64.692C637.207 64.276 637.547 63.968 637.971 63.768C638.395 63.56 638.871 63.456 639.399 63.456C640.255 63.456 640.919 63.692 641.391 64.164C641.871 64.628 642.111 65.232 642.111 65.976C642.111 66.44 642.003 66.892 641.787 67.332C641.579 67.772 641.303 68.196 640.959 68.604C640.615 69.012 640.243 69.396 639.843 69.756C639.443 70.108 639.055 70.436 638.679 70.74H642.315V72H636.531ZM645.939 72.144C645.387 72.144 644.887 72.048 644.439 71.856C643.991 71.656 643.631 71.352 643.359 70.944C643.087 70.536 642.943 70.024 642.927 69.408H644.439C644.447 69.816 644.579 70.16 644.835 70.44C645.099 70.712 645.467 70.848 645.939 70.848C646.387 70.848 646.731 70.724 646.971 70.476C647.211 70.228 647.331 69.916 647.331 69.54C647.331 69.1 647.171 68.768 646.851 68.544C646.539 68.312 646.135 68.196 645.639 68.196H645.015V66.936H645.651C646.059 66.936 646.399 66.84 646.671 66.648C646.943 66.456 647.079 66.172 647.079 65.796C647.079 65.484 646.975 65.236 646.767 65.052C646.567 64.86 646.287 64.764 645.927 64.764C645.535 64.764 645.227 64.88 645.003 65.112C644.787 65.344 644.667 65.628 644.643 65.964H643.143C643.175 65.188 643.443 64.576 643.947 64.128C644.459 63.68 645.119 63.456 645.927 63.456C646.503 63.456 646.987 63.56 647.379 63.768C647.779 63.968 648.079 64.236 648.279 64.572C648.487 64.908 648.591 65.28 648.591 65.688C648.591 66.16 648.459 66.56 648.195 66.888C647.939 67.208 647.619 67.424 647.235 67.536C647.707 67.632 648.091 67.864 648.387 68.232C648.683 68.592 648.831 69.048 648.831 69.6C648.831 70.064 648.719 70.488 648.495 70.872C648.271 71.256 647.943 71.564 647.511 71.796C647.087 72.028 646.563 72.144 645.939 72.144Z" fill="#8F92A1"/>
<path d="M611.377 101V92.136L609.537 92.568V91L612.241 89.8H613.505V101H611.377ZM619.292 101.192C618.471 101.192 617.762 101.048 617.164 100.76C616.578 100.472 616.114 100.077 615.772 99.576C615.442 99.064 615.25 98.488 615.196 97.848H617.196C617.292 98.3067 617.527 98.6907 617.9 99C618.274 99.2987 618.738 99.448 619.292 99.448C619.89 99.448 620.375 99.2293 620.748 98.792C621.132 98.3547 621.324 97.8107 621.324 97.16C621.324 96.488 621.132 95.9547 620.748 95.56C620.375 95.1653 619.9 94.968 619.324 94.968C618.844 94.968 618.428 95.0853 618.076 95.32C617.724 95.5547 617.474 95.848 617.324 96.2H615.356L616.316 89.8H622.524V91.592H617.852L617.34 94.184C617.575 93.928 617.895 93.72 618.3 93.56C618.706 93.3893 619.159 93.304 619.66 93.304C620.46 93.304 621.127 93.4853 621.66 93.848C622.194 94.2 622.599 94.6693 622.876 95.256C623.154 95.832 623.292 96.4613 623.292 97.144C623.292 97.9227 623.122 98.616 622.78 99.224C622.45 99.832 621.98 100.312 621.372 100.664C620.775 101.016 620.082 101.192 619.292 101.192ZM626.014 101V92.136L624.174 92.568V91L626.878 89.8H628.142V101H626.014Z" fill="#171717"/>
<g filter="url(#filter2_d_181_6727)">
<circle cx="617.233" cy="145" r="16" fill="#3281FF"/>
<circle cx="617.233" cy="145" r="12" stroke="white" stroke-width="8"/>
</g>
</g>
<defs>
<filter id="filter0_d_181_6727" x="0" y="0" width="1142" height="289" filterUnits="userSpaceOnUse" color-interpolation-filters="sRGB">
<feFlood flood-opacity="0" result="BackgroundImageFix"/>
<feColorMatrix in="SourceAlpha" type="matrix" values="0 0 0 0 0 0 0 0 0 0 0 0 0 0 0 0 0 0 127 0" result="hardAlpha"/>
<feOffset/>
<feGaussianBlur stdDeviation="5"/>
<feComposite in2="hardAlpha" operator="out"/>
<feColorMatrix type="matrix" values="0 0 0 0 0 0 0 0 0 0 0 0 0 0 0 0 0 0 0.07 0"/>
<feBlend mode="normal" in2="BackgroundImageFix" result="effect1_dropShadow_181_6727"/>
<feBlend mode="normal" in="SourceGraphic" in2="effect1_dropShadow_181_6727" result="shape"/>
</filter>
<filter id="filter1_d_181_6727" x="585.233" y="121" width="64" height="64" filterUnits="userSpaceOnUse" color-interpolation-filters="sRGB">
<feFlood flood-opacity="0" result="BackgroundImageFix"/>
<feColorMatrix in="SourceAlpha" type="matrix" values="0 0 0 0 0 0 0 0 0 0 0 0 0 0 0 0 0 0 127 0" result="hardAlpha"/>
<feOffset dy="8"/>
<feGaussianBlur stdDeviation="8"/>
<feColorMatrix type="matrix" values="0 0 0 0 0.321569 0 0 0 0 0.262745 0 0 0 0 0.666667 0 0 0 0.32 0"/>
<feBlend mode="normal" in2="BackgroundImageFix" result="effect1_dropShadow_181_6727"/>
<feBlend mode="normal" in="SourceGraphic" in2="effect1_dropShadow_181_6727" result="shape"/>
</filter>
<filter id="filter2_d_181_6727" x="585.233" y="121" width="64" height="64" filterUnits="userSpaceOnUse" color-interpolation-filters="sRGB">
<feFlood flood-opacity="0" result="BackgroundImageFix"/>
<feColorMatrix in="SourceAlpha" type="matrix" values="0 0 0 0 0 0 0 0 0 0 0 0 0 0 0 0 0 0 127 0" result="hardAlpha"/>
<feOffset dy="8"/>
<feGaussianBlur stdDeviation="8"/>
<feColorMatrix type="matrix" values="0 0 0 0 0.196078 0 0 0 0 0.505882 0 0 0 0 1 0 0 0 0.32 0"/>
<feBlend mode="normal" in2="BackgroundImageFix" result="effect1_dropShadow_181_6727"/>
<feBlend mode="normal" in="SourceGraphic" in2="effect1_dropShadow_181_6727" result="shape"/>
</filter>
</defs>
</svg>
