<svg width="334" height="189" viewBox="0 0 334 189" fill="none" xmlns="http://www.w3.org/2000/svg">
<g filter="url(#filter0_d_273_6550)">
<rect x="7" y="7" width="320" height="175" rx="8" fill="white"/>
<path d="M180.152 19.9253V20.8053H176.709V27.7793H175.719V19.9253H180.152ZM183.351 21.7733C184.077 21.7733 184.66 22.0263 185.1 22.5323C185.547 23.0383 185.771 23.801 185.771 24.8203C185.771 25.4876 185.668 26.0523 185.463 26.5143C185.265 26.969 184.983 27.3136 184.616 27.5483C184.257 27.7756 183.831 27.8893 183.34 27.8893C183.039 27.8893 182.772 27.849 182.537 27.7683C182.302 27.6876 182.101 27.585 181.932 27.4603C181.771 27.3283 181.631 27.1853 181.514 27.0313H181.448C181.463 27.156 181.477 27.3136 181.492 27.5043C181.507 27.695 181.514 27.86 181.514 27.9993V30.4193H180.546V21.8833H181.338L181.47 22.6863H181.514C181.631 22.5176 181.771 22.3636 181.932 22.2243C182.101 22.085 182.299 21.975 182.526 21.8943C182.761 21.8136 183.036 21.7733 183.351 21.7733ZM183.175 22.5873C182.779 22.5873 182.46 22.6643 182.218 22.8183C181.976 22.965 181.8 23.1886 181.69 23.4893C181.58 23.79 181.521 24.1713 181.514 24.6333V24.8203C181.514 25.3043 181.565 25.715 181.668 26.0523C181.771 26.3896 181.943 26.6463 182.185 26.8223C182.434 26.9983 182.772 27.0863 183.197 27.0863C183.556 27.0863 183.85 26.9873 184.077 26.7893C184.312 26.5913 184.484 26.3236 184.594 25.9863C184.711 25.6416 184.77 25.2493 184.77 24.8093C184.77 24.1346 184.638 23.5956 184.374 23.1923C184.117 22.789 183.718 22.5873 183.175 22.5873ZM189.285 21.7843C190.004 21.7843 190.535 21.942 190.88 22.2573C191.225 22.5726 191.397 23.075 191.397 23.7643V27.7793H190.693L190.506 26.9433H190.462C190.293 27.156 190.117 27.3356 189.934 27.4823C189.758 27.6216 189.553 27.7243 189.318 27.7903C189.091 27.8563 188.812 27.8893 188.482 27.8893C188.13 27.8893 187.811 27.827 187.525 27.7023C187.246 27.5776 187.026 27.387 186.865 27.1303C186.704 26.8663 186.623 26.5363 186.623 26.1403C186.623 25.5536 186.854 25.1026 187.316 24.7873C187.778 24.4646 188.489 24.2886 189.45 24.2593L190.451 24.2263V23.8743C190.451 23.383 190.345 23.042 190.132 22.8513C189.919 22.6606 189.619 22.5653 189.23 22.5653C188.922 22.5653 188.629 22.613 188.35 22.7083C188.071 22.7963 187.811 22.899 187.569 23.0163L187.272 22.2903C187.529 22.151 187.833 22.0336 188.185 21.9383C188.537 21.8356 188.904 21.7843 189.285 21.7843ZM189.571 24.9303C188.838 24.9596 188.328 25.077 188.042 25.2823C187.763 25.4876 187.624 25.7773 187.624 26.1513C187.624 26.4813 187.723 26.7233 187.921 26.8773C188.126 27.0313 188.387 27.1083 188.702 27.1083C189.201 27.1083 189.615 26.9726 189.945 26.7013C190.275 26.4226 190.44 25.9973 190.44 25.4253V24.8973L189.571 24.9303ZM196.476 21.7953C197.063 21.8466 197.572 22.0006 198.005 22.2573C198.445 22.514 198.786 22.8586 199.028 23.2913C199.27 23.724 199.391 24.2373 199.391 24.8313C199.391 25.4253 199.274 25.9423 199.039 26.3823C198.804 26.815 198.471 27.1596 198.038 27.4163C197.605 27.6656 197.085 27.816 196.476 27.8673V30.4193H195.53V27.8673C194.951 27.816 194.441 27.6656 194.001 27.4163C193.561 27.1596 193.22 26.815 192.978 26.3823C192.736 25.9423 192.615 25.4253 192.615 24.8313C192.615 24.23 192.732 23.713 192.967 23.2803C193.202 22.8403 193.539 22.4956 193.979 22.2463C194.419 21.9896 194.947 21.8393 195.563 21.7953V19.4193H196.476V21.7953ZM195.563 22.5983C195.116 22.6423 194.749 22.756 194.463 22.9393C194.177 23.1226 193.964 23.372 193.825 23.6873C193.693 24.0026 193.627 24.384 193.627 24.8313C193.627 25.2713 193.693 25.6526 193.825 25.9753C193.964 26.2906 194.177 26.5436 194.463 26.7343C194.749 26.9176 195.116 27.0313 195.563 27.0753V22.5983ZM196.476 27.0753C196.916 27.024 197.275 26.9066 197.554 26.7233C197.84 26.54 198.049 26.2906 198.181 25.9753C198.32 25.6526 198.39 25.2713 198.39 24.8313C198.39 24.3913 198.32 24.0136 198.181 23.6983C198.042 23.383 197.829 23.1336 197.543 22.9503C197.264 22.767 196.909 22.6533 196.476 22.6093V27.0753ZM201.578 25.4803C201.578 25.5463 201.574 25.6416 201.567 25.7663C201.567 25.8836 201.563 26.012 201.556 26.1513C201.549 26.2833 201.541 26.4116 201.534 26.5363C201.527 26.6536 201.519 26.749 201.512 26.8223L204.669 21.8833H205.857V27.7793H204.955V24.3033C204.955 24.186 204.955 24.032 204.955 23.8413C204.962 23.6506 204.97 23.4636 204.977 23.2803C204.984 23.0896 204.992 22.9466 204.999 22.8513L201.864 27.7793H200.665V21.8833H201.578V25.4803ZM210.959 21.8833H212.015L209.496 24.7213L212.224 27.7793H211.102L208.44 24.7873V27.7793H207.472V21.8833H208.44V24.7433L210.959 21.8833ZM216.488 27.8893C216.151 27.8893 215.857 27.86 215.608 27.8013C215.366 27.75 215.139 27.673 214.926 27.5703V26.7343C215.146 26.8223 215.384 26.8993 215.641 26.9653C215.898 27.0313 216.187 27.0643 216.51 27.0643C216.891 27.0643 217.221 26.9983 217.5 26.8663C217.779 26.727 217.999 26.5143 218.16 26.2283C218.321 25.9423 218.413 25.5793 218.435 25.1393H215.531V24.3473H218.424C218.373 23.746 218.2 23.306 217.907 23.0273C217.621 22.7486 217.199 22.6093 216.642 22.6093C216.429 22.6093 216.195 22.6386 215.938 22.6973C215.689 22.756 215.465 22.822 215.267 22.8953L214.992 22.1143C215.205 22.019 215.458 21.9383 215.751 21.8723C216.044 21.8063 216.338 21.7733 216.631 21.7733C217.181 21.7733 217.665 21.876 218.083 22.0813C218.508 22.2866 218.838 22.613 219.073 23.0603C219.315 23.5076 219.436 24.098 219.436 24.8313C219.436 25.528 219.308 26.1036 219.051 26.5583C218.802 27.013 218.453 27.3503 218.006 27.5703C217.566 27.783 217.06 27.8893 216.488 27.8893ZM224.236 21.7953C224.822 21.8466 225.332 22.0006 225.765 22.2573C226.205 22.514 226.546 22.8586 226.788 23.2913C227.03 23.724 227.151 24.2373 227.151 24.8313C227.151 25.4253 227.033 25.9423 226.799 26.3823C226.564 26.815 226.23 27.1596 225.798 27.4163C225.365 27.6656 224.844 27.816 224.236 27.8673V30.4193H223.29V27.8673C222.71 27.816 222.201 27.6656 221.761 27.4163C221.321 27.1596 220.98 26.815 220.738 26.3823C220.496 25.9423 220.375 25.4253 220.375 24.8313C220.375 24.23 220.492 23.713 220.727 23.2803C220.961 22.8403 221.299 22.4956 221.739 22.2463C222.179 21.9896 222.707 21.8393 223.323 21.7953V19.4193H224.236V21.7953ZM223.323 22.5983C222.875 22.6423 222.509 22.756 222.223 22.9393C221.937 23.1226 221.724 23.372 221.585 23.6873C221.453 24.0026 221.387 24.384 221.387 24.8313C221.387 25.2713 221.453 25.6526 221.585 25.9753C221.724 26.2906 221.937 26.5436 222.223 26.7343C222.509 26.9176 222.875 27.0313 223.323 27.0753V22.5983ZM224.236 27.0753C224.676 27.024 225.035 26.9066 225.314 26.7233C225.6 26.54 225.809 26.2906 225.941 25.9753C226.08 25.6526 226.15 25.2713 226.15 24.8313C226.15 24.3913 226.08 24.0136 225.941 23.6983C225.801 23.383 225.589 23.1336 225.303 22.9503C225.024 22.767 224.668 22.6533 224.236 22.6093V27.0753ZM231.945 21.7953C232.531 21.8466 233.041 22.0006 233.474 22.2573C233.914 22.514 234.255 22.8586 234.497 23.2913C234.739 23.724 234.86 24.2373 234.86 24.8313C234.86 25.4253 234.742 25.9423 234.508 26.3823C234.273 26.815 233.939 27.1596 233.507 27.4163C233.074 27.6656 232.553 27.816 231.945 27.8673V30.4193H230.999V27.8673C230.419 27.816 229.91 27.6656 229.47 27.4163C229.03 27.1596 228.689 26.815 228.447 26.3823C228.205 25.9423 228.084 25.4253 228.084 24.8313C228.084 24.23 228.201 23.713 228.436 23.2803C228.67 22.8403 229.008 22.4956 229.448 22.2463C229.888 21.9896 230.416 21.8393 231.032 21.7953V19.4193H231.945V21.7953ZM231.032 22.5983C230.584 22.6423 230.218 22.756 229.932 22.9393C229.646 23.1226 229.433 23.372 229.294 23.6873C229.162 24.0026 229.096 24.384 229.096 24.8313C229.096 25.2713 229.162 25.6526 229.294 25.9753C229.433 26.2906 229.646 26.5436 229.932 26.7343C230.218 26.9176 230.584 27.0313 231.032 27.0753V22.5983ZM231.945 27.0753C232.385 27.024 232.744 26.9066 233.023 26.7233C233.309 26.54 233.518 26.2906 233.65 25.9753C233.789 25.6526 233.859 25.2713 233.859 24.8313C233.859 24.3913 233.789 24.0136 233.65 23.6983C233.51 23.383 233.298 23.1336 233.012 22.9503C232.733 22.767 232.377 22.6533 231.945 22.6093V27.0753ZM238.411 21.7733C238.917 21.7733 239.349 21.8833 239.709 22.1033C240.075 22.3233 240.354 22.635 240.545 23.0383C240.743 23.4343 240.842 23.9 240.842 24.4353V25.0183H236.805C236.819 25.6856 236.988 26.1953 237.311 26.5473C237.641 26.892 238.099 27.0643 238.686 27.0643C239.06 27.0643 239.39 27.0313 239.676 26.9653C239.969 26.892 240.27 26.7893 240.578 26.6573V27.5043C240.277 27.6363 239.98 27.7316 239.687 27.7903C239.393 27.8563 239.045 27.8893 238.642 27.8893C238.084 27.8893 237.589 27.7756 237.157 27.5483C236.731 27.321 236.398 26.9836 236.156 26.5363C235.921 26.0816 235.804 25.528 235.804 24.8753C235.804 24.23 235.91 23.6763 236.123 23.2143C236.343 22.7523 236.647 22.3966 237.036 22.1473C237.432 21.898 237.89 21.7733 238.411 21.7733ZM238.4 22.5653C237.938 22.5653 237.571 22.7156 237.3 23.0163C237.036 23.3096 236.878 23.7203 236.827 24.2483H239.83C239.83 23.911 239.778 23.6176 239.676 23.3683C239.573 23.119 239.415 22.9246 239.203 22.7853C238.997 22.6386 238.73 22.5653 238.4 22.5653ZM245.568 21.8833H246.624L244.105 24.7213L246.833 27.7793H245.711L243.049 24.7873V27.7793H242.081V21.8833H243.049V24.7433L245.568 21.8833ZM251.711 22.6973H249.786V27.7793H248.829V22.6973H246.926V21.8833H251.711V22.6973ZM253.524 25.4803C253.524 25.5463 253.52 25.6416 253.513 25.7663C253.513 25.8836 253.509 26.012 253.502 26.1513C253.495 26.2833 253.487 26.4116 253.48 26.5363C253.473 26.6536 253.465 26.749 253.458 26.8223L256.615 21.8833H257.803V27.7793H256.901V24.3033C256.901 24.186 256.901 24.032 256.901 23.8413C256.908 23.6506 256.916 23.4636 256.923 23.2803C256.93 23.0896 256.938 22.9466 256.945 22.8513L253.81 27.7793H252.611V21.8833H253.524V25.4803ZM264.159 23.3683C264.159 23.735 264.049 24.021 263.829 24.2263C263.609 24.4316 263.326 24.571 262.982 24.6443V24.6883C263.348 24.7396 263.667 24.8716 263.939 25.0843C264.21 25.2896 264.346 25.6123 264.346 26.0523C264.346 26.3016 264.298 26.5326 264.203 26.7453C264.115 26.958 263.975 27.1413 263.785 27.2953C263.594 27.4493 263.348 27.5703 263.048 27.6583C262.747 27.739 262.384 27.7793 261.959 27.7793H259.418V21.8833H261.948C262.366 21.8833 262.74 21.931 263.07 22.0263C263.407 22.1143 263.671 22.2683 263.862 22.4883C264.06 22.701 264.159 22.9943 264.159 23.3683ZM263.345 26.0523C263.345 25.715 263.216 25.473 262.96 25.3263C262.703 25.1796 262.325 25.1063 261.827 25.1063H260.386V26.9983H261.849C262.333 26.9983 262.703 26.9286 262.96 26.7893C263.216 26.6426 263.345 26.397 263.345 26.0523ZM263.18 23.4893C263.18 23.2106 263.077 23.009 262.872 22.8843C262.674 22.7523 262.347 22.6863 261.893 22.6863H260.386V24.3033H261.717C262.193 24.3033 262.556 24.2373 262.806 24.1053C263.055 23.9733 263.18 23.768 263.18 23.4893ZM266.462 21.8833V24.3363H269.663V21.8833H270.631V27.7793H269.663V25.1503H266.462V27.7793H265.494V21.8833H266.462ZM277.362 24.8203C277.362 25.3116 277.296 25.748 277.164 26.1293C277.039 26.5033 276.856 26.8223 276.614 27.0863C276.379 27.3503 276.09 27.552 275.745 27.6913C275.408 27.8233 275.03 27.8893 274.612 27.8893C274.223 27.8893 273.864 27.8233 273.534 27.6913C273.204 27.552 272.918 27.3503 272.676 27.0863C272.434 26.8223 272.243 26.5033 272.104 26.1293C271.972 25.748 271.906 25.3116 271.906 24.8203C271.906 24.1676 272.016 23.6176 272.236 23.1703C272.456 22.7156 272.771 22.371 273.182 22.1363C273.593 21.8943 274.08 21.7733 274.645 21.7733C275.18 21.7733 275.65 21.8943 276.053 22.1363C276.464 22.371 276.783 22.7156 277.01 23.1703C277.245 23.6176 277.362 24.1676 277.362 24.8203ZM272.907 24.8203C272.907 25.2823 272.966 25.6856 273.083 26.0303C273.208 26.3676 273.398 26.628 273.655 26.8113C273.912 26.9946 274.238 27.0863 274.634 27.0863C275.03 27.0863 275.356 26.9946 275.613 26.8113C275.87 26.628 276.057 26.3676 276.174 26.0303C276.299 25.6856 276.361 25.2823 276.361 24.8203C276.361 24.351 276.299 23.9513 276.174 23.6213C276.049 23.2913 275.859 23.0383 275.602 22.8623C275.353 22.679 275.026 22.5873 274.623 22.5873C274.022 22.5873 273.585 22.7853 273.314 23.1813C273.043 23.5773 272.907 24.1236 272.907 24.8203ZM280.999 27.8893C280.479 27.8893 280.013 27.783 279.602 27.5703C279.199 27.3576 278.88 27.0276 278.645 26.5803C278.418 26.133 278.304 25.561 278.304 24.8643C278.304 24.1383 278.425 23.548 278.667 23.0933C278.909 22.6386 279.236 22.305 279.646 22.0923C280.064 21.8796 280.537 21.7733 281.065 21.7733C281.366 21.7733 281.656 21.8063 281.934 21.8723C282.213 21.931 282.44 22.0043 282.616 22.0923L282.319 22.8953C282.143 22.8293 281.938 22.767 281.703 22.7083C281.469 22.6496 281.249 22.6203 281.043 22.6203C280.647 22.6203 280.321 22.7046 280.064 22.8733C279.808 23.042 279.617 23.2913 279.492 23.6213C279.368 23.9513 279.305 24.362 279.305 24.8533C279.305 25.3226 279.368 25.7223 279.492 26.0523C279.617 26.3823 279.804 26.6316 280.053 26.8003C280.303 26.969 280.614 27.0533 280.988 27.0533C281.311 27.0533 281.593 27.0203 281.835 26.9543C282.085 26.8883 282.312 26.8076 282.517 26.7123V27.5703C282.319 27.673 282.099 27.75 281.857 27.8013C281.623 27.86 281.337 27.8893 280.999 27.8893ZM287.728 22.6973H285.803V27.7793H284.846V22.6973H282.943V21.8833H287.728V22.6973ZM289.54 25.4803C289.54 25.5463 289.537 25.6416 289.529 25.7663C289.529 25.8836 289.526 26.012 289.518 26.1513C289.511 26.2833 289.504 26.4116 289.496 26.5363C289.489 26.6536 289.482 26.749 289.474 26.8223L292.631 21.8833H293.819V27.7793H292.917V24.3033C292.917 24.186 292.917 24.032 292.917 23.8413C292.925 23.6506 292.932 23.4636 292.939 23.2803C292.947 23.0896 292.954 22.9466 292.961 22.8513L289.826 27.7793H288.627V21.8833H289.54V25.4803Z" fill="#B0B0B0"/>
<rect x="294.28" y="49.1899" width="7.85276" height="262.366" transform="rotate(90 294.28 49.1899)" fill="white"/>
<rect opacity="0.2" x="294.28" y="53.1167" width="0.654397" height="262.366" transform="rotate(90 294.28 53.1167)" fill="black" fill-opacity="0.41"/>
<rect x="294.28" y="76.6748" width="7.85276" height="262.366" transform="rotate(90 294.28 76.6748)" fill="white"/>
<rect opacity="0.2" x="294.28" y="80.6011" width="0.654397" height="262.366" transform="rotate(90 294.28 80.6011)" fill="black" fill-opacity="0.41"/>
<rect x="294.28" y="104.159" width="7.85276" height="262.366" transform="rotate(90 294.28 104.159)" fill="white"/>
<rect opacity="0.2" x="294.28" y="108.085" width="0.654397" height="262.366" transform="rotate(90 294.28 108.085)" fill="black" fill-opacity="0.41"/>
<rect x="294.28" y="131.644" width="7.85276" height="262.366" transform="rotate(90 294.28 131.644)" fill="white"/>
<rect opacity="0.2" x="294.28" y="135.57" width="0.654397" height="262.366" transform="rotate(90 294.28 135.57)" fill="black" fill-opacity="0.41"/>
<rect x="294.28" y="159.129" width="7.85276" height="262.366" transform="rotate(90 294.28 159.129)" fill="white"/>
<rect opacity="0.2" x="294.28" y="163.055" width="0.654397" height="262.366" transform="rotate(90 294.28 163.055)" fill="black" fill-opacity="0.41"/>
<path d="M31.9141 102.547L43.6995 94.4978L48.0568 91.0089C52.7467 87.2538 59.2051 86.6047 64.5484 89.3514V89.3514C66.5262 90.368 68.2574 91.8052 69.6207 93.562L79.3364 106.082V106.082C84.5647 111.844 94.0941 109.567 96.1522 102.064L102.666 78.3155C103.194 76.3903 104.153 74.6104 105.47 73.1101L110.215 67.7037C112.896 64.6493 117.643 64.6215 120.359 67.6444V67.6444C123.636 71.291 129.581 70.3642 131.592 65.893L133.175 62.3728C135.951 56.202 144.178 54.9677 148.643 60.0523L150.031 61.6337C150.786 62.4938 151.398 63.47 151.843 64.5247L160.512 85.0951C162.058 88.7621 165.182 91.5309 169.008 92.6244V92.6244C172.813 93.7118 175.925 96.4566 177.48 100.096L183.792 114.876C185.501 118.877 189.977 120.917 194.118 119.582V119.582C197.05 118.638 200.264 119.369 202.498 121.491L203.47 122.414C207.284 126.036 213.412 125.487 216.521 121.244V121.244C219.748 116.842 226.178 116.448 229.918 120.423L231.073 121.651C233.117 123.823 236.338 124.408 239.014 123.093V123.093C242.903 121.184 247.561 123.353 248.602 127.558L255.399 155.01C256.757 160.496 263.424 162.62 267.705 158.931V158.931C269.429 157.446 271.729 156.813 273.969 157.208L274.486 157.299C278.875 158.073 283.138 155.399 284.351 151.111L294.28 116.029" stroke="#3281FF" stroke-width="2.61759" stroke-linecap="round" stroke-linejoin="round"/>
<g filter="url(#filter1_d_273_6550)">
<circle cx="100.414" cy="94.3429" r="10.4703" fill="#3281FF"/>
<circle cx="100.414" cy="94.3429" r="7.85276" stroke="white" stroke-width="5.23517"/>
</g>
<g filter="url(#filter2_b_273_6550)">
<rect x="59" y="18" width="83" height="53" rx="8" fill="#DDDDDD" fill-opacity="0.33" stroke="url(#paint0_linear_273_6550)"/>
<path d="M72.7625 38V36.977C73.2318 36.5883 73.6865 36.2033 74.1265 35.822C74.5738 35.4407 74.9698 35.063 75.3145 34.689C75.6665 34.315 75.9452 33.952 76.1505 33.6C76.3632 33.2407 76.4695 32.8923 76.4695 32.555C76.4695 32.2397 76.3815 31.961 76.2055 31.719C76.0368 31.477 75.7545 31.356 75.3585 31.356C74.9552 31.356 74.6508 31.488 74.4455 31.752C74.2402 32.016 74.1375 32.335 74.1375 32.709H72.7735C72.7882 32.1443 72.9128 31.675 73.1475 31.301C73.3822 30.9197 73.6938 30.6373 74.0825 30.454C74.4712 30.2633 74.9075 30.168 75.3915 30.168C76.1762 30.168 76.7848 30.3843 77.2175 30.817C77.6575 31.2423 77.8775 31.796 77.8775 32.478C77.8775 32.9033 77.7785 33.3177 77.5805 33.721C77.3898 34.1243 77.1368 34.513 76.8215 34.887C76.5062 35.261 76.1652 35.613 75.7985 35.943C75.4318 36.2657 75.0762 36.5663 74.7315 36.845H78.0645V38H72.7625ZM81.4419 38.132C80.9066 38.132 80.4556 38.0293 80.0889 37.824C79.7223 37.6113 79.4363 37.3363 79.2309 36.999C79.0256 36.6617 78.9046 36.2987 78.8679 35.91H80.1769C80.2356 36.2473 80.3749 36.5077 80.5949 36.691C80.8223 36.8743 81.1083 36.966 81.4529 36.966C81.9443 36.966 82.3403 36.7423 82.6409 36.295C82.9416 35.8403 83.1029 35.151 83.1249 34.227C82.9489 34.5277 82.6813 34.777 82.3219 34.975C81.9699 35.173 81.5813 35.272 81.1559 35.272C80.7306 35.272 80.3309 35.1693 79.9569 34.964C79.5829 34.7587 79.2786 34.469 79.0439 34.095C78.8093 33.721 78.6919 33.281 78.6919 32.775C78.6919 32.313 78.8056 31.884 79.0329 31.488C79.2603 31.092 79.5756 30.773 79.9789 30.531C80.3823 30.289 80.8553 30.168 81.3979 30.168C81.9773 30.168 82.4649 30.2743 82.8609 30.487C83.2569 30.6997 83.5723 30.9857 83.8069 31.345C84.0489 31.7043 84.2213 32.104 84.3239 32.544C84.4339 32.984 84.4889 33.435 84.4889 33.897C84.4889 34.755 84.3679 35.503 84.1259 36.141C83.8913 36.7717 83.5429 37.263 83.0809 37.615C82.6263 37.9597 82.0799 38.132 81.4419 38.132ZM81.4859 34.084C81.7573 34.084 82.0029 34.0253 82.2229 33.908C82.4429 33.7833 82.6153 33.622 82.7399 33.424C82.8646 33.2187 82.9269 32.9913 82.9269 32.742C82.9269 32.346 82.7876 32.0197 82.5089 31.763C82.2376 31.5063 81.8929 31.378 81.4749 31.378C81.0643 31.378 80.7233 31.5063 80.4519 31.763C80.1806 32.0123 80.0449 32.3313 80.0449 32.72C80.0449 33.1307 80.1806 33.4607 80.4519 33.71C80.7233 33.9593 81.0679 34.084 81.4859 34.084ZM85.6566 38.077C85.3999 38.077 85.1873 37.9963 85.0186 37.835C84.8573 37.6737 84.7766 37.4793 84.7766 37.252C84.7766 37.0173 84.8573 36.8193 85.0186 36.658C85.1873 36.4967 85.3999 36.416 85.6566 36.416C85.9133 36.416 86.1223 36.4967 86.2836 36.658C86.4523 36.8193 86.5366 37.0173 86.5366 37.252C86.5366 37.4793 86.4523 37.6737 86.2836 37.835C86.1223 37.9963 85.9133 38.077 85.6566 38.077ZM90.0767 38.132C89.3654 38.132 88.7567 37.967 88.2507 37.637C87.7447 37.2997 87.3524 36.834 87.0737 36.24C86.8024 35.6387 86.6667 34.942 86.6667 34.15C86.6667 33.3653 86.8024 32.6723 87.0737 32.071C87.3524 31.4697 87.7447 31.004 88.2507 30.674C88.7567 30.3367 89.3654 30.168 90.0767 30.168C90.788 30.168 91.3967 30.3367 91.9027 30.674C92.4087 31.004 92.7974 31.4697 93.0687 32.071C93.3474 32.6723 93.4867 33.3653 93.4867 34.15C93.4867 34.942 93.3474 35.6387 93.0687 36.24C92.7974 36.834 92.4087 37.2997 91.9027 37.637C91.3967 37.967 90.788 38.132 90.0767 38.132ZM90.0767 36.867C90.656 36.867 91.129 36.625 91.4957 36.141C91.8624 35.657 92.0457 34.9933 92.0457 34.15C92.0457 33.3067 91.8624 32.643 91.4957 32.159C91.129 31.675 90.656 31.433 90.0767 31.433C89.49 31.433 89.0134 31.675 88.6467 32.159C88.2874 32.643 88.1077 33.3067 88.1077 34.15C88.1077 34.9933 88.2874 35.657 88.6467 36.141C89.0134 36.625 89.49 36.867 90.0767 36.867ZM96.9913 38.132C96.4559 38.132 96.0049 38.0293 95.6383 37.824C95.2716 37.6113 94.9856 37.3363 94.7803 36.999C94.5749 36.6617 94.4539 36.2987 94.4173 35.91H95.7263C95.7849 36.2473 95.9243 36.5077 96.1443 36.691C96.3716 36.8743 96.6576 36.966 97.0023 36.966C97.4936 36.966 97.8896 36.7423 98.1903 36.295C98.4909 35.8403 98.6523 35.151 98.6743 34.227C98.4983 34.5277 98.2306 34.777 97.8713 34.975C97.5193 35.173 97.1306 35.272 96.7053 35.272C96.2799 35.272 95.8803 35.1693 95.5063 34.964C95.1323 34.7587 94.8279 34.469 94.5933 34.095C94.3586 33.721 94.2413 33.281 94.2413 32.775C94.2413 32.313 94.3549 31.884 94.5823 31.488C94.8096 31.092 95.1249 30.773 95.5283 30.531C95.9316 30.289 96.4046 30.168 96.9473 30.168C97.5266 30.168 98.0143 30.2743 98.4103 30.487C98.8063 30.6997 99.1216 30.9857 99.3563 31.345C99.5983 31.7043 99.7706 32.104 99.8733 32.544C99.9833 32.984 100.038 33.435 100.038 33.897C100.038 34.755 99.9173 35.503 99.6753 36.141C99.4406 36.7717 99.0923 37.263 98.6303 37.615C98.1756 37.9597 97.6293 38.132 96.9913 38.132ZM97.0353 34.084C97.3066 34.084 97.5523 34.0253 97.7723 33.908C97.9923 33.7833 98.1646 33.622 98.2893 33.424C98.4139 33.2187 98.4763 32.9913 98.4763 32.742C98.4763 32.346 98.3369 32.0197 98.0583 31.763C97.7869 31.5063 97.4423 31.378 97.0243 31.378C96.6136 31.378 96.2726 31.5063 96.0013 31.763C95.7299 32.0123 95.5943 32.3313 95.5943 32.72C95.5943 33.1307 95.7299 33.4607 96.0013 33.71C96.2726 33.9593 96.6173 34.084 97.0353 34.084ZM101.206 38.077C100.949 38.077 100.737 37.9963 100.568 37.835C100.407 37.6737 100.326 37.4793 100.326 37.252C100.326 37.0173 100.407 36.8193 100.568 36.658C100.737 36.4967 100.949 36.416 101.206 36.416C101.463 36.416 101.672 36.4967 101.833 36.658C102.002 36.8193 102.086 37.0173 102.086 37.252C102.086 37.4793 102.002 37.6737 101.833 37.835C101.672 37.9963 101.463 38.077 101.206 38.077ZM102.722 38V36.977C103.192 36.5883 103.646 36.2033 104.086 35.822C104.534 35.4407 104.93 35.063 105.274 34.689C105.626 34.315 105.905 33.952 106.11 33.6C106.323 33.2407 106.429 32.8923 106.429 32.555C106.429 32.2397 106.341 31.961 106.165 31.719C105.997 31.477 105.714 31.356 105.318 31.356C104.915 31.356 104.611 31.488 104.405 31.752C104.2 32.016 104.097 32.335 104.097 32.709H102.733C102.748 32.1443 102.873 31.675 103.107 31.301C103.342 30.9197 103.654 30.6373 104.042 30.454C104.431 30.2633 104.867 30.168 105.351 30.168C106.136 30.168 106.745 30.3843 107.177 30.817C107.617 31.2423 107.837 31.796 107.837 32.478C107.837 32.9033 107.738 33.3177 107.54 33.721C107.35 34.1243 107.097 34.513 106.781 34.887C106.466 35.261 106.125 35.613 105.758 35.943C105.392 36.2657 105.036 36.5663 104.691 36.845H108.024V38H102.722ZM111.93 38.132C111.219 38.132 110.61 37.967 110.104 37.637C109.598 37.2997 109.206 36.834 108.927 36.24C108.656 35.6387 108.52 34.942 108.52 34.15C108.52 33.3653 108.656 32.6723 108.927 32.071C109.206 31.4697 109.598 31.004 110.104 30.674C110.61 30.3367 111.219 30.168 111.93 30.168C112.641 30.168 113.25 30.3367 113.756 30.674C114.262 31.004 114.651 31.4697 114.922 32.071C115.201 32.6723 115.34 33.3653 115.34 34.15C115.34 34.942 115.201 35.6387 114.922 36.24C114.651 36.834 114.262 37.2997 113.756 37.637C113.25 37.967 112.641 38.132 111.93 38.132ZM111.93 36.867C112.509 36.867 112.982 36.625 113.349 36.141C113.716 35.657 113.899 34.9933 113.899 34.15C113.899 33.3067 113.716 32.643 113.349 32.159C112.982 31.675 112.509 31.433 111.93 31.433C111.343 31.433 110.867 31.675 110.5 32.159C110.141 32.643 109.961 33.3067 109.961 34.15C109.961 34.9933 110.141 35.657 110.5 36.141C110.867 36.625 111.343 36.867 111.93 36.867ZM115.975 38V36.977C116.444 36.5883 116.899 36.2033 117.339 35.822C117.786 35.4407 118.182 35.063 118.527 34.689C118.879 34.315 119.157 33.952 119.363 33.6C119.575 33.2407 119.682 32.8923 119.682 32.555C119.682 32.2397 119.594 31.961 119.418 31.719C119.249 31.477 118.967 31.356 118.571 31.356C118.167 31.356 117.863 31.488 117.658 31.752C117.452 32.016 117.35 32.335 117.35 32.709H115.986C116 32.1443 116.125 31.675 116.36 31.301C116.594 30.9197 116.906 30.6373 117.295 30.454C117.683 30.2633 118.12 30.168 118.604 30.168C119.388 30.168 119.997 30.3843 120.43 30.817C120.87 31.2423 121.09 31.796 121.09 32.478C121.09 32.9033 120.991 33.3177 120.793 33.721C120.602 34.1243 120.349 34.513 120.034 34.887C119.718 35.261 119.377 35.613 119.011 35.943C118.644 36.2657 118.288 36.5663 117.944 36.845H121.277V38H115.975ZM124.598 38.132C124.092 38.132 123.634 38.044 123.223 37.868C122.812 37.6847 122.482 37.406 122.233 37.032C121.984 36.658 121.852 36.1887 121.837 35.624H123.223C123.23 35.998 123.351 36.3133 123.586 36.57C123.828 36.8193 124.165 36.944 124.598 36.944C125.009 36.944 125.324 36.8303 125.544 36.603C125.764 36.3757 125.874 36.0897 125.874 35.745C125.874 35.3417 125.727 35.0373 125.434 34.832C125.148 34.6193 124.778 34.513 124.323 34.513H123.751V33.358H124.334C124.708 33.358 125.02 33.27 125.269 33.094C125.518 32.918 125.643 32.6577 125.643 32.313C125.643 32.027 125.548 31.7997 125.357 31.631C125.174 31.455 124.917 31.367 124.587 31.367C124.228 31.367 123.945 31.4733 123.74 31.686C123.542 31.8987 123.432 32.159 123.41 32.467H122.035C122.064 31.7557 122.31 31.1947 122.772 30.784C123.241 30.3733 123.846 30.168 124.587 30.168C125.115 30.168 125.559 30.2633 125.918 30.454C126.285 30.6373 126.56 30.883 126.743 31.191C126.934 31.499 127.029 31.84 127.029 32.214C127.029 32.6467 126.908 33.0133 126.666 33.314C126.431 33.6073 126.138 33.8053 125.786 33.908C126.219 33.996 126.571 34.2087 126.842 34.546C127.113 34.876 127.249 35.294 127.249 35.8C127.249 36.2253 127.146 36.614 126.941 36.966C126.736 37.318 126.435 37.6003 126.039 37.813C125.65 38.0257 125.17 38.132 124.598 38.132Z" fill="#8F92A1"/>
<path d="M94.2802 57V50.352L92.9002 50.676V49.5L94.9282 48.6H95.8762V57H94.2802ZM100.15 57.144C99.5339 57.144 99.0019 57.036 98.5539 56.82C98.1139 56.604 97.7659 56.308 97.5099 55.932C97.2619 55.548 97.1179 55.116 97.0779 54.636H98.5779C98.6499 54.98 98.8259 55.268 99.1059 55.5C99.3859 55.724 99.7339 55.836 100.15 55.836C100.598 55.836 100.962 55.672 101.242 55.344C101.53 55.016 101.674 54.608 101.674 54.12C101.674 53.616 101.53 53.216 101.242 52.92C100.962 52.624 100.606 52.476 100.174 52.476C99.8139 52.476 99.5019 52.564 99.2379 52.74C98.9739 52.916 98.7859 53.136 98.6739 53.4H97.1979L97.9179 48.6H102.574V49.944H99.0699L98.6859 51.888C98.8619 51.696 99.1019 51.54 99.4059 51.42C99.7099 51.292 100.05 51.228 100.426 51.228C101.026 51.228 101.526 51.364 101.926 51.636C102.326 51.9 102.63 52.252 102.838 52.692C103.046 53.124 103.15 53.596 103.15 54.108C103.15 54.692 103.022 55.212 102.766 55.668C102.518 56.124 102.166 56.484 101.71 56.748C101.262 57.012 100.742 57.144 100.15 57.144ZM105.124 57V50.352L103.744 50.676V49.5L105.772 48.6H106.72V57H105.124Z" fill="#171717"/>
</g>
</g>
<defs>
<filter id="filter0_d_273_6550" x="0.456032" y="0.456032" width="333.088" height="188.088" filterUnits="userSpaceOnUse" color-interpolation-filters="sRGB">
<feFlood flood-opacity="0" result="BackgroundImageFix"/>
<feColorMatrix in="SourceAlpha" type="matrix" values="0 0 0 0 0 0 0 0 0 0 0 0 0 0 0 0 0 0 127 0" result="hardAlpha"/>
<feOffset/>
<feGaussianBlur stdDeviation="3.27198"/>
<feComposite in2="hardAlpha" operator="out"/>
<feColorMatrix type="matrix" values="0 0 0 0 0 0 0 0 0 0 0 0 0 0 0 0 0 0 0.07 0"/>
<feBlend mode="normal" in2="BackgroundImageFix" result="effect1_dropShadow_273_6550"/>
<feBlend mode="normal" in="SourceGraphic" in2="effect1_dropShadow_273_6550" result="shape"/>
</filter>
<filter id="filter1_d_273_6550" x="79.4735" y="78.6374" width="41.8814" height="41.8816" filterUnits="userSpaceOnUse" color-interpolation-filters="sRGB">
<feFlood flood-opacity="0" result="BackgroundImageFix"/>
<feColorMatrix in="SourceAlpha" type="matrix" values="0 0 0 0 0 0 0 0 0 0 0 0 0 0 0 0 0 0 127 0" result="hardAlpha"/>
<feOffset dy="5.23517"/>
<feGaussianBlur stdDeviation="5.23517"/>
<feColorMatrix type="matrix" values="0 0 0 0 0.321569 0 0 0 0 0.262745 0 0 0 0 0.666667 0 0 0 0.32 0"/>
<feBlend mode="normal" in2="BackgroundImageFix" result="effect1_dropShadow_273_6550"/>
<feBlend mode="normal" in="SourceGraphic" in2="effect1_dropShadow_273_6550" result="shape"/>
</filter>
<filter id="filter2_b_273_6550" x="53.5" y="12.5" width="94" height="64" filterUnits="userSpaceOnUse" color-interpolation-filters="sRGB">
<feFlood flood-opacity="0" result="BackgroundImageFix"/>
<feGaussianBlur in="BackgroundImageFix" stdDeviation="2.5"/>
<feComposite in2="SourceAlpha" operator="in" result="effect1_backgroundBlur_273_6550"/>
<feBlend mode="normal" in="SourceGraphic" in2="effect1_backgroundBlur_273_6550" result="shape"/>
</filter>
<linearGradient id="paint0_linear_273_6550" x1="62" y1="71" x2="142" y2="18" gradientUnits="userSpaceOnUse">
<stop stop-color="#C8C8C8"/>
<stop offset="1" stop-color="#C8C8C8" stop-opacity="0"/>
</linearGradient>
</defs>
</svg>
