<svg width="36" height="36" viewBox="0 0 36 36" fill="none" xmlns="http://www.w3.org/2000/svg">
<g id="Facebook">
<path id="Ellipse 2" d="M34.0867 17.0434C34.0867 26.4562 26.4562 34.0867 17.0434 34.0867C7.63057 34.0867 0 26.4562 0 17.0434C0 7.63057 7.63057 0 17.0434 0C26.4562 0 34.0867 7.63057 34.0867 17.0434Z" fill="#3281FF"/>
<g id="Vector">
<path d="M34.0867 17.0434C34.0867 26.4562 26.4562 34.0867 17.0434 34.0867C7.63057 34.0867 0 26.4562 0 17.0434C0 7.63057 7.63057 0 17.0434 0C26.4562 0 34.0867 7.63057 34.0867 17.0434Z" fill="white"/>
<path d="M14.3164 22.1564V33.7459C14.3164 33.9341 14.469 34.0867 14.6573 34.0867H19.4294C19.6177 34.0867 19.7703 33.9341 19.7703 33.7459V22.1564C19.7703 21.9681 19.9229 21.8155 20.1112 21.8155H23.5198C23.7081 21.8155 23.8607 21.6629 23.8607 21.4746V17.3842C23.8607 17.196 23.7081 17.0434 23.5198 17.0434H20.1112C19.9229 17.0434 19.7703 16.891 19.7703 16.7027V13.6347C19.7703 12.2712 21.4746 11.5895 22.1564 11.5895H24.2016C24.3898 11.5895 24.5424 11.4369 24.5424 11.2486V7.15821C24.5424 6.96996 24.3899 6.81735 24.2016 6.81735H19.7703C16.498 6.81735 14.3164 10.226 14.3164 12.2712V16.7025C14.3164 16.8908 14.1638 17.0434 13.9756 17.0434H10.5669C10.3786 17.0434 10.226 17.196 10.226 17.3842V21.4746C10.226 21.6629 10.3786 21.8155 10.5669 21.8155H13.9756C14.1638 21.8155 14.3164 21.9681 14.3164 22.1564Z" fill="#3281FF"/>
</g>
</g>
</svg>
