<svg width="51" height="50" viewBox="0 0 51 50" fill="none" xmlns="http://www.w3.org/2000/svg">
<path d="M50.235 25C50.235 38.8071 39.0421 50 25.235 50C11.4279 50 0.234985 38.8071 0.234985 25C0.234985 11.1929 11.4279 0 25.235 0C39.0421 0 50.235 11.1929 50.235 25Z" fill="#3281FF"/>
<path d="M21.235 32.5V49.5C21.235 49.7761 21.4588 50 21.735 50H28.735C29.0111 50 29.235 49.7761 29.235 49.5V32.5C29.235 32.2239 29.4588 32 29.735 32H34.735C35.0111 32 35.235 31.7761 35.235 31.5V25.5C35.235 25.2239 35.0111 25 34.735 25H29.735C29.4588 25 29.235 24.7765 29.235 24.5003V20C29.235 18 31.735 17 32.735 17H35.735C36.0111 17 36.235 16.7761 36.235 16.5V10.5C36.235 10.2239 36.0112 10 35.7351 10H29.235C24.435 10 21.235 15 21.235 18V24.5C21.235 24.7761 21.0111 25 20.735 25H15.735C15.4588 25 15.235 25.2239 15.235 25.5V31.5C15.235 31.7761 15.4588 32 15.735 32H20.735C21.0111 32 21.235 32.2239 21.235 32.5Z" fill="white"/>
</svg>
