<svg width="21" height="20" viewBox="0 0 21 20" fill="none" xmlns="http://www.w3.org/2000/svg">
<g id="vuesax/bold/key">
<path id="Vector" d="M17.2612 3.5166C14.7946 1.05827 10.7946 1.05827 8.34457 3.5166C6.61957 5.22493 6.10291 7.68327 6.76957 9.84993L2.85291 13.7666C2.57791 14.0499 2.38624 14.6083 2.44457 15.0083L2.69457 16.8249C2.78624 17.4249 3.34457 17.9916 3.94457 18.0749L5.76124 18.3249C6.16124 18.3833 6.71957 18.1999 7.00291 17.9083L7.68624 17.2249C7.85291 17.0666 7.85291 16.7999 7.68624 16.6333L6.06957 15.0166C5.82791 14.7749 5.82791 14.3749 6.06957 14.1333C6.31124 13.8916 6.71124 13.8916 6.95291 14.1333L8.57791 15.7583C8.73624 15.9166 9.0029 15.9166 9.16124 15.7583L10.9279 13.9999C13.0862 14.6749 15.5446 14.1499 17.2612 12.4416C19.7196 9.98327 19.7196 5.97494 17.2612 3.5166ZM12.8529 9.99994C11.7029 9.99994 10.7696 9.0666 10.7696 7.9166C10.7696 6.7666 11.7029 5.83327 12.8529 5.83327C14.0029 5.83327 14.9362 6.7666 14.9362 7.9166C14.9362 9.0666 14.0029 9.99994 12.8529 9.99994Z" fill="#8F92A1"/>
</g>
</svg>
