<svg width="27" height="26" viewBox="0 0 27 26" fill="none" xmlns="http://www.w3.org/2000/svg">
<path id="Vector" d="M15.3358 1.87937L17.6272 6.4929C17.936 7.13094 18.7648 7.73626 19.4636 7.86714L23.6076 8.55427C26.2566 8.99599 26.8741 10.9265 24.9727 12.857L21.7387 16.1126C21.2025 16.6525 20.8937 17.7159 21.0725 18.4848L21.9988 22.5094C22.7301 25.6832 21.0399 26.9266 18.261 25.2579L14.377 22.9348C13.6782 22.5094 12.5081 22.5094 11.8093 22.9348L7.9253 25.2579C5.14636 26.9102 3.45625 25.6832 4.18755 22.5094L5.11386 18.4848C5.26012 17.6995 4.95135 16.6361 4.41506 16.0963L1.18109 12.8406C-0.720288 10.9265 -0.102746 8.99599 2.54619 8.53791L6.69022 7.85078C7.38902 7.73626 8.21782 7.11458 8.52659 6.47654L10.818 1.86301C12.0693 -0.623722 14.0845 -0.623722 15.3358 1.87937Z" fill="#292D32"/>
</svg>
