<svg width="30" height="34" viewBox="0 0 30 34" fill="none" xmlns="http://www.w3.org/2000/svg">
<path d="M14.9231 0.833252C10.8075 0.833252 7.46155 4.1827 7.46155 8.30267C7.46155 12.344 10.619 15.6148 14.7346 15.7564C14.8603 15.7406 14.9859 15.7406 15.0802 15.7564C15.1116 15.7564 15.1273 15.7564 15.1587 15.7564C15.1744 15.7564 15.1744 15.7564 15.1902 15.7564C19.2115 15.6148 22.369 12.344 22.3847 8.30267C22.3847 4.1827 19.0387 0.833252 14.9231 0.833252Z" fill="#292D32"/>
<path d="M22.9993 20.4954C18.5637 17.4931 11.3301 17.4931 6.86266 20.4954C4.84359 21.8675 3.73071 23.7238 3.73071 25.7092C3.73071 27.6947 4.84359 29.5349 6.84676 30.8908C9.07251 32.4081 11.9978 33.1668 14.923 33.1668C17.8483 33.1668 20.7736 32.4081 22.9993 30.8908C25.0025 29.5187 26.1154 27.6785 26.1154 25.677C26.0995 23.6915 25.0025 21.8513 22.9993 20.4954Z" fill="#292D32"/>
</svg>
