<svg width="22" height="22" viewBox="0 0 22 22" fill="none" xmlns="http://www.w3.org/2000/svg">
<g id="vuesax/bold/frame">
<g id="frame">
<path id="Vector" d="M10.9233 0C8.12292 0 5.84631 2.27901 5.84631 5.08229C5.84631 7.83208 7.99466 10.0576 10.795 10.1539C10.8805 10.1432 10.966 10.1432 11.0301 10.1539C11.0515 10.1539 11.0622 10.1539 11.0836 10.1539C11.0943 10.1539 11.0943 10.1539 11.105 10.1539C13.8412 10.0576 15.9895 7.83208 16.0002 5.08229C16.0002 2.27901 13.7236 0 10.9233 0Z" fill="#8F92A1"/>
<path id="Vector_2" d="M16.4185 13.3783C13.4004 11.3355 8.47855 11.3355 5.43888 13.3783C4.06508 14.3119 3.30786 15.575 3.30786 16.9259C3.30786 18.2768 4.06508 19.5289 5.42806 20.4515C6.94249 21.4839 8.93288 22.0001 10.9233 22.0001C12.9137 22.0001 14.9041 21.4839 16.4185 20.4515C17.7815 19.5179 18.5387 18.2658 18.5387 16.9039C18.5279 15.553 17.7815 14.3009 16.4185 13.3783Z" fill="#8F92A1"/>
</g>
</g>
</svg>
