<svg width="23" height="22" viewBox="0 0 23 22" fill="none" xmlns="http://www.w3.org/2000/svg">
<g id="vuesax/bold/cake">
<g id="cake">
<path id="Vector" d="M19.9188 11.9165V12.8332H19.1213C18.443 12.8332 17.893 13.3832 17.893 14.0707V14.3457C17.893 15.0332 17.343 15.5832 16.6555 15.5832C15.9772 15.5832 15.4272 15.0332 15.4272 14.3457V14.0707C15.4272 13.3832 14.868 12.8332 14.1897 12.8332C13.5113 12.8332 12.9613 13.3832 12.9613 14.0707V14.3457C12.9613 15.0332 12.4022 15.5832 11.7238 15.5832C11.0455 15.5832 10.4863 15.0332 10.4863 14.3457V14.0707C10.4863 13.3832 9.93632 12.8332 9.25798 12.8332C8.57965 12.8332 8.02048 13.3832 8.02048 14.0707V14.3457C8.02048 15.0332 7.47048 15.5832 6.79215 15.5832C6.10465 15.5832 5.55465 15.0332 5.55465 14.3457V14.0523C5.55465 13.374 5.01382 12.824 4.34465 12.8148H3.62048V11.9165C3.62048 10.6515 4.57382 9.579 5.86632 9.26734C6.12298 9.20317 6.38882 9.1665 6.67298 9.1665H16.8663C17.1505 9.1665 17.4163 9.20317 17.673 9.26734C18.9655 9.579 19.9188 10.6515 19.9188 11.9165Z" fill="#8F92A1"/>
<path id="Vector_2" d="M17.6729 6.57266V7.86516C17.407 7.81016 17.1412 7.79183 16.8662 7.79183H6.67288C6.39788 7.79183 6.13204 7.81933 5.86621 7.87433V6.57266C5.86621 5.47266 6.85621 4.5835 8.08454 4.5835H15.4545C16.6829 4.5835 17.6729 5.47266 17.6729 6.57266Z" fill="#8F92A1"/>
<path id="Vector_3" d="M8.79041 3.25428V4.59261H8.08457C7.84624 4.59261 7.62624 4.62011 7.41541 4.67511V3.25428C7.41541 2.93345 7.72707 2.65845 8.10291 2.65845C8.47874 2.65845 8.79041 2.93345 8.79041 3.25428Z" fill="#8F92A1"/>
<path id="Vector_4" d="M16.1237 3.05273V4.67523C15.9128 4.61107 15.6928 4.58357 15.4545 4.58357H14.7487V3.05273C14.7487 2.6769 15.0603 2.36523 15.4362 2.36523C15.812 2.36523 16.1237 2.6769 16.1237 3.05273Z" fill="#8F92A1"/>
<path id="Vector_5" d="M12.457 2.58516V4.5835H11.082V2.58516C11.082 2.17266 11.3937 1.8335 11.7695 1.8335C12.1454 1.8335 12.457 2.17266 12.457 2.58516Z" fill="#8F92A1"/>
<path id="Vector_6" d="M20.9362 19.4794C20.9362 19.8552 20.6246 20.1669 20.2487 20.1669H3.29041C2.91457 20.1669 2.60291 19.8552 2.60291 19.4794C2.60291 19.1035 2.91457 18.7919 3.29041 18.7919H3.62041V14.1902H4.17957V14.2544C4.17957 15.4827 4.98624 16.6194 6.18707 16.8852C7.12207 17.1052 8.01124 16.8027 8.61624 16.2069C8.96457 15.8585 9.5329 15.8494 9.88124 16.1977C10.3579 16.6652 11.0087 16.9585 11.7237 16.9585C12.4387 16.9585 13.0896 16.6744 13.5662 16.1977C13.9146 15.8585 14.4737 15.8585 14.8312 16.2069C15.4271 16.8027 16.3162 17.1052 17.2604 16.8852C18.4612 16.6194 19.2679 15.4827 19.2679 14.2544V14.2085H19.9187V18.7919H20.2487C20.6246 18.7919 20.9362 19.1035 20.9362 19.4794Z" fill="#8F92A1"/>
</g>
</g>
</svg>
