<svg width="37" height="37" viewBox="0 0 37 37" fill="none" xmlns="http://www.w3.org/2000/svg">
<g id="calendar">
<path id="Vector" d="M25.5506 5.91413V3.54163C25.5506 2.91808 25.0336 2.401 24.41 2.401C23.7865 2.401 23.2694 2.91808 23.2694 3.54163V5.82288H13.384V3.54163C13.384 2.91808 12.8669 2.401 12.2434 2.401C11.6198 2.401 11.1027 2.91808 11.1027 3.54163V5.91413C6.99648 6.29433 5.00418 8.74288 4.70002 12.3777C4.6696 12.8187 5.0346 13.1837 5.46043 13.1837H31.1929C31.634 13.1837 31.999 12.8035 31.9533 12.3777C31.6492 8.74288 29.6569 6.29433 25.5506 5.91413Z" fill="#292D32"/>
<path id="Vector_2" d="M30.4936 15.465H6.16024C5.32378 15.465 4.6394 16.1493 4.6394 16.9858V26.3541C4.6394 30.9166 6.92065 33.9583 12.2436 33.9583H24.4102C29.7332 33.9583 32.0144 30.9166 32.0144 26.3541V16.9858C32.0144 16.1493 31.33 15.465 30.4936 15.465ZM14.0838 28.1943C14.0077 28.2552 13.9317 28.3312 13.8557 28.3768C13.7644 28.4377 13.6732 28.4833 13.5819 28.5137C13.4907 28.5593 13.3994 28.5898 13.3082 28.605C13.2017 28.6202 13.1104 28.6354 13.004 28.6354C12.8063 28.6354 12.6086 28.5898 12.4261 28.5137C12.2284 28.4377 12.0763 28.3312 11.9242 28.1943C11.6504 27.9054 11.4832 27.51 11.4832 27.1145C11.4832 26.7191 11.6504 26.3237 11.9242 26.0348C12.0763 25.8979 12.2284 25.7914 12.4261 25.7154C12.6998 25.5937 13.004 25.5633 13.3082 25.6241C13.3994 25.6393 13.4907 25.6698 13.5819 25.7154C13.6732 25.7458 13.7644 25.7914 13.8557 25.8523C13.9317 25.9131 14.0077 25.9739 14.0838 26.0348C14.3575 26.3237 14.5248 26.7191 14.5248 27.1145C14.5248 27.51 14.3575 27.9054 14.0838 28.1943ZM14.0838 22.8714C13.7948 23.1452 13.3994 23.3125 13.004 23.3125C12.6086 23.3125 12.2132 23.1452 11.9242 22.8714C11.6504 22.5825 11.4832 22.187 11.4832 21.7916C11.4832 21.3962 11.6504 21.0008 11.9242 20.7118C12.35 20.286 13.0192 20.1491 13.5819 20.3925C13.7796 20.4685 13.9469 20.575 14.0838 20.7118C14.3575 21.0008 14.5248 21.3962 14.5248 21.7916C14.5248 22.187 14.3575 22.5825 14.0838 22.8714ZM19.4067 28.1943C19.1177 28.4681 18.7223 28.6354 18.3269 28.6354C17.9315 28.6354 17.5361 28.4681 17.2471 28.1943C16.9734 27.9054 16.8061 27.51 16.8061 27.1145C16.8061 26.7191 16.9734 26.3237 17.2471 26.0348C17.8098 25.472 18.844 25.472 19.4067 26.0348C19.6804 26.3237 19.8477 26.7191 19.8477 27.1145C19.8477 27.51 19.6804 27.9054 19.4067 28.1943ZM19.4067 22.8714C19.3307 22.9323 19.2546 22.9931 19.1786 23.0539C19.0873 23.1148 18.9961 23.1604 18.9048 23.1908C18.8136 23.2364 18.7223 23.2668 18.6311 23.282C18.5246 23.2973 18.4334 23.3125 18.3269 23.3125C17.9315 23.3125 17.5361 23.1452 17.2471 22.8714C16.9734 22.5825 16.8061 22.187 16.8061 21.7916C16.8061 21.3962 16.9734 21.0008 17.2471 20.7118C17.384 20.575 17.5513 20.4685 17.749 20.3925C18.3117 20.1491 18.9809 20.286 19.4067 20.7118C19.6804 21.0008 19.8477 21.3962 19.8477 21.7916C19.8477 22.187 19.6804 22.5825 19.4067 22.8714ZM24.7296 28.1943C24.4407 28.4681 24.0452 28.6354 23.6498 28.6354C23.2544 28.6354 22.859 28.4681 22.57 28.1943C22.2963 27.9054 22.129 27.51 22.129 27.1145C22.129 26.7191 22.2963 26.3237 22.57 26.0348C23.1327 25.472 24.1669 25.472 24.7296 26.0348C25.0034 26.3237 25.1707 26.7191 25.1707 27.1145C25.1707 27.51 25.0034 27.9054 24.7296 28.1943ZM24.7296 22.8714C24.6536 22.9323 24.5775 22.9931 24.5015 23.0539C24.4102 23.1148 24.319 23.1604 24.2277 23.1908C24.1365 23.2364 24.0452 23.2668 23.954 23.282C23.8475 23.2973 23.7411 23.3125 23.6498 23.3125C23.2544 23.3125 22.859 23.1452 22.57 22.8714C22.2963 22.5825 22.129 22.187 22.129 21.7916C22.129 21.3962 22.2963 21.0008 22.57 20.7118C22.7221 20.575 22.8742 20.4685 23.0719 20.3925C23.3457 20.2708 23.6498 20.2404 23.954 20.3012C24.0452 20.3164 24.1365 20.3468 24.2277 20.3925C24.319 20.4229 24.4102 20.4685 24.5015 20.5293C24.5775 20.5902 24.6536 20.651 24.7296 20.7118C25.0034 21.0008 25.1707 21.3962 25.1707 21.7916C25.1707 22.187 25.0034 22.5825 24.7296 22.8714Z" fill="#292D32"/>
</g>
</svg>
