<svg width="36" height="36" viewBox="0 0 36 36" fill="none" xmlns="http://www.w3.org/2000/svg">
<g id="vuesax/bold/cake">
<g id="cake">
<path id="Vector" d="M31.335 19.5V21H30.03C28.92 21 28.02 21.9 28.02 23.025V23.475C28.02 24.6 27.12 25.5 25.995 25.5C24.885 25.5 23.985 24.6 23.985 23.475V23.025C23.985 21.9 23.07 21 21.96 21C20.85 21 19.95 21.9 19.95 23.025V23.475C19.95 24.6 19.035 25.5 17.925 25.5C16.815 25.5 15.9 24.6 15.9 23.475V23.025C15.9 21.9 15 21 13.89 21C12.78 21 11.865 21.9 11.865 23.025V23.475C11.865 24.6 10.965 25.5 9.85504 25.5C8.73004 25.5 7.83004 24.6 7.83004 23.475V22.995C7.83004 21.885 6.94504 20.985 5.85004 20.97H4.66504V19.5C4.66504 17.43 6.22504 15.675 8.34004 15.165C8.76004 15.06 9.19504 15 9.66004 15H26.34C26.805 15 27.24 15.06 27.66 15.165C29.775 15.675 31.335 17.43 31.335 19.5Z" fill="#292D32"/>
<path id="Vector_2" d="M27.6601 10.755V12.87C27.2251 12.78 26.7901 12.75 26.3401 12.75H9.66009C9.21009 12.75 8.77509 12.795 8.34009 12.885V10.755C8.34009 8.955 9.96009 7.5 11.9701 7.5H24.0301C26.0401 7.5 27.6601 8.955 27.6601 10.755Z" fill="#292D32"/>
<path id="Vector_3" d="M13.125 5.3251V7.5151H11.97C11.58 7.5151 11.22 7.5601 10.875 7.6501V5.3251C10.875 4.8001 11.385 4.3501 12 4.3501C12.615 4.3501 13.125 4.8001 13.125 5.3251Z" fill="#292D32"/>
<path id="Vector_4" d="M25.125 4.99512V7.65012C24.78 7.54512 24.42 7.50012 24.03 7.50012H22.875V4.99512C22.875 4.38012 23.385 3.87012 24 3.87012C24.615 3.87012 25.125 4.38012 25.125 4.99512Z" fill="#292D32"/>
<path id="Vector_5" d="M19.125 4.23V7.5H16.875V4.23C16.875 3.555 17.385 3 18 3C18.615 3 19.125 3.555 19.125 4.23Z" fill="#292D32"/>
<path id="Vector_6" d="M33 31.8752C33 32.4902 32.49 33.0002 31.875 33.0002H4.125C3.51 33.0002 3 32.4902 3 31.8752C3 31.2602 3.51 30.7502 4.125 30.7502H4.665V23.2202H5.58V23.3252C5.58 25.3352 6.9 27.1952 8.865 27.6302C10.395 27.9902 11.85 27.4952 12.84 26.5202C13.41 25.9502 14.34 25.9352 14.91 26.5052C15.69 27.2702 16.755 27.7502 17.925 27.7502C19.095 27.7502 20.16 27.2852 20.94 26.5052C21.51 25.9502 22.425 25.9502 23.01 26.5202C23.985 27.4952 25.44 27.9902 26.985 27.6302C28.95 27.1952 30.27 25.3352 30.27 23.3252V23.2502H31.335V30.7502H31.875C32.49 30.7502 33 31.2602 33 31.8752Z" fill="#292D32"/>
</g>
</g>
</svg>
