<svg width="29" height="26" viewBox="0 0 29 26" fill="none" xmlns="http://www.w3.org/2000/svg">
<path id="Vector" d="M21.75 0.675049H7.25C2.9 0.675049 0 2.85005 0 7.92505V18.075C0 23.15 2.9 25.325 7.25 25.325H21.75C26.1 25.325 29 23.15 29 18.075V7.92505C29 2.85005 26.1 0.675049 21.75 0.675049ZM22.4315 9.50555L17.893 13.1305C16.936 13.899 15.718 14.276 14.5 14.276C13.282 14.276 12.0495 13.899 11.107 13.1305L6.5685 9.50555C6.1045 9.12855 6.032 8.43255 6.3945 7.96855C6.7715 7.50455 7.453 7.41755 7.917 7.79455L12.4555 11.4195C13.5575 12.304 15.428 12.304 16.53 11.4195L21.0685 7.79455C21.5325 7.41755 22.2285 7.49005 22.591 7.96855C22.968 8.43255 22.8955 9.12855 22.4315 9.50555Z" fill="#292D32"/>
</svg>
