<svg width="21" height="18" viewBox="0 0 21 18" fill="none" xmlns="http://www.w3.org/2000/svg">
<path id="Vector" d="M15.7695 0.5H5.76953C2.76953 0.5 0.769531 2 0.769531 5.5V12.5C0.769531 16 2.76953 17.5 5.76953 17.5H15.7695C18.7695 17.5 20.7695 16 20.7695 12.5V5.5C20.7695 2 18.7695 0.5 15.7695 0.5ZM16.2395 6.59L13.1095 9.09C12.4495 9.62 11.6095 9.88 10.7695 9.88C9.92953 9.88 9.07953 9.62 8.42953 9.09L5.29953 6.59C4.97953 6.33 4.92953 5.85 5.17953 5.53C5.43953 5.21 5.90953 5.15 6.22953 5.41L9.35953 7.91C10.1195 8.52 11.4095 8.52 12.1695 7.91L15.2995 5.41C15.6195 5.15 16.0995 5.2 16.3495 5.53C16.6095 5.85 16.5595 6.33 16.2395 6.59Z" fill="#8F92A1"/>
</svg>
