<svg width="37" height="37" viewBox="0 0 37 37" fill="none" xmlns="http://www.w3.org/2000/svg">
<g id="vuesax/bold/cake">
<g id="weight">
<path id="Vector" d="M25.5769 27.2C27.9769 27.2 28.5769 25.3437 28.5769 23.075V14.825C28.5769 12.5562 27.9769 10.7 25.5769 10.7C23.1769 10.7 22.5769 12.5562 22.5769 14.825V23.075C22.5769 25.3437 23.1769 27.2 25.5769 27.2Z" fill="#292D32" stroke="#292D32" stroke-linecap="round" stroke-linejoin="round"/>
<path id="Vector_2" d="M10.2769 27.2C12.6769 27.2 13.2769 25.3437 13.2769 23.075V14.825C13.2769 12.5562 12.6769 10.7 10.2769 10.7C7.87686 10.7 7.27686 12.5562 7.27686 14.825V23.075C7.27686 25.3437 7.87686 27.2 10.2769 27.2Z" fill="#292D32" stroke="#292D32" stroke-linecap="round" stroke-linejoin="round"/>
<path id="Vector_3" d="M13.5769 19.25H22.5769" stroke="#292D32" stroke-linecap="round" stroke-linejoin="round"/>
<path id="Vector_4" d="M31.5769 22.25V14.75" stroke="#292D32" stroke-linecap="round" stroke-linejoin="round"/>
<path id="Vector_5" d="M4.5769 22.25V14.75" stroke="#292D32" stroke-linecap="round" stroke-linejoin="round"/>
</g>
</g>
</svg>
