<svg width="445" height="201" viewBox="0 0 445 201" fill="none" xmlns="http://www.w3.org/2000/svg">
<rect width="445" height="201" rx="10.5581" fill="white"/>
<path d="M24.3958 192.166C23.7984 192.166 23.2872 192.028 22.8623 191.75C22.4373 191.467 22.1078 191.076 21.8738 190.577C21.6459 190.072 21.5319 189.487 21.5319 188.822C21.5319 188.163 21.6459 187.581 21.8738 187.076C22.1078 186.571 22.4373 186.18 22.8623 185.902C23.2872 185.619 23.7984 185.478 24.3958 185.478C24.9932 185.478 25.5044 185.619 25.9294 185.902C26.3544 186.18 26.6808 186.571 26.9087 187.076C27.1427 187.581 27.2597 188.163 27.2597 188.822C27.2597 189.487 27.1427 190.072 26.9087 190.577C26.6808 191.076 26.3544 191.467 25.9294 191.75C25.5044 192.028 24.9932 192.166 24.3958 192.166ZM24.3958 191.104C24.8824 191.104 25.2796 190.9 25.5876 190.494C25.8955 190.087 26.0495 189.53 26.0495 188.822C26.0495 188.114 25.8955 187.556 25.5876 187.15C25.2796 186.743 24.8824 186.54 24.3958 186.54C23.9031 186.54 23.5028 186.743 23.1948 187.15C22.8931 187.556 22.7422 188.114 22.7422 188.822C22.7422 189.53 22.8931 190.087 23.1948 190.494C23.5028 190.9 23.9031 191.104 24.3958 191.104Z" fill="#8F92A1"/>
<path d="M22.4465 157.055V151.937L21.3841 152.187V151.281L22.9454 150.588H23.6752V157.055H22.4465Z" fill="#8F92A1"/>
<path d="M21.5874 122.055V121.196C21.9815 120.87 22.3634 120.546 22.7329 120.226C23.1086 119.906 23.4412 119.589 23.7307 119.274C24.0263 118.96 24.2603 118.656 24.4328 118.36C24.6114 118.058 24.7007 117.766 24.7007 117.482C24.7007 117.217 24.6268 116.983 24.479 116.78C24.3373 116.577 24.1002 116.475 23.7676 116.475C23.4289 116.475 23.1733 116.586 23.0008 116.808C22.8284 117.03 22.7422 117.297 22.7422 117.612H21.5966C21.6089 117.137 21.7136 116.743 21.9107 116.429C22.1078 116.109 22.3696 115.872 22.696 115.718C23.0224 115.558 23.3889 115.478 23.7953 115.478C24.4543 115.478 24.9655 115.659 25.3289 116.023C25.6984 116.38 25.8832 116.845 25.8832 117.418C25.8832 117.775 25.8001 118.123 25.6338 118.462C25.4736 118.8 25.2612 119.127 24.9963 119.441C24.7315 119.755 24.4451 120.051 24.1372 120.328C23.8292 120.599 23.5305 120.851 23.241 121.085H26.0403V122.055H21.5874Z" fill="#8F92A1"/>
<path d="M23.86 87.1661C23.435 87.1661 23.0501 87.0922 22.7052 86.9444C22.3603 86.7904 22.0832 86.5564 21.8738 86.2423C21.6644 85.9282 21.5535 85.534 21.5412 85.0597H22.7052C22.7114 85.3739 22.813 85.6387 23.0101 85.8542C23.2133 86.0637 23.4966 86.1684 23.86 86.1684C24.2049 86.1684 24.4697 86.0729 24.6545 85.882C24.8393 85.691 24.9317 85.4508 24.9317 85.1614C24.9317 84.8226 24.8085 84.567 24.5621 84.3946C24.3219 84.216 24.0109 84.1267 23.629 84.1267H23.1487V83.1566H23.6383C23.9524 83.1566 24.2141 83.0827 24.4235 82.9349C24.633 82.7871 24.7377 82.5685 24.7377 82.279C24.7377 82.0388 24.6576 81.8479 24.4975 81.7062C24.3435 81.5584 24.1279 81.4845 23.8508 81.4845C23.549 81.4845 23.3119 81.5738 23.1394 81.7524C22.9731 81.931 22.8807 82.1497 22.8623 82.4083H21.7075C21.7321 81.8109 21.9384 81.3398 22.3264 80.9949C22.7206 80.65 23.2287 80.4775 23.8508 80.4775C24.2942 80.4775 24.6668 80.5576 24.9686 80.7177C25.2766 80.8717 25.5075 81.078 25.6615 81.3367C25.8216 81.5954 25.9017 81.8817 25.9017 82.1959C25.9017 82.5592 25.8001 82.8672 25.5968 83.1197C25.3997 83.366 25.1534 83.5323 24.8578 83.6186C25.2211 83.6925 25.5168 83.8711 25.7446 84.1544C25.9725 84.4315 26.0865 84.7826 26.0865 85.2076C26.0865 85.5648 26.0002 85.8912 25.8278 86.1868C25.6553 86.4825 25.4028 86.7196 25.0702 86.8982C24.7438 87.0768 24.3404 87.1661 23.86 87.1661Z" fill="#8F92A1"/>
<path d="M24.7007 52.0552V50.8542H21.5135V49.9119L24.5436 45.5884H25.8832V49.8288H26.7331V50.8542H25.8832V52.0552H24.7007ZM22.7791 49.8288H24.7746V46.891L22.7791 49.8288Z" fill="#8F92A1"/>
<path d="M24.0633 17.1661C23.589 17.1661 23.1794 17.083 22.8345 16.9167C22.4958 16.7504 22.2279 16.5225 22.0308 16.233C21.8399 15.9374 21.729 15.6048 21.6982 15.2353H22.853C22.9085 15.5001 23.044 15.7218 23.2595 15.9004C23.4751 16.0729 23.743 16.1591 24.0633 16.1591C24.4082 16.1591 24.6884 16.0329 24.9039 15.7803C25.1257 15.5278 25.2365 15.2137 25.2365 14.838C25.2365 14.45 25.1257 14.1421 24.9039 13.9142C24.6884 13.6863 24.4143 13.5724 24.0817 13.5724C23.8046 13.5724 23.5644 13.6401 23.3611 13.7756C23.1579 13.9111 23.0132 14.0805 22.9269 14.2837H21.7906L22.3449 10.5884H25.9294V11.6231H23.2318L22.9362 13.1197C23.0717 12.9719 23.2564 12.8518 23.4905 12.7594C23.7245 12.6609 23.9863 12.6116 24.2757 12.6116C24.7377 12.6116 25.1226 12.7163 25.4305 12.9257C25.7385 13.1289 25.9725 13.3999 26.1326 13.7387C26.2928 14.0712 26.3728 14.4346 26.3728 14.8288C26.3728 15.2784 26.2743 15.6787 26.0772 16.0298C25.8863 16.3808 25.6153 16.658 25.2642 16.8612C24.9193 17.0645 24.519 17.1661 24.0633 17.1661Z" fill="#8F92A1"/>
<path d="M409.128 191.794L385.427 157.528C382.872 153.834 378.868 151.399 374.413 150.828L358.394 148.777C354.921 148.333 351.694 146.75 349.216 144.276L330.889 125.978C327.382 122.477 322.439 120.819 317.531 121.498L301.154 123.761C298.398 124.142 295.591 123.79 293.014 122.74L276.463 116.001C271.905 114.145 266.742 114.514 262.493 116.999L247.947 125.509C243.502 128.11 238.069 128.386 233.383 126.25L217.879 119.185C214.802 117.783 211.357 117.402 208.048 118.099L196.004 120.635C189.301 122.046 182.451 118.988 179.026 113.056L163.73 86.565C159.872 79.8841 151.762 76.9547 144.525 79.6285L131.916 84.2875C129.782 85.0761 127.503 85.3956 125.234 85.2241L113.333 84.3245C106.067 83.7754 99.3648 88.254 97.092 95.1764L79.5403 148.635C78.871 150.673 77.7946 152.555 76.3763 154.164L43.2222 191.794" stroke="#00875A" stroke-width="2.63953" stroke-linecap="round" stroke-linejoin="round"/>
</svg>
