<svg width="55" height="55" viewBox="0 0 55 55" fill="none" xmlns="http://www.w3.org/2000/svg">
<g id="weight">
<path id="Vector" d="M38.9583 40.1042C42.625 40.1042 43.5417 37.2683 43.5417 33.8021V21.198C43.5417 17.7318 42.625 14.8959 38.9583 14.8959C35.2917 14.8959 34.375 17.7318 34.375 21.198V33.8021C34.375 37.2683 35.2917 40.1042 38.9583 40.1042Z" stroke="#FF8A00" stroke-width="3.66667" stroke-linecap="round" stroke-linejoin="round"/>
<path id="Vector_2" d="M16.0418 40.1042C12.3752 40.1042 11.4585 37.2683 11.4585 33.8021V21.198C11.4585 17.7318 12.3752 14.8959 16.0418 14.8959C19.7085 14.8959 20.6252 17.7318 20.6252 21.198V33.8021C20.6252 37.2683 19.7085 40.1042 16.0418 40.1042Z" stroke="#FF8A00" stroke-width="3.66667" stroke-linecap="round" stroke-linejoin="round"/>
<path id="Vector_3" d="M20.625 28.6459H34.375" stroke="#FF8A00" stroke-width="3.66667" stroke-linecap="round" stroke-linejoin="round"/>
<path id="Vector_4" d="M48.125 33.2292V21.7709" stroke="#FF8A00" stroke-width="3.66667" stroke-linecap="round" stroke-linejoin="round"/>
<path id="Vector_5" d="M6.875 33.2292V21.7709" stroke="#FF8A00" stroke-width="3.66667" stroke-linecap="round" stroke-linejoin="round"/>
</g>
</svg>
