<svg width="36" height="37" viewBox="0 0 36 37" fill="none" xmlns="http://www.w3.org/2000/svg">
<g id="vuesax/outline/flash">
<g id="flash">
<path id="Vector" d="M14.9849 34.6249C14.6849 34.6249 14.4449 34.5649 14.2649 34.4899C13.6649 34.2649 12.6449 33.5299 12.6449 31.2049V21.5299H9.13487C7.12487 21.5299 6.40487 20.5849 6.14987 20.0299C5.89487 19.4599 5.66987 18.3049 6.98987 16.7899L18.3449 3.88995C19.8749 2.14995 21.1199 2.26995 21.7199 2.49495C22.3199 2.71995 23.3399 3.45495 23.3399 5.77995V15.4549H26.8499C28.8599 15.4549 29.5799 16.3999 29.8349 16.9549C30.0899 17.5249 30.3149 18.6799 28.9949 20.195L17.6399 33.0949C16.5749 34.3099 15.6449 34.6249 14.9849 34.6249ZM20.8949 4.60995C20.8499 4.66995 20.5349 4.81995 20.0399 5.38995L8.68487 18.2899C8.26487 18.7699 8.20487 19.0699 8.20487 19.1299C8.23487 19.1449 8.50487 19.2949 9.13487 19.2949H13.7699C14.3849 19.2949 14.8949 19.8049 14.8949 20.4199V31.2199C14.8949 31.9699 15.0299 32.2999 15.0899 32.3899C15.1349 32.3299 15.4499 32.1799 15.9449 31.6099L27.2999 18.7099C27.7199 18.2299 27.7799 17.9299 27.7799 17.8699C27.7499 17.8549 27.4799 17.7049 26.8499 17.7049H22.2149C21.5999 17.7049 21.0899 17.1949 21.0899 16.5799V5.77995C21.1049 5.02995 20.9549 4.71495 20.8949 4.60995Z" fill="#FF8A00"/>
</g>
</g>
</svg>
