<svg width="38" height="39" viewBox="0 0 38 39" fill="none" xmlns="http://www.w3.org/2000/svg">
<g id="Group">
<path id="Vector" d="M15.6938 29.6971C15.6938 28.602 15.6938 27.5069 15.6938 26.4117C11.863 24.645 9.74359 20.4529 10.5881 16.3628C11.4688 12.1007 15.3109 9.18614 19.439 9.17144C24.2353 9.15416 28.2674 13.0558 28.5665 17.6533C28.7956 21.1755 26.8024 24.6191 23.4729 26.4109C23.4755 27.5034 23.4781 28.5951 23.4815 29.6876C20.8859 29.6911 18.2903 29.6937 15.6938 29.6971Z" stroke="#009B72" stroke-width="2.11692" stroke-miterlimit="10" stroke-linecap="round"/>
<path id="Vector_2" d="M19.4629 1.49988C19.4629 2.85604 19.4629 4.2122 19.4629 5.56837" stroke="#009B72" stroke-width="2.11692" stroke-miterlimit="10" stroke-linecap="round"/>
<path id="Vector_3" d="M7.11523 6.6134C8.0738 7.57197 9.03322 8.53139 9.99179 9.48996" stroke="#009B72" stroke-width="2.11692" stroke-miterlimit="10" stroke-linecap="round"/>
<path id="Vector_4" d="M2 18.9603C3.35616 18.9603 4.71233 18.9603 6.06849 18.9603" stroke="#009B72" stroke-width="2.11692" stroke-miterlimit="10" stroke-linecap="round"/>
<path id="Vector_5" d="M7.11328 31.3078C8.07184 30.3493 9.03127 29.3898 9.98983 28.4313" stroke="#009B72" stroke-width="2.11692" stroke-miterlimit="10" stroke-linecap="round"/>
<path id="Vector_6" d="M31.8082 31.3098C30.8496 30.3512 29.8902 29.3918 28.9316 28.4332" stroke="#009B72" stroke-width="2.11692" stroke-miterlimit="10" stroke-linecap="round"/>
<path id="Vector_7" d="M36.923 18.9624C35.5668 18.9624 34.2107 18.9624 32.8545 18.9624" stroke="#009B72" stroke-width="2.11692" stroke-miterlimit="10" stroke-linecap="round"/>
<path id="Vector_8" d="M31.8097 6.61511C30.8511 7.57367 29.8917 8.5331 28.9331 9.49166" stroke="#009B72" stroke-width="2.11692" stroke-miterlimit="10" stroke-linecap="round"/>
<path id="Vector_9" d="M15.6284 32.3439H23.1958" stroke="#009B72" stroke-width="2.11692" stroke-miterlimit="10" stroke-linecap="round"/>
<path id="Vector_10" d="M15.6284 34.9226H23.1958" stroke="#009B72" stroke-width="2.11692" stroke-miterlimit="10" stroke-linecap="round"/>
<path id="Vector_11" d="M16.8965 37.4999H21.9279" stroke="#009B72" stroke-width="2.11692" stroke-miterlimit="10" stroke-linecap="round"/>
<path id="Vector_12" d="M19.4946 11.7255C19.9121 11.7367 22.3176 11.843 24.1172 13.8457C25.6799 15.5848 25.7508 17.603 25.7534 18.1095" stroke="#009B72" stroke-width="2.11692" stroke-miterlimit="10" stroke-linecap="round"/>
</g>
</svg>
