<svg width="24" height="25" viewBox="0 0 24 25" fill="none" xmlns="http://www.w3.org/2000/svg">
<g id="vuesax/linear/keyboard-open">
<g id="keyboard-open">
<g id="Group">
<path id="Vector" d="M7.2282 2.2627H16.6567C17.3038 2.2627 17.8813 2.28263 18.399 2.35233C21.1568 2.66097 21.9036 3.95525 21.9036 7.49963V13.7919C21.9036 17.3363 21.1568 18.6306 18.399 18.9392C17.8813 19.0089 17.3138 19.0289 16.6567 19.0289H7.2282C6.58105 19.0289 6.00359 19.0089 5.48587 18.9392C2.72802 18.6306 1.98132 17.3363 1.98132 13.7919V7.49963C1.98132 3.95525 2.72802 2.66097 5.48587 2.35233C6.00359 2.28263 6.58105 2.2627 7.2282 2.2627Z" stroke="#78828E" stroke-width="0.995614" stroke-linecap="round" stroke-linejoin="round"/>
<path id="Vector_2" d="M13.5205 8.55518H17.1844" stroke="#78828E" stroke-width="0.995614" stroke-linecap="round" stroke-linejoin="round"/>
<path id="Vector_3" d="M6.71045 14.3198H6.73035H17.1943" stroke="#78828E" stroke-width="0.995614" stroke-linecap="round" stroke-linejoin="round"/>
</g>
<path id="Vector_4" d="M6.96924 22.1748H16.9254" stroke="#78828E" stroke-width="0.995614" stroke-linecap="round" stroke-linejoin="round"/>
<path id="Vector_5" d="M7.16311 8.53492H7.17206" stroke="#78828E" stroke-width="0.995614" stroke-linecap="round" stroke-linejoin="round"/>
<path id="Vector_6" d="M10.4485 8.53492H10.4575" stroke="#78828E" stroke-width="0.995614" stroke-linecap="round" stroke-linejoin="round"/>
</g>
</g>
</svg>
