<svg width="22" height="21" viewBox="0 0 22 21" fill="none" xmlns="http://www.w3.org/2000/svg">
<path d="M11.1152 18.4914C11.1127 18.4918 11.1095 18.4923 11.1058 18.4929C11.0806 18.4967 11.0435 18.5 11 18.5C10.9565 18.5 10.9194 18.4967 10.8942 18.4929C10.8905 18.4923 10.8873 18.4918 10.8848 18.4914C9.65919 18.0426 7.52394 16.8133 5.7095 14.8289C3.91101 12.862 2.5 10.2374 2.5 6.96685C2.5 4.39606 4.41586 2.5 6.56 2.5C7.84098 2.5 9.01051 3.15794 9.7687 4.24768C10.0491 4.65072 10.509 4.89101 11 4.89101C11.491 4.89101 11.9509 4.65072 12.2313 4.24768C12.9886 3.15929 14.1675 2.5 15.44 2.5C17.5841 2.5 19.5 4.39606 19.5 6.96685C19.5 10.2374 18.089 12.862 16.2905 14.8289C14.4761 16.8133 12.3408 18.0426 11.1152 18.4914Z" stroke="#FF6D6D" stroke-width="3" stroke-linecap="round" stroke-linejoin="round"/>
</svg>
