<svg width="20" height="21" viewBox="0 0 20 21" fill="none" xmlns="http://www.w3.org/2000/svg">
<g id="vuesax/outline/logout">
<g id="logout">
<path id="Vector" d="M7.26797 18.7769H7.37582C11.0596 18.7769 12.8351 17.325 13.1421 14.0727C13.1753 13.7325 12.9264 13.4255 12.5779 13.3923C12.246 13.3591 11.9308 13.6163 11.8976 13.9565C11.657 16.5617 10.429 17.5324 7.36753 17.5324H7.25967C3.88288 17.5324 2.68814 16.3377 2.68814 12.9609V7.5514C2.68814 4.17461 3.88288 2.97987 7.25967 2.97987H7.36753C10.4456 2.97987 11.6736 3.96719 11.8976 6.62216C11.9391 6.96232 12.2294 7.21953 12.5779 7.18634C12.9264 7.16145 13.1753 6.85447 13.1504 6.5143C12.8683 3.21218 11.0845 1.73535 7.37582 1.73535H7.26797C3.19425 1.73535 1.45192 3.47768 1.45192 7.5514V12.9609C1.45192 17.0346 3.19425 18.7769 7.26797 18.7769Z" fill="#78828E"/>
<path id="Vector_2" d="M7.46701 10.8788H16.9087C17.2489 10.8788 17.531 10.5967 17.531 10.2565C17.531 9.91637 17.2489 9.63428 16.9087 9.63428H7.46701C7.12684 9.63428 6.84475 9.91637 6.84475 10.2565C6.84475 10.5967 7.12684 10.8788 7.46701 10.8788Z" fill="#78828E"/>
<path id="Vector_3" d="M15.0586 13.6577C15.2163 13.6577 15.3739 13.5997 15.4984 13.4752L18.2778 10.6958C18.5184 10.4552 18.5184 10.0569 18.2778 9.81632L15.4984 7.0369C15.2578 6.79629 14.8595 6.79629 14.6189 7.0369C14.3783 7.27751 14.3783 7.67575 14.6189 7.91636L16.9586 10.2561L14.6189 12.5957C14.3783 12.8364 14.3783 13.2346 14.6189 13.4752C14.7351 13.5997 14.901 13.6577 15.0586 13.6577Z" fill="#78828E"/>
</g>
</g>
</svg>
