<svg width="110" height="38" viewBox="0 0 110 38" fill="none" xmlns="http://www.w3.org/2000/svg">
<rect width="38" height="38" rx="12" fill="white"/>
<path d="M11.9024 12.9091H15.3158L18.9209 21.7045H19.0743L22.6794 12.9091H26.0928V26H23.4081V17.4794H23.2995L19.9117 25.9361H18.0835L14.6958 17.4474H14.5871V26H11.9024V12.9091Z" fill="#3281FF"/>
<path d="M50.752 28V11.08H54.04L59.92 24.28H59.152L65.032 11.08H68.296V28H64.888V16.504H65.848L60.592 28H58.432L53.152 16.504H54.16V28H50.752ZM77.4869 28.264C76.1909 28.264 75.0629 28.008 74.1029 27.496C73.1589 26.968 72.4229 26.232 71.8949 25.288C71.3829 24.344 71.1269 23.216 71.1269 21.904C71.1269 20.608 71.3829 19.488 71.8949 18.544C72.4229 17.6 73.1589 16.872 74.1029 16.36C75.0629 15.848 76.1909 15.592 77.4869 15.592C78.7829 15.592 79.9109 15.848 80.8709 16.36C81.8309 16.872 82.5669 17.6 83.0789 18.544C83.6069 19.488 83.8709 20.608 83.8709 21.904C83.8709 23.216 83.6069 24.344 83.0789 25.288C82.5669 26.232 81.8309 26.968 80.8709 27.496C79.9109 28.008 78.7829 28.264 77.4869 28.264ZM77.4869 25.528C78.3189 25.528 78.9749 25.232 79.4549 24.64C79.9509 24.048 80.1989 23.136 80.1989 21.904C80.1989 20.672 79.9509 19.768 79.4549 19.192C78.9749 18.616 78.3189 18.328 77.4869 18.328C76.6549 18.328 75.9909 18.616 75.4949 19.192C75.0149 19.768 74.7749 20.672 74.7749 21.904C74.7749 23.136 75.0149 24.048 75.4949 24.64C75.9909 25.232 76.6549 25.528 77.4869 25.528ZM91.2417 28.264C90.1217 28.264 89.0657 28.144 88.0737 27.904C87.0977 27.664 86.2737 27.304 85.6017 26.824L86.5377 24.52C87.1297 24.904 87.8337 25.208 88.6497 25.432C89.4817 25.64 90.3377 25.744 91.2177 25.744C92.1457 25.744 92.8257 25.632 93.2577 25.408C93.6897 25.168 93.9057 24.816 93.9057 24.352C93.9057 23.936 93.7457 23.616 93.4257 23.392C93.1217 23.168 92.6497 23.056 92.0097 23.056H88.6737V20.632H91.6977C92.2737 20.632 92.7137 20.528 93.0177 20.32C93.3217 20.112 93.4737 19.816 93.4737 19.432C93.4737 19.016 93.2737 18.688 92.8737 18.448C92.4897 18.208 91.8417 18.088 90.9297 18.088C90.0977 18.088 89.3297 18.184 88.6257 18.376C87.9377 18.568 87.2977 18.832 86.7057 19.168L85.7937 16.96C86.4497 16.512 87.2657 16.176 88.2417 15.952C89.2177 15.712 90.2897 15.592 91.4577 15.592C93.1377 15.592 94.4337 15.896 95.3457 16.504C96.2577 17.096 96.7137 17.936 96.7137 19.024C96.7137 19.76 96.4657 20.392 95.9697 20.92C95.4737 21.432 94.8017 21.76 93.9537 21.904V21.544C94.9617 21.624 95.7457 21.928 96.3057 22.456C96.8657 22.968 97.1457 23.68 97.1457 24.592C97.1457 25.712 96.6257 26.608 95.5857 27.28C94.5617 27.936 93.1137 28.264 91.2417 28.264ZM99.5449 28V15.832H109.049V18.664H103.169V28H99.5449Z" fill="white"/>
</svg>
