<svg width="23" height="24" viewBox="0 0 23 24" fill="none" xmlns="http://www.w3.org/2000/svg">
<path d="M9.33399 18.1606C9.33399 17.4941 9.33399 16.8276 9.33399 16.1611C7.00255 15.0859 5.71269 12.5346 6.22664 10.0453C6.76268 7.45141 9.10095 5.67759 11.6133 5.66864C14.5324 5.65812 16.9864 8.03269 17.1684 10.8307C17.3078 12.9744 16.0947 15.0701 14.0684 16.1606C14.07 16.8255 14.0716 17.4899 14.0737 18.1549C12.4939 18.157 10.9142 18.1585 9.33399 18.1606Z" stroke="#78828E" stroke-miterlimit="10" stroke-linecap="round"/>
<path d="M11.6278 0.999939C11.6278 1.8253 11.6278 2.65067 11.6278 3.47603" stroke="#78828E" stroke-miterlimit="10" stroke-linecap="round"/>
<path d="M4.11322 4.11203C4.6966 4.69541 5.28051 5.27932 5.8639 5.86271" stroke="#78828E" stroke-miterlimit="10" stroke-linecap="round"/>
<path d="M1.00006 11.6266C1.82543 11.6266 2.65079 11.6266 3.47616 11.6266" stroke="#78828E" stroke-miterlimit="10" stroke-linecap="round"/>
<path d="M4.11194 19.1411C4.69532 18.5577 5.27923 17.9738 5.86262 17.3904" stroke="#78828E" stroke-miterlimit="10" stroke-linecap="round"/>
<path d="M19.1414 19.1422C18.558 18.5588 17.9741 17.9749 17.3907 17.3915" stroke="#78828E" stroke-miterlimit="10" stroke-linecap="round"/>
<path d="M22.2544 11.6276C21.429 11.6276 20.6036 11.6276 19.7783 11.6276" stroke="#78828E" stroke-miterlimit="10" stroke-linecap="round"/>
<path d="M19.1422 4.11307C18.5588 4.69645 17.9749 5.28036 17.3915 5.86375" stroke="#78828E" stroke-miterlimit="10" stroke-linecap="round"/>
<path d="M9.29437 19.7719H13.8999" stroke="#78828E" stroke-miterlimit="10" stroke-linecap="round"/>
<path d="M9.29437 21.3411H13.8999" stroke="#78828E" stroke-miterlimit="10" stroke-linecap="round"/>
<path d="M10.066 22.9097H13.1281" stroke="#78828E" stroke-miterlimit="10" stroke-linecap="round"/>
<path d="M11.6471 7.22305C11.9012 7.22989 13.3652 7.2946 14.4604 8.51344C15.4115 9.57184 15.4546 10.8002 15.4562 11.1084" stroke="#78828E" stroke-miterlimit="10" stroke-linecap="round"/>
</svg>
