<svg width="116" height="116" viewBox="0 0 116 116" fill="none" xmlns="http://www.w3.org/2000/svg">
<circle cx="57.9999" cy="58" r="40.5577" stroke="url(#paint0_linear_3_1330)" stroke-width="0.730769"/>
<circle cx="57.9998" cy="58" r="48.6692" stroke="url(#paint1_linear_3_1330)" stroke-width="0.876923"/>
<circle cx="58" cy="58" r="57.4385" stroke="url(#paint2_linear_3_1330)" stroke-width="0.876923"/>
<path d="M57.9453 84.0336L57.9453 55.8077" stroke="#3281FF" stroke-width="1.3103" stroke-linecap="round" stroke-linejoin="round"/>
<path d="M57.9453 84.0336L68.8319 73.147" stroke="#3281FF" stroke-width="1.3103" stroke-linecap="round" stroke-linejoin="round"/>
<path d="M57.9453 84.0336L47.0587 73.147" stroke="#3281FF" stroke-width="1.3103" stroke-linecap="round" stroke-linejoin="round"/>
<path d="M37.8134 48.3508C37.351 48.3508 36.9239 48.2937 36.5322 48.1795C36.1459 48.0598 35.814 47.8966 35.5366 47.6898L35.863 46.8656C36.048 46.9961 36.2411 47.1077 36.4424 47.2002C36.6437 47.2872 36.8586 47.3552 37.0871 47.4042C37.3156 47.4477 37.5577 47.4695 37.8134 47.4695C38.2432 47.4695 38.5533 47.3987 38.7437 47.2573C38.9342 47.1158 39.0294 46.9309 39.0294 46.7024C39.0294 46.5011 38.9641 46.3487 38.8335 46.2454C38.7029 46.1365 38.469 46.0468 38.1317 45.9761L37.2095 45.7884C36.6818 45.6795 36.2874 45.4973 36.0262 45.2416C35.7651 44.9859 35.6345 44.6431 35.6345 44.2133C35.6345 43.8543 35.7297 43.5414 35.9201 43.2748C36.1105 43.0083 36.3771 42.8015 36.7199 42.6546C37.0626 42.5077 37.4625 42.4343 37.9195 42.4343C38.3275 42.4343 38.7057 42.4941 39.0539 42.6138C39.402 42.7281 39.6931 42.894 39.9271 43.1116L39.6006 43.8951C39.3667 43.6992 39.111 43.555 38.8335 43.4625C38.556 43.3646 38.2459 43.3156 37.9032 43.3156C37.5169 43.3156 37.215 43.3918 36.9973 43.5442C36.7852 43.691 36.6791 43.8951 36.6791 44.1562C36.6791 44.3575 36.7444 44.518 36.8749 44.6377C37.0109 44.7574 37.2394 44.8499 37.5604 44.9152L38.4744 45.0947C39.0185 45.2035 39.4211 45.383 39.6822 45.6333C39.9434 45.8781 40.0739 46.21 40.0739 46.6289C40.0739 46.9717 39.9815 47.2736 39.7965 47.5348C39.6115 47.7905 39.3504 47.9918 39.013 48.1387C38.6757 48.2801 38.2759 48.3508 37.8134 48.3508ZM42.8774 48.3508C42.4531 48.3508 42.0804 48.2638 41.7594 48.0897C41.4438 47.9156 41.199 47.6681 41.0249 47.3471C40.8508 47.0206 40.7638 46.6344 40.7638 46.1882C40.7638 45.7421 40.8508 45.3613 41.0249 45.0457C41.2045 44.7302 41.452 44.4881 41.7676 44.3194C42.0831 44.1508 42.4531 44.0664 42.8774 44.0664C43.1494 44.0664 43.4133 44.11 43.669 44.197C43.9302 44.2786 44.1423 44.3983 44.3056 44.5561L43.9954 45.2661C43.8485 45.1301 43.6826 45.0294 43.4976 44.9641C43.3181 44.8934 43.1413 44.858 42.9672 44.858C42.6027 44.858 42.317 44.9723 42.1103 45.2008C41.909 45.4293 41.8084 45.7612 41.8084 46.1964C41.8084 46.6316 41.909 46.9662 42.1103 47.2002C42.317 47.4341 42.6027 47.5511 42.9672 47.5511C43.1358 47.5511 43.3099 47.5184 43.4895 47.4532C43.6745 47.3879 43.8431 47.2872 43.9954 47.1512L44.3056 47.853C44.1369 48.0108 43.922 48.1332 43.6609 48.2203C43.4051 48.3073 43.144 48.3508 42.8774 48.3508ZM45.0882 48.2692V45.2008C45.0882 45.0267 45.0828 44.8499 45.0719 44.6703C45.0665 44.4908 45.0529 44.3167 45.0311 44.148H46.0185L46.1328 45.2742H45.9696C46.024 45.0022 46.1138 44.7764 46.2389 44.5969C46.3695 44.4174 46.5272 44.2841 46.7122 44.197C46.8972 44.11 47.0985 44.0664 47.3161 44.0664C47.414 44.0664 47.4929 44.0719 47.5528 44.0828C47.6126 44.0882 47.6725 44.1018 47.7323 44.1236L47.7241 45.0212C47.6208 44.9777 47.531 44.9505 47.4548 44.9396C47.3841 44.9288 47.2943 44.9233 47.1855 44.9233C46.9516 44.9233 46.753 44.9723 46.5898 45.0702C46.432 45.1681 46.3123 45.3042 46.2307 45.4782C46.1546 45.6523 46.1165 45.8509 46.1165 46.074V48.2692H45.0882ZM50.097 48.3508C49.6726 48.3508 49.3054 48.2638 48.9953 48.0897C48.6852 47.9156 48.4431 47.6681 48.269 47.3471C48.1003 47.0261 48.016 46.6452 48.016 46.2046C48.016 45.7639 48.1003 45.3858 48.269 45.0702C48.4431 44.7492 48.6852 44.5017 48.9953 44.3276C49.3054 44.1535 49.6726 44.0664 50.097 44.0664C50.5214 44.0664 50.8886 44.1535 51.1987 44.3276C51.5143 44.5017 51.7564 44.7492 51.925 45.0702C52.0991 45.3858 52.1862 45.7639 52.1862 46.2046C52.1862 46.6452 52.0991 47.0261 51.925 47.3471C51.7564 47.6681 51.5143 47.9156 51.1987 48.0897C50.8886 48.2638 50.5214 48.3508 50.097 48.3508ZM50.097 47.5674C50.418 47.5674 50.6737 47.4559 50.8641 47.2328C51.0545 47.0043 51.1497 46.6616 51.1497 46.2046C51.1497 45.7476 51.0545 45.4075 50.8641 45.1845C50.6737 44.9614 50.418 44.8499 50.097 44.8499C49.776 44.8499 49.5203 44.9614 49.3299 45.1845C49.1395 45.4075 49.0443 45.7476 49.0443 46.2046C49.0443 46.6616 49.1395 47.0043 49.3299 47.2328C49.5203 47.4559 49.776 47.5674 50.097 47.5674ZM53.0659 48.2692V42.2629H54.086V48.2692H53.0659ZM55.1937 48.2692V42.2629H56.2138V48.2692H55.1937ZM61.1605 48.3508C60.8014 48.3508 60.4832 48.2665 60.2057 48.0979C59.9337 47.9238 59.7215 47.6762 59.5692 47.3552C59.4168 47.0342 59.3407 46.6507 59.3407 46.2046C59.3407 45.7584 59.4168 45.3776 59.5692 45.0621C59.7215 44.7411 59.9337 44.4962 60.2057 44.3276C60.4832 44.1535 60.8014 44.0664 61.1605 44.0664C61.5033 44.0664 61.8052 44.1508 62.0663 44.3194C62.3329 44.4826 62.5097 44.7057 62.5968 44.9886H62.4907V42.2629H63.5108V48.2692H62.507V47.396H62.605C62.5179 47.6898 62.3411 47.9238 62.0745 48.0979C61.8134 48.2665 61.5087 48.3508 61.1605 48.3508ZM61.4461 47.5674C61.7671 47.5674 62.0255 47.4559 62.2214 47.2328C62.4173 47.0043 62.5152 46.6616 62.5152 46.2046C62.5152 45.7476 62.4173 45.4075 62.2214 45.1845C62.0255 44.9614 61.7671 44.8499 61.4461 44.8499C61.1251 44.8499 60.864 44.9614 60.6627 45.1845C60.4668 45.4075 60.3689 45.7476 60.3689 46.2046C60.3689 46.6616 60.4668 47.0043 60.6627 47.2328C60.864 47.4559 61.1251 47.5674 61.4461 47.5674ZM66.4823 48.3508C66.0579 48.3508 65.6907 48.2638 65.3806 48.0897C65.0705 47.9156 64.8284 47.6681 64.6543 47.3471C64.4856 47.0261 64.4013 46.6452 64.4013 46.2046C64.4013 45.7639 64.4856 45.3858 64.6543 45.0702C64.8284 44.7492 65.0705 44.5017 65.3806 44.3276C65.6907 44.1535 66.0579 44.0664 66.4823 44.0664C66.9066 44.0664 67.2739 44.1535 67.584 44.3276C67.8995 44.5017 68.1416 44.7492 68.3103 45.0702C68.4844 45.3858 68.5714 45.7639 68.5714 46.2046C68.5714 46.6452 68.4844 47.0261 68.3103 47.3471C68.1416 47.6681 67.8995 47.9156 67.584 48.0897C67.2739 48.2638 66.9066 48.3508 66.4823 48.3508ZM66.4823 47.5674C66.8033 47.5674 67.059 47.4559 67.2494 47.2328C67.4398 47.0043 67.535 46.6616 67.535 46.2046C67.535 45.7476 67.4398 45.4075 67.2494 45.1845C67.059 44.9614 66.8033 44.8499 66.4823 44.8499C66.1613 44.8499 65.9056 44.9614 65.7152 45.1845C65.5247 45.4075 65.4295 45.7476 65.4295 46.2046C65.4295 46.6616 65.5247 47.0043 65.7152 47.2328C65.9056 47.4559 66.1613 47.5674 66.4823 47.5674ZM70.5139 48.2692L68.9063 44.148H69.959L71.1178 47.3552H70.9057L72.0808 44.148H72.8071L73.9741 47.3552H73.7864L74.9371 44.148H75.9327L74.325 48.2692H73.4273L72.195 44.9886H72.6276L71.4198 48.2692H70.5139ZM76.5758 48.2692V45.1763C76.5758 45.0076 76.5704 44.8363 76.5595 44.6622C76.5486 44.4881 76.5323 44.3167 76.5106 44.148H77.498L77.5796 44.9641H77.4817C77.6123 44.6758 77.8054 44.4554 78.0611 44.3031C78.3168 44.1453 78.6133 44.0664 78.9506 44.0664C79.4348 44.0664 79.7993 44.2025 80.0442 44.4745C80.289 44.7465 80.4114 45.1709 80.4114 45.7476V48.2692H79.3913V45.7965C79.3913 45.4646 79.326 45.228 79.1954 45.0865C79.0703 44.9396 78.8799 44.8662 78.6242 44.8662C78.3086 44.8662 78.0584 44.9641 77.8734 45.16C77.6884 45.3558 77.5959 45.617 77.5959 45.9434V48.2692H76.5758Z" fill="black"/>
<defs>
<linearGradient id="paint0_linear_3_1330" x1="57.9999" y1="98.1923" x2="57.9999" y2="17.8077" gradientUnits="userSpaceOnUse">
<stop stop-color="#3281FF"/>
<stop offset="0.442708" stop-color="#3281FF" stop-opacity="0.954635"/>
<stop offset="0.602678" stop-color="#3281FF" stop-opacity="0.775335"/>
<stop offset="1" stop-color="#3281FF" stop-opacity="0.33"/>
</linearGradient>
<linearGradient id="paint1_linear_3_1330" x1="57.9998" y1="106.231" x2="57.9998" y2="63.8461" gradientUnits="userSpaceOnUse">
<stop stop-color="#3281FF"/>
<stop offset="1" stop-color="#3281FF" stop-opacity="0"/>
</linearGradient>
<linearGradient id="paint2_linear_3_1330" x1="58" y1="115" x2="58" y2="64.9091" gradientUnits="userSpaceOnUse">
<stop stop-color="#3281FF"/>
<stop offset="1" stop-color="#3281FF" stop-opacity="0"/>
</linearGradient>
</defs>
</svg>
