<svg width="18" height="18" viewBox="0 0 18 18" fill="none" xmlns="http://www.w3.org/2000/svg">
<path d="M9.01515 15.3975C7.26765 15.3975 5.52015 15.12 3.86265 14.565C3.23265 14.3475 2.75265 13.905 2.54265 13.3275C2.32515 12.75 2.40015 12.1125 2.74515 11.5425L3.60765 10.11C3.78765 9.81 3.95265 9.21 3.95265 8.8575V6.69C3.95265 3.9 6.22515 1.6275 9.01515 1.6275C11.8051 1.6275 14.0776 3.9 14.0776 6.69V8.8575C14.0776 9.2025 14.2426 9.81 14.4226 10.1175L15.2776 11.5425C15.6001 12.0825 15.6601 12.735 15.4426 13.3275C15.2251 13.92 14.7526 14.37 14.1601 14.565C12.5101 15.12 10.7626 15.3975 9.01515 15.3975ZM9.01515 2.7525C6.84765 2.7525 5.07765 4.515 5.07765 6.69V8.8575C5.07765 9.405 4.85265 10.215 4.57515 10.6875L3.71265 12.12C3.54765 12.3975 3.50265 12.69 3.60015 12.9375C3.69015 13.1925 3.91515 13.3875 4.22265 13.4925C7.35765 14.5425 10.6801 14.5425 13.8151 13.4925C14.0851 13.4025 14.2951 13.2 14.3926 12.93C14.4901 12.66 14.4676 12.3675 14.3176 12.12L13.4551 10.6875C13.1701 10.2 12.9526 9.3975 12.9526 8.85V6.69C12.9526 4.515 11.1901 2.7525 9.01515 2.7525Z" fill="#435872"/>
<path d="M10.4101 2.95501C10.3576 2.95501 10.3051 2.94751 10.2526 2.93251C10.0351 2.87251 9.82509 2.82751 9.62259 2.79751C8.98509 2.71501 8.37009 2.76001 7.79259 2.93251C7.58259 3.00001 7.35759 2.93251 7.21509 2.77501C7.07259 2.61751 7.02759 2.39251 7.11009 2.19001C7.41759 1.40251 8.16759 0.88501 9.02259 0.88501C9.87759 0.88501 10.6276 1.39501 10.9351 2.19001C11.0101 2.39251 10.9726 2.61751 10.8301 2.77501C10.7176 2.89501 10.5601 2.95501 10.4101 2.95501Z" fill="#435872"/>
<path d="M9.01514 17.1075C8.27264 17.1075 7.55264 16.8075 7.02764 16.2825C6.50264 15.7575 6.20264 15.0375 6.20264 14.295H7.32764C7.32764 14.7375 7.50764 15.1725 7.82264 15.4875C8.13764 15.8025 8.57264 15.9825 9.01514 15.9825C9.94514 15.9825 10.7026 15.225 10.7026 14.295H11.8276C11.8276 15.8475 10.5676 17.1075 9.01514 17.1075Z" fill="#435872"/>
</svg>
