<svg width="320" height="291" viewBox="0 0 320 291" fill="none" xmlns="http://www.w3.org/2000/svg">
<path d="M0 4.36755C0 1.95541 1.95542 0 4.36755 0H315.632C318.045 0 320 1.95542 320 4.36755V286.632C320 289.045 318.045 291 315.632 291H4.36756C1.95543 291 0 289.045 0 286.632V4.36755Z" fill="white"/>
<path d="M42.7414 215.304V208.032L41.3854 208.332V207.636L43.0774 206.904H43.7614V215.304H42.7414ZM46.2305 215.304L49.5665 207.768H44.9585V206.904H50.5985V207.66L47.2985 215.304H46.2305ZM51.5061 215.364C51.3061 215.364 51.1381 215.3 51.0021 215.172C50.8741 215.036 50.8101 214.872 50.8101 214.68C50.8101 214.488 50.8741 214.328 51.0021 214.2C51.1381 214.064 51.3061 213.996 51.5061 213.996C51.6981 213.996 51.8581 214.064 51.9861 214.2C52.1221 214.328 52.1901 214.488 52.1901 214.68C52.1901 214.872 52.1221 215.036 51.9861 215.172C51.8581 215.3 51.6981 215.364 51.5061 215.364ZM56.3574 215.448C55.6134 215.448 54.9694 215.268 54.4254 214.908C53.8894 214.54 53.4774 214.032 53.1894 213.384C52.9014 212.728 52.7574 211.968 52.7574 211.104C52.7574 210.24 52.9014 209.484 53.1894 208.836C53.4774 208.18 53.8894 207.672 54.4254 207.312C54.9694 206.944 55.6134 206.76 56.3574 206.76C57.1014 206.76 57.7414 206.944 58.2774 207.312C58.8134 207.672 59.2254 208.18 59.5134 208.836C59.8014 209.484 59.9454 210.24 59.9454 211.104C59.9454 211.968 59.8014 212.728 59.5134 213.384C59.2254 214.032 58.8134 214.54 58.2774 214.908C57.7414 215.268 57.1014 215.448 56.3574 215.448ZM56.3574 214.56C56.8454 214.56 57.2814 214.424 57.6654 214.152C58.0574 213.872 58.3614 213.476 58.5774 212.964C58.8014 212.444 58.9134 211.824 58.9134 211.104C58.9134 210.384 58.8014 209.768 58.5774 209.256C58.3614 208.744 58.0574 208.352 57.6654 208.08C57.2814 207.8 56.8454 207.66 56.3574 207.66C55.8614 207.66 55.4214 207.8 55.0374 208.08C54.6534 208.352 54.3494 208.744 54.1254 209.256C53.9014 209.768 53.7894 210.384 53.7894 211.104C53.7894 211.824 53.9014 212.444 54.1254 212.964C54.3494 213.476 54.6534 213.872 55.0374 214.152C55.4214 214.424 55.8614 214.56 56.3574 214.56ZM64.1737 215.448C63.6457 215.448 63.1937 215.344 62.8177 215.136C62.4417 214.928 62.1417 214.652 61.9177 214.308C61.7017 213.956 61.5697 213.568 61.5217 213.144H62.4577C62.5377 213.6 62.7297 213.952 63.0337 214.2C63.3377 214.448 63.7217 214.572 64.1857 214.572C64.8257 214.572 65.3577 214.276 65.7817 213.684C66.2057 213.084 66.4337 212.152 66.4657 210.888C66.2737 211.264 65.9657 211.592 65.5417 211.872C65.1257 212.144 64.6217 212.28 64.0297 212.28C63.5577 212.28 63.1097 212.168 62.6857 211.944C62.2617 211.72 61.9177 211.408 61.6537 211.008C61.3897 210.6 61.2577 210.124 61.2577 209.58C61.2577 209.108 61.3737 208.656 61.6057 208.224C61.8457 207.792 62.1817 207.44 62.6137 207.168C63.0457 206.896 63.5617 206.76 64.1617 206.76C64.7697 206.76 65.2817 206.876 65.6977 207.108C66.1137 207.332 66.4457 207.636 66.6937 208.02C66.9497 208.404 67.1337 208.836 67.2457 209.316C67.3657 209.788 67.4257 210.272 67.4257 210.768C67.4257 211.696 67.2977 212.512 67.0417 213.216C66.7857 213.912 66.4137 214.46 65.9257 214.86C65.4457 215.252 64.8617 215.448 64.1737 215.448ZM64.2337 211.404C64.6097 211.404 64.9457 211.32 65.2417 211.152C65.5377 210.976 65.7737 210.744 65.9497 210.456C66.1257 210.168 66.2137 209.856 66.2137 209.52C66.2137 209.16 66.1257 208.84 65.9497 208.56C65.7737 208.272 65.5377 208.048 65.2417 207.888C64.9457 207.728 64.6097 207.648 64.2337 207.648C63.8577 207.648 63.5217 207.728 63.2257 207.888C62.9297 208.048 62.6977 208.272 62.5297 208.56C62.3617 208.84 62.2777 209.164 62.2777 209.532C62.2777 210.1 62.4617 210.556 62.8297 210.9C63.2057 211.236 63.6737 211.404 64.2337 211.404ZM68.885 215.364C68.685 215.364 68.517 215.3 68.381 215.172C68.253 215.036 68.189 214.872 68.189 214.68C68.189 214.488 68.253 214.328 68.381 214.2C68.517 214.064 68.685 213.996 68.885 213.996C69.077 213.996 69.237 214.064 69.365 214.2C69.501 214.328 69.569 214.488 69.569 214.68C69.569 214.872 69.501 215.036 69.365 215.172C69.237 215.3 69.077 215.364 68.885 215.364ZM70.8087 215.304V214.596C71.3767 214.148 71.9127 213.696 72.4167 213.24C72.9287 212.776 73.3807 212.32 73.7727 211.872C74.1727 211.424 74.4847 210.984 74.7087 210.552C74.9407 210.12 75.0567 209.704 75.0567 209.304C75.0567 209.008 75.0047 208.732 74.9007 208.476C74.8047 208.22 74.6447 208.016 74.4207 207.864C74.1967 207.704 73.8927 207.624 73.5087 207.624C73.1407 207.624 72.8327 207.708 72.5847 207.876C72.3367 208.036 72.1487 208.252 72.0207 208.524C71.9007 208.796 71.8407 209.088 71.8407 209.4H70.8687C70.8687 208.848 70.9847 208.376 71.2167 207.984C71.4487 207.584 71.7647 207.28 72.1647 207.072C72.5647 206.864 73.0167 206.76 73.5207 206.76C74.2647 206.76 74.8727 206.972 75.3447 207.396C75.8247 207.812 76.0647 208.436 76.0647 209.268C76.0647 209.764 75.9407 210.256 75.6927 210.744C75.4447 211.224 75.1287 211.692 74.7447 212.148C74.3607 212.596 73.9487 213.016 73.5087 213.408C73.0767 213.8 72.6727 214.152 72.2967 214.464H76.3527V215.304H70.8087ZM80.4239 215.448C79.8879 215.448 79.4039 215.352 78.9719 215.16C78.5399 214.96 78.1919 214.664 77.9279 214.272C77.6719 213.88 77.5359 213.392 77.5199 212.808H78.5399C78.5479 213.288 78.7159 213.704 79.0439 214.056C79.3719 214.4 79.8319 214.572 80.4239 214.572C81.0159 214.572 81.4599 214.408 81.7559 214.08C82.0599 213.752 82.2119 213.356 82.2119 212.892C82.2119 212.5 82.1159 212.18 81.9239 211.932C81.7399 211.684 81.4879 211.5 81.1679 211.38C80.8559 211.26 80.5119 211.2 80.1359 211.2H79.5119V210.348H80.1359C80.6799 210.348 81.1039 210.224 81.4079 209.976C81.7199 209.728 81.8759 209.38 81.8759 208.932C81.8759 208.556 81.7519 208.248 81.5039 208.008C81.2639 207.76 80.9039 207.636 80.4239 207.636C79.9599 207.636 79.5879 207.776 79.3079 208.056C79.0279 208.328 78.8719 208.672 78.8399 209.088H77.8199C77.8439 208.632 77.9639 208.228 78.1799 207.876C78.4039 207.524 78.7079 207.252 79.0919 207.06C79.4759 206.86 79.9199 206.76 80.4239 206.76C80.9679 206.76 81.4199 206.856 81.7799 207.048C82.1479 207.24 82.4239 207.496 82.6079 207.816C82.7999 208.136 82.8959 208.488 82.8959 208.872C82.8959 209.296 82.7799 209.684 82.5479 210.036C82.3159 210.38 81.9679 210.612 81.5039 210.732C81.9999 210.836 82.4119 211.072 82.7399 211.44C83.0679 211.808 83.2319 212.292 83.2319 212.892C83.2319 213.356 83.1239 213.784 82.9079 214.176C82.6999 214.56 82.3879 214.868 81.9719 215.1C81.5559 215.332 81.0399 215.448 80.4239 215.448Z" fill="#8F92A1"/>
<rect x="50.6379" y="9" width="23.2026" height="187" fill="white"/>
<rect opacity="0.1" x="62" y="9" width="1" height="187" fill="#8F92A1"/>
<path d="M96.7414 215.304V208.032L95.3854 208.332V207.636L97.0774 206.904H97.7614V215.304H96.7414ZM100.23 215.304L103.566 207.768H98.9585V206.904H104.598V207.66L101.298 215.304H100.23ZM105.506 215.364C105.306 215.364 105.138 215.3 105.002 215.172C104.874 215.036 104.81 214.872 104.81 214.68C104.81 214.488 104.874 214.328 105.002 214.2C105.138 214.064 105.306 213.996 105.506 213.996C105.698 213.996 105.858 214.064 105.986 214.2C106.122 214.328 106.19 214.488 106.19 214.68C106.19 214.872 106.122 215.036 105.986 215.172C105.858 215.3 105.698 215.364 105.506 215.364ZM110.357 215.448C109.613 215.448 108.969 215.268 108.425 214.908C107.889 214.54 107.477 214.032 107.189 213.384C106.901 212.728 106.757 211.968 106.757 211.104C106.757 210.24 106.901 209.484 107.189 208.836C107.477 208.18 107.889 207.672 108.425 207.312C108.969 206.944 109.613 206.76 110.357 206.76C111.101 206.76 111.741 206.944 112.277 207.312C112.813 207.672 113.225 208.18 113.513 208.836C113.801 209.484 113.945 210.24 113.945 211.104C113.945 211.968 113.801 212.728 113.513 213.384C113.225 214.032 112.813 214.54 112.277 214.908C111.741 215.268 111.101 215.448 110.357 215.448ZM110.357 214.56C110.845 214.56 111.281 214.424 111.665 214.152C112.057 213.872 112.361 213.476 112.577 212.964C112.801 212.444 112.913 211.824 112.913 211.104C112.913 210.384 112.801 209.768 112.577 209.256C112.361 208.744 112.057 208.352 111.665 208.08C111.281 207.8 110.845 207.66 110.357 207.66C109.861 207.66 109.421 207.8 109.037 208.08C108.653 208.352 108.349 208.744 108.125 209.256C107.901 209.768 107.789 210.384 107.789 211.104C107.789 211.824 107.901 212.444 108.125 212.964C108.349 213.476 108.653 213.872 109.037 214.152C109.421 214.424 109.861 214.56 110.357 214.56ZM118.174 215.448C117.646 215.448 117.194 215.344 116.818 215.136C116.442 214.928 116.142 214.652 115.918 214.308C115.702 213.956 115.57 213.568 115.522 213.144H116.458C116.538 213.6 116.73 213.952 117.034 214.2C117.338 214.448 117.722 214.572 118.186 214.572C118.826 214.572 119.358 214.276 119.782 213.684C120.206 213.084 120.434 212.152 120.466 210.888C120.274 211.264 119.966 211.592 119.542 211.872C119.126 212.144 118.622 212.28 118.03 212.28C117.558 212.28 117.11 212.168 116.686 211.944C116.262 211.72 115.918 211.408 115.654 211.008C115.39 210.6 115.258 210.124 115.258 209.58C115.258 209.108 115.374 208.656 115.606 208.224C115.846 207.792 116.182 207.44 116.614 207.168C117.046 206.896 117.562 206.76 118.162 206.76C118.77 206.76 119.282 206.876 119.698 207.108C120.114 207.332 120.446 207.636 120.694 208.02C120.95 208.404 121.134 208.836 121.246 209.316C121.366 209.788 121.426 210.272 121.426 210.768C121.426 211.696 121.298 212.512 121.042 213.216C120.786 213.912 120.414 214.46 119.926 214.86C119.446 215.252 118.862 215.448 118.174 215.448ZM118.234 211.404C118.61 211.404 118.946 211.32 119.242 211.152C119.538 210.976 119.774 210.744 119.95 210.456C120.126 210.168 120.214 209.856 120.214 209.52C120.214 209.16 120.126 208.84 119.95 208.56C119.774 208.272 119.538 208.048 119.242 207.888C118.946 207.728 118.61 207.648 118.234 207.648C117.858 207.648 117.522 207.728 117.226 207.888C116.93 208.048 116.698 208.272 116.53 208.56C116.362 208.84 116.278 209.164 116.278 209.532C116.278 210.1 116.462 210.556 116.83 210.9C117.206 211.236 117.674 211.404 118.234 211.404ZM122.885 215.364C122.685 215.364 122.517 215.3 122.381 215.172C122.253 215.036 122.189 214.872 122.189 214.68C122.189 214.488 122.253 214.328 122.381 214.2C122.517 214.064 122.685 213.996 122.885 213.996C123.077 213.996 123.237 214.064 123.365 214.2C123.501 214.328 123.569 214.488 123.569 214.68C123.569 214.872 123.501 215.036 123.365 215.172C123.237 215.3 123.077 215.364 122.885 215.364ZM124.809 215.304V214.596C125.377 214.148 125.913 213.696 126.417 213.24C126.929 212.776 127.381 212.32 127.773 211.872C128.173 211.424 128.485 210.984 128.709 210.552C128.941 210.12 129.057 209.704 129.057 209.304C129.057 209.008 129.005 208.732 128.901 208.476C128.805 208.22 128.645 208.016 128.421 207.864C128.197 207.704 127.893 207.624 127.509 207.624C127.141 207.624 126.833 207.708 126.585 207.876C126.337 208.036 126.149 208.252 126.021 208.524C125.901 208.796 125.841 209.088 125.841 209.4H124.869C124.869 208.848 124.985 208.376 125.217 207.984C125.449 207.584 125.765 207.28 126.165 207.072C126.565 206.864 127.017 206.76 127.521 206.76C128.265 206.76 128.873 206.972 129.345 207.396C129.825 207.812 130.065 208.436 130.065 209.268C130.065 209.764 129.941 210.256 129.693 210.744C129.445 211.224 129.129 211.692 128.745 212.148C128.361 212.596 127.949 213.016 127.509 213.408C127.077 213.8 126.673 214.152 126.297 214.464H130.353V215.304H124.809ZM134.424 215.448C133.888 215.448 133.404 215.352 132.972 215.16C132.54 214.96 132.192 214.664 131.928 214.272C131.672 213.88 131.536 213.392 131.52 212.808H132.54C132.548 213.288 132.716 213.704 133.044 214.056C133.372 214.4 133.832 214.572 134.424 214.572C135.016 214.572 135.46 214.408 135.756 214.08C136.06 213.752 136.212 213.356 136.212 212.892C136.212 212.5 136.116 212.18 135.924 211.932C135.74 211.684 135.488 211.5 135.168 211.38C134.856 211.26 134.512 211.2 134.136 211.2H133.512V210.348H134.136C134.68 210.348 135.104 210.224 135.408 209.976C135.72 209.728 135.876 209.38 135.876 208.932C135.876 208.556 135.752 208.248 135.504 208.008C135.264 207.76 134.904 207.636 134.424 207.636C133.96 207.636 133.588 207.776 133.308 208.056C133.028 208.328 132.872 208.672 132.84 209.088H131.82C131.844 208.632 131.964 208.228 132.18 207.876C132.404 207.524 132.708 207.252 133.092 207.06C133.476 206.86 133.92 206.76 134.424 206.76C134.968 206.76 135.42 206.856 135.78 207.048C136.148 207.24 136.424 207.496 136.608 207.816C136.8 208.136 136.896 208.488 136.896 208.872C136.896 209.296 136.78 209.684 136.548 210.036C136.316 210.38 135.968 210.612 135.504 210.732C136 210.836 136.412 211.072 136.74 211.44C137.068 211.808 137.232 212.292 137.232 212.892C137.232 213.356 137.124 213.784 136.908 214.176C136.7 214.56 136.388 214.868 135.972 215.1C135.556 215.332 135.04 215.448 134.424 215.448Z" fill="#8F92A1"/>
<rect x="104.638" y="9" width="23.2026" height="187" fill="white"/>
<rect opacity="0.1" x="116" y="9" width="1" height="187" fill="#8F92A1"/>
<path d="M146.973 215V214.292C147.541 213.844 148.077 213.392 148.581 212.936C149.093 212.472 149.545 212.016 149.937 211.568C150.337 211.12 150.649 210.68 150.873 210.248C151.105 209.816 151.221 209.4 151.221 209C151.221 208.704 151.169 208.428 151.065 208.172C150.969 207.916 150.809 207.712 150.585 207.56C150.361 207.4 150.057 207.32 149.673 207.32C149.305 207.32 148.997 207.404 148.749 207.572C148.501 207.732 148.313 207.948 148.185 208.22C148.065 208.492 148.005 208.784 148.005 209.096H147.033C147.033 208.544 147.149 208.072 147.381 207.68C147.613 207.28 147.929 206.976 148.329 206.768C148.729 206.56 149.181 206.456 149.685 206.456C150.429 206.456 151.037 206.668 151.509 207.092C151.989 207.508 152.229 208.132 152.229 208.964C152.229 209.46 152.105 209.952 151.857 210.44C151.609 210.92 151.293 211.388 150.909 211.844C150.525 212.292 150.113 212.712 149.673 213.104C149.241 213.496 148.837 213.848 148.461 214.16H152.517V215H146.973ZM156.588 215.144C156.052 215.144 155.568 215.048 155.136 214.856C154.704 214.656 154.356 214.36 154.092 213.968C153.836 213.576 153.7 213.088 153.684 212.504H154.704C154.712 212.984 154.88 213.4 155.208 213.752C155.536 214.096 155.996 214.268 156.588 214.268C157.18 214.268 157.624 214.104 157.92 213.776C158.224 213.448 158.376 213.052 158.376 212.588C158.376 212.196 158.28 211.876 158.088 211.628C157.904 211.38 157.652 211.196 157.332 211.076C157.02 210.956 156.676 210.896 156.3 210.896H155.676V210.044H156.3C156.844 210.044 157.268 209.92 157.572 209.672C157.884 209.424 158.04 209.076 158.04 208.628C158.04 208.252 157.916 207.944 157.668 207.704C157.428 207.456 157.068 207.332 156.588 207.332C156.124 207.332 155.752 207.472 155.472 207.752C155.192 208.024 155.036 208.368 155.004 208.784H153.984C154.008 208.328 154.128 207.924 154.344 207.572C154.568 207.22 154.872 206.948 155.256 206.756C155.64 206.556 156.084 206.456 156.588 206.456C157.132 206.456 157.584 206.552 157.944 206.744C158.312 206.936 158.588 207.192 158.772 207.512C158.964 207.832 159.06 208.184 159.06 208.568C159.06 208.992 158.944 209.38 158.712 209.732C158.48 210.076 158.132 210.308 157.668 210.428C158.164 210.532 158.576 210.768 158.904 211.136C159.232 211.504 159.396 211.988 159.396 212.588C159.396 213.052 159.288 213.48 159.072 213.872C158.864 214.256 158.552 214.564 158.136 214.796C157.72 215.028 157.204 215.144 156.588 215.144ZM161.315 215.06C161.115 215.06 160.947 214.996 160.811 214.868C160.683 214.732 160.619 214.568 160.619 214.376C160.619 214.184 160.683 214.024 160.811 213.896C160.947 213.76 161.115 213.692 161.315 213.692C161.507 213.692 161.667 213.76 161.795 213.896C161.931 214.024 161.999 214.184 161.999 214.376C161.999 214.568 161.931 214.732 161.795 214.868C161.667 214.996 161.507 215.06 161.315 215.06ZM166.166 215.144C165.422 215.144 164.778 214.964 164.234 214.604C163.698 214.236 163.286 213.728 162.998 213.08C162.71 212.424 162.566 211.664 162.566 210.8C162.566 209.936 162.71 209.18 162.998 208.532C163.286 207.876 163.698 207.368 164.234 207.008C164.778 206.64 165.422 206.456 166.166 206.456C166.91 206.456 167.55 206.64 168.086 207.008C168.622 207.368 169.034 207.876 169.322 208.532C169.61 209.18 169.754 209.936 169.754 210.8C169.754 211.664 169.61 212.424 169.322 213.08C169.034 213.728 168.622 214.236 168.086 214.604C167.55 214.964 166.91 215.144 166.166 215.144ZM166.166 214.256C166.654 214.256 167.09 214.12 167.474 213.848C167.866 213.568 168.17 213.172 168.386 212.66C168.61 212.14 168.722 211.52 168.722 210.8C168.722 210.08 168.61 209.464 168.386 208.952C168.17 208.44 167.866 208.048 167.474 207.776C167.09 207.496 166.654 207.356 166.166 207.356C165.67 207.356 165.23 207.496 164.846 207.776C164.462 208.048 164.158 208.44 163.934 208.952C163.71 209.464 163.598 210.08 163.598 210.8C163.598 211.52 163.71 212.14 163.934 212.66C164.158 213.172 164.462 213.568 164.846 213.848C165.23 214.12 165.67 214.256 166.166 214.256ZM173.982 215.144C173.454 215.144 173.002 215.04 172.626 214.832C172.25 214.624 171.95 214.348 171.726 214.004C171.51 213.652 171.378 213.264 171.33 212.84H172.266C172.346 213.296 172.538 213.648 172.842 213.896C173.146 214.144 173.53 214.268 173.994 214.268C174.634 214.268 175.166 213.972 175.59 213.38C176.014 212.78 176.242 211.848 176.274 210.584C176.082 210.96 175.774 211.288 175.35 211.568C174.934 211.84 174.43 211.976 173.838 211.976C173.366 211.976 172.918 211.864 172.494 211.64C172.07 211.416 171.726 211.104 171.462 210.704C171.198 210.296 171.066 209.82 171.066 209.276C171.066 208.804 171.182 208.352 171.414 207.92C171.654 207.488 171.99 207.136 172.422 206.864C172.854 206.592 173.37 206.456 173.97 206.456C174.578 206.456 175.09 206.572 175.506 206.804C175.922 207.028 176.254 207.332 176.502 207.716C176.758 208.1 176.942 208.532 177.054 209.012C177.174 209.484 177.234 209.968 177.234 210.464C177.234 211.392 177.106 212.208 176.85 212.912C176.594 213.608 176.222 214.156 175.734 214.556C175.254 214.948 174.67 215.144 173.982 215.144ZM174.042 211.1C174.418 211.1 174.754 211.016 175.05 210.848C175.346 210.672 175.582 210.44 175.758 210.152C175.934 209.864 176.022 209.552 176.022 209.216C176.022 208.856 175.934 208.536 175.758 208.256C175.582 207.968 175.346 207.744 175.05 207.584C174.754 207.424 174.418 207.344 174.042 207.344C173.666 207.344 173.33 207.424 173.034 207.584C172.738 207.744 172.506 207.968 172.338 208.256C172.17 208.536 172.086 208.86 172.086 209.228C172.086 209.796 172.27 210.252 172.638 210.596C173.014 210.932 173.482 211.1 174.042 211.1ZM178.694 215.06C178.494 215.06 178.326 214.996 178.19 214.868C178.062 214.732 177.998 214.568 177.998 214.376C177.998 214.184 178.062 214.024 178.19 213.896C178.326 213.76 178.494 213.692 178.694 213.692C178.886 213.692 179.046 213.76 179.174 213.896C179.31 214.024 179.378 214.184 179.378 214.376C179.378 214.568 179.31 214.732 179.174 214.868C179.046 214.996 178.886 215.06 178.694 215.06ZM180.617 215V214.292C181.185 213.844 181.721 213.392 182.225 212.936C182.737 212.472 183.189 212.016 183.581 211.568C183.981 211.12 184.293 210.68 184.517 210.248C184.749 209.816 184.865 209.4 184.865 209C184.865 208.704 184.813 208.428 184.709 208.172C184.613 207.916 184.453 207.712 184.229 207.56C184.005 207.4 183.701 207.32 183.317 207.32C182.949 207.32 182.641 207.404 182.393 207.572C182.145 207.732 181.957 207.948 181.829 208.22C181.709 208.492 181.649 208.784 181.649 209.096H180.677C180.677 208.544 180.793 208.072 181.025 207.68C181.257 207.28 181.573 206.976 181.973 206.768C182.373 206.56 182.825 206.456 183.329 206.456C184.073 206.456 184.681 206.668 185.153 207.092C185.633 207.508 185.873 208.132 185.873 208.964C185.873 209.46 185.749 209.952 185.501 210.44C185.253 210.92 184.937 211.388 184.553 211.844C184.169 212.292 183.757 212.712 183.317 213.104C182.885 213.496 182.481 213.848 182.105 214.16H186.161V215H180.617ZM190.233 215.144C189.697 215.144 189.213 215.048 188.781 214.856C188.349 214.656 188.001 214.36 187.737 213.968C187.481 213.576 187.345 213.088 187.329 212.504H188.349C188.357 212.984 188.525 213.4 188.853 213.752C189.181 214.096 189.641 214.268 190.233 214.268C190.825 214.268 191.269 214.104 191.565 213.776C191.869 213.448 192.021 213.052 192.021 212.588C192.021 212.196 191.925 211.876 191.733 211.628C191.549 211.38 191.297 211.196 190.977 211.076C190.665 210.956 190.321 210.896 189.945 210.896H189.321V210.044H189.945C190.489 210.044 190.913 209.92 191.217 209.672C191.529 209.424 191.685 209.076 191.685 208.628C191.685 208.252 191.561 207.944 191.313 207.704C191.073 207.456 190.713 207.332 190.233 207.332C189.769 207.332 189.397 207.472 189.117 207.752C188.837 208.024 188.681 208.368 188.649 208.784H187.629C187.653 208.328 187.773 207.924 187.989 207.572C188.213 207.22 188.517 206.948 188.901 206.756C189.285 206.556 189.729 206.456 190.233 206.456C190.777 206.456 191.229 206.552 191.589 206.744C191.957 206.936 192.233 207.192 192.417 207.512C192.609 207.832 192.705 208.184 192.705 208.568C192.705 208.992 192.589 209.38 192.357 209.732C192.125 210.076 191.777 210.308 191.313 210.428C191.809 210.532 192.221 210.768 192.549 211.136C192.877 211.504 193.041 211.988 193.041 212.588C193.041 213.052 192.933 213.48 192.717 213.872C192.509 214.256 192.197 214.564 191.781 214.796C191.365 215.028 190.849 215.144 190.233 215.144Z" fill="#8F92A1"/>
<rect opacity="0.05" x="149.203" y="9.06787" width="42.7974" height="186.932" rx="6.55133" fill="url(#paint0_linear_943_1112)"/>
<rect opacity="0.1" x="169.492" y="9.06787" width="1.84451" height="186.932" fill="#8F92A1"/>
<path d="M204.741 215.304V208.032L203.385 208.332V207.636L205.077 206.904H205.761V215.304H204.741ZM208.23 215.304L211.566 207.768H206.958V206.904H212.598V207.66L209.298 215.304H208.23ZM213.506 215.364C213.306 215.364 213.138 215.3 213.002 215.172C212.874 215.036 212.81 214.872 212.81 214.68C212.81 214.488 212.874 214.328 213.002 214.2C213.138 214.064 213.306 213.996 213.506 213.996C213.698 213.996 213.858 214.064 213.986 214.2C214.122 214.328 214.19 214.488 214.19 214.68C214.19 214.872 214.122 215.036 213.986 215.172C213.858 215.3 213.698 215.364 213.506 215.364ZM218.357 215.448C217.613 215.448 216.969 215.268 216.425 214.908C215.889 214.54 215.477 214.032 215.189 213.384C214.901 212.728 214.757 211.968 214.757 211.104C214.757 210.24 214.901 209.484 215.189 208.836C215.477 208.18 215.889 207.672 216.425 207.312C216.969 206.944 217.613 206.76 218.357 206.76C219.101 206.76 219.741 206.944 220.277 207.312C220.813 207.672 221.225 208.18 221.513 208.836C221.801 209.484 221.945 210.24 221.945 211.104C221.945 211.968 221.801 212.728 221.513 213.384C221.225 214.032 220.813 214.54 220.277 214.908C219.741 215.268 219.101 215.448 218.357 215.448ZM218.357 214.56C218.845 214.56 219.281 214.424 219.665 214.152C220.057 213.872 220.361 213.476 220.577 212.964C220.801 212.444 220.913 211.824 220.913 211.104C220.913 210.384 220.801 209.768 220.577 209.256C220.361 208.744 220.057 208.352 219.665 208.08C219.281 207.8 218.845 207.66 218.357 207.66C217.861 207.66 217.421 207.8 217.037 208.08C216.653 208.352 216.349 208.744 216.125 209.256C215.901 209.768 215.789 210.384 215.789 211.104C215.789 211.824 215.901 212.444 216.125 212.964C216.349 213.476 216.653 213.872 217.037 214.152C217.421 214.424 217.861 214.56 218.357 214.56ZM226.174 215.448C225.646 215.448 225.194 215.344 224.818 215.136C224.442 214.928 224.142 214.652 223.918 214.308C223.702 213.956 223.57 213.568 223.522 213.144H224.458C224.538 213.6 224.73 213.952 225.034 214.2C225.338 214.448 225.722 214.572 226.186 214.572C226.826 214.572 227.358 214.276 227.782 213.684C228.206 213.084 228.434 212.152 228.466 210.888C228.274 211.264 227.966 211.592 227.542 211.872C227.126 212.144 226.622 212.28 226.03 212.28C225.558 212.28 225.11 212.168 224.686 211.944C224.262 211.72 223.918 211.408 223.654 211.008C223.39 210.6 223.258 210.124 223.258 209.58C223.258 209.108 223.374 208.656 223.606 208.224C223.846 207.792 224.182 207.44 224.614 207.168C225.046 206.896 225.562 206.76 226.162 206.76C226.77 206.76 227.282 206.876 227.698 207.108C228.114 207.332 228.446 207.636 228.694 208.02C228.95 208.404 229.134 208.836 229.246 209.316C229.366 209.788 229.426 210.272 229.426 210.768C229.426 211.696 229.298 212.512 229.042 213.216C228.786 213.912 228.414 214.46 227.926 214.86C227.446 215.252 226.862 215.448 226.174 215.448ZM226.234 211.404C226.61 211.404 226.946 211.32 227.242 211.152C227.538 210.976 227.774 210.744 227.95 210.456C228.126 210.168 228.214 209.856 228.214 209.52C228.214 209.16 228.126 208.84 227.95 208.56C227.774 208.272 227.538 208.048 227.242 207.888C226.946 207.728 226.61 207.648 226.234 207.648C225.858 207.648 225.522 207.728 225.226 207.888C224.93 208.048 224.698 208.272 224.53 208.56C224.362 208.84 224.278 209.164 224.278 209.532C224.278 210.1 224.462 210.556 224.83 210.9C225.206 211.236 225.674 211.404 226.234 211.404ZM230.885 215.364C230.685 215.364 230.517 215.3 230.381 215.172C230.253 215.036 230.189 214.872 230.189 214.68C230.189 214.488 230.253 214.328 230.381 214.2C230.517 214.064 230.685 213.996 230.885 213.996C231.077 213.996 231.237 214.064 231.365 214.2C231.501 214.328 231.569 214.488 231.569 214.68C231.569 214.872 231.501 215.036 231.365 215.172C231.237 215.3 231.077 215.364 230.885 215.364ZM232.809 215.304V214.596C233.377 214.148 233.913 213.696 234.417 213.24C234.929 212.776 235.381 212.32 235.773 211.872C236.173 211.424 236.485 210.984 236.709 210.552C236.941 210.12 237.057 209.704 237.057 209.304C237.057 209.008 237.005 208.732 236.901 208.476C236.805 208.22 236.645 208.016 236.421 207.864C236.197 207.704 235.893 207.624 235.509 207.624C235.141 207.624 234.833 207.708 234.585 207.876C234.337 208.036 234.149 208.252 234.021 208.524C233.901 208.796 233.841 209.088 233.841 209.4H232.869C232.869 208.848 232.985 208.376 233.217 207.984C233.449 207.584 233.765 207.28 234.165 207.072C234.565 206.864 235.017 206.76 235.521 206.76C236.265 206.76 236.873 206.972 237.345 207.396C237.825 207.812 238.065 208.436 238.065 209.268C238.065 209.764 237.941 210.256 237.693 210.744C237.445 211.224 237.129 211.692 236.745 212.148C236.361 212.596 235.949 213.016 235.509 213.408C235.077 213.8 234.673 214.152 234.297 214.464H238.353V215.304H232.809ZM242.424 215.448C241.888 215.448 241.404 215.352 240.972 215.16C240.54 214.96 240.192 214.664 239.928 214.272C239.672 213.88 239.536 213.392 239.52 212.808H240.54C240.548 213.288 240.716 213.704 241.044 214.056C241.372 214.4 241.832 214.572 242.424 214.572C243.016 214.572 243.46 214.408 243.756 214.08C244.06 213.752 244.212 213.356 244.212 212.892C244.212 212.5 244.116 212.18 243.924 211.932C243.74 211.684 243.488 211.5 243.168 211.38C242.856 211.26 242.512 211.2 242.136 211.2H241.512V210.348H242.136C242.68 210.348 243.104 210.224 243.408 209.976C243.72 209.728 243.876 209.38 243.876 208.932C243.876 208.556 243.752 208.248 243.504 208.008C243.264 207.76 242.904 207.636 242.424 207.636C241.96 207.636 241.588 207.776 241.308 208.056C241.028 208.328 240.872 208.672 240.84 209.088H239.82C239.844 208.632 239.964 208.228 240.18 207.876C240.404 207.524 240.708 207.252 241.092 207.06C241.476 206.86 241.92 206.76 242.424 206.76C242.968 206.76 243.42 206.856 243.78 207.048C244.148 207.24 244.424 207.496 244.608 207.816C244.8 208.136 244.896 208.488 244.896 208.872C244.896 209.296 244.78 209.684 244.548 210.036C244.316 210.38 243.968 210.612 243.504 210.732C244 210.836 244.412 211.072 244.74 211.44C245.068 211.808 245.232 212.292 245.232 212.892C245.232 213.356 245.124 213.784 244.908 214.176C244.7 214.56 244.388 214.868 243.972 215.1C243.556 215.332 243.04 215.448 242.424 215.448Z" fill="#8F92A1"/>
<rect x="212.638" y="9" width="23.2026" height="187" fill="white"/>
<rect opacity="0.1" x="224" y="9" width="1" height="187" fill="#8F92A1"/>
<path d="M258.741 215.304V208.032L257.385 208.332V207.636L259.077 206.904H259.761V215.304H258.741ZM262.23 215.304L265.566 207.768H260.958V206.904H266.598V207.66L263.298 215.304H262.23ZM267.506 215.364C267.306 215.364 267.138 215.3 267.002 215.172C266.874 215.036 266.81 214.872 266.81 214.68C266.81 214.488 266.874 214.328 267.002 214.2C267.138 214.064 267.306 213.996 267.506 213.996C267.698 213.996 267.858 214.064 267.986 214.2C268.122 214.328 268.19 214.488 268.19 214.68C268.19 214.872 268.122 215.036 267.986 215.172C267.858 215.3 267.698 215.364 267.506 215.364ZM272.357 215.448C271.613 215.448 270.969 215.268 270.425 214.908C269.889 214.54 269.477 214.032 269.189 213.384C268.901 212.728 268.757 211.968 268.757 211.104C268.757 210.24 268.901 209.484 269.189 208.836C269.477 208.18 269.889 207.672 270.425 207.312C270.969 206.944 271.613 206.76 272.357 206.76C273.101 206.76 273.741 206.944 274.277 207.312C274.813 207.672 275.225 208.18 275.513 208.836C275.801 209.484 275.945 210.24 275.945 211.104C275.945 211.968 275.801 212.728 275.513 213.384C275.225 214.032 274.813 214.54 274.277 214.908C273.741 215.268 273.101 215.448 272.357 215.448ZM272.357 214.56C272.845 214.56 273.281 214.424 273.665 214.152C274.057 213.872 274.361 213.476 274.577 212.964C274.801 212.444 274.913 211.824 274.913 211.104C274.913 210.384 274.801 209.768 274.577 209.256C274.361 208.744 274.057 208.352 273.665 208.08C273.281 207.8 272.845 207.66 272.357 207.66C271.861 207.66 271.421 207.8 271.037 208.08C270.653 208.352 270.349 208.744 270.125 209.256C269.901 209.768 269.789 210.384 269.789 211.104C269.789 211.824 269.901 212.444 270.125 212.964C270.349 213.476 270.653 213.872 271.037 214.152C271.421 214.424 271.861 214.56 272.357 214.56ZM280.174 215.448C279.646 215.448 279.194 215.344 278.818 215.136C278.442 214.928 278.142 214.652 277.918 214.308C277.702 213.956 277.57 213.568 277.522 213.144H278.458C278.538 213.6 278.73 213.952 279.034 214.2C279.338 214.448 279.722 214.572 280.186 214.572C280.826 214.572 281.358 214.276 281.782 213.684C282.206 213.084 282.434 212.152 282.466 210.888C282.274 211.264 281.966 211.592 281.542 211.872C281.126 212.144 280.622 212.28 280.03 212.28C279.558 212.28 279.11 212.168 278.686 211.944C278.262 211.72 277.918 211.408 277.654 211.008C277.39 210.6 277.258 210.124 277.258 209.58C277.258 209.108 277.374 208.656 277.606 208.224C277.846 207.792 278.182 207.44 278.614 207.168C279.046 206.896 279.562 206.76 280.162 206.76C280.77 206.76 281.282 206.876 281.698 207.108C282.114 207.332 282.446 207.636 282.694 208.02C282.95 208.404 283.134 208.836 283.246 209.316C283.366 209.788 283.426 210.272 283.426 210.768C283.426 211.696 283.298 212.512 283.042 213.216C282.786 213.912 282.414 214.46 281.926 214.86C281.446 215.252 280.862 215.448 280.174 215.448ZM280.234 211.404C280.61 211.404 280.946 211.32 281.242 211.152C281.538 210.976 281.774 210.744 281.95 210.456C282.126 210.168 282.214 209.856 282.214 209.52C282.214 209.16 282.126 208.84 281.95 208.56C281.774 208.272 281.538 208.048 281.242 207.888C280.946 207.728 280.61 207.648 280.234 207.648C279.858 207.648 279.522 207.728 279.226 207.888C278.93 208.048 278.698 208.272 278.53 208.56C278.362 208.84 278.278 209.164 278.278 209.532C278.278 210.1 278.462 210.556 278.83 210.9C279.206 211.236 279.674 211.404 280.234 211.404ZM284.885 215.364C284.685 215.364 284.517 215.3 284.381 215.172C284.253 215.036 284.189 214.872 284.189 214.68C284.189 214.488 284.253 214.328 284.381 214.2C284.517 214.064 284.685 213.996 284.885 213.996C285.077 213.996 285.237 214.064 285.365 214.2C285.501 214.328 285.569 214.488 285.569 214.68C285.569 214.872 285.501 215.036 285.365 215.172C285.237 215.3 285.077 215.364 284.885 215.364ZM286.809 215.304V214.596C287.377 214.148 287.913 213.696 288.417 213.24C288.929 212.776 289.381 212.32 289.773 211.872C290.173 211.424 290.485 210.984 290.709 210.552C290.941 210.12 291.057 209.704 291.057 209.304C291.057 209.008 291.005 208.732 290.901 208.476C290.805 208.22 290.645 208.016 290.421 207.864C290.197 207.704 289.893 207.624 289.509 207.624C289.141 207.624 288.833 207.708 288.585 207.876C288.337 208.036 288.149 208.252 288.021 208.524C287.901 208.796 287.841 209.088 287.841 209.4H286.869C286.869 208.848 286.985 208.376 287.217 207.984C287.449 207.584 287.765 207.28 288.165 207.072C288.565 206.864 289.017 206.76 289.521 206.76C290.265 206.76 290.873 206.972 291.345 207.396C291.825 207.812 292.065 208.436 292.065 209.268C292.065 209.764 291.941 210.256 291.693 210.744C291.445 211.224 291.129 211.692 290.745 212.148C290.361 212.596 289.949 213.016 289.509 213.408C289.077 213.8 288.673 214.152 288.297 214.464H292.353V215.304H286.809ZM296.424 215.448C295.888 215.448 295.404 215.352 294.972 215.16C294.54 214.96 294.192 214.664 293.928 214.272C293.672 213.88 293.536 213.392 293.52 212.808H294.54C294.548 213.288 294.716 213.704 295.044 214.056C295.372 214.4 295.832 214.572 296.424 214.572C297.016 214.572 297.46 214.408 297.756 214.08C298.06 213.752 298.212 213.356 298.212 212.892C298.212 212.5 298.116 212.18 297.924 211.932C297.74 211.684 297.488 211.5 297.168 211.38C296.856 211.26 296.512 211.2 296.136 211.2H295.512V210.348H296.136C296.68 210.348 297.104 210.224 297.408 209.976C297.72 209.728 297.876 209.38 297.876 208.932C297.876 208.556 297.752 208.248 297.504 208.008C297.264 207.76 296.904 207.636 296.424 207.636C295.96 207.636 295.588 207.776 295.308 208.056C295.028 208.328 294.872 208.672 294.84 209.088H293.82C293.844 208.632 293.964 208.228 294.18 207.876C294.404 207.524 294.708 207.252 295.092 207.06C295.476 206.86 295.92 206.76 296.424 206.76C296.968 206.76 297.42 206.856 297.78 207.048C298.148 207.24 298.424 207.496 298.608 207.816C298.8 208.136 298.896 208.488 298.896 208.872C298.896 209.296 298.78 209.684 298.548 210.036C298.316 210.38 297.968 210.612 297.504 210.732C298 210.836 298.412 211.072 298.74 211.44C299.068 211.808 299.232 212.292 299.232 212.892C299.232 213.356 299.124 213.784 298.908 214.176C298.7 214.56 298.388 214.868 297.972 215.1C297.556 215.332 297.04 215.448 296.424 215.448Z" fill="#8F92A1"/>
<rect x="266.638" y="9" width="23.2026" height="187" fill="white"/>
<rect opacity="0.1" x="278" y="9" width="1" height="187" fill="#8F92A1"/>
<path d="M23.716 31V23.728L22.36 24.028V23.332L24.052 22.6H24.736V31H23.716ZM26.3771 31V30.292C26.9451 29.844 27.4811 29.392 27.9851 28.936C28.4971 28.472 28.9491 28.016 29.3411 27.568C29.7411 27.12 30.0531 26.68 30.2771 26.248C30.5091 25.816 30.6251 25.4 30.6251 25C30.6251 24.704 30.5731 24.428 30.4691 24.172C30.3731 23.916 30.2131 23.712 29.9891 23.56C29.7651 23.4 29.4611 23.32 29.0771 23.32C28.7091 23.32 28.4011 23.404 28.1531 23.572C27.9051 23.732 27.7171 23.948 27.5891 24.22C27.4691 24.492 27.4091 24.784 27.4091 25.096H26.4371C26.4371 24.544 26.5531 24.072 26.7851 23.68C27.0171 23.28 27.3331 22.976 27.7331 22.768C28.1331 22.56 28.5851 22.456 29.0891 22.456C29.8331 22.456 30.4411 22.668 30.9131 23.092C31.3931 23.508 31.6331 24.132 31.6331 24.964C31.6331 25.46 31.5091 25.952 31.2611 26.44C31.0131 26.92 30.6971 27.388 30.3131 27.844C29.9291 28.292 29.5171 28.712 29.0771 29.104C28.6451 29.496 28.2411 29.848 27.8651 30.16H31.9211V31H26.3771ZM36.5351 31.144C35.7911 31.144 35.1471 30.964 34.6031 30.604C34.0671 30.236 33.6551 29.728 33.3671 29.08C33.0791 28.424 32.9351 27.664 32.9351 26.8C32.9351 25.936 33.0791 25.18 33.3671 24.532C33.6551 23.876 34.0671 23.368 34.6031 23.008C35.1471 22.64 35.7911 22.456 36.5351 22.456C37.2791 22.456 37.9191 22.64 38.4551 23.008C38.9911 23.368 39.4031 23.876 39.6911 24.532C39.9791 25.18 40.1231 25.936 40.1231 26.8C40.1231 27.664 39.9791 28.424 39.6911 29.08C39.4031 29.728 38.9911 30.236 38.4551 30.604C37.9191 30.964 37.2791 31.144 36.5351 31.144ZM36.5351 30.256C37.0231 30.256 37.4591 30.12 37.8431 29.848C38.2351 29.568 38.5391 29.172 38.7551 28.66C38.9791 28.14 39.0911 27.52 39.0911 26.8C39.0911 26.08 38.9791 25.464 38.7551 24.952C38.5391 24.44 38.2351 24.048 37.8431 23.776C37.4591 23.496 37.0231 23.356 36.5351 23.356C36.0391 23.356 35.5991 23.496 35.2151 23.776C34.8311 24.048 34.5271 24.44 34.3031 24.952C34.0791 25.464 33.9671 26.08 33.9671 26.8C33.9671 27.52 34.0791 28.14 34.3031 28.66C34.5271 29.172 34.8311 29.568 35.2151 29.848C35.5991 30.12 36.0391 30.256 36.5351 30.256ZM44.8554 31.144C44.1114 31.144 43.4674 30.964 42.9234 30.604C42.3874 30.236 41.9754 29.728 41.6874 29.08C41.3994 28.424 41.2554 27.664 41.2554 26.8C41.2554 25.936 41.3994 25.18 41.6874 24.532C41.9754 23.876 42.3874 23.368 42.9234 23.008C43.4674 22.64 44.1114 22.456 44.8554 22.456C45.5994 22.456 46.2394 22.64 46.7754 23.008C47.3114 23.368 47.7234 23.876 48.0114 24.532C48.2994 25.18 48.4434 25.936 48.4434 26.8C48.4434 27.664 48.2994 28.424 48.0114 29.08C47.7234 29.728 47.3114 30.236 46.7754 30.604C46.2394 30.964 45.5994 31.144 44.8554 31.144ZM44.8554 30.256C45.3434 30.256 45.7794 30.12 46.1634 29.848C46.5554 29.568 46.8594 29.172 47.0754 28.66C47.2994 28.14 47.4114 27.52 47.4114 26.8C47.4114 26.08 47.2994 25.464 47.0754 24.952C46.8594 24.44 46.5554 24.048 46.1634 23.776C45.7794 23.496 45.3434 23.356 44.8554 23.356C44.3594 23.356 43.9194 23.496 43.5354 23.776C43.1514 24.048 42.8474 24.44 42.6234 24.952C42.3994 25.464 42.2874 26.08 42.2874 26.8C42.2874 27.52 42.3994 28.14 42.6234 28.66C42.8474 29.172 43.1514 29.568 43.5354 29.848C43.9194 30.12 44.3594 30.256 44.8554 30.256Z" fill="#8F92A1"/>
<path d="M23.716 64V56.728L22.36 57.028V56.332L24.052 55.6H24.736V64H23.716ZM26.3771 64V63.292C26.9451 62.844 27.4811 62.392 27.9851 61.936C28.4971 61.472 28.9491 61.016 29.3411 60.568C29.7411 60.12 30.0531 59.68 30.2771 59.248C30.5091 58.816 30.6251 58.4 30.6251 58C30.6251 57.704 30.5731 57.428 30.4691 57.172C30.3731 56.916 30.2131 56.712 29.9891 56.56C29.7651 56.4 29.4611 56.32 29.0771 56.32C28.7091 56.32 28.4011 56.404 28.1531 56.572C27.9051 56.732 27.7171 56.948 27.5891 57.22C27.4691 57.492 27.4091 57.784 27.4091 58.096H26.4371C26.4371 57.544 26.5531 57.072 26.7851 56.68C27.0171 56.28 27.3331 55.976 27.7331 55.768C28.1331 55.56 28.5851 55.456 29.0891 55.456C29.8331 55.456 30.4411 55.668 30.9131 56.092C31.3931 56.508 31.6331 57.132 31.6331 57.964C31.6331 58.46 31.5091 58.952 31.2611 59.44C31.0131 59.92 30.6971 60.388 30.3131 60.844C29.9291 61.292 29.5171 61.712 29.0771 62.104C28.6451 62.496 28.2411 62.848 27.8651 63.16H31.9211V64H26.3771ZM36.5351 64.144C35.7911 64.144 35.1471 63.964 34.6031 63.604C34.0671 63.236 33.6551 62.728 33.3671 62.08C33.0791 61.424 32.9351 60.664 32.9351 59.8C32.9351 58.936 33.0791 58.18 33.3671 57.532C33.6551 56.876 34.0671 56.368 34.6031 56.008C35.1471 55.64 35.7911 55.456 36.5351 55.456C37.2791 55.456 37.9191 55.64 38.4551 56.008C38.9911 56.368 39.4031 56.876 39.6911 57.532C39.9791 58.18 40.1231 58.936 40.1231 59.8C40.1231 60.664 39.9791 61.424 39.6911 62.08C39.4031 62.728 38.9911 63.236 38.4551 63.604C37.9191 63.964 37.2791 64.144 36.5351 64.144ZM36.5351 63.256C37.0231 63.256 37.4591 63.12 37.8431 62.848C38.2351 62.568 38.5391 62.172 38.7551 61.66C38.9791 61.14 39.0911 60.52 39.0911 59.8C39.0911 59.08 38.9791 58.464 38.7551 57.952C38.5391 57.44 38.2351 57.048 37.8431 56.776C37.4591 56.496 37.0231 56.356 36.5351 56.356C36.0391 56.356 35.5991 56.496 35.2151 56.776C34.8311 57.048 34.5271 57.44 34.3031 57.952C34.0791 58.464 33.9671 59.08 33.9671 59.8C33.9671 60.52 34.0791 61.14 34.3031 61.66C34.5271 62.172 34.8311 62.568 35.2151 62.848C35.5991 63.12 36.0391 63.256 36.5351 63.256ZM44.8554 64.144C44.1114 64.144 43.4674 63.964 42.9234 63.604C42.3874 63.236 41.9754 62.728 41.6874 62.08C41.3994 61.424 41.2554 60.664 41.2554 59.8C41.2554 58.936 41.3994 58.18 41.6874 57.532C41.9754 56.876 42.3874 56.368 42.9234 56.008C43.4674 55.64 44.1114 55.456 44.8554 55.456C45.5994 55.456 46.2394 55.64 46.7754 56.008C47.3114 56.368 47.7234 56.876 48.0114 57.532C48.2994 58.18 48.4434 58.936 48.4434 59.8C48.4434 60.664 48.2994 61.424 48.0114 62.08C47.7234 62.728 47.3114 63.236 46.7754 63.604C46.2394 63.964 45.5994 64.144 44.8554 64.144ZM44.8554 63.256C45.3434 63.256 45.7794 63.12 46.1634 62.848C46.5554 62.568 46.8594 62.172 47.0754 61.66C47.2994 61.14 47.4114 60.52 47.4114 59.8C47.4114 59.08 47.2994 58.464 47.0754 57.952C46.8594 57.44 46.5554 57.048 46.1634 56.776C45.7794 56.496 45.3434 56.356 44.8554 56.356C44.3594 56.356 43.9194 56.496 43.5354 56.776C43.1514 57.048 42.8474 57.44 42.6234 57.952C42.3994 58.464 42.2874 59.08 42.2874 59.8C42.2874 60.52 42.3994 61.14 42.6234 61.66C42.8474 62.172 43.1514 62.568 43.5354 62.848C43.9194 63.12 44.3594 63.256 44.8554 63.256Z" fill="#8F92A1"/>
<path d="M23.716 97V89.728L22.36 90.028V89.332L24.052 88.6H24.736V97H23.716ZM26.3771 97V96.292C26.9451 95.844 27.4811 95.392 27.9851 94.936C28.4971 94.472 28.9491 94.016 29.3411 93.568C29.7411 93.12 30.0531 92.68 30.2771 92.248C30.5091 91.816 30.6251 91.4 30.6251 91C30.6251 90.704 30.5731 90.428 30.4691 90.172C30.3731 89.916 30.2131 89.712 29.9891 89.56C29.7651 89.4 29.4611 89.32 29.0771 89.32C28.7091 89.32 28.4011 89.404 28.1531 89.572C27.9051 89.732 27.7171 89.948 27.5891 90.22C27.4691 90.492 27.4091 90.784 27.4091 91.096H26.4371C26.4371 90.544 26.5531 90.072 26.7851 89.68C27.0171 89.28 27.3331 88.976 27.7331 88.768C28.1331 88.56 28.5851 88.456 29.0891 88.456C29.8331 88.456 30.4411 88.668 30.9131 89.092C31.3931 89.508 31.6331 90.132 31.6331 90.964C31.6331 91.46 31.5091 91.952 31.2611 92.44C31.0131 92.92 30.6971 93.388 30.3131 93.844C29.9291 94.292 29.5171 94.712 29.0771 95.104C28.6451 95.496 28.2411 95.848 27.8651 96.16H31.9211V97H26.3771ZM36.5351 97.144C35.7911 97.144 35.1471 96.964 34.6031 96.604C34.0671 96.236 33.6551 95.728 33.3671 95.08C33.0791 94.424 32.9351 93.664 32.9351 92.8C32.9351 91.936 33.0791 91.18 33.3671 90.532C33.6551 89.876 34.0671 89.368 34.6031 89.008C35.1471 88.64 35.7911 88.456 36.5351 88.456C37.2791 88.456 37.9191 88.64 38.4551 89.008C38.9911 89.368 39.4031 89.876 39.6911 90.532C39.9791 91.18 40.1231 91.936 40.1231 92.8C40.1231 93.664 39.9791 94.424 39.6911 95.08C39.4031 95.728 38.9911 96.236 38.4551 96.604C37.9191 96.964 37.2791 97.144 36.5351 97.144ZM36.5351 96.256C37.0231 96.256 37.4591 96.12 37.8431 95.848C38.2351 95.568 38.5391 95.172 38.7551 94.66C38.9791 94.14 39.0911 93.52 39.0911 92.8C39.0911 92.08 38.9791 91.464 38.7551 90.952C38.5391 90.44 38.2351 90.048 37.8431 89.776C37.4591 89.496 37.0231 89.356 36.5351 89.356C36.0391 89.356 35.5991 89.496 35.2151 89.776C34.8311 90.048 34.5271 90.44 34.3031 90.952C34.0791 91.464 33.9671 92.08 33.9671 92.8C33.9671 93.52 34.0791 94.14 34.3031 94.66C34.5271 95.172 34.8311 95.568 35.2151 95.848C35.5991 96.12 36.0391 96.256 36.5351 96.256ZM44.8554 97.144C44.1114 97.144 43.4674 96.964 42.9234 96.604C42.3874 96.236 41.9754 95.728 41.6874 95.08C41.3994 94.424 41.2554 93.664 41.2554 92.8C41.2554 91.936 41.3994 91.18 41.6874 90.532C41.9754 89.876 42.3874 89.368 42.9234 89.008C43.4674 88.64 44.1114 88.456 44.8554 88.456C45.5994 88.456 46.2394 88.64 46.7754 89.008C47.3114 89.368 47.7234 89.876 48.0114 90.532C48.2994 91.18 48.4434 91.936 48.4434 92.8C48.4434 93.664 48.2994 94.424 48.0114 95.08C47.7234 95.728 47.3114 96.236 46.7754 96.604C46.2394 96.964 45.5994 97.144 44.8554 97.144ZM44.8554 96.256C45.3434 96.256 45.7794 96.12 46.1634 95.848C46.5554 95.568 46.8594 95.172 47.0754 94.66C47.2994 94.14 47.4114 93.52 47.4114 92.8C47.4114 92.08 47.2994 91.464 47.0754 90.952C46.8594 90.44 46.5554 90.048 46.1634 89.776C45.7794 89.496 45.3434 89.356 44.8554 89.356C44.3594 89.356 43.9194 89.496 43.5354 89.776C43.1514 90.048 42.8474 90.44 42.6234 90.952C42.3994 91.464 42.2874 92.08 42.2874 92.8C42.2874 93.52 42.3994 94.14 42.6234 94.66C42.8474 95.172 43.1514 95.568 43.5354 95.848C43.9194 96.12 44.3594 96.256 44.8554 96.256Z" fill="#8F92A1"/>
<path d="M25.66 130.144C25.108 130.144 24.612 130.044 24.172 129.844C23.732 129.636 23.384 129.352 23.128 128.992C22.88 128.624 22.756 128.2 22.756 127.72C22.756 127.208 22.904 126.748 23.2 126.34C23.504 125.932 23.904 125.66 24.4 125.524C23.944 125.372 23.592 125.128 23.344 124.792C23.096 124.456 22.972 124.088 22.972 123.688C22.972 123.28 23.08 122.908 23.296 122.572C23.512 122.228 23.82 121.956 24.22 121.756C24.62 121.556 25.1 121.456 25.66 121.456C26.22 121.456 26.7 121.556 27.1 121.756C27.5 121.956 27.808 122.228 28.024 122.572C28.24 122.908 28.348 123.28 28.348 123.688C28.348 124.08 28.224 124.448 27.976 124.792C27.728 125.128 27.376 125.372 26.92 125.524C27.416 125.66 27.812 125.932 28.108 126.34C28.412 126.748 28.564 127.208 28.564 127.72C28.564 128.2 28.436 128.624 28.18 128.992C27.932 129.352 27.588 129.636 27.148 129.844C26.708 130.044 26.212 130.144 25.66 130.144ZM25.66 125.164C26.172 125.164 26.576 125.036 26.872 124.78C27.176 124.516 27.328 124.172 27.328 123.748C27.328 123.276 27.18 122.92 26.884 122.68C26.588 122.44 26.18 122.32 25.66 122.32C25.14 122.32 24.732 122.44 24.436 122.68C24.148 122.92 24.004 123.276 24.004 123.748C24.004 124.172 24.152 124.516 24.448 124.78C24.744 125.036 25.148 125.164 25.66 125.164ZM25.66 129.256C26.292 129.256 26.764 129.112 27.076 128.824C27.396 128.528 27.556 128.14 27.556 127.66C27.556 127.116 27.384 126.704 27.04 126.424C26.696 126.144 26.236 126.004 25.66 126.004C25.084 126.004 24.624 126.144 24.28 126.424C23.936 126.704 23.764 127.116 23.764 127.66C23.764 128.14 23.92 128.528 24.232 128.824C24.552 129.112 25.028 129.256 25.66 129.256ZM33.4882 130.144C32.7442 130.144 32.1002 129.964 31.5562 129.604C31.0202 129.236 30.6082 128.728 30.3202 128.08C30.0322 127.424 29.8882 126.664 29.8882 125.8C29.8882 124.936 30.0322 124.18 30.3202 123.532C30.6082 122.876 31.0202 122.368 31.5562 122.008C32.1002 121.64 32.7442 121.456 33.4882 121.456C34.2322 121.456 34.8722 121.64 35.4082 122.008C35.9442 122.368 36.3562 122.876 36.6442 123.532C36.9322 124.18 37.0762 124.936 37.0762 125.8C37.0762 126.664 36.9322 127.424 36.6442 128.08C36.3562 128.728 35.9442 129.236 35.4082 129.604C34.8722 129.964 34.2322 130.144 33.4882 130.144ZM33.4882 129.256C33.9762 129.256 34.4122 129.12 34.7962 128.848C35.1882 128.568 35.4922 128.172 35.7082 127.66C35.9322 127.14 36.0442 126.52 36.0442 125.8C36.0442 125.08 35.9322 124.464 35.7082 123.952C35.4922 123.44 35.1882 123.048 34.7962 122.776C34.4122 122.496 33.9762 122.356 33.4882 122.356C32.9922 122.356 32.5522 122.496 32.1682 122.776C31.7842 123.048 31.4802 123.44 31.2562 123.952C31.0322 124.464 30.9202 125.08 30.9202 125.8C30.9202 126.52 31.0322 127.14 31.2562 127.66C31.4802 128.172 31.7842 128.568 32.1682 128.848C32.5522 129.12 32.9922 129.256 33.4882 129.256ZM41.8085 130.144C41.0645 130.144 40.4205 129.964 39.8765 129.604C39.3405 129.236 38.9285 128.728 38.6405 128.08C38.3525 127.424 38.2085 126.664 38.2085 125.8C38.2085 124.936 38.3525 124.18 38.6405 123.532C38.9285 122.876 39.3405 122.368 39.8765 122.008C40.4205 121.64 41.0645 121.456 41.8085 121.456C42.5525 121.456 43.1925 121.64 43.7285 122.008C44.2645 122.368 44.6765 122.876 44.9645 123.532C45.2525 124.18 45.3965 124.936 45.3965 125.8C45.3965 126.664 45.2525 127.424 44.9645 128.08C44.6765 128.728 44.2645 129.236 43.7285 129.604C43.1925 129.964 42.5525 130.144 41.8085 130.144ZM41.8085 129.256C42.2965 129.256 42.7325 129.12 43.1165 128.848C43.5085 128.568 43.8125 128.172 44.0285 127.66C44.2525 127.14 44.3645 126.52 44.3645 125.8C44.3645 125.08 44.2525 124.464 44.0285 123.952C43.8125 123.44 43.5085 123.048 43.1165 122.776C42.7325 122.496 42.2965 122.356 41.8085 122.356C41.3125 122.356 40.8725 122.496 40.4885 122.776C40.1045 123.048 39.8005 123.44 39.5765 123.952C39.3525 124.464 39.2405 125.08 39.2405 125.8C39.2405 126.52 39.3525 127.14 39.5765 127.66C39.8005 128.172 40.1045 128.568 40.4885 128.848C40.8725 129.12 41.3125 129.256 41.8085 129.256Z" fill="#8F92A1"/>
<path d="M26.692 163V161.2H22.432V160.42L26.512 154.6H27.688V160.312H28.936V161.2H27.688V163H26.692ZM23.548 160.312H26.74V155.716L23.548 160.312ZM33.4296 163.144C32.6856 163.144 32.0416 162.964 31.4976 162.604C30.9616 162.236 30.5496 161.728 30.2616 161.08C29.9736 160.424 29.8296 159.664 29.8296 158.8C29.8296 157.936 29.9736 157.18 30.2616 156.532C30.5496 155.876 30.9616 155.368 31.4976 155.008C32.0416 154.64 32.6856 154.456 33.4296 154.456C34.1736 154.456 34.8136 154.64 35.3496 155.008C35.8856 155.368 36.2976 155.876 36.5856 156.532C36.8736 157.18 37.0176 157.936 37.0176 158.8C37.0176 159.664 36.8736 160.424 36.5856 161.08C36.2976 161.728 35.8856 162.236 35.3496 162.604C34.8136 162.964 34.1736 163.144 33.4296 163.144ZM33.4296 162.256C33.9176 162.256 34.3536 162.12 34.7376 161.848C35.1296 161.568 35.4336 161.172 35.6496 160.66C35.8736 160.14 35.9856 159.52 35.9856 158.8C35.9856 158.08 35.8736 157.464 35.6496 156.952C35.4336 156.44 35.1296 156.048 34.7376 155.776C34.3536 155.496 33.9176 155.356 33.4296 155.356C32.9336 155.356 32.4936 155.496 32.1096 155.776C31.7256 156.048 31.4216 156.44 31.1976 156.952C30.9736 157.464 30.8616 158.08 30.8616 158.8C30.8616 159.52 30.9736 160.14 31.1976 160.66C31.4216 161.172 31.7256 161.568 32.1096 161.848C32.4936 162.12 32.9336 162.256 33.4296 162.256ZM41.7499 163.144C41.0059 163.144 40.3619 162.964 39.8179 162.604C39.2819 162.236 38.8699 161.728 38.5819 161.08C38.2939 160.424 38.1499 159.664 38.1499 158.8C38.1499 157.936 38.2939 157.18 38.5819 156.532C38.8699 155.876 39.2819 155.368 39.8179 155.008C40.3619 154.64 41.0059 154.456 41.7499 154.456C42.4939 154.456 43.1339 154.64 43.6699 155.008C44.2059 155.368 44.6179 155.876 44.9059 156.532C45.1939 157.18 45.3379 157.936 45.3379 158.8C45.3379 159.664 45.1939 160.424 44.9059 161.08C44.6179 161.728 44.2059 162.236 43.6699 162.604C43.1339 162.964 42.4939 163.144 41.7499 163.144ZM41.7499 162.256C42.2379 162.256 42.6739 162.12 43.0579 161.848C43.4499 161.568 43.7539 161.172 43.9699 160.66C44.1939 160.14 44.3059 159.52 44.3059 158.8C44.3059 158.08 44.1939 157.464 43.9699 156.952C43.7539 156.44 43.4499 156.048 43.0579 155.776C42.6739 155.496 42.2379 155.356 41.7499 155.356C41.2539 155.356 40.8139 155.496 40.4299 155.776C40.0459 156.048 39.7419 156.44 39.5179 156.952C39.2939 157.464 39.1819 158.08 39.1819 158.8C39.1819 159.52 39.2939 160.14 39.5179 160.66C39.7419 161.172 40.0459 161.568 40.4299 161.848C40.8139 162.12 41.2539 162.256 41.7499 162.256Z" fill="#8F92A1"/>
<path d="M26.164 196.144C25.42 196.144 24.776 195.964 24.232 195.604C23.696 195.236 23.284 194.728 22.996 194.08C22.708 193.424 22.564 192.664 22.564 191.8C22.564 190.936 22.708 190.18 22.996 189.532C23.284 188.876 23.696 188.368 24.232 188.008C24.776 187.64 25.42 187.456 26.164 187.456C26.908 187.456 27.548 187.64 28.084 188.008C28.62 188.368 29.032 188.876 29.32 189.532C29.608 190.18 29.752 190.936 29.752 191.8C29.752 192.664 29.608 193.424 29.32 194.08C29.032 194.728 28.62 195.236 28.084 195.604C27.548 195.964 26.908 196.144 26.164 196.144ZM26.164 195.256C26.652 195.256 27.088 195.12 27.472 194.848C27.864 194.568 28.168 194.172 28.384 193.66C28.608 193.14 28.72 192.52 28.72 191.8C28.72 191.08 28.608 190.464 28.384 189.952C28.168 189.44 27.864 189.048 27.472 188.776C27.088 188.496 26.652 188.356 26.164 188.356C25.668 188.356 25.228 188.496 24.844 188.776C24.46 189.048 24.156 189.44 23.932 189.952C23.708 190.464 23.596 191.08 23.596 191.8C23.596 192.52 23.708 193.14 23.932 193.66C24.156 194.172 24.46 194.568 24.844 194.848C25.228 195.12 25.668 195.256 26.164 195.256Z" fill="#8F92A1"/>
<path d="M61 194.849C61 194.849 111.655 126 112.116 126C112.515 126 149.709 143.337 159.506 147.907C161.023 148.614 162.735 148.706 164.323 148.18L211.584 132.5L260.857 91L299.54 126" stroke="#3281FF" stroke-opacity="0.45" stroke-width="1.5" stroke-linecap="round" stroke-linejoin="round" stroke-dasharray="2.18 2.18"/>
<path d="M62.3815 125.5C62.3815 125.5 111.655 93.5 112.116 93.5C112.51 93.5 148.391 99.7383 158.668 101.526C160.423 101.832 161.952 102.834 162.949 104.311L210.663 175L261.318 127.5L299.54 46" stroke="#B40000" stroke-opacity="0.45" stroke-width="1.5" stroke-linecap="round" stroke-linejoin="round" stroke-dasharray="2.18 2.18"/>
<path d="M61.921 166L111.709 126.324C111.98 126.108 112.202 125.906 112.435 125.65C116.577 121.114 159.658 74 161.85 74C164.152 74 211.123 189.5 211.123 189.5L261.318 107.5L299.54 95" stroke="#FF8A00" stroke-opacity="0.45" stroke-width="1.5" stroke-linecap="round" stroke-linejoin="round" stroke-dasharray="2.18 2.18"/>
<path d="M63.188 194.5L112.576 150.5L162.31 114L211.123 103L261.318 143.5L300 175.5" stroke="#138600" stroke-width="1.5" stroke-linecap="round" stroke-linejoin="round"/>
<g filter="url(#filter0_d_943_1112)">
<ellipse cx="170.705" cy="114.31" rx="3.47887" ry="3.47853" fill="#5243AA"/>
<path d="M173.092 114.31C173.092 115.628 172.023 116.696 170.705 116.696C169.386 116.696 168.318 115.628 168.318 114.31C168.318 112.992 169.386 111.923 170.705 111.923C172.023 111.923 173.092 112.992 173.092 114.31Z" stroke="white" stroke-width="2.18378"/>
</g>
<rect x="130" y="40" width="81" height="50" rx="5.62977" fill="#DDDDDD" fill-opacity="0.33" stroke="url(#paint1_linear_943_1112)" stroke-width="0.703721"/>
<path d="M141.233 59.5684V58.4524C141.745 58.0284 142.241 57.6084 142.721 57.1924C143.209 56.7764 143.641 56.3644 144.017 55.9564C144.401 55.5484 144.705 55.1524 144.929 54.7684C145.161 54.3764 145.277 53.9964 145.277 53.6284C145.277 53.2844 145.181 52.9804 144.989 52.7164C144.805 52.4524 144.497 52.3204 144.065 52.3204C143.625 52.3204 143.293 52.4644 143.069 52.7524C142.845 53.0404 142.733 53.3884 142.733 53.7964H141.245C141.261 53.1804 141.397 52.6684 141.653 52.2604C141.909 51.8444 142.249 51.5364 142.673 51.3364C143.097 51.1284 143.573 51.0244 144.101 51.0244C144.957 51.0244 145.621 51.2604 146.093 51.7324C146.573 52.1964 146.813 52.8004 146.813 53.5444C146.813 54.0084 146.705 54.4604 146.489 54.9004C146.281 55.3404 146.005 55.7644 145.661 56.1724C145.317 56.5804 144.945 56.9644 144.545 57.3244C144.145 57.6764 143.757 58.0044 143.381 58.3084H147.017V59.5684H141.233ZM150.657 59.7124C150.105 59.7124 149.605 59.6164 149.157 59.4244C148.709 59.2244 148.349 58.9204 148.077 58.5124C147.805 58.1044 147.661 57.5924 147.645 56.9764H149.157C149.165 57.3844 149.297 57.7284 149.553 58.0084C149.817 58.2804 150.185 58.4164 150.657 58.4164C151.105 58.4164 151.449 58.2924 151.689 58.0444C151.929 57.7964 152.049 57.4844 152.049 57.1084C152.049 56.6684 151.889 56.3364 151.569 56.1124C151.257 55.8804 150.853 55.7644 150.357 55.7644H149.733V54.5044H150.369C150.777 54.5044 151.117 54.4084 151.389 54.2164C151.661 54.0244 151.797 53.7404 151.797 53.3644C151.797 53.0524 151.693 52.8044 151.485 52.6204C151.285 52.4284 151.005 52.3324 150.645 52.3324C150.253 52.3324 149.945 52.4484 149.721 52.6804C149.505 52.9124 149.385 53.1964 149.361 53.5324H147.861C147.893 52.7564 148.161 52.1444 148.665 51.6964C149.177 51.2484 149.837 51.0244 150.645 51.0244C151.221 51.0244 151.705 51.1284 152.097 51.3364C152.497 51.5364 152.797 51.8044 152.997 52.1404C153.205 52.4764 153.309 52.8484 153.309 53.2564C153.309 53.7284 153.177 54.1284 152.913 54.4564C152.657 54.7764 152.337 54.9924 151.953 55.1044C152.425 55.2004 152.809 55.4324 153.105 55.8004C153.401 56.1604 153.549 56.6164 153.549 57.1684C153.549 57.6324 153.437 58.0564 153.213 58.4404C152.989 58.8244 152.661 59.1324 152.229 59.3644C151.805 59.5964 151.281 59.7124 150.657 59.7124ZM155.299 59.6524C155.019 59.6524 154.787 59.5644 154.603 59.3884C154.427 59.2124 154.339 59.0004 154.339 58.7524C154.339 58.4964 154.427 58.2804 154.603 58.1044C154.787 57.9284 155.019 57.8404 155.299 57.8404C155.579 57.8404 155.807 57.9284 155.983 58.1044C156.167 58.2804 156.259 58.4964 156.259 58.7524C156.259 59.0004 156.167 59.2124 155.983 59.3884C155.807 59.5644 155.579 59.6524 155.299 59.6524ZM160.138 59.7124C159.362 59.7124 158.698 59.5324 158.146 59.1724C157.594 58.8044 157.166 58.2964 156.862 57.6484C156.566 56.9924 156.418 56.2324 156.418 55.3684C156.418 54.5124 156.566 53.7564 156.862 53.1004C157.166 52.4444 157.594 51.9364 158.146 51.5764C158.698 51.2084 159.362 51.0244 160.138 51.0244C160.914 51.0244 161.578 51.2084 162.13 51.5764C162.682 51.9364 163.106 52.4444 163.402 53.1004C163.706 53.7564 163.858 54.5124 163.858 55.3684C163.858 56.2324 163.706 56.9924 163.402 57.6484C163.106 58.2964 162.682 58.8044 162.13 59.1724C161.578 59.5324 160.914 59.7124 160.138 59.7124ZM160.138 58.3324C160.77 58.3324 161.286 58.0684 161.686 57.5404C162.086 57.0124 162.286 56.2884 162.286 55.3684C162.286 54.4484 162.086 53.7244 161.686 53.1964C161.286 52.6684 160.77 52.4044 160.138 52.4044C159.498 52.4044 158.978 52.6684 158.578 53.1964C158.186 53.7244 157.99 54.4484 157.99 55.3684C157.99 56.2884 158.186 57.0124 158.578 57.5404C158.978 58.0684 159.498 58.3324 160.138 58.3324ZM167.698 59.7124C167.114 59.7124 166.622 59.6004 166.222 59.3764C165.822 59.1444 165.51 58.8444 165.286 58.4764C165.062 58.1084 164.93 57.7124 164.89 57.2884H166.318C166.382 57.6564 166.534 57.9404 166.774 58.1404C167.022 58.3404 167.334 58.4404 167.71 58.4404C168.246 58.4404 168.678 58.1964 169.006 57.7084C169.334 57.2124 169.51 56.4604 169.534 55.4524C169.342 55.7804 169.05 56.0524 168.658 56.2684C168.274 56.4844 167.85 56.5924 167.386 56.5924C166.922 56.5924 166.486 56.4804 166.078 56.2564C165.67 56.0324 165.338 55.7164 165.082 55.3084C164.826 54.9004 164.698 54.4204 164.698 53.8684C164.698 53.3644 164.822 52.8964 165.07 52.4644C165.318 52.0324 165.662 51.6844 166.102 51.4204C166.542 51.1564 167.058 51.0244 167.65 51.0244C168.282 51.0244 168.814 51.1404 169.246 51.3724C169.678 51.6044 170.022 51.9164 170.278 52.3084C170.542 52.7004 170.73 53.1364 170.842 53.6164C170.962 54.0964 171.022 54.5884 171.022 55.0924C171.022 56.0284 170.89 56.8444 170.626 57.5404C170.37 58.2284 169.99 58.7644 169.486 59.1484C168.99 59.5244 168.394 59.7124 167.698 59.7124ZM167.746 55.2964C168.042 55.2964 168.31 55.2324 168.55 55.1044C168.79 54.9684 168.978 54.7924 169.114 54.5764C169.25 54.3524 169.318 54.1044 169.318 53.8324C169.318 53.4004 169.166 53.0444 168.862 52.7644C168.566 52.4844 168.19 52.3444 167.734 52.3444C167.286 52.3444 166.914 52.4844 166.618 52.7644C166.322 53.0364 166.174 53.3844 166.174 53.8084C166.174 54.2564 166.322 54.6164 166.618 54.8884C166.914 55.1604 167.29 55.2964 167.746 55.2964ZM172.314 59.6524C172.034 59.6524 171.802 59.5644 171.618 59.3884C171.442 59.2124 171.354 59.0004 171.354 58.7524C171.354 58.4964 171.442 58.2804 171.618 58.1044C171.802 57.9284 172.034 57.8404 172.314 57.8404C172.594 57.8404 172.822 57.9284 172.998 58.1044C173.182 58.2804 173.274 58.4964 173.274 58.7524C173.274 59.0004 173.182 59.2124 172.998 59.3884C172.822 59.5644 172.594 59.6524 172.314 59.6524ZM173.985 59.5684V58.4524C174.497 58.0284 174.993 57.6084 175.473 57.1924C175.961 56.7764 176.393 56.3644 176.769 55.9564C177.153 55.5484 177.457 55.1524 177.681 54.7684C177.913 54.3764 178.029 53.9964 178.029 53.6284C178.029 53.2844 177.933 52.9804 177.741 52.7164C177.557 52.4524 177.249 52.3204 176.817 52.3204C176.377 52.3204 176.045 52.4644 175.821 52.7524C175.597 53.0404 175.485 53.3884 175.485 53.7964H173.997C174.013 53.1804 174.149 52.6684 174.405 52.2604C174.661 51.8444 175.001 51.5364 175.425 51.3364C175.849 51.1284 176.325 51.0244 176.853 51.0244C177.709 51.0244 178.373 51.2604 178.845 51.7324C179.325 52.1964 179.565 52.8004 179.565 53.5444C179.565 54.0084 179.457 54.4604 179.241 54.9004C179.033 55.3404 178.757 55.7644 178.413 56.1724C178.069 56.5804 177.697 56.9644 177.297 57.3244C176.897 57.6764 176.509 58.0044 176.133 58.3084H179.769V59.5684H173.985ZM184.047 59.7124C183.271 59.7124 182.607 59.5324 182.055 59.1724C181.503 58.8044 181.075 58.2964 180.771 57.6484C180.475 56.9924 180.327 56.2324 180.327 55.3684C180.327 54.5124 180.475 53.7564 180.771 53.1004C181.075 52.4444 181.503 51.9364 182.055 51.5764C182.607 51.2084 183.271 51.0244 184.047 51.0244C184.823 51.0244 185.487 51.2084 186.039 51.5764C186.591 51.9364 187.015 52.4444 187.311 53.1004C187.615 53.7564 187.767 54.5124 187.767 55.3684C187.767 56.2324 187.615 56.9924 187.311 57.6484C187.015 58.2964 186.591 58.8044 186.039 59.1724C185.487 59.5324 184.823 59.7124 184.047 59.7124ZM184.047 58.3324C184.679 58.3324 185.195 58.0684 185.595 57.5404C185.995 57.0124 186.195 56.2884 186.195 55.3684C186.195 54.4484 185.995 53.7244 185.595 53.1964C185.195 52.6684 184.679 52.4044 184.047 52.4044C183.407 52.4044 182.887 52.6684 182.487 53.1964C182.095 53.7244 181.899 54.4484 181.899 55.3684C181.899 56.2884 182.095 57.0124 182.487 57.5404C182.887 58.0684 183.407 58.3324 184.047 58.3324ZM188.477 59.5684V58.4524C188.989 58.0284 189.485 57.6084 189.965 57.1924C190.453 56.7764 190.885 56.3644 191.261 55.9564C191.645 55.5484 191.949 55.1524 192.173 54.7684C192.405 54.3764 192.521 53.9964 192.521 53.6284C192.521 53.2844 192.425 52.9804 192.233 52.7164C192.049 52.4524 191.741 52.3204 191.309 52.3204C190.869 52.3204 190.537 52.4644 190.313 52.7524C190.089 53.0404 189.977 53.3884 189.977 53.7964H188.489C188.505 53.1804 188.641 52.6684 188.897 52.2604C189.153 51.8444 189.493 51.5364 189.917 51.3364C190.341 51.1284 190.817 51.0244 191.345 51.0244C192.201 51.0244 192.865 51.2604 193.337 51.7324C193.817 52.1964 194.057 52.8004 194.057 53.5444C194.057 54.0084 193.949 54.4604 193.733 54.9004C193.525 55.3404 193.249 55.7644 192.905 56.1724C192.561 56.5804 192.189 56.9644 191.789 57.3244C191.389 57.6764 191.001 58.0044 190.625 58.3084H194.261V59.5684H188.477ZM197.902 59.7124C197.35 59.7124 196.85 59.6164 196.402 59.4244C195.954 59.2244 195.594 58.9204 195.322 58.5124C195.05 58.1044 194.906 57.5924 194.89 56.9764H196.402C196.41 57.3844 196.542 57.7284 196.798 58.0084C197.062 58.2804 197.43 58.4164 197.902 58.4164C198.35 58.4164 198.694 58.2924 198.934 58.0444C199.174 57.7964 199.294 57.4844 199.294 57.1084C199.294 56.6684 199.134 56.3364 198.814 56.1124C198.502 55.8804 198.098 55.7644 197.602 55.7644H196.978V54.5044H197.614C198.022 54.5044 198.362 54.4084 198.634 54.2164C198.906 54.0244 199.042 53.7404 199.042 53.3644C199.042 53.0524 198.938 52.8044 198.73 52.6204C198.53 52.4284 198.25 52.3324 197.89 52.3324C197.498 52.3324 197.19 52.4484 196.966 52.6804C196.75 52.9124 196.63 53.1964 196.606 53.5324H195.106C195.138 52.7564 195.406 52.1444 195.91 51.6964C196.422 51.2484 197.082 51.0244 197.89 51.0244C198.466 51.0244 198.95 51.1284 199.342 51.3364C199.742 51.5364 200.042 51.8044 200.242 52.1404C200.45 52.4764 200.554 52.8484 200.554 53.2564C200.554 53.7284 200.422 54.1284 200.158 54.4564C199.902 54.7764 199.582 54.9924 199.198 55.1044C199.67 55.2004 200.054 55.4324 200.35 55.8004C200.646 56.1604 200.794 56.6164 200.794 57.1684C200.794 57.6324 200.682 58.0564 200.458 58.4404C200.234 58.8244 199.906 59.1324 199.474 59.3644C199.05 59.5964 198.526 59.7124 197.902 59.7124Z" fill="#8F92A1"/>
<path d="M160.869 82.576C160.139 82.576 159.524 82.436 159.024 82.156C158.524 81.866 158.134 81.491 157.854 81.031C157.574 80.571 157.409 80.076 157.359 79.546H159.144C159.224 80.006 159.414 80.361 159.714 80.611C160.024 80.861 160.414 80.986 160.884 80.986C161.554 80.986 162.094 80.681 162.504 80.071C162.914 79.451 163.134 78.511 163.164 77.251C162.924 77.661 162.559 78.001 162.069 78.271C161.589 78.541 161.059 78.676 160.479 78.676C159.899 78.676 159.354 78.536 158.844 78.256C158.334 77.976 157.919 77.581 157.599 77.071C157.279 76.561 157.119 75.961 157.119 75.271C157.119 74.641 157.274 74.056 157.584 73.516C157.894 72.976 158.324 72.541 158.874 72.211C159.424 71.881 160.069 71.716 160.809 71.716C161.599 71.716 162.264 71.861 162.804 72.151C163.344 72.441 163.774 72.831 164.094 73.321C164.424 73.811 164.659 74.356 164.799 74.956C164.949 75.556 165.024 76.171 165.024 76.801C165.024 77.971 164.859 78.991 164.529 79.861C164.209 80.721 163.734 81.391 163.104 81.871C162.484 82.341 161.739 82.576 160.869 82.576ZM160.929 77.056C161.299 77.056 161.634 76.976 161.934 76.816C162.234 76.646 162.469 76.426 162.639 76.156C162.809 75.876 162.894 75.566 162.894 75.226C162.894 74.686 162.704 74.241 162.324 73.891C161.954 73.541 161.484 73.366 160.914 73.366C160.354 73.366 159.889 73.541 159.519 73.891C159.149 74.231 158.964 74.666 158.964 75.196C158.964 75.756 159.149 76.206 159.519 76.546C159.889 76.886 160.359 77.056 160.929 77.056ZM170.713 82.576C169.743 82.576 168.913 82.351 168.223 81.901C167.533 81.441 166.998 80.806 166.618 79.996C166.248 79.176 166.063 78.226 166.063 77.146C166.063 76.076 166.248 75.131 166.618 74.311C166.998 73.491 167.533 72.856 168.223 72.406C168.913 71.946 169.743 71.716 170.713 71.716C171.683 71.716 172.513 71.946 173.203 72.406C173.893 72.856 174.423 73.491 174.793 74.311C175.173 75.131 175.363 76.076 175.363 77.146C175.363 78.226 175.173 79.176 174.793 79.996C174.423 80.806 173.893 81.441 173.203 81.901C172.513 82.351 171.683 82.576 170.713 82.576ZM170.713 80.851C171.503 80.851 172.148 80.521 172.648 79.861C173.148 79.201 173.398 78.296 173.398 77.146C173.398 75.996 173.148 75.091 172.648 74.431C172.148 73.771 171.503 73.441 170.713 73.441C169.913 73.441 169.263 73.771 168.763 74.431C168.273 75.091 168.028 75.996 168.028 77.146C168.028 78.296 168.273 79.201 168.763 79.861C169.263 80.521 169.913 80.851 170.713 80.851ZM180.439 82.576C179.669 82.576 179.004 82.441 178.444 82.171C177.894 81.901 177.459 81.531 177.139 81.061C176.829 80.581 176.649 80.041 176.599 79.441H178.474C178.564 79.871 178.784 80.231 179.134 80.521C179.484 80.801 179.919 80.941 180.439 80.941C180.999 80.941 181.454 80.736 181.804 80.326C182.164 79.916 182.344 79.406 182.344 78.796C182.344 78.166 182.164 77.666 181.804 77.296C181.454 76.926 181.009 76.741 180.469 76.741C180.019 76.741 179.629 76.851 179.299 77.071C178.969 77.291 178.734 77.566 178.594 77.896H176.749L177.649 71.896H183.469V73.576H179.089L178.609 76.006C178.829 75.766 179.129 75.571 179.509 75.421C179.889 75.261 180.314 75.181 180.784 75.181C181.534 75.181 182.159 75.351 182.659 75.691C183.159 76.021 183.539 76.461 183.799 77.011C184.059 77.551 184.189 78.141 184.189 78.781C184.189 79.511 184.029 80.161 183.709 80.731C183.399 81.301 182.959 81.751 182.389 82.081C181.829 82.411 181.179 82.576 180.439 82.576Z" fill="#171717"/>
<circle cx="47.2861" cy="246.286" r="6.28605" fill="#3281FF"/>
<path d="M69.5121 245.49C69.5121 246.154 69.4281 246.758 69.2601 247.302C69.0921 247.838 68.8401 248.302 68.5041 248.694C68.1761 249.086 67.7641 249.386 67.2681 249.594C66.7801 249.802 66.2121 249.906 65.5641 249.906C64.8921 249.906 64.3081 249.802 63.8121 249.594C63.3161 249.378 62.9041 249.078 62.5761 248.694C62.2481 248.302 62.0041 247.834 61.8441 247.29C61.6841 246.746 61.6041 246.142 61.6041 245.478C61.6041 244.598 61.7481 243.83 62.0361 243.174C62.3241 242.518 62.7601 242.006 63.3441 241.638C63.9361 241.27 64.6801 241.086 65.5761 241.086C66.4321 241.086 67.1521 241.27 67.7361 241.638C68.3201 241.998 68.7601 242.51 69.0561 243.174C69.3601 243.83 69.5121 244.602 69.5121 245.49ZM62.7441 245.49C62.7441 246.21 62.8441 246.83 63.0441 247.35C63.2441 247.87 63.5521 248.27 63.9681 248.55C64.3921 248.83 64.9241 248.97 65.5641 248.97C66.2121 248.97 66.7401 248.83 67.1481 248.55C67.5641 248.27 67.8721 247.87 68.0721 247.35C68.2721 246.83 68.3721 246.21 68.3721 245.49C68.3721 244.41 68.1481 243.566 67.7001 242.958C67.2521 242.342 66.5441 242.034 65.5761 242.034C64.9281 242.034 64.3921 242.174 63.9681 242.454C63.5521 242.726 63.2441 243.122 63.0441 243.642C62.8441 244.154 62.7441 244.77 62.7441 245.49ZM72.0288 245.694C72.0288 246.07 72.1328 246.35 72.3408 246.534C72.5568 246.71 72.8648 246.798 73.2648 246.798C73.6648 246.798 74.0288 246.738 74.3568 246.618C74.6848 246.49 75.0208 246.322 75.3648 246.114V243.354H76.4208V249.786H75.3648V246.918C75.0048 247.15 74.6488 247.334 74.2968 247.47C73.9528 247.598 73.5368 247.662 73.0488 247.662C72.3928 247.662 71.8808 247.49 71.5128 247.146C71.1528 246.802 70.9728 246.342 70.9728 245.766V243.354H72.0288V245.694ZM82.106 243.354H83.258L80.51 246.45L83.486 249.786H82.262L79.358 246.522V249.786H78.302V243.354H79.358V246.474L82.106 243.354ZM85.4873 247.278C85.4873 247.35 85.4833 247.454 85.4753 247.59C85.4753 247.718 85.4713 247.858 85.4633 248.01C85.4553 248.154 85.4473 248.294 85.4393 248.43C85.4313 248.558 85.4233 248.662 85.4153 248.742L88.8593 243.354H90.1553V249.786H89.1713V245.994C89.1713 245.866 89.1713 245.698 89.1713 245.49C89.1793 245.282 89.1873 245.078 89.1953 244.878C89.2033 244.67 89.2113 244.514 89.2193 244.41L85.7993 249.786H84.4913V243.354H85.4873V247.278Z" fill="#636363" fill-opacity="0.58"/>
<circle cx="144.158" cy="246.286" r="6.28605" fill="#009B72"/>
<path d="M158.908 249.786V241.218H165.34V249.786H164.272V242.166H159.988V249.786H158.908ZM170.439 243.234C171.231 243.234 171.867 243.51 172.347 244.062C172.835 244.614 173.079 245.446 173.079 246.558C173.079 247.286 172.967 247.902 172.743 248.406C172.527 248.902 172.219 249.278 171.819 249.534C171.427 249.782 170.963 249.906 170.427 249.906C170.099 249.906 169.807 249.862 169.551 249.774C169.295 249.686 169.075 249.574 168.891 249.438C168.715 249.294 168.563 249.138 168.435 248.97H168.363C168.379 249.106 168.395 249.278 168.411 249.486C168.427 249.694 168.435 249.874 168.435 250.026V252.666H167.379V243.354H168.243L168.387 244.23H168.435C168.563 244.046 168.715 243.878 168.891 243.726C169.075 243.574 169.291 243.454 169.539 243.366C169.795 243.278 170.095 243.234 170.439 243.234ZM170.247 244.122C169.815 244.122 169.467 244.206 169.203 244.374C168.939 244.534 168.747 244.778 168.627 245.106C168.507 245.434 168.443 245.85 168.435 246.354V246.558C168.435 247.086 168.491 247.534 168.603 247.902C168.715 248.27 168.903 248.55 169.167 248.742C169.439 248.934 169.807 249.03 170.271 249.03C170.663 249.03 170.983 248.922 171.231 248.706C171.487 248.49 171.675 248.198 171.795 247.83C171.923 247.454 171.987 247.026 171.987 246.546C171.987 245.81 171.843 245.222 171.555 244.782C171.275 244.342 170.839 244.122 170.247 244.122ZM177.036 243.246C177.82 243.246 178.4 243.418 178.776 243.762C179.152 244.106 179.34 244.654 179.34 245.406V249.786H178.572L178.368 248.874H178.32C178.136 249.106 177.944 249.302 177.744 249.462C177.552 249.614 177.328 249.726 177.072 249.798C176.824 249.87 176.52 249.906 176.16 249.906C175.776 249.906 175.428 249.838 175.116 249.702C174.812 249.566 174.572 249.358 174.396 249.078C174.22 248.79 174.132 248.43 174.132 247.998C174.132 247.358 174.384 246.866 174.888 246.522C175.392 246.17 176.168 245.978 177.216 245.946L178.308 245.91V245.526C178.308 244.99 178.192 244.618 177.96 244.41C177.728 244.202 177.4 244.098 176.976 244.098C176.64 244.098 176.32 244.15 176.016 244.254C175.712 244.35 175.428 244.462 175.164 244.59L174.84 243.798C175.12 243.646 175.452 243.518 175.836 243.414C176.22 243.302 176.62 243.246 177.036 243.246ZM177.348 246.678C176.548 246.71 175.992 246.838 175.68 247.062C175.376 247.286 175.224 247.602 175.224 248.01C175.224 248.37 175.332 248.634 175.548 248.802C175.772 248.97 176.056 249.054 176.4 249.054C176.944 249.054 177.396 248.906 177.756 248.61C178.116 248.306 178.296 247.842 178.296 247.218V246.642L177.348 246.678ZM186.336 244.974C186.336 245.374 186.216 245.686 185.976 245.91C185.736 246.134 185.428 246.286 185.052 246.366V246.414C185.452 246.47 185.8 246.614 186.096 246.846C186.392 247.07 186.54 247.422 186.54 247.902C186.54 248.174 186.488 248.426 186.384 248.658C186.288 248.89 186.136 249.09 185.928 249.258C185.72 249.426 185.452 249.558 185.124 249.654C184.796 249.742 184.4 249.786 183.936 249.786H181.164V243.354H183.924C184.38 243.354 184.788 243.406 185.148 243.51C185.516 243.606 185.804 243.774 186.012 244.014C186.228 244.246 186.336 244.566 186.336 244.974ZM185.448 247.902C185.448 247.534 185.308 247.27 185.028 247.11C184.748 246.95 184.336 246.87 183.792 246.87H182.22V248.934H183.816C184.344 248.934 184.748 248.858 185.028 248.706C185.308 248.546 185.448 248.278 185.448 247.902ZM185.268 245.106C185.268 244.802 185.156 244.582 184.932 244.446C184.716 244.302 184.36 244.23 183.864 244.23H182.22V245.994H183.672C184.192 245.994 184.588 245.922 184.86 245.778C185.132 245.634 185.268 245.41 185.268 245.106ZM188.912 247.278C188.912 247.35 188.908 247.454 188.9 247.59C188.9 247.718 188.896 247.858 188.888 248.01C188.88 248.154 188.872 248.294 188.864 248.43C188.856 248.558 188.848 248.662 188.84 248.742L192.284 243.354H193.58V249.786H192.596V245.994C192.596 245.866 192.596 245.698 192.596 245.49C192.604 245.282 192.612 245.078 192.62 244.878C192.628 244.67 192.636 244.514 192.644 244.41L189.224 249.786H187.916V243.354H188.912V247.278ZM200.361 249.786H199.293V244.23H197.397C197.317 245.246 197.217 246.114 197.097 246.834C196.977 247.546 196.825 248.126 196.641 248.574C196.457 249.022 196.237 249.35 195.981 249.558C195.725 249.766 195.425 249.87 195.081 249.87C194.977 249.87 194.873 249.862 194.769 249.846C194.673 249.838 194.593 249.818 194.529 249.786V248.994C194.577 249.01 194.629 249.022 194.685 249.03C194.741 249.038 194.797 249.042 194.853 249.042C195.029 249.042 195.189 248.97 195.333 248.826C195.477 248.682 195.605 248.462 195.717 248.166C195.837 247.87 195.945 247.498 196.041 247.05C196.137 246.594 196.221 246.058 196.293 245.442C196.365 244.826 196.429 244.13 196.485 243.354H200.361V249.786ZM205.204 245.994C205.764 245.994 206.228 246.062 206.596 246.198C206.964 246.334 207.24 246.538 207.424 246.81C207.616 247.074 207.712 247.41 207.712 247.818C207.712 248.218 207.62 248.566 207.436 248.862C207.26 249.158 206.984 249.386 206.608 249.546C206.232 249.706 205.748 249.786 205.156 249.786H202.24V243.354H203.296V245.994H205.204ZM206.656 247.878C206.656 247.486 206.516 247.222 206.236 247.086C205.964 246.942 205.58 246.87 205.084 246.87H203.296V248.934H205.108C205.556 248.934 205.924 248.854 206.212 248.694C206.508 248.534 206.656 248.262 206.656 247.878ZM210.259 243.354V246.03H213.751V243.354H214.807V249.786H213.751V246.918H210.259V249.786H209.203V243.354H210.259ZM216.681 249.786V243.354H217.737V245.994H219.405C219.965 245.994 220.425 246.062 220.785 246.198C221.145 246.334 221.413 246.538 221.589 246.81C221.765 247.074 221.853 247.41 221.853 247.818C221.853 248.218 221.765 248.566 221.589 248.862C221.421 249.158 221.153 249.386 220.785 249.546C220.425 249.706 219.949 249.786 219.357 249.786H216.681ZM219.261 248.934C219.717 248.934 220.089 248.858 220.377 248.706C220.665 248.546 220.809 248.27 220.809 247.878C220.809 247.486 220.677 247.222 220.413 247.086C220.149 246.942 219.769 246.87 219.273 246.87H217.737V248.934H219.261ZM222.921 249.786V243.354H223.977V249.786H222.921ZM227.383 246.498L225.163 243.354H226.363L228.019 245.778L229.663 243.354H230.851L228.631 246.498L230.971 249.786H229.771L228.019 247.218L226.243 249.786H225.055L227.383 246.498ZM240.654 246.558C240.654 247.094 240.582 247.57 240.438 247.986C240.302 248.394 240.102 248.742 239.838 249.03C239.582 249.318 239.266 249.538 238.89 249.69C238.522 249.834 238.11 249.906 237.654 249.906C237.23 249.906 236.838 249.834 236.478 249.69C236.118 249.538 235.806 249.318 235.542 249.03C235.278 248.742 235.07 248.394 234.918 247.986C234.774 247.57 234.702 247.094 234.702 246.558C234.702 245.846 234.822 245.246 235.062 244.758C235.302 244.262 235.646 243.886 236.094 243.63C236.542 243.366 237.074 243.234 237.69 243.234C238.274 243.234 238.786 243.366 239.226 243.63C239.674 243.886 240.022 244.262 240.27 244.758C240.526 245.246 240.654 245.846 240.654 246.558ZM235.794 246.558C235.794 247.062 235.858 247.502 235.986 247.878C236.122 248.246 236.33 248.53 236.61 248.73C236.89 248.93 237.246 249.03 237.678 249.03C238.11 249.03 238.466 248.93 238.746 248.73C239.026 248.53 239.23 248.246 239.358 247.878C239.494 247.502 239.562 247.062 239.562 246.558C239.562 246.046 239.494 245.61 239.358 245.25C239.222 244.89 239.014 244.614 238.734 244.422C238.462 244.222 238.106 244.122 237.666 244.122C237.01 244.122 236.534 244.338 236.238 244.77C235.942 245.202 235.794 245.798 235.794 246.558ZM246.488 244.242H244.388V249.786H243.344V244.242H241.268V243.354H246.488V244.242ZM252.765 244.974C252.765 245.374 252.645 245.686 252.405 245.91C252.165 246.134 251.857 246.286 251.481 246.366V246.414C251.881 246.47 252.229 246.614 252.525 246.846C252.821 247.07 252.969 247.422 252.969 247.902C252.969 248.174 252.917 248.426 252.813 248.658C252.717 248.89 252.565 249.09 252.357 249.258C252.149 249.426 251.881 249.558 251.553 249.654C251.225 249.742 250.829 249.786 250.365 249.786H247.593V243.354H250.353C250.809 243.354 251.217 243.406 251.577 243.51C251.945 243.606 252.233 243.774 252.441 244.014C252.657 244.246 252.765 244.566 252.765 244.974ZM251.877 247.902C251.877 247.534 251.737 247.27 251.457 247.11C251.177 246.95 250.765 246.87 250.221 246.87H248.649V248.934H250.245C250.773 248.934 251.177 248.858 251.457 248.706C251.737 248.546 251.877 248.278 251.877 247.902ZM251.697 245.106C251.697 244.802 251.585 244.582 251.361 244.446C251.145 244.302 250.789 244.23 250.293 244.23H248.649V245.994H250.101C250.621 245.994 251.017 245.922 251.289 245.778C251.561 245.634 251.697 245.41 251.697 245.106ZM256.829 243.234C257.381 243.234 257.853 243.354 258.245 243.594C258.645 243.834 258.949 244.174 259.157 244.614C259.373 245.046 259.481 245.554 259.481 246.138V246.774H255.077C255.093 247.502 255.277 248.058 255.629 248.442C255.989 248.818 256.489 249.006 257.129 249.006C257.537 249.006 257.897 248.97 258.209 248.898C258.529 248.818 258.857 248.706 259.193 248.562V249.486C258.865 249.63 258.541 249.734 258.221 249.798C257.901 249.87 257.521 249.906 257.081 249.906C256.473 249.906 255.933 249.782 255.461 249.534C254.997 249.286 254.633 248.918 254.369 248.43C254.113 247.934 253.985 247.33 253.985 246.618C253.985 245.914 254.101 245.31 254.333 244.806C254.573 244.302 254.905 243.914 255.329 243.642C255.761 243.37 256.261 243.234 256.829 243.234ZM256.817 244.098C256.313 244.098 255.913 244.262 255.617 244.59C255.329 244.91 255.157 245.358 255.101 245.934H258.377C258.377 245.566 258.321 245.246 258.209 244.974C258.097 244.702 257.925 244.49 257.693 244.338C257.469 244.178 257.177 244.098 256.817 244.098ZM265.396 244.242H263.296V249.786H262.252V244.242H260.176V243.354H265.396V244.242ZM271.975 246.558C271.975 247.094 271.903 247.57 271.759 247.986C271.623 248.394 271.423 248.742 271.159 249.03C270.903 249.318 270.587 249.538 270.211 249.69C269.843 249.834 269.431 249.906 268.975 249.906C268.551 249.906 268.159 249.834 267.799 249.69C267.439 249.538 267.127 249.318 266.863 249.03C266.599 248.742 266.391 248.394 266.239 247.986C266.095 247.57 266.023 247.094 266.023 246.558C266.023 245.846 266.143 245.246 266.383 244.758C266.623 244.262 266.967 243.886 267.415 243.63C267.863 243.366 268.395 243.234 269.011 243.234C269.595 243.234 270.107 243.366 270.547 243.63C270.995 243.886 271.343 244.262 271.591 244.758C271.847 245.246 271.975 245.846 271.975 246.558ZM267.115 246.558C267.115 247.062 267.179 247.502 267.307 247.878C267.443 248.246 267.651 248.53 267.931 248.73C268.211 248.93 268.567 249.03 268.999 249.03C269.431 249.03 269.787 248.93 270.067 248.73C270.347 248.53 270.551 248.246 270.679 247.878C270.815 247.502 270.883 247.062 270.883 246.558C270.883 246.046 270.815 245.61 270.679 245.25C270.543 244.89 270.335 244.614 270.055 244.422C269.783 244.222 269.427 244.122 268.987 244.122C268.331 244.122 267.855 244.338 267.559 244.77C267.263 245.202 267.115 245.798 267.115 246.558ZM278.659 244.974C278.659 245.374 278.539 245.686 278.299 245.91C278.059 246.134 277.751 246.286 277.375 246.366V246.414C277.775 246.47 278.123 246.614 278.419 246.846C278.715 247.07 278.863 247.422 278.863 247.902C278.863 248.174 278.811 248.426 278.707 248.658C278.611 248.89 278.459 249.09 278.251 249.258C278.043 249.426 277.775 249.558 277.447 249.654C277.119 249.742 276.723 249.786 276.259 249.786H273.487V243.354H276.247C276.703 243.354 277.111 243.406 277.471 243.51C277.839 243.606 278.127 243.774 278.335 244.014C278.551 244.246 278.659 244.566 278.659 244.974ZM277.771 247.902C277.771 247.534 277.631 247.27 277.351 247.11C277.071 246.95 276.659 246.87 276.115 246.87H274.543V248.934H276.139C276.667 248.934 277.071 248.858 277.351 248.706C277.631 248.546 277.771 248.278 277.771 247.902ZM277.591 245.106C277.591 244.802 277.479 244.582 277.255 244.446C277.039 244.302 276.683 244.23 276.187 244.23H274.543V245.994H275.995C276.515 245.994 276.911 245.922 277.183 245.778C277.455 245.634 277.591 245.41 277.591 245.106Z" fill="#636363" fill-opacity="0.58"/>
<circle cx="88.7221" cy="268.572" r="6.28605" fill="#B40000"/>
<path d="M110.024 272.572H108.944V268.576H104.552V272.572H103.472V264.004H104.552V267.628H108.944V264.004H110.024V272.572ZM114.544 266.02C115.096 266.02 115.568 266.14 115.96 266.38C116.36 266.62 116.664 266.96 116.872 267.4C117.088 267.832 117.196 268.34 117.196 268.924V269.56H112.792C112.808 270.288 112.992 270.844 113.344 271.228C113.704 271.604 114.204 271.792 114.844 271.792C115.252 271.792 115.612 271.756 115.924 271.684C116.244 271.604 116.572 271.492 116.908 271.348V272.272C116.58 272.416 116.256 272.52 115.936 272.584C115.616 272.656 115.236 272.692 114.796 272.692C114.188 272.692 113.648 272.568 113.176 272.32C112.712 272.072 112.348 271.704 112.084 271.216C111.828 270.72 111.7 270.116 111.7 269.404C111.7 268.7 111.816 268.096 112.048 267.592C112.288 267.088 112.62 266.7 113.044 266.428C113.476 266.156 113.976 266.02 114.544 266.02ZM114.532 266.884C114.028 266.884 113.628 267.048 113.332 267.376C113.044 267.696 112.872 268.144 112.816 268.72H116.092C116.092 268.352 116.036 268.032 115.924 267.76C115.812 267.488 115.64 267.276 115.408 267.124C115.184 266.964 114.892 266.884 114.532 266.884ZM124.108 266.14V272.572H123.052V267.04H119.728V272.572H118.672V266.14H124.108ZM129.058 266.02C129.85 266.02 130.486 266.296 130.966 266.848C131.454 267.4 131.698 268.232 131.698 269.344C131.698 270.072 131.586 270.688 131.362 271.192C131.146 271.688 130.838 272.064 130.438 272.32C130.046 272.568 129.582 272.692 129.046 272.692C128.718 272.692 128.426 272.648 128.17 272.56C127.914 272.472 127.694 272.36 127.51 272.224C127.334 272.08 127.182 271.924 127.054 271.756H126.982C126.998 271.892 127.014 272.064 127.03 272.272C127.046 272.48 127.054 272.66 127.054 272.812V275.452H125.998V266.14H126.862L127.006 267.016H127.054C127.182 266.832 127.334 266.664 127.51 266.512C127.694 266.36 127.91 266.24 128.158 266.152C128.414 266.064 128.714 266.02 129.058 266.02ZM128.866 266.908C128.434 266.908 128.086 266.992 127.822 267.16C127.558 267.32 127.366 267.564 127.246 267.892C127.126 268.22 127.062 268.636 127.054 269.14V269.344C127.054 269.872 127.11 270.32 127.222 270.688C127.334 271.056 127.522 271.336 127.786 271.528C128.058 271.72 128.426 271.816 128.89 271.816C129.282 271.816 129.602 271.708 129.85 271.492C130.106 271.276 130.294 270.984 130.414 270.616C130.542 270.24 130.606 269.812 130.606 269.332C130.606 268.596 130.462 268.008 130.174 267.568C129.894 267.128 129.458 266.908 128.866 266.908ZM135.654 266.032C136.438 266.032 137.018 266.204 137.394 266.548C137.77 266.892 137.958 267.44 137.958 268.192V272.572H137.19L136.986 271.66H136.938C136.754 271.892 136.562 272.088 136.362 272.248C136.17 272.4 135.946 272.512 135.69 272.584C135.442 272.656 135.138 272.692 134.778 272.692C134.394 272.692 134.046 272.624 133.734 272.488C133.43 272.352 133.19 272.144 133.014 271.864C132.838 271.576 132.75 271.216 132.75 270.784C132.75 270.144 133.002 269.652 133.506 269.308C134.01 268.956 134.786 268.764 135.834 268.732L136.926 268.696V268.312C136.926 267.776 136.81 267.404 136.578 267.196C136.346 266.988 136.018 266.884 135.594 266.884C135.258 266.884 134.938 266.936 134.634 267.04C134.33 267.136 134.046 267.248 133.782 267.376L133.458 266.584C133.738 266.432 134.07 266.304 134.454 266.2C134.838 266.088 135.238 266.032 135.654 266.032ZM135.966 269.464C135.166 269.496 134.61 269.624 134.298 269.848C133.994 270.072 133.842 270.388 133.842 270.796C133.842 271.156 133.95 271.42 134.166 271.588C134.39 271.756 134.674 271.84 135.018 271.84C135.562 271.84 136.014 271.692 136.374 271.396C136.734 271.092 136.914 270.628 136.914 270.004V269.428L135.966 269.464ZM144.955 267.76C144.955 268.16 144.835 268.472 144.595 268.696C144.355 268.92 144.047 269.072 143.671 269.152V269.2C144.071 269.256 144.419 269.4 144.715 269.632C145.011 269.856 145.159 270.208 145.159 270.688C145.159 270.96 145.107 271.212 145.003 271.444C144.907 271.676 144.755 271.876 144.547 272.044C144.339 272.212 144.071 272.344 143.743 272.44C143.415 272.528 143.019 272.572 142.555 272.572H139.783V266.14H142.543C142.999 266.14 143.407 266.192 143.767 266.296C144.135 266.392 144.423 266.56 144.631 266.8C144.847 267.032 144.955 267.352 144.955 267.76ZM144.067 270.688C144.067 270.32 143.927 270.056 143.647 269.896C143.367 269.736 142.955 269.656 142.411 269.656H140.839V271.72H142.435C142.963 271.72 143.367 271.644 143.647 271.492C143.927 271.332 144.067 271.064 144.067 270.688ZM143.887 267.892C143.887 267.588 143.775 267.368 143.551 267.232C143.335 267.088 142.979 267.016 142.483 267.016H140.839V268.78H142.291C142.811 268.78 143.207 268.708 143.479 268.564C143.751 268.42 143.887 268.196 143.887 267.892ZM147.531 270.064C147.531 270.136 147.527 270.24 147.519 270.376C147.519 270.504 147.515 270.644 147.507 270.796C147.499 270.94 147.491 271.08 147.483 271.216C147.475 271.344 147.467 271.448 147.459 271.528L150.903 266.14H152.199V272.572H151.215V268.78C151.215 268.652 151.215 268.484 151.215 268.276C151.223 268.068 151.231 267.864 151.239 267.664C151.247 267.456 151.255 267.3 151.263 267.196L147.843 272.572H146.535V266.14H147.531V270.064ZM158.979 272.572H157.911V267.016H156.015C155.935 268.032 155.835 268.9 155.715 269.62C155.595 270.332 155.443 270.912 155.259 271.36C155.075 271.808 154.855 272.136 154.599 272.344C154.343 272.552 154.043 272.656 153.699 272.656C153.595 272.656 153.491 272.648 153.387 272.632C153.291 272.624 153.211 272.604 153.147 272.572V271.78C153.195 271.796 153.247 271.808 153.303 271.816C153.359 271.824 153.415 271.828 153.471 271.828C153.647 271.828 153.807 271.756 153.951 271.612C154.095 271.468 154.223 271.248 154.335 270.952C154.455 270.656 154.563 270.284 154.659 269.836C154.755 269.38 154.839 268.844 154.911 268.228C154.983 267.612 155.047 266.916 155.103 266.14H158.979V272.572ZM163.823 268.78C164.383 268.78 164.847 268.848 165.215 268.984C165.583 269.12 165.859 269.324 166.043 269.596C166.235 269.86 166.331 270.196 166.331 270.604C166.331 271.004 166.239 271.352 166.055 271.648C165.879 271.944 165.603 272.172 165.227 272.332C164.851 272.492 164.367 272.572 163.775 272.572H160.859V266.14H161.915V268.78H163.823ZM165.275 270.664C165.275 270.272 165.135 270.008 164.855 269.872C164.583 269.728 164.199 269.656 163.703 269.656H161.915V271.72H163.727C164.175 271.72 164.543 271.64 164.831 271.48C165.127 271.32 165.275 271.048 165.275 270.664ZM168.877 266.14V268.816H172.369V266.14H173.425V272.572H172.369V269.704H168.877V272.572H167.821V266.14H168.877ZM175.3 272.572V266.14H176.356V268.78H178.024C178.584 268.78 179.044 268.848 179.404 268.984C179.764 269.12 180.032 269.324 180.208 269.596C180.384 269.86 180.472 270.196 180.472 270.604C180.472 271.004 180.384 271.352 180.208 271.648C180.04 271.944 179.772 272.172 179.404 272.332C179.044 272.492 178.568 272.572 177.976 272.572H175.3ZM177.88 271.72C178.336 271.72 178.708 271.644 178.996 271.492C179.284 271.332 179.428 271.056 179.428 270.664C179.428 270.272 179.296 270.008 179.032 269.872C178.768 269.728 178.388 269.656 177.892 269.656H176.356V271.72H177.88ZM181.54 272.572V266.14H182.596V272.572H181.54ZM186.001 269.284L183.781 266.14H184.981L186.637 268.564L188.281 266.14H189.469L187.249 269.284L189.589 272.572H188.389L186.637 270.004L184.861 272.572H183.673L186.001 269.284ZM199.272 269.344C199.272 269.88 199.2 270.356 199.056 270.772C198.92 271.18 198.72 271.528 198.456 271.816C198.2 272.104 197.884 272.324 197.508 272.476C197.14 272.62 196.728 272.692 196.272 272.692C195.848 272.692 195.456 272.62 195.096 272.476C194.736 272.324 194.424 272.104 194.16 271.816C193.896 271.528 193.688 271.18 193.536 270.772C193.392 270.356 193.32 269.88 193.32 269.344C193.32 268.632 193.44 268.032 193.68 267.544C193.92 267.048 194.264 266.672 194.712 266.416C195.16 266.152 195.692 266.02 196.308 266.02C196.892 266.02 197.404 266.152 197.844 266.416C198.292 266.672 198.64 267.048 198.888 267.544C199.144 268.032 199.272 268.632 199.272 269.344ZM194.412 269.344C194.412 269.848 194.476 270.288 194.604 270.664C194.74 271.032 194.948 271.316 195.228 271.516C195.508 271.716 195.864 271.816 196.296 271.816C196.728 271.816 197.084 271.716 197.364 271.516C197.644 271.316 197.848 271.032 197.976 270.664C198.112 270.288 198.18 269.848 198.18 269.344C198.18 268.832 198.112 268.396 197.976 268.036C197.84 267.676 197.632 267.4 197.352 267.208C197.08 267.008 196.724 266.908 196.284 266.908C195.628 266.908 195.152 267.124 194.856 267.556C194.56 267.988 194.412 268.584 194.412 269.344ZM205.106 267.028H203.006V272.572H201.962V267.028H199.886V266.14H205.106V267.028ZM211.383 267.76C211.383 268.16 211.263 268.472 211.023 268.696C210.783 268.92 210.475 269.072 210.099 269.152V269.2C210.499 269.256 210.847 269.4 211.143 269.632C211.439 269.856 211.587 270.208 211.587 270.688C211.587 270.96 211.535 271.212 211.431 271.444C211.335 271.676 211.183 271.876 210.975 272.044C210.767 272.212 210.499 272.344 210.171 272.44C209.843 272.528 209.447 272.572 208.983 272.572H206.211V266.14H208.971C209.427 266.14 209.835 266.192 210.195 266.296C210.563 266.392 210.851 266.56 211.059 266.8C211.275 267.032 211.383 267.352 211.383 267.76ZM210.495 270.688C210.495 270.32 210.355 270.056 210.075 269.896C209.795 269.736 209.383 269.656 208.839 269.656H207.267V271.72H208.863C209.391 271.72 209.795 271.644 210.075 271.492C210.355 271.332 210.495 271.064 210.495 270.688ZM210.315 267.892C210.315 267.588 210.203 267.368 209.979 267.232C209.763 267.088 209.407 267.016 208.911 267.016H207.267V268.78H208.719C209.239 268.78 209.635 268.708 209.907 268.564C210.179 268.42 210.315 268.196 210.315 267.892ZM215.447 266.02C215.999 266.02 216.471 266.14 216.863 266.38C217.263 266.62 217.567 266.96 217.775 267.4C217.991 267.832 218.099 268.34 218.099 268.924V269.56H213.695C213.711 270.288 213.895 270.844 214.247 271.228C214.607 271.604 215.107 271.792 215.747 271.792C216.155 271.792 216.515 271.756 216.827 271.684C217.147 271.604 217.475 271.492 217.811 271.348V272.272C217.483 272.416 217.159 272.52 216.839 272.584C216.519 272.656 216.139 272.692 215.699 272.692C215.091 272.692 214.551 272.568 214.079 272.32C213.615 272.072 213.251 271.704 212.987 271.216C212.731 270.72 212.603 270.116 212.603 269.404C212.603 268.7 212.719 268.096 212.951 267.592C213.191 267.088 213.523 266.7 213.947 266.428C214.379 266.156 214.879 266.02 215.447 266.02ZM215.435 266.884C214.931 266.884 214.531 267.048 214.235 267.376C213.947 267.696 213.775 268.144 213.719 268.72H216.995C216.995 268.352 216.939 268.032 216.827 267.76C216.715 267.488 216.543 267.276 216.311 267.124C216.087 266.964 215.795 266.884 215.435 266.884ZM224.014 267.028H221.914V272.572H220.87V267.028H218.794V266.14H224.014V267.028ZM230.594 269.344C230.594 269.88 230.522 270.356 230.378 270.772C230.242 271.18 230.042 271.528 229.778 271.816C229.522 272.104 229.206 272.324 228.83 272.476C228.462 272.62 228.05 272.692 227.594 272.692C227.17 272.692 226.778 272.62 226.418 272.476C226.058 272.324 225.746 272.104 225.482 271.816C225.218 271.528 225.01 271.18 224.858 270.772C224.714 270.356 224.642 269.88 224.642 269.344C224.642 268.632 224.762 268.032 225.002 267.544C225.242 267.048 225.586 266.672 226.034 266.416C226.482 266.152 227.014 266.02 227.63 266.02C228.214 266.02 228.726 266.152 229.166 266.416C229.614 266.672 229.962 267.048 230.21 267.544C230.466 268.032 230.594 268.632 230.594 269.344ZM225.734 269.344C225.734 269.848 225.798 270.288 225.926 270.664C226.062 271.032 226.27 271.316 226.55 271.516C226.83 271.716 227.186 271.816 227.618 271.816C228.05 271.816 228.406 271.716 228.686 271.516C228.966 271.316 229.17 271.032 229.298 270.664C229.434 270.288 229.502 269.848 229.502 269.344C229.502 268.832 229.434 268.396 229.298 268.036C229.162 267.676 228.954 267.4 228.674 267.208C228.402 267.008 228.046 266.908 227.606 266.908C226.95 266.908 226.474 267.124 226.178 267.556C225.882 267.988 225.734 268.584 225.734 269.344ZM237.277 267.76C237.277 268.16 237.157 268.472 236.917 268.696C236.677 268.92 236.369 269.072 235.993 269.152V269.2C236.393 269.256 236.741 269.4 237.037 269.632C237.333 269.856 237.481 270.208 237.481 270.688C237.481 270.96 237.429 271.212 237.325 271.444C237.229 271.676 237.077 271.876 236.869 272.044C236.661 272.212 236.393 272.344 236.065 272.44C235.737 272.528 235.341 272.572 234.877 272.572H232.105V266.14H234.865C235.321 266.14 235.729 266.192 236.089 266.296C236.457 266.392 236.745 266.56 236.953 266.8C237.169 267.032 237.277 267.352 237.277 267.76ZM236.389 270.688C236.389 270.32 236.249 270.056 235.969 269.896C235.689 269.736 235.277 269.656 234.733 269.656H233.161V271.72H234.757C235.285 271.72 235.689 271.644 235.969 271.492C236.249 271.332 236.389 271.064 236.389 270.688ZM236.209 267.892C236.209 267.588 236.097 267.368 235.873 267.232C235.657 267.088 235.301 267.016 234.805 267.016H233.161V268.78H234.613C235.133 268.78 235.529 268.708 235.801 268.564C236.073 268.42 236.209 268.196 236.209 267.892Z" fill="#636363" fill-opacity="0.58"/>
<defs>
<filter id="filter0_d_943_1112" x="162.858" y="108.647" width="15.6929" height="15.6921" filterUnits="userSpaceOnUse" color-interpolation-filters="sRGB">
<feFlood flood-opacity="0" result="BackgroundImageFix"/>
<feColorMatrix in="SourceAlpha" type="matrix" values="0 0 0 0 0 0 0 0 0 0 0 0 0 0 0 0 0 0 127 0" result="hardAlpha"/>
<feOffset dy="2.18378"/>
<feGaussianBlur stdDeviation="2.18378"/>
<feColorMatrix type="matrix" values="0 0 0 0 0.321569 0 0 0 0 0.262745 0 0 0 0 0.666667 0 0 0 0.32 0"/>
<feBlend mode="normal" in2="BackgroundImageFix" result="effect1_dropShadow_943_1112"/>
<feBlend mode="normal" in="SourceGraphic" in2="effect1_dropShadow_943_1112" result="shape"/>
</filter>
<linearGradient id="paint0_linear_943_1112" x1="149.203" y1="9.06787" x2="149.203" y2="196" gradientUnits="userSpaceOnUse">
<stop stop-color="white"/>
<stop offset="1" stop-color="#0052CC"/>
</linearGradient>
<linearGradient id="paint1_linear_943_1112" x1="132.928" y1="90" x2="209.366" y2="37.615" gradientUnits="userSpaceOnUse">
<stop stop-color="#C8C8C8"/>
<stop offset="1" stop-color="#C8C8C8" stop-opacity="0"/>
</linearGradient>
</defs>
</svg>
