<svg width="20" height="21" viewBox="0 0 20 21" fill="none" xmlns="http://www.w3.org/2000/svg">
<path d="M9.95608 12.7369C11.3307 12.7369 12.4451 11.6225 12.4451 10.2478C12.4451 8.87317 11.3307 7.75879 9.95608 7.75879C8.58142 7.75879 7.46704 8.87317 7.46704 10.2478C7.46704 11.6225 8.58142 12.7369 9.95608 12.7369Z" stroke="#78828E" stroke-width="1.49342" stroke-miterlimit="10" stroke-linecap="round" stroke-linejoin="round"/>
<path d="M1.6593 10.9779V9.51764C1.6593 8.65477 2.36453 7.94125 3.23569 7.94125C4.73741 7.94125 5.35137 6.87926 4.59636 5.57667C4.16493 4.82996 4.42213 3.85923 5.17714 3.4278L6.61248 2.60642C7.26793 2.21647 8.1142 2.44878 8.50415 3.10423L8.59541 3.26186C9.34212 4.56446 10.57 4.56446 11.3251 3.26186L11.4163 3.10423C11.8063 2.44878 12.6525 2.21647 13.308 2.60642L14.7433 3.4278C15.4983 3.85923 15.7555 4.82996 15.3241 5.57667C14.5691 6.87926 15.1831 7.94125 16.6848 7.94125C17.5476 7.94125 18.2612 8.64648 18.2612 9.51764V10.9779C18.2612 11.8407 17.5559 12.5543 16.6848 12.5543C15.1831 12.5543 14.5691 13.6162 15.3241 14.9188C15.7555 15.6739 15.4983 16.6363 14.7433 17.0677L13.308 17.8891C12.6525 18.279 11.8063 18.0467 11.4163 17.3913L11.3251 17.2336C10.5783 15.9311 9.35042 15.9311 8.59541 17.2336L8.50415 17.3913C8.1142 18.0467 7.26793 18.279 6.61248 17.8891L5.17714 17.0677C4.42213 16.6363 4.16493 15.6656 4.59636 14.9188C5.35137 13.6162 4.73741 12.5543 3.23569 12.5543C2.36453 12.5543 1.6593 11.8407 1.6593 10.9779Z" stroke="#78828E" stroke-width="1.49342" stroke-miterlimit="10" stroke-linecap="round" stroke-linejoin="round"/>
</svg>
