<svg width="20" height="20" viewBox="0 0 20 20" fill="none" xmlns="http://www.w3.org/2000/svg">
<path d="M12.848 16.4767C12.8473 15.983 12.9796 15.4983 13.2305 15.0731L6.92162 11.3987C6.67757 11.8179 6.32804 12.1655 5.90753 12.4072C5.48702 12.6489 5.01047 12.7761 4.52546 12.776C3.78947 12.7757 3.08334 12.4832 2.56292 11.9628C2.04249 11.4424 1.75032 10.7365 1.75003 10.0005C1.75032 9.26465 2.043 8.55905 2.56345 8.0388C3.08391 7.51855 3.78957 7.22618 4.52546 7.22618C5.01063 7.22596 5.48737 7.35303 5.90807 7.5947C6.32876 7.83637 6.67847 8.18419 6.92269 8.60341L13.2262 4.92364C12.9781 4.49949 12.8474 4.0168 12.848 3.52543C12.8481 3.16082 12.9203 2.79973 13.0599 2.46292C13.1996 2.12612 13.404 1.82007 13.6619 1.56235C13.9199 1.30463 14.2261 1.10029 14.5631 0.960888C14.9 0.82149 15.261 0.749856 15.6256 0.75C15.99 0.75 16.3509 0.821667 16.6875 0.961157C17.0242 1.10065 17.3299 1.30515 17.5876 1.56289C17.8452 1.82062 18.0497 2.12674 18.189 2.46346C18.3284 2.80018 18.4001 3.16101 18.3999 3.52543C18.4001 3.8898 18.3284 4.25047 18.189 4.58713C18.0497 4.92379 17.8452 5.22979 17.5876 5.48744C17.3299 5.74508 17.0242 5.94926 16.6875 6.08863C16.3509 6.228 15.9899 6.29966 15.6256 6.29952C15.1402 6.29979 14.6635 6.17299 14.2424 5.93154C13.8214 5.69009 13.4711 5.34268 13.2262 4.92364L6.92269 8.60341C7.17001 9.02742 7.30038 9.50967 7.29982 10.0005C7.30063 10.4916 7.16986 10.974 6.92162 11.3977L13.2305 15.0721C13.4749 14.6538 13.8248 14.3069 14.2451 14.066C14.6654 13.8252 15.1412 13.6986 15.6256 13.6991C15.9901 13.6991 16.3513 13.771 16.6881 13.9106C17.0248 14.0501 17.3305 14.2547 17.5881 14.5126C17.8458 14.7704 18.0503 15.0766 18.1896 15.4134C18.3289 15.7503 18.4002 16.1111 18.3999 16.4756C18.3999 17.2114 18.1079 17.9171 17.5876 18.4374C17.0673 18.9577 16.3614 19.25 15.6256 19.25C14.8896 19.2503 14.1839 18.9582 13.663 18.4382C13.1422 17.9182 12.8489 17.2127 12.848 16.4767V16.4767Z" stroke="#696969" stroke-linecap="round"/>
</svg>
