<svg width="20" height="20" viewBox="0 0 20 20" fill="none" xmlns="http://www.w3.org/2000/svg">
<path d="M8.32502 18.9583C8.15836 18.9583 8.02502 18.925 7.92502 18.8833C7.59169 18.7583 7.02502 18.35 7.02502 17.0583V11.6833H5.07502C3.95836 11.6833 3.55836 11.1583 3.41669 10.85C3.27502 10.5333 3.15002 9.89167 3.88336 9.05L10.1917 1.88334C11.0417 0.916672 11.7334 0.983339 12.0667 1.10834C12.4 1.23334 12.9667 1.64167 12.9667 2.93334V8.30834H14.9167C16.0334 8.30834 16.4334 8.83334 16.575 9.14167C16.7167 9.45834 16.8417 10.1 16.1084 10.9417L9.80002 18.1083C9.20836 18.7833 8.69169 18.9583 8.32502 18.9583ZM11.6084 2.28334C11.5834 2.31667 11.4084 2.40001 11.1334 2.71667L4.82502 9.88334C4.59169 10.15 4.55836 10.3167 4.55836 10.35C4.57502 10.3583 4.72502 10.4417 5.07502 10.4417H7.65002C7.99169 10.4417 8.27502 10.725 8.27502 11.0667V17.0667C8.27502 17.4833 8.35002 17.6667 8.38336 17.7167C8.40836 17.6833 8.58336 17.6 8.85836 17.2833L15.1667 10.1167C15.4 9.85001 15.4334 9.68334 15.4334 9.65001C15.4167 9.64167 15.2667 9.55834 14.9167 9.55834H12.3417C12 9.55834 11.7167 9.27501 11.7167 8.93334V2.93334C11.725 2.51667 11.6417 2.34167 11.6084 2.28334Z" fill="#78828E"/>
</svg>
