<svg width="24" height="25" viewBox="0 0 24 25" fill="none" xmlns="http://www.w3.org/2000/svg">
<path d="M8.67 14.5H4C2.9 14.5 2 15.4 2 16.5V22.5H8.67V14.5Z" stroke="#78828E" stroke-miterlimit="10" stroke-linecap="round" stroke-linejoin="round"/>
<path d="M13.33 10.5H10.66C9.55997 10.5 8.65997 11.4 8.65997 12.5V22.5H15.33V12.5C15.33 11.4 14.44 10.5 13.33 10.5Z" stroke="#78828E" stroke-miterlimit="10" stroke-linecap="round" stroke-linejoin="round"/>
<path d="M20 17.5H15.33V22.5H22V19.5C22 18.4 21.1 17.5 20 17.5Z" stroke="#78828E" stroke-miterlimit="10" stroke-linecap="round" stroke-linejoin="round"/>
<path d="M12.52 2.57001L13.05 3.63C13.12 3.78 13.31 3.92 13.47 3.94L14.43 4.10001C15.04 4.20001 15.19 4.64999 14.75 5.07999L14 5.82999C13.87 5.95999 13.8 6.19999 13.84 6.36999L14.05 7.29001C14.22 8.02001 13.83 8.30001 13.19 7.92001L12.29 7.39001C12.13 7.29001 11.86 7.29001 11.7 7.39001L10.8 7.92001C10.16 8.30001 9.76998 8.02001 9.93998 7.29001L10.15 6.36999C10.19 6.19999 10.12 5.94999 9.98999 5.82999L9.24999 5.09C8.80999 4.65 8.94999 4.20998 9.56999 4.10998L10.53 3.95001C10.69 3.92001 10.88 3.78001 10.95 3.64001L11.48 2.57999C11.77 1.99999 12.23 2.00001 12.52 2.57001Z" stroke="#78828E" stroke-linecap="round" stroke-linejoin="round"/>
</svg>
