<svg width="23" height="27" viewBox="0 0 23 27" fill="none" xmlns="http://www.w3.org/2000/svg">
<g id="Group">
<path id="Vector" d="M12.4325 6.25049C12.6959 7.80637 12.9352 9.33832 13.1985 10.8942C14.6108 11.0857 16.047 11.2533 17.4593 11.4448C18.321 11.5884 18.7997 12.4022 18.6082 13.0006C18.4885 13.4315 18.0098 13.7666 17.4593 13.7905C15.7597 13.5991 14.0602 13.4315 12.3607 13.24C12.1692 13.2161 11.7863 13.1203 11.4272 12.8331C10.8767 12.4022 10.733 11.8038 10.7091 11.6362C10.6134 10.607 10.5415 9.60163 10.4458 8.57235" stroke="#0F0F0F" stroke-miterlimit="10" stroke-linecap="round"/>
<path id="Vector_2" d="M7.789 13.24C8.14805 13.4076 10.829 14.7959 12.2412 15.7773C12.4327 15.9209 12.7918 16.1603 12.9593 16.6151C13.1987 17.2135 12.9833 17.8359 12.8396 18.1231C12.0258 20.3732 11.188 22.6232 10.3742 24.8733C9.9433 25.6871 8.91402 25.9744 8.19592 25.5196C7.54963 25.1366 7.28633 24.2749 7.62144 23.5328C8.21986 21.9291 8.79434 20.3014 9.39276 18.6976C9.41669 18.5061 9.44063 18.2189 9.29701 17.9556C9.10552 17.5965 8.74647 17.429 8.60285 17.3811C7.52569 16.9263 6.11343 16.1364 5.94587 16.0167C5.70651 15.897 3.71976 14.748 3.64795 13.0964C3.64795 12.7613 3.71976 12.3544 3.88732 11.4927C4.05487 10.6788 4.22243 10.0086 4.34211 9.55378C4.60542 8.62025 4.84478 7.85428 5.03628 7.30373C5.29958 6.5617 5.41927 6.15477 5.65863 5.72391C5.92194 5.1973 6.28099 4.52708 6.92728 3.97653C7.83687 3.18662 8.91402 3.01906 9.51244 2.97119" stroke="#0F0F0F" stroke-miterlimit="10" stroke-linecap="round"/>
<path id="Vector_3" d="M10.4457 8.57239C10.4936 9.05112 10.5176 9.50592 10.5654 9.98465C10.4457 10.248 10.3261 10.5352 10.2064 10.8224C9.89521 11.5645 9.67977 12.2586 9.48828 12.9289" stroke="#0F0F0F" stroke-miterlimit="10" stroke-linecap="round"/>
<path id="Vector_4" d="M6.5921 18.123C6.04156 19.5832 5.51495 21.0194 4.96441 22.4795C4.55748 23.1976 4.82079 24.1072 5.49102 24.5141C6.13731 24.8971 6.99903 24.7296 7.45383 24.1072" stroke="#0F0F0F" stroke-miterlimit="10" stroke-linecap="round"/>
<path id="Vector_5" d="M12.3128 6.13079C13.8198 6.13079 15.0416 4.90907 15.0416 3.402C15.0416 1.89494 13.8198 0.673218 12.3128 0.673218C10.8057 0.673218 9.58398 1.89494 9.58398 3.402C9.58398 4.90907 10.8057 6.13079 12.3128 6.13079Z" fill="white" stroke="#0F0F0F" stroke-miterlimit="10" stroke-linecap="round"/>
<g id="Group_2">
<path id="Vector_6" d="M17.0762 14.8436C17.0762 14.4846 17.0762 14.1255 17.0762 13.7426" stroke="#0F0F0F" stroke-miterlimit="10" stroke-linecap="round"/>
<path id="Vector_7" d="M18.6079 12.4261C18.6558 12.4261 19.2303 12.3303 19.6611 12.7612C20.0441 13.1442 19.9962 13.6468 19.9962 13.7186C19.9962 17.6203 19.9962 21.5459 19.9962 25.4476" stroke="#0F0F0F" stroke-miterlimit="10" stroke-linecap="round"/>
</g>
<g id="Group_3">
<path id="Vector_8" d="M2.48408 7.04734C2.75894 7.07388 3.00328 6.87258 3.02983 6.59771C3.05637 6.32285 2.85507 6.07851 2.5802 6.05197C2.30534 6.02542 2.061 6.22673 2.03446 6.50159C2.00791 6.77645 2.20922 7.02079 2.48408 7.04734Z" fill="#0F0F0F"/>
<path id="Vector_9" d="M1.45381 8.95713C1.72867 8.98367 1.97301 8.78237 1.99955 8.5075C2.0261 8.23264 1.82479 7.9883 1.54993 7.96176C1.27507 7.93521 1.03073 8.13652 1.00418 8.41138C0.97764 8.68624 1.17894 8.93058 1.45381 8.95713Z" fill="#0F0F0F"/>
<path id="Vector_10" d="M1.26191 10.9479C1.53678 10.9744 1.78112 10.7731 1.80766 10.4982C1.8342 10.2234 1.6329 9.97902 1.35804 9.95248C1.08317 9.92594 0.838834 10.1272 0.81229 10.4021C0.785746 10.677 0.987049 10.9213 1.26191 10.9479Z" fill="#0F0F0F"/>
</g>
<g id="Group_4">
<path id="Vector_11" d="M3.67285 17.9998C3.94899 17.9998 4.17285 17.7759 4.17285 17.4998C4.17285 17.2236 3.94899 16.9998 3.67285 16.9998C3.39671 16.9998 3.17285 17.2236 3.17285 17.4998C3.17285 17.7759 3.39671 17.9998 3.67285 17.9998Z" fill="#0F0F0F"/>
<path id="Vector_12" d="M3.05029 19.9626C3.32644 19.9626 3.55029 19.7388 3.55029 19.4626C3.55029 19.1865 3.32644 18.9626 3.05029 18.9626C2.77415 18.9626 2.55029 19.1865 2.55029 19.4626C2.55029 19.7388 2.77415 19.9626 3.05029 19.9626Z" fill="#0F0F0F"/>
<path id="Vector_13" d="M2.5 22.1409C2.77614 22.1409 3 21.917 3 21.6409C3 21.3647 2.77614 21.1409 2.5 21.1409C2.22386 21.1409 2 21.3647 2 21.6409C2 21.917 2.22386 22.1409 2.5 22.1409Z" fill="#0F0F0F"/>
</g>
<g id="Group_5">
<path id="Vector_14" d="M22.1484 15.7002C22.4246 15.7002 22.6484 15.4763 22.6484 15.2002C22.6484 14.9241 22.4246 14.7002 22.1484 14.7002C21.8723 14.7002 21.6484 14.9241 21.6484 15.2002C21.6484 15.4763 21.8723 15.7002 22.1484 15.7002Z" fill="#0F0F0F"/>
<path id="Vector_15" d="M22.1484 17.8784C22.4246 17.8784 22.6484 17.6546 22.6484 17.3784C22.6484 17.1023 22.4246 16.8784 22.1484 16.8784C21.8723 16.8784 21.6484 17.1023 21.6484 17.3784C21.6484 17.6546 21.8723 17.8784 22.1484 17.8784Z" fill="#0F0F0F"/>
<path id="Vector_16" d="M22.1484 20.1045C22.4246 20.1045 22.6484 19.8806 22.6484 19.6045C22.6484 19.3283 22.4246 19.1045 22.1484 19.1045C21.8723 19.1045 21.6484 19.3283 21.6484 19.6045C21.6484 19.8806 21.8723 20.1045 22.1484 20.1045Z" fill="#0F0F0F"/>
</g>
</g>
</svg>
