<svg width="18" height="19" viewBox="0 0 18 19" fill="none" xmlns="http://www.w3.org/2000/svg">
<g id="vuesax/bold/user-square">
<g id="user-square">
<g id="Group">
<path id="Vector" d="M12.1953 0.848877H4.99326C1.86495 0.848877 0 2.71383 0 5.84214V13.0441C0 15.4591 1.10866 17.1178 3.05956 17.7452C3.62678 17.9429 4.27994 18.0374 4.99326 18.0374H12.1953C12.9086 18.0374 13.5617 17.9429 14.129 17.7452C16.0799 17.1178 17.1885 15.4591 17.1885 13.0441V5.84214C17.1885 2.71383 15.3236 0.848877 12.1953 0.848877ZM15.8994 13.0441C15.8994 14.8833 15.1775 16.0435 13.725 16.5248C12.8914 14.8833 10.9147 13.7145 8.59426 13.7145C6.27381 13.7145 4.30572 14.8747 3.46349 16.5248H3.45489C2.01965 16.0607 1.28914 14.8919 1.28914 13.0527V5.84214C1.28914 3.41856 2.56968 2.13802 4.99326 2.13802H12.1953C14.6188 2.13802 15.8994 3.41856 15.8994 5.84214V13.0441Z" fill="#3281FF"/>
<path id="Vector_2" d="M8.5942 6.00537C6.89254 6.00537 5.51746 7.38045 5.51746 9.08212C5.51746 10.7838 6.89254 12.1675 8.5942 12.1675C10.2959 12.1675 11.6709 10.7838 11.6709 9.08212C11.6709 7.38045 10.2959 6.00537 8.5942 6.00537Z" fill="#3281FF"/>
</g>
</g>
</g>
</svg>
