<svg width="37" height="36" viewBox="0 0 37 36" fill="none" xmlns="http://www.w3.org/2000/svg">
<g id="VK" clip-path="url(#clip0_242_2333)">
<path id="Vector" d="M0.943359 17.2664C0.943359 9.12692 0.943359 5.05722 3.47197 2.52861C6.00058 0 10.0703 0 18.2098 0H19.6486C27.7881 0 31.8578 0 34.3865 2.52861C36.9151 5.05722 36.9151 9.12692 36.9151 17.2664V18.7053C36.9151 26.8448 36.9151 30.9145 34.3865 33.4431C31.8578 35.9717 27.7881 35.9717 19.6486 35.9717H18.2098C10.0703 35.9717 6.00058 35.9717 3.47197 33.4431C0.943359 30.9145 0.943359 26.8448 0.943359 18.7053V17.2664Z" fill="white"/>
<path id="Vector_2" d="M20.0214 25.8996C11.6641 25.8996 6.89735 20.2284 6.69873 10.7915H10.885C11.0225 17.7179 14.1087 20.6519 16.5532 21.2568V10.7915H20.4952V16.7652C22.9092 16.5081 25.4451 13.7859 26.3007 10.7915H30.2426C29.5857 14.4816 26.8355 17.2038 24.8799 18.3229C26.8355 19.2303 29.9678 21.6046 31.1595 25.8996H26.8203C25.8883 23.0262 23.5662 20.8031 20.4952 20.5006V25.8996H20.0214Z" fill="#3281FF"/>
</g>
<defs>
<clipPath id="clip0_242_2333">
<rect width="35.9717" height="35.9717" fill="white" transform="translate(0.943359)"/>
</clipPath>
</defs>
</svg>
