<svg width="53" height="53" viewBox="0 0 53 53" fill="none" xmlns="http://www.w3.org/2000/svg">
<g clip-path="url(#clip0_137_1004)">
<path d="M0.234985 25.3272C0.234985 13.3878 0.234985 7.41816 3.94407 3.70908C7.65315 0 13.6228 0 25.5622 0H27.6728C39.6122 0 45.5818 0 49.2909 3.70908C53 7.41816 53 13.3878 53 25.3272V27.4378C53 39.3772 53 45.3468 49.2909 49.0559C45.5818 52.765 39.6122 52.765 27.6728 52.765H25.5622C13.6228 52.765 7.65315 52.765 3.94407 49.0559C0.234985 45.3468 0.234985 39.3772 0.234985 27.4378V25.3272Z" fill="#3281FF"/>
<path d="M28.2197 37.9908C15.9609 37.9908 8.96871 29.672 8.67737 15.8295H14.818C15.0197 25.9895 19.5466 30.2931 23.1324 31.1805V15.8295H28.9147V24.592C32.4557 24.2149 36.1755 20.2218 37.4305 15.8295H43.2127C42.249 21.2423 38.215 25.2353 35.3464 26.8769C38.215 28.2079 42.8095 31.6907 44.5575 37.9908H38.1926C36.8255 33.7759 33.4193 30.515 28.9147 30.0713V37.9908H28.2197Z" fill="white"/>
</g>
<defs>
<clipPath id="clip0_137_1004">
<rect width="52.765" height="52.765" fill="white" transform="translate(0.234985)"/>
</clipPath>
</defs>
</svg>
