<svg width="24" height="25" viewBox="0 0 24 25" fill="none" xmlns="http://www.w3.org/2000/svg">
<g id="weight">
<path id="Vector" d="M17 18C18.6 18 19 16.7625 19 15.25V9.75C19 8.2375 18.6 7 17 7C15.4 7 15 8.2375 15 9.75V15.25C15 16.7625 15.4 18 17 18Z" stroke="#78828E" stroke-linecap="round" stroke-linejoin="round"/>
<path id="Vector_2" d="M7 18C5.4 18 5 16.7625 5 15.25V9.75C5 8.2375 5.4 7 7 7C8.6 7 9 8.2375 9 9.75V15.25C9 16.7625 8.6 18 7 18Z" stroke="#78828E" stroke-linecap="round" stroke-linejoin="round"/>
<path id="Vector_3" d="M9 13H15" stroke="#78828E" stroke-linecap="round" stroke-linejoin="round"/>
<path id="Vector_4" d="M21 15V10" stroke="#78828E" stroke-linecap="round" stroke-linejoin="round"/>
<path id="Vector_5" d="M3 15V10" stroke="#78828E" stroke-linecap="round" stroke-linejoin="round"/>
</g>
</svg>
