<svg width="37" height="36" viewBox="0 0 37 36" fill="none" xmlns="http://www.w3.org/2000/svg">
<g id="YouTube" clip-path="url(#clip0_242_2331)">
<g id="Vector">
<path d="M15.3604 23.2297V12.7418L24.713 17.9858L15.3604 23.2297Z" fill="#3281FF"/>
<path d="M36.1845 9.57425C35.9798 8.83548 35.579 8.1619 35.0221 7.62092C34.4652 7.07994 33.7719 6.69054 33.0114 6.49169C30.2109 5.75537 18.9575 5.75537 18.9575 5.75537C18.9575 5.75537 7.70413 5.75537 4.90363 6.49169C4.14318 6.69054 3.44982 7.07994 2.89296 7.62092C2.3361 8.1619 1.93527 8.83548 1.73058 9.57425C1.20766 12.3489 0.953907 15.1651 0.972646 17.9858C0.953907 20.8064 1.20766 23.6226 1.73058 26.3973C1.93527 27.136 2.3361 27.8096 2.89296 28.3506C3.44982 28.8916 4.14318 29.281 4.90363 29.4798C7.70413 30.2161 18.9575 30.2161 18.9575 30.2161C18.9575 30.2161 30.2109 30.2161 33.0114 29.4798C33.7719 29.281 34.4652 28.8916 35.0221 28.3506C35.579 27.8096 35.9798 27.136 36.1845 26.3973C36.7074 23.6226 36.9612 20.8064 36.9424 17.9858C36.9612 15.1651 36.7074 12.3489 36.1845 9.57425ZM15.3606 23.2273V12.7442L24.6999 17.9858L15.3606 23.2273Z" fill="white"/>
</g>
</g>
<defs>
<clipPath id="clip0_242_2331">
<rect width="35.9717" height="35.9717" fill="white" transform="translate(0.97168)"/>
</clipPath>
</defs>
</svg>
